<svg width="200" height="200" viewBox="0 0 200 200" fill="none" xmlns="http://www.w3.org/2000/svg">
<rect width="200" height="200" fill="#0A0A0A"/>
<line x1="1.5" y1="55" x2="1.5" y2="200" stroke="#C8F135" stroke-width="3"/>
<rect width="200" height="55" fill="#1D1D1D"/>
<path d="M18.854 50.312C17.086 50.312 15.552 49.922 14.252 49.142C12.9693 48.3447 11.9813 47.244 11.288 45.84C10.5947 44.4187 10.248 42.772 10.248 40.9C10.248 39.028 10.5947 37.39 11.288 35.986C11.9813 34.5647 12.9693 33.464 14.252 32.684C15.552 31.8867 17.086 31.488 18.854 31.488C20.934 31.488 22.624 31.982 23.924 32.97C25.224 33.958 26.056 35.3533 26.42 37.156H24.002C23.7247 36.0293 23.1613 35.128 22.312 34.452C21.4627 33.7587 20.31 33.412 18.854 33.412C17.554 33.412 16.4273 33.7153 15.474 34.322C14.5207 34.9113 13.784 35.7693 13.264 36.896C12.744 38.0053 12.484 39.34 12.484 40.9C12.484 42.46 12.744 43.8033 13.264 44.93C13.784 46.0393 14.5207 46.8973 15.474 47.504C16.4273 48.0933 17.554 48.388 18.854 48.388C20.31 48.388 21.4627 48.0587 22.312 47.4C23.1613 46.724 23.7247 45.8313 24.002 44.722H26.42C26.056 46.4727 25.224 47.842 23.924 48.83C22.624 49.818 20.934 50.312 18.854 50.312ZM18.334 30.396L14.772 28.264V26.574L18.334 28.758L21.896 26.574V28.264L18.334 30.396ZM36.1387 50.312C34.8907 50.312 33.7554 50.0607 32.7327 49.558C31.7274 49.0553 30.9214 48.2927 30.3147 47.27C29.7081 46.23 29.4047 44.904 29.4047 43.292V31.8H31.5887V43.318C31.5887 44.4967 31.7794 45.4587 32.1607 46.204C32.5594 46.9493 33.1054 47.4953 33.7987 47.842C34.4921 48.1887 35.2894 48.362 36.1907 48.362C37.1094 48.362 37.9067 48.1887 38.5827 47.842C39.2587 47.4953 39.7874 46.9493 40.1687 46.204C40.5501 45.4587 40.7407 44.4967 40.7407 43.318V31.8H42.9247V43.292C42.9247 44.904 42.6214 46.23 42.0147 47.27C41.4081 48.2927 40.5934 49.0553 39.5707 49.558C38.5481 50.0607 37.4041 50.312 36.1387 50.312ZM54.5278 50.312C52.7598 50.312 51.2258 49.922 49.9258 49.142C48.6432 48.3447 47.6552 47.244 46.9618 45.84C46.2685 44.4187 45.9218 42.772 45.9218 40.9C45.9218 39.028 46.2685 37.39 46.9618 35.986C47.6552 34.5647 48.6432 33.464 49.9258 32.684C51.2258 31.8867 52.7598 31.488 54.5278 31.488C56.6078 31.488 58.2978 31.982 59.5978 32.97C60.8978 33.958 61.7298 35.3533 62.0938 37.156H59.6758C59.3985 36.0293 58.8352 35.128 57.9858 34.452C57.1365 33.7587 55.9838 33.412 54.5278 33.412C53.2278 33.412 52.1012 33.7153 51.1478 34.322C50.1945 34.9113 49.4578 35.7693 48.9378 36.896C48.4178 38.0053 48.1578 39.34 48.1578 40.9C48.1578 42.46 48.4178 43.8033 48.9378 44.93C49.4578 46.0393 50.1945 46.8973 51.1478 47.504C52.1012 48.0933 53.2278 48.388 54.5278 48.388C55.9838 48.388 57.1365 48.0587 57.9858 47.4C58.8352 46.724 59.3985 45.8313 59.6758 44.722H62.0938C61.7298 46.4727 60.8978 47.842 59.5978 48.83C58.2978 49.818 56.6078 50.312 54.5278 50.312ZM54.0078 30.396L50.4458 28.264V26.574L54.0078 28.758L57.5698 26.574V28.264L54.0078 30.396ZM63.6589 50L70.3669 31.8H72.6809L79.3629 50H77.0489L71.5109 34.53L65.9469 50H63.6589ZM66.7269 45.32L67.3509 43.552H75.5929L76.2169 45.32H66.7269ZM82.0945 50V31.8H84.2785L93.9765 46.386V31.8H96.1605V50H93.9765L84.2785 35.414V50H82.0945ZM104.127 50.312C103.035 50.312 102.09 50.104 101.293 49.688C100.513 49.272 99.9064 48.674 99.4731 47.894C99.0571 47.114 98.8491 46.1867 98.8491 45.112H101.059C101.059 45.7187 101.154 46.2733 101.345 46.776C101.553 47.2613 101.874 47.6513 102.307 47.946C102.758 48.2233 103.356 48.362 104.101 48.362C104.829 48.362 105.401 48.2233 105.817 47.946C106.25 47.6687 106.554 47.296 106.727 46.828C106.918 46.3427 107.013 45.7967 107.013 45.19V31.8H109.197V45.19C109.197 46.8193 108.746 48.0847 107.845 48.986C106.961 49.87 105.722 50.312 104.127 50.312Z" fill="white"/>
<path d="M10.675 18V11.7H11.431L14.788 16.749V11.7H15.544V18H14.788L11.431 12.951V18H10.675ZM16.8977 18V11.7H17.7797L20.0027 16.101L22.2347 11.7H23.1257V18H22.3697V13.05L20.2907 17.118H19.7237L17.6537 13.068V18H16.8977ZM24.06 18L26.382 11.7H27.183L29.496 18H28.695L26.778 12.645L24.852 18H24.06ZM25.122 16.38L25.338 15.768H28.191L28.407 16.38H25.122ZM30.4416 18V11.7H32.4936C32.9916 11.7 33.3996 11.784 33.7176 11.952C34.0416 12.114 34.2786 12.333 34.4286 12.609C34.5846 12.885 34.6626 13.2 34.6626 13.554C34.6626 13.896 34.5846 14.208 34.4286 14.49C34.2786 14.766 34.0446 14.988 33.7266 15.156C33.4086 15.324 32.9976 15.408 32.4936 15.408H31.1976V18H30.4416ZM31.1976 14.769H32.4846C32.9886 14.769 33.3486 14.658 33.5646 14.436C33.7806 14.214 33.8886 13.92 33.8886 13.554C33.8886 13.164 33.7806 12.864 33.5646 12.654C33.3486 12.438 32.9886 12.33 32.4846 12.33H31.1976V14.769ZM35.8873 18.045C35.7373 18.045 35.6113 17.997 35.5093 17.901C35.4133 17.799 35.3653 17.676 35.3653 17.532C35.3653 17.388 35.4133 17.268 35.5093 17.172C35.6113 17.07 35.7373 17.019 35.8873 17.019C36.0373 17.019 36.1603 17.07 36.2563 17.172C36.3523 17.268 36.4003 17.388 36.4003 17.532C36.4003 17.676 36.3523 17.799 36.2563 17.901C36.1603 17.997 36.0373 18.045 35.8873 18.045ZM35.8873 14.382C35.7373 14.382 35.6113 14.334 35.5093 14.238C35.4133 14.136 35.3653 14.013 35.3653 13.869C35.3653 13.725 35.4133 13.605 35.5093 13.509C35.6113 13.407 35.7373 13.356 35.8873 13.356C36.0373 13.356 36.1603 13.407 36.2563 13.509C36.3523 13.605 36.4003 13.725 36.4003 13.869C36.4003 14.013 36.3523 14.136 36.2563 14.238C36.1603 14.334 36.0373 14.382 35.8873 14.382ZM41.3483 18V12.321H39.4673V11.7H43.9853V12.321H42.1043V18H41.3483ZM46.0526 18.108C45.6266 18.108 45.2486 18.009 44.9186 17.811C44.5946 17.613 44.3396 17.337 44.1536 16.983C43.9676 16.623 43.8746 16.206 43.8746 15.732C43.8746 15.252 43.9646 14.835 44.1446 14.481C44.3306 14.127 44.5886 13.851 44.9186 13.653C45.2546 13.455 45.6386 13.356 46.0706 13.356C46.5146 13.356 46.8896 13.455 47.1956 13.653C47.5076 13.851 47.7446 14.112 47.9066 14.436C48.0746 14.754 48.1586 15.105 48.1586 15.489C48.1586 15.549 48.1586 15.612 48.1586 15.678C48.1586 15.744 48.1556 15.819 48.1496 15.903H44.4416V15.318H47.4206C47.4026 14.904 47.2646 14.58 47.0066 14.346C46.7546 14.112 46.4366 13.995 46.0526 13.995C45.7946 13.995 45.5546 14.055 45.3326 14.175C45.1166 14.289 44.9426 14.46 44.8106 14.688C44.6786 14.91 44.6126 15.189 44.6126 15.525V15.777C44.6126 16.149 44.6786 16.461 44.8106 16.713C44.9486 16.965 45.1256 17.154 45.3416 17.28C45.5636 17.406 45.8006 17.469 46.0526 17.469C46.3706 17.469 46.6316 17.4 46.8356 17.262C47.0456 17.118 47.1956 16.926 47.2856 16.686H48.0326C47.9606 16.956 47.8346 17.199 47.6546 17.415C47.4746 17.631 47.2496 17.802 46.9796 17.928C46.7156 18.048 46.4066 18.108 46.0526 18.108ZM49.1788 18V11.52H49.9348V14.229C50.0848 13.959 50.2948 13.746 50.5648 13.59C50.8408 13.434 51.1408 13.356 51.4648 13.356C51.8128 13.356 52.1158 13.428 52.3738 13.572C52.6318 13.71 52.8298 13.923 52.9678 14.211C53.1058 14.499 53.1748 14.862 53.1748 15.3V18H52.4278V15.381C52.4278 14.925 52.3318 14.583 52.1398 14.355C51.9478 14.121 51.6688 14.004 51.3028 14.004C51.0448 14.004 50.8108 14.067 50.6008 14.193C50.3968 14.319 50.2348 14.499 50.1148 14.733C49.9948 14.967 49.9348 15.255 49.9348 15.597V18H49.1788ZM54.3556 18V13.464H55.0396L55.0756 14.256C55.2196 13.974 55.4236 13.755 55.6876 13.599C55.9576 13.437 56.2636 13.356 56.6056 13.356C56.9596 13.356 57.2656 13.428 57.5236 13.572C57.7816 13.71 57.9826 13.923 58.1266 14.211C58.2706 14.493 58.3426 14.853 58.3426 15.291V18H57.5866V15.372C57.5866 14.916 57.4846 14.574 57.2806 14.346C57.0826 14.118 56.8006 14.004 56.4346 14.004C56.1826 14.004 55.9576 14.067 55.7596 14.193C55.5616 14.313 55.4026 14.49 55.2826 14.724C55.1686 14.952 55.1116 15.237 55.1116 15.579V18H54.3556ZM59.5956 18V13.464H60.3516V18H59.5956ZM59.9736 12.501C59.8236 12.501 59.6976 12.453 59.5956 12.357C59.4996 12.255 59.4516 12.129 59.4516 11.979C59.4516 11.829 59.4996 11.709 59.5956 11.619C59.6976 11.523 59.8236 11.475 59.9736 11.475C60.1176 11.475 60.2406 11.523 60.3426 11.619C60.4446 11.709 60.4956 11.829 60.4956 11.979C60.4956 12.129 60.4446 12.255 60.3426 12.357C60.2406 12.453 60.1176 12.501 59.9736 12.501ZM64.4757 18L62.3157 15.516L64.2867 13.464H65.2137L62.9547 15.786L62.9637 15.246L65.4387 18H64.4757ZM61.6857 18V11.52H62.4417V18H61.6857ZM67.6617 18.108C67.2957 18.108 66.9897 18.045 66.7437 17.919C66.4977 17.787 66.3147 17.616 66.1947 17.406C66.0747 17.19 66.0147 16.956 66.0147 16.704C66.0147 16.398 66.0927 16.14 66.2487 15.93C66.4107 15.714 66.6357 15.552 66.9237 15.444C67.2177 15.33 67.5627 15.273 67.9587 15.273H69.1557C69.1557 14.991 69.1107 14.757 69.0207 14.571C68.9367 14.379 68.8107 14.235 68.6427 14.139C68.4807 14.043 68.2767 13.995 68.0307 13.995C67.7427 13.995 67.4937 14.067 67.2837 14.211C67.0737 14.355 66.9447 14.568 66.8967 14.85H66.1227C66.1587 14.526 66.2667 14.256 66.4467 14.04C66.6327 13.818 66.8667 13.65 67.1487 13.536C67.4307 13.416 67.7247 13.356 68.0307 13.356C68.4507 13.356 68.7987 13.434 69.0747 13.59C69.3567 13.74 69.5667 13.953 69.7047 14.229C69.8427 14.499 69.9117 14.82 69.9117 15.192V18H69.2367L69.1917 17.199C69.1317 17.325 69.0537 17.445 68.9577 17.559C68.8677 17.667 68.7597 17.763 68.6337 17.847C68.5077 17.925 68.3637 17.988 68.2017 18.036C68.0457 18.084 67.8657 18.108 67.6617 18.108ZM67.7787 17.469C67.9887 17.469 68.1777 17.427 68.3457 17.343C68.5197 17.253 68.6667 17.133 68.7867 16.983C68.9067 16.827 68.9967 16.656 69.0567 16.47C69.1227 16.284 69.1557 16.089 69.1557 15.885V15.858H68.0217C67.7277 15.858 67.4907 15.894 67.3107 15.966C67.1307 16.032 67.0017 16.128 66.9237 16.254C66.8457 16.374 66.8067 16.512 66.8067 16.668C66.8067 16.83 66.8427 16.971 66.9147 17.091C66.9927 17.211 67.1037 17.304 67.2477 17.37C67.3977 17.436 67.5747 17.469 67.7787 17.469Z" fill="#C8F135"/>
<rect x="9" y="66" width="185" height="29" fill="#1D1D1D"/>
<line x1="9.52778" y1="95" x2="9.52778" y2="66" stroke="#C8F135"/>
<path d="M14.75 76V69H15.59V72.17L18.51 69H19.57L16.97 71.79L19.61 76H18.59L16.37 72.44L15.59 73.27V76H14.75ZM22.4578 76.12C21.9911 76.12 21.5711 76.0133 21.1978 75.8C20.8245 75.58 20.5311 75.2733 20.3178 74.88C20.1045 74.48 19.9978 74.0167 19.9978 73.49C19.9978 72.95 20.1045 72.4833 20.3178 72.09C20.5378 71.69 20.8345 71.3833 21.2078 71.17C21.5878 70.95 22.0111 70.84 22.4778 70.84C22.9578 70.84 23.3811 70.95 23.7478 71.17C24.1211 71.3833 24.4145 71.69 24.6278 72.09C24.8478 72.4833 24.9578 72.9467 24.9578 73.48C24.9578 74.0133 24.8478 74.48 24.6278 74.88C24.4078 75.2733 24.1111 75.58 23.7378 75.8C23.3645 76.0133 22.9378 76.12 22.4578 76.12ZM22.4678 75.4C22.7545 75.4 23.0211 75.33 23.2678 75.19C23.5145 75.0433 23.7145 74.8267 23.8678 74.54C24.0211 74.2533 24.0978 73.9 24.0978 73.48C24.0978 73.0533 24.0211 72.7 23.8678 72.42C23.7211 72.1333 23.5245 71.92 23.2778 71.78C23.0378 71.6333 22.7711 71.56 22.4778 71.56C22.1978 71.56 21.9311 71.6333 21.6778 71.78C21.4311 71.92 21.2311 72.1333 21.0778 72.42C20.9311 72.7 20.8578 73.0533 20.8578 73.48C20.8578 73.9 20.9311 74.2533 21.0778 74.54C21.2311 74.8267 21.4278 75.0433 21.6678 75.19C21.9145 75.33 22.1811 75.4 22.4678 75.4ZM26.1355 76V68.8H26.9755V76H26.1355ZM30.5721 76.12C30.0988 76.12 29.6788 76.01 29.3121 75.79C28.9521 75.57 28.6688 75.2633 28.4621 74.87C28.2554 74.47 28.1521 74.0067 28.1521 73.48C28.1521 72.9467 28.2521 72.4833 28.4521 72.09C28.6588 71.6967 28.9454 71.39 29.3121 71.17C29.6854 70.95 30.1121 70.84 30.5921 70.84C31.0854 70.84 31.5021 70.95 31.8421 71.17C32.1888 71.39 32.4521 71.68 32.6321 72.04C32.8188 72.3933 32.9121 72.7833 32.9121 73.21C32.9121 73.2767 32.9121 73.3467 32.9121 73.42C32.9121 73.4933 32.9088 73.5767 32.9021 73.67H28.7821V73.02H32.0921C32.0721 72.56 31.9188 72.2 31.6321 71.94C31.3521 71.68 30.9988 71.55 30.5721 71.55C30.2854 71.55 30.0188 71.6167 29.7721 71.75C29.5321 71.8767 29.3388 72.0667 29.1921 72.32C29.0454 72.5667 28.9721 72.8767 28.9721 73.25V73.53C28.9721 73.9433 29.0454 74.29 29.1921 74.57C29.3454 74.85 29.5421 75.06 29.7821 75.2C30.0288 75.34 30.2921 75.41 30.5721 75.41C30.9254 75.41 31.2154 75.3333 31.4421 75.18C31.6754 75.02 31.8421 74.8067 31.9421 74.54H32.7721C32.6921 74.84 32.5521 75.11 32.3521 75.35C32.1521 75.59 31.9021 75.78 31.6021 75.92C31.3088 76.0533 30.9654 76.12 30.5721 76.12ZM34.0457 76V70.96H34.8057L34.8457 71.84C35.0057 71.5267 35.2324 71.2833 35.5257 71.11C35.8257 70.93 36.1657 70.84 36.5457 70.84C36.939 70.84 37.279 70.92 37.5657 71.08C37.8524 71.2333 38.0757 71.47 38.2357 71.79C38.3957 72.1033 38.4757 72.5033 38.4757 72.99V76H37.6357V73.08C37.6357 72.5733 37.5224 72.1933 37.2957 71.94C37.0757 71.6867 36.7624 71.56 36.3557 71.56C36.0757 71.56 35.8257 71.63 35.6057 71.77C35.3857 71.9033 35.209 72.1 35.0757 72.36C34.949 72.6133 34.8857 72.93 34.8857 73.31V76H34.0457ZM41.4279 76.12C41.0212 76.12 40.6812 76.05 40.4079 75.91C40.1346 75.7633 39.9312 75.5733 39.7979 75.34C39.6646 75.1 39.5979 74.84 39.5979 74.56C39.5979 74.22 39.6846 73.9333 39.8579 73.7C40.0379 73.46 40.2879 73.28 40.6079 73.16C40.9346 73.0333 41.3179 72.97 41.7579 72.97H43.0879C43.0879 72.6567 43.0379 72.3967 42.9379 72.19C42.8446 71.9767 42.7046 71.8167 42.5179 71.71C42.3379 71.6033 42.1112 71.55 41.8379 71.55C41.5179 71.55 41.2412 71.63 41.0079 71.79C40.7746 71.95 40.6312 72.1867 40.5779 72.5H39.7179C39.7579 72.14 39.8779 71.84 40.0779 71.6C40.2846 71.3533 40.5446 71.1667 40.8579 71.04C41.1712 70.9067 41.4979 70.84 41.8379 70.84C42.3046 70.84 42.6912 70.9267 42.9979 71.1C43.3112 71.2667 43.5446 71.5033 43.6979 71.81C43.8512 72.11 43.9279 72.4667 43.9279 72.88V76H43.1779L43.1279 75.11C43.0612 75.25 42.9746 75.3833 42.8679 75.51C42.7679 75.63 42.6479 75.7367 42.5079 75.83C42.3679 75.9167 42.2079 75.9867 42.0279 76.04C41.8546 76.0933 41.6546 76.12 41.4279 76.12ZM41.5579 75.41C41.7912 75.41 42.0012 75.3633 42.1879 75.27C42.3812 75.17 42.5446 75.0367 42.6779 74.87C42.8112 74.6967 42.9112 74.5067 42.9779 74.3C43.0512 74.0933 43.0879 73.8767 43.0879 73.65V73.62H41.8279C41.5012 73.62 41.2379 73.66 41.0379 73.74C40.8379 73.8133 40.6946 73.92 40.6079 74.06C40.5212 74.1933 40.4779 74.3467 40.4779 74.52C40.4779 74.7 40.5179 74.8567 40.5979 74.99C40.6846 75.1233 40.8079 75.2267 40.9679 75.3C41.1346 75.3733 41.3312 75.41 41.5579 75.41Z" fill="#C8F135"/>
<path d="M14.6 90V84.4H16.424C16.8667 84.4 17.2293 84.4747 17.512 84.624C17.8 84.768 18.0107 84.9627 18.144 85.208C18.2827 85.4533 18.352 85.7333 18.352 86.048C18.352 86.352 18.2827 86.6293 18.144 86.88C18.0107 87.1253 17.8027 87.3227 17.52 87.472C17.2373 87.6213 16.872 87.696 16.424 87.696H15.272V90H14.6ZM15.272 87.128H16.416C16.864 87.128 17.184 87.0293 17.376 86.832C17.568 86.6347 17.664 86.3733 17.664 86.048C17.664 85.7013 17.568 85.4347 17.376 85.248C17.184 85.056 16.864 84.96 16.416 84.96H15.272V87.128ZM19.2006 90V85.968H19.8086L19.8566 86.736C19.9473 86.5547 20.062 86.4 20.2006 86.272C20.3446 86.144 20.5153 86.0453 20.7126 85.976C20.9153 85.9067 21.1446 85.872 21.4006 85.872V86.576H21.1526C20.982 86.576 20.8193 86.6 20.6646 86.648C20.51 86.6907 20.3713 86.7627 20.2486 86.864C20.1313 86.9653 20.038 87.104 19.9686 87.28C19.9046 87.4507 19.8726 87.664 19.8726 87.92V90H19.2006ZM23.4736 90.096C23.1482 90.096 22.8762 90.04 22.6576 89.928C22.4389 89.8107 22.2762 89.6587 22.1696 89.472C22.0629 89.28 22.0096 89.072 22.0096 88.848C22.0096 88.576 22.0789 88.3467 22.2176 88.16C22.3616 87.968 22.5616 87.824 22.8176 87.728C23.0789 87.6267 23.3856 87.576 23.7376 87.576H24.8016C24.8016 87.3253 24.7616 87.1173 24.6816 86.952C24.6069 86.7813 24.4949 86.6533 24.3456 86.568C24.2016 86.4827 24.0202 86.44 23.8016 86.44C23.5456 86.44 23.3242 86.504 23.1376 86.632C22.9509 86.76 22.8362 86.9493 22.7936 87.2H22.1056C22.1376 86.912 22.2336 86.672 22.3936 86.48C22.5589 86.2827 22.7669 86.1333 23.0176 86.032C23.2682 85.9253 23.5296 85.872 23.8016 85.872C24.1749 85.872 24.4842 85.9413 24.7296 86.08C24.9802 86.2133 25.1669 86.4027 25.2896 86.648C25.4122 86.888 25.4736 87.1733 25.4736 87.504V90H24.8736L24.8336 89.288C24.7802 89.4 24.7109 89.5067 24.6256 89.608C24.5456 89.704 24.4496 89.7893 24.3376 89.864C24.2256 89.9333 24.0976 89.9893 23.9536 90.032C23.8149 90.0747 23.6549 90.096 23.4736 90.096ZM23.5776 89.528C23.7642 89.528 23.9322 89.4907 24.0816 89.416C24.2362 89.336 24.3669 89.2293 24.4736 89.096C24.5802 88.9573 24.6602 88.8053 24.7136 88.64C24.7722 88.4747 24.8016 88.3013 24.8016 88.12V88.096H23.7936C23.5322 88.096 23.3216 88.128 23.1616 88.192C23.0016 88.2507 22.8869 88.336 22.8176 88.448C22.7482 88.5547 22.7136 88.6773 22.7136 88.816C22.7136 88.96 22.7456 89.0853 22.8096 89.192C22.8789 89.2987 22.9776 89.3813 23.1056 89.44C23.2389 89.4987 23.3962 89.528 23.5776 89.528ZM27.9878 90C27.7478 90 27.5398 89.9627 27.3638 89.888C27.1878 89.8133 27.0518 89.688 26.9558 89.512C26.8651 89.3307 26.8198 89.088 26.8198 88.784V86.536H26.1158V85.968H26.8198L26.9078 84.992H27.4918V85.968H28.6598V86.536H27.4918V88.784C27.4918 89.0347 27.5424 89.2053 27.6438 89.296C27.7451 89.3813 27.9238 89.424 28.1798 89.424H28.6118V90H27.9878ZM31.1952 90.096C30.8165 90.096 30.4805 90.008 30.1872 89.832C29.8992 89.656 29.6725 89.4107 29.5072 89.096C29.3419 88.776 29.2592 88.4053 29.2592 87.984C29.2592 87.5573 29.3392 87.1867 29.4992 86.872C29.6645 86.5573 29.8939 86.312 30.1872 86.136C30.4859 85.96 30.8272 85.872 31.2112 85.872C31.6059 85.872 31.9392 85.96 32.2112 86.136C32.4885 86.312 32.6992 86.544 32.8432 86.832C32.9925 87.1147 33.0672 87.4267 33.0672 87.768C33.0672 87.8213 33.0672 87.8773 33.0672 87.936C33.0672 87.9947 33.0645 88.0613 33.0592 88.136H29.7632V87.616H32.4112C32.3952 87.248 32.2725 86.96 32.0432 86.752C31.8192 86.544 31.5365 86.44 31.1952 86.44C30.9659 86.44 30.7525 86.4933 30.5552 86.6C30.3632 86.7013 30.2085 86.8533 30.0912 87.056C29.9739 87.2533 29.9152 87.5013 29.9152 87.8V88.024C29.9152 88.3547 29.9739 88.632 30.0912 88.856C30.2139 89.08 30.3712 89.248 30.5632 89.36C30.7605 89.472 30.9712 89.528 31.1952 89.528C31.4779 89.528 31.7099 89.4667 31.8912 89.344C32.0779 89.216 32.2112 89.0453 32.2912 88.832H32.9552C32.8912 89.072 32.7792 89.288 32.6192 89.48C32.4592 89.672 32.2592 89.824 32.0192 89.936C31.7845 90.0427 31.5099 90.096 31.1952 90.096ZM36.0991 91.76V85.968H36.7071L36.7631 86.624C36.8484 86.496 36.9577 86.376 37.0911 86.264C37.2244 86.1467 37.3844 86.0533 37.5711 85.984C37.7577 85.9093 37.9711 85.872 38.2111 85.872C38.6057 85.872 38.9471 85.9653 39.2351 86.152C39.5284 86.3387 39.7551 86.592 39.9151 86.912C40.0804 87.2267 40.1631 87.5867 40.1631 87.992C40.1631 88.3973 40.0804 88.76 39.9151 89.08C39.7551 89.3947 39.5284 89.6427 39.2351 89.824C38.9417 90.0053 38.5977 90.096 38.2031 90.096C37.8777 90.096 37.5897 90.0293 37.3391 89.896C37.0937 89.7627 36.9044 89.576 36.7711 89.336V91.76H36.0991ZM38.1311 89.512C38.3924 89.512 38.6244 89.448 38.8271 89.32C39.0297 89.192 39.1871 89.016 39.2991 88.792C39.4164 88.5627 39.4751 88.2933 39.4751 87.984C39.4751 87.68 39.4164 87.4133 39.2991 87.184C39.1871 86.9547 39.0297 86.776 38.8271 86.648C38.6244 86.52 38.3924 86.456 38.1311 86.456C37.8644 86.456 37.6297 86.52 37.4271 86.648C37.2244 86.776 37.0671 86.9547 36.9551 87.184C36.8431 87.4133 36.7871 87.68 36.7871 87.984C36.7871 88.2933 36.8431 88.5627 36.9551 88.792C37.0671 89.016 37.2244 89.192 37.4271 89.32C37.6297 89.448 37.8644 89.512 38.1311 89.512ZM41.1069 90V85.968H41.7149L41.7629 86.736C41.8535 86.5547 41.9682 86.4 42.1069 86.272C42.2509 86.144 42.4215 86.0453 42.6189 85.976C42.8215 85.9067 43.0509 85.872 43.3069 85.872V86.576H43.0589C42.8882 86.576 42.7255 86.6 42.5709 86.648C42.4162 86.6907 42.2775 86.7627 42.1549 86.864C42.0375 86.9653 41.9442 87.104 41.8749 87.28C41.8109 87.4507 41.7789 87.664 41.7789 87.92V90H41.1069ZM45.5878 90.096C45.2518 90.096 44.9585 90.04 44.7078 89.928C44.4625 89.816 44.2651 89.6613 44.1158 89.464C43.9718 89.2613 43.8838 89.024 43.8518 88.752H44.5398C44.5665 88.8907 44.6225 89.0187 44.7078 89.136C44.7931 89.2533 44.9078 89.3493 45.0518 89.424C45.2011 89.4933 45.3825 89.528 45.5958 89.528C45.7825 89.528 45.9371 89.5013 46.0598 89.448C46.1825 89.3893 46.2731 89.312 46.3318 89.216C46.3958 89.12 46.4278 89.016 46.4278 88.904C46.4278 88.7387 46.3878 88.6133 46.3078 88.528C46.2331 88.4427 46.1211 88.376 45.9718 88.328C45.8225 88.2747 45.6411 88.2293 45.4278 88.192C45.2518 88.16 45.0785 88.1173 44.9078 88.064C44.7371 88.0107 44.5851 87.9413 44.4518 87.856C44.3185 87.7653 44.2118 87.656 44.1318 87.528C44.0571 87.4 44.0198 87.2427 44.0198 87.056C44.0198 86.8267 44.0785 86.624 44.1958 86.448C44.3131 86.2667 44.4811 86.1253 44.6998 86.024C44.9238 85.9227 45.1825 85.872 45.4758 85.872C45.9078 85.872 46.2571 85.976 46.5238 86.184C46.7905 86.392 46.9478 86.6933 46.9958 87.088H46.3318C46.3051 86.8853 46.2171 86.728 46.0678 86.616C45.9238 86.4987 45.7238 86.44 45.4678 86.44C45.2171 86.44 45.0251 86.4907 44.8918 86.592C44.7638 86.6933 44.6998 86.8267 44.6998 86.992C44.6998 87.0987 44.7345 87.1947 44.8038 87.28C44.8785 87.36 44.9851 87.4293 45.1238 87.488C45.2678 87.5467 45.4438 87.5947 45.6518 87.632C45.9185 87.68 46.1611 87.744 46.3798 87.824C46.5985 87.904 46.7745 88.024 46.9078 88.184C47.0465 88.3387 47.1158 88.56 47.1158 88.848C47.1158 89.0987 47.0518 89.3173 46.9238 89.504C46.8011 89.6907 46.6251 89.8373 46.3958 89.944C46.1665 90.0453 45.8971 90.096 45.5878 90.096ZM49.4878 90C49.2478 90 49.0398 89.9627 48.8638 89.888C48.6878 89.8133 48.5518 89.688 48.4558 89.512C48.3651 89.3307 48.3198 89.088 48.3198 88.784V86.536H47.6158V85.968H48.3198L48.4078 84.992H48.9918V85.968H50.1598V86.536H48.9918V88.784C48.9918 89.0347 49.0424 89.2053 49.1438 89.296C49.2451 89.3813 49.4238 89.424 49.6798 89.424H50.1118V90H49.4878ZM52.6952 90.096C52.3165 90.096 51.9805 90.008 51.6872 89.832C51.3992 89.656 51.1725 89.4107 51.0072 89.096C50.8419 88.776 50.7592 88.4053 50.7592 87.984C50.7592 87.5573 50.8392 87.1867 50.9992 86.872C51.1645 86.5573 51.3939 86.312 51.6872 86.136C51.9859 85.96 52.3272 85.872 52.7112 85.872C53.1059 85.872 53.4392 85.96 53.7112 86.136C53.9885 86.312 54.1992 86.544 54.3432 86.832C54.4925 87.1147 54.5672 87.4267 54.5672 87.768C54.5672 87.8213 54.5672 87.8773 54.5672 87.936C54.5672 87.9947 54.5645 88.0613 54.5592 88.136H51.2632V87.616H53.9112C53.8952 87.248 53.7725 86.96 53.5432 86.752C53.3192 86.544 53.0365 86.44 52.6952 86.44C52.4659 86.44 52.2525 86.4933 52.0552 86.6C51.8632 86.7013 51.7085 86.8533 51.5912 87.056C51.4739 87.2533 51.4152 87.5013 51.4152 87.8V88.024C51.4152 88.3547 51.4739 88.632 51.5912 88.856C51.7139 89.08 51.8712 89.248 52.0632 89.36C52.2605 89.472 52.4712 89.528 52.6952 89.528C52.9779 89.528 53.2099 89.4667 53.3912 89.344C53.5779 89.216 53.7112 89.0453 53.7912 88.832H54.4552C54.3912 89.072 54.2792 89.288 54.1192 89.48C53.9592 89.672 53.7592 89.824 53.5192 89.936C53.2845 90.0427 53.0099 90.096 52.6952 90.096ZM54.9461 90.984L55.4101 89.216H56.1061L55.4101 90.984H54.9461ZM59.0522 90V85.968H59.6602L59.6922 86.672C59.8202 86.4213 60.0015 86.2267 60.2362 86.088C60.4762 85.944 60.7482 85.872 61.0522 85.872C61.3669 85.872 61.6389 85.936 61.8682 86.064C62.0975 86.1867 62.2762 86.376 62.4042 86.632C62.5322 86.8827 62.5962 87.2027 62.5962 87.592V90H61.9242V87.664C61.9242 87.2587 61.8335 86.9547 61.6522 86.752C61.4762 86.5493 61.2255 86.448 60.9002 86.448C60.6762 86.448 60.4762 86.504 60.3002 86.616C60.1242 86.7227 59.9829 86.88 59.8762 87.088C59.7749 87.2907 59.7242 87.544 59.7242 87.848V90H59.0522ZM65.4139 90.096C65.0353 90.096 64.6993 90.008 64.4059 89.832C64.1179 89.656 63.8913 89.4107 63.7259 89.096C63.5606 88.776 63.4779 88.4053 63.4779 87.984C63.4779 87.5573 63.5579 87.1867 63.7179 86.872C63.8833 86.5573 64.1126 86.312 64.4059 86.136C64.7046 85.96 65.0459 85.872 65.4299 85.872C65.8246 85.872 66.1579 85.96 66.4299 86.136C66.7073 86.312 66.9179 86.544 67.0619 86.832C67.2113 87.1147 67.2859 87.4267 67.2859 87.768C67.2859 87.8213 67.2859 87.8773 67.2859 87.936C67.2859 87.9947 67.2833 88.0613 67.2779 88.136H63.9819V87.616H66.6299C66.6139 87.248 66.4913 86.96 66.2619 86.752C66.0379 86.544 65.7553 86.44 65.4139 86.44C65.1846 86.44 64.9713 86.4933 64.7739 86.6C64.5819 86.7013 64.4273 86.8533 64.3099 87.056C64.1926 87.2533 64.1339 87.5013 64.1339 87.8V88.024C64.1339 88.3547 64.1926 88.632 64.3099 88.856C64.4326 89.08 64.5899 89.248 64.7819 89.36C64.9793 89.472 65.1899 89.528 65.4139 89.528C65.6966 89.528 65.9286 89.4667 66.1099 89.344C66.2966 89.216 66.4299 89.0453 66.5099 88.832H67.1739C67.1099 89.072 66.9979 89.288 66.8379 89.48C66.6779 89.672 66.4779 89.824 66.2379 89.936C66.0033 90.0427 65.7286 90.096 65.4139 90.096ZM70.3818 90V85.968H71.0538V90H70.3818ZM70.7178 85.112C70.5845 85.112 70.4725 85.0693 70.3818 84.984C70.2965 84.8933 70.2538 84.7813 70.2538 84.648C70.2538 84.5147 70.2965 84.408 70.3818 84.328C70.4725 84.2427 70.5845 84.2 70.7178 84.2C70.8458 84.2 70.9551 84.2427 71.0458 84.328C71.1365 84.408 71.1818 84.5147 71.1818 84.648C71.1818 84.7813 71.1365 84.8933 71.0458 84.984C70.9551 85.0693 70.8458 85.112 70.7178 85.112ZM74.0157 90.096C73.6264 90.096 73.285 90.0053 72.9917 89.824C72.6984 89.6373 72.4717 89.384 72.3117 89.064C72.1517 88.744 72.0717 88.3813 72.0717 87.976C72.0717 87.5707 72.1517 87.2107 72.3117 86.896C72.4717 86.576 72.6984 86.3253 72.9917 86.144C73.2904 85.9627 73.6344 85.872 74.0237 85.872C74.3544 85.872 74.6424 85.9387 74.8877 86.072C75.1384 86.2053 75.3304 86.392 75.4637 86.632V84.24H76.1357V90H75.5277L75.4717 89.336C75.3864 89.4693 75.277 89.5947 75.1437 89.712C75.0104 89.824 74.8504 89.9173 74.6637 89.992C74.477 90.0613 74.261 90.096 74.0157 90.096ZM74.0957 89.512C74.3624 89.512 74.597 89.448 74.7997 89.32C75.0024 89.192 75.1597 89.016 75.2717 88.792C75.3837 88.5627 75.4397 88.2933 75.4397 87.984C75.4397 87.68 75.3837 87.4133 75.2717 87.184C75.1597 86.9547 75.0024 86.776 74.7997 86.648C74.597 86.52 74.3624 86.456 74.0957 86.456C73.8344 86.456 73.6024 86.52 73.3997 86.648C73.197 86.776 73.0397 86.9547 72.9277 87.184C72.8157 87.4133 72.7597 87.68 72.7597 87.984C72.7597 88.2933 72.8157 88.5627 72.9277 88.792C73.0397 89.016 73.197 89.192 73.3997 89.32C73.6024 89.448 73.8344 89.512 74.0957 89.512ZM78.7193 90.096C78.41 90.096 78.138 90.0347 77.9033 89.912C77.674 89.7893 77.4953 89.6 77.3673 89.344C77.2446 89.088 77.1833 88.768 77.1833 88.384V85.968H77.8553V88.312C77.8553 88.712 77.9433 89.0133 78.1193 89.216C78.2953 89.4187 78.5433 89.52 78.8633 89.52C79.0873 89.52 79.29 89.4667 79.4713 89.36C79.6526 89.248 79.794 89.0907 79.8953 88.888C80.002 88.68 80.0553 88.4267 80.0553 88.128V85.968H80.7273V90H80.1193L80.0793 89.296C79.9566 89.5467 79.7753 89.744 79.5353 89.888C79.2953 90.0267 79.0233 90.096 78.7193 90.096ZM86.4463 90L84.5263 87.792L86.2783 85.968H87.1023L85.0943 88.032L85.1023 87.552L87.3023 90H86.4463ZM83.9663 90V84.24H84.6383V90H83.9663ZM89.2783 90.096C88.9529 90.096 88.6809 90.04 88.4622 89.928C88.2436 89.8107 88.0809 89.6587 87.9743 89.472C87.8676 89.28 87.8143 89.072 87.8143 88.848C87.8143 88.576 87.8836 88.3467 88.0223 88.16C88.1663 87.968 88.3663 87.824 88.6223 87.728C88.8836 87.6267 89.1903 87.576 89.5423 87.576H90.6063C90.6063 87.3253 90.5663 87.1173 90.4863 86.952C90.4116 86.7813 90.2996 86.6533 90.1503 86.568C90.0063 86.4827 89.8249 86.44 89.6063 86.44C89.3503 86.44 89.1289 86.504 88.9423 86.632C88.7556 86.76 88.6409 86.9493 88.5983 87.2H87.9103C87.9423 86.912 88.0383 86.672 88.1983 86.48C88.3636 86.2827 88.5716 86.1333 88.8223 86.032C89.0729 85.9253 89.3343 85.872 89.6063 85.872C89.9796 85.872 90.2889 85.9413 90.5343 86.08C90.7849 86.2133 90.9716 86.4027 91.0943 86.648C91.2169 86.888 91.2783 87.1733 91.2783 87.504V90H90.6783L90.6383 89.288C90.5849 89.4 90.5156 89.5067 90.4303 89.608C90.3503 89.704 90.2543 89.7893 90.1423 89.864C90.0303 89.9333 89.9023 89.9893 89.7582 90.032C89.6196 90.0747 89.4596 90.096 89.2783 90.096ZM89.3823 89.528C89.5689 89.528 89.7369 89.4907 89.8863 89.416C90.0409 89.336 90.1716 89.2293 90.2783 89.096C90.3849 88.9573 90.4649 88.8053 90.5183 88.64C90.5769 88.4747 90.6063 88.3013 90.6063 88.12V88.096H89.5983C89.3369 88.096 89.1263 88.128 88.9663 88.192C88.8063 88.2507 88.6916 88.336 88.6223 88.448C88.5529 88.5547 88.5183 88.6773 88.5183 88.816C88.5183 88.96 88.5503 89.0853 88.6143 89.192C88.6836 89.2987 88.7823 89.3813 88.9103 89.44C89.0436 89.4987 89.2009 89.528 89.3823 89.528ZM95.9068 90.096C95.5975 90.096 95.3255 90.0347 95.0908 89.912C94.8615 89.7893 94.6828 89.6 94.5548 89.344C94.4321 89.088 94.3708 88.768 94.3708 88.384V85.968H95.0428V88.312C95.0428 88.712 95.1308 89.0133 95.3068 89.216C95.4828 89.4187 95.7308 89.52 96.0508 89.52C96.2748 89.52 96.4775 89.4667 96.6588 89.36C96.8401 89.248 96.9815 89.0907 97.0828 88.888C97.1895 88.68 97.2428 88.4267 97.2428 88.128V85.968H97.9148V90H97.3068L97.2668 89.296C97.1441 89.5467 96.9628 89.744 96.7228 89.888C96.4828 90.0267 96.2108 90.096 95.9068 90.096ZM99.0288 90V85.968H99.6368L99.6688 86.672C99.7968 86.4213 99.9781 86.2267 100.213 86.088C100.453 85.944 100.725 85.872 101.029 85.872C101.343 85.872 101.615 85.936 101.845 86.064C102.074 86.1867 102.253 86.376 102.381 86.632C102.509 86.8827 102.573 87.2027 102.573 87.592V90H101.901V87.664C101.901 87.2587 101.81 86.9547 101.629 86.752C101.453 86.5493 101.202 86.448 100.877 86.448C100.653 86.448 100.453 86.504 100.277 86.616C100.101 86.7227 99.9594 86.88 99.8528 87.088C99.7514 87.2907 99.7008 87.544 99.7008 87.848V90H99.0288ZM105.087 90.096C104.777 90.096 104.505 90.0347 104.271 89.912C104.041 89.7893 103.863 89.6 103.735 89.344C103.612 89.088 103.551 88.768 103.551 88.384V85.968H104.223V88.312C104.223 88.712 104.311 89.0133 104.487 89.216C104.663 89.4187 104.911 89.52 105.231 89.52C105.455 89.52 105.657 89.4667 105.839 89.36C106.02 89.248 106.161 89.0907 106.263 88.888C106.369 88.68 106.423 88.4267 106.423 88.128V85.968H107.095V90H106.487L106.447 89.296C106.324 89.5467 106.143 89.744 105.903 89.888C105.663 90.0267 105.391 90.096 105.087 90.096ZM109.792 90C109.552 90 109.344 89.9627 109.168 89.888C108.992 89.8133 108.856 89.688 108.76 89.512C108.67 89.3307 108.624 89.088 108.624 88.784V86.536H107.92V85.968H108.624L108.712 84.992H109.296V85.968H110.464V86.536H109.296V88.784C109.296 89.0347 109.347 89.2053 109.448 89.296C109.55 89.3813 109.728 89.424 109.984 89.424H110.416V90H109.792ZM111.341 90V85.968H111.949L111.997 86.736C112.088 86.5547 112.203 86.4 112.341 86.272C112.485 86.144 112.656 86.0453 112.853 85.976C113.056 85.9067 113.285 85.872 113.541 85.872V86.576H113.293C113.123 86.576 112.96 86.6 112.805 86.648C112.651 86.6907 112.512 86.7627 112.389 86.864C112.272 86.9653 112.179 87.104 112.109 87.28C112.045 87.4507 112.013 87.664 112.013 87.92V90H111.341ZM115.614 90.096C115.289 90.096 115.017 90.04 114.798 89.928C114.58 89.8107 114.417 89.6587 114.31 89.472C114.204 89.28 114.15 89.072 114.15 88.848C114.15 88.576 114.22 88.3467 114.358 88.16C114.502 87.968 114.702 87.824 114.958 87.728C115.22 87.6267 115.526 87.576 115.878 87.576H116.942C116.942 87.3253 116.902 87.1173 116.822 86.952C116.748 86.7813 116.636 86.6533 116.486 86.568C116.342 86.4827 116.161 86.44 115.942 86.44C115.686 86.44 115.465 86.504 115.278 86.632C115.092 86.76 114.977 86.9493 114.934 87.2H114.246C114.278 86.912 114.374 86.672 114.534 86.48C114.7 86.2827 114.908 86.1333 115.158 86.032C115.409 85.9253 115.67 85.872 115.942 85.872C116.316 85.872 116.625 85.9413 116.87 86.08C117.121 86.2133 117.308 86.4027 117.43 86.648C117.553 86.888 117.614 87.1733 117.614 87.504V90H117.014L116.974 89.288C116.921 89.4 116.852 89.5067 116.766 89.608C116.686 89.704 116.59 89.7893 116.478 89.864C116.366 89.9333 116.238 89.9893 116.094 90.032C115.956 90.0747 115.796 90.096 115.614 90.096ZM115.718 89.528C115.905 89.528 116.073 89.4907 116.222 89.416C116.377 89.336 116.508 89.2293 116.614 89.096C116.721 88.9573 116.801 88.8053 116.854 88.64C116.913 88.4747 116.942 88.3013 116.942 88.12V88.096H115.934C115.673 88.096 115.462 88.128 115.302 88.192C115.142 88.2507 115.028 88.336 114.958 88.448C114.889 88.5547 114.854 88.6773 114.854 88.816C114.854 88.96 114.886 89.0853 114.95 89.192C115.02 89.2987 115.118 89.3813 115.246 89.44C115.38 89.4987 115.537 89.528 115.718 89.528Z" fill="white"/>
<rect x="9" y="114" width="185" height="29" fill="#1D1D1D"/>
<line x1="9.52778" y1="143" x2="9.52778" y2="114" stroke="#C8F135"/>
<path d="M16.39 124V117.69H14.3V117H19.32V117.69H17.23V124H16.39ZM21.657 124.12C21.1904 124.12 20.7704 124.013 20.397 123.8C20.0237 123.58 19.7304 123.273 19.517 122.88C19.3037 122.48 19.197 122.017 19.197 121.49C19.197 120.95 19.3037 120.483 19.517 120.09C19.737 119.69 20.0337 119.383 20.407 119.17C20.787 118.95 21.2104 118.84 21.677 118.84C22.157 118.84 22.5804 118.95 22.947 119.17C23.3204 119.383 23.6137 119.69 23.827 120.09C24.047 120.483 24.157 120.947 24.157 121.48C24.157 122.013 24.047 122.48 23.827 122.88C23.607 123.273 23.3104 123.58 22.937 123.8C22.5637 124.013 22.137 124.12 21.657 124.12ZM21.667 123.4C21.9537 123.4 22.2204 123.33 22.467 123.19C22.7137 123.043 22.9137 122.827 23.067 122.54C23.2204 122.253 23.297 121.9 23.297 121.48C23.297 121.053 23.2204 120.7 23.067 120.42C22.9204 120.133 22.7237 119.92 22.477 119.78C22.237 119.633 21.9704 119.56 21.677 119.56C21.397 119.56 21.1304 119.633 20.877 119.78C20.6304 119.92 20.4304 120.133 20.277 120.42C20.1304 120.7 20.057 121.053 20.057 121.48C20.057 121.9 20.1304 122.253 20.277 122.54C20.4304 122.827 20.627 123.043 20.867 123.19C21.1137 123.33 21.3804 123.4 21.667 123.4ZM25.3348 124V118.96H26.0948L26.1548 119.92C26.2681 119.693 26.4114 119.5 26.5848 119.34C26.7648 119.18 26.9781 119.057 27.2248 118.97C27.4781 118.883 27.7648 118.84 28.0848 118.84V119.72H27.7748C27.5614 119.72 27.3581 119.75 27.1648 119.81C26.9714 119.863 26.7981 119.953 26.6448 120.08C26.4981 120.207 26.3814 120.38 26.2948 120.6C26.2148 120.813 26.1748 121.08 26.1748 121.4V124H25.3348ZM28.6959 124V123.31L31.4859 119.66H28.7459V118.96H32.4459V119.65L29.6459 123.3H32.4959V124H28.6959ZM35.866 124.12C35.3993 124.12 34.9793 124.013 34.606 123.8C34.2327 123.58 33.9393 123.273 33.726 122.88C33.5127 122.48 33.406 122.017 33.406 121.49C33.406 120.95 33.5127 120.483 33.726 120.09C33.946 119.69 34.2427 119.383 34.616 119.17C34.996 118.95 35.4193 118.84 35.886 118.84C36.366 118.84 36.7893 118.95 37.156 119.17C37.5293 119.383 37.8227 119.69 38.036 120.09C38.256 120.483 38.366 120.947 38.366 121.48C38.366 122.013 38.256 122.48 38.036 122.88C37.816 123.273 37.5193 123.58 37.146 123.8C36.7727 124.013 36.346 124.12 35.866 124.12ZM35.876 123.4C36.1627 123.4 36.4293 123.33 36.676 123.19C36.9227 123.043 37.1227 122.827 37.276 122.54C37.4293 122.253 37.506 121.9 37.506 121.48C37.506 121.053 37.4293 120.7 37.276 120.42C37.1293 120.133 36.9327 119.92 36.686 119.78C36.446 119.633 36.1793 119.56 35.886 119.56C35.606 119.56 35.3393 119.633 35.086 119.78C34.8393 119.92 34.6393 120.133 34.486 120.42C34.3393 120.7 34.266 121.053 34.266 121.48C34.266 121.9 34.3393 122.253 34.486 122.54C34.6393 122.827 34.836 123.043 35.076 123.19C35.3227 123.33 35.5893 123.4 35.876 123.4Z" fill="#C8F135"/>
<path d="M14.6 138V132.4H15.272L18.256 136.888V132.4H18.928V138H18.256L15.272 133.512V138H14.6ZM21.8593 138.096C21.4806 138.096 21.1446 138.008 20.8513 137.832C20.5633 137.656 20.3366 137.411 20.1713 137.096C20.0059 136.776 19.9233 136.405 19.9233 135.984C19.9233 135.557 20.0033 135.187 20.1633 134.872C20.3286 134.557 20.5579 134.312 20.8513 134.136C21.1499 133.96 21.4913 133.872 21.8753 133.872C22.2699 133.872 22.6033 133.96 22.8753 134.136C23.1526 134.312 23.3633 134.544 23.5073 134.832C23.6566 135.115 23.7313 135.427 23.7313 135.768C23.7313 135.821 23.7313 135.877 23.7313 135.936C23.7313 135.995 23.7286 136.061 23.7233 136.136H20.4273V135.616H23.0753C23.0593 135.248 22.9366 134.96 22.7073 134.752C22.4833 134.544 22.2006 134.44 21.8593 134.44C21.6299 134.44 21.4166 134.493 21.2193 134.6C21.0273 134.701 20.8726 134.853 20.7553 135.056C20.6379 135.253 20.5793 135.501 20.5793 135.8V136.024C20.5793 136.355 20.6379 136.632 20.7553 136.856C20.8779 137.08 21.0353 137.248 21.2273 137.36C21.4246 137.472 21.6353 137.528 21.8593 137.528C22.1419 137.528 22.3739 137.467 22.5553 137.344C22.7419 137.216 22.8753 137.045 22.9553 136.832H23.6193C23.5553 137.072 23.4433 137.288 23.2833 137.48C23.1233 137.672 22.9233 137.824 22.6833 137.936C22.4486 138.043 22.1739 138.096 21.8593 138.096ZM26.1021 138.096C25.7928 138.096 25.5208 138.035 25.2861 137.912C25.0568 137.789 24.8781 137.6 24.7501 137.344C24.6275 137.088 24.5661 136.768 24.5661 136.384V133.968H25.2381V136.312C25.2381 136.712 25.3261 137.013 25.5021 137.216C25.6781 137.419 25.9261 137.52 26.2461 137.52C26.4701 137.52 26.6728 137.467 26.8541 137.36C27.0355 137.248 27.1768 137.091 27.2781 136.888C27.3848 136.68 27.4381 136.427 27.4381 136.128V133.968H28.1101V138H27.5021L27.4621 137.296C27.3395 137.547 27.1581 137.744 26.9181 137.888C26.6781 138.027 26.4061 138.096 26.1021 138.096ZM30.8081 138C30.5681 138 30.3601 137.963 30.1841 137.888C30.0081 137.813 29.8721 137.688 29.7761 137.512C29.6854 137.331 29.6401 137.088 29.6401 136.784V134.536H28.9361V133.968H29.6401L29.7281 132.992H30.3121V133.968H31.4801V134.536H30.3121V136.784C30.3121 137.035 30.3627 137.205 30.4641 137.296C30.5654 137.381 30.7441 137.424 31.0001 137.424H31.4321V138H30.8081ZM32.3569 138V133.968H32.9649L33.0129 134.736C33.1035 134.555 33.2182 134.4 33.3569 134.272C33.5009 134.144 33.6715 134.045 33.8689 133.976C34.0715 133.907 34.3009 133.872 34.5569 133.872V134.576H34.3089C34.1382 134.576 33.9755 134.6 33.8209 134.648C33.6662 134.691 33.5275 134.763 33.4049 134.864C33.2875 134.965 33.1942 135.104 33.1249 135.28C33.0609 135.451 33.0289 135.664 33.0289 135.92V138H32.3569ZM36.6298 138.096C36.3045 138.096 36.0325 138.04 35.8138 137.928C35.5951 137.811 35.4325 137.659 35.3258 137.472C35.2191 137.28 35.1658 137.072 35.1658 136.848C35.1658 136.576 35.2351 136.347 35.3738 136.16C35.5178 135.968 35.7178 135.824 35.9738 135.728C36.2351 135.627 36.5418 135.576 36.8938 135.576H37.9578C37.9578 135.325 37.9178 135.117 37.8378 134.952C37.7631 134.781 37.6511 134.653 37.5018 134.568C37.3578 134.483 37.1765 134.44 36.9578 134.44C36.7018 134.44 36.4805 134.504 36.2938 134.632C36.1071 134.76 35.9925 134.949 35.9498 135.2H35.2618C35.2938 134.912 35.3898 134.672 35.5498 134.48C35.7151 134.283 35.9231 134.133 36.1738 134.032C36.4245 133.925 36.6858 133.872 36.9578 133.872C37.3311 133.872 37.6405 133.941 37.8858 134.08C38.1365 134.213 38.3231 134.403 38.4458 134.648C38.5685 134.888 38.6298 135.173 38.6298 135.504V138H38.0298L37.9898 137.288C37.9365 137.4 37.8671 137.507 37.7818 137.608C37.7018 137.704 37.6058 137.789 37.4938 137.864C37.3818 137.933 37.2538 137.989 37.1098 138.032C36.9711 138.075 36.8111 138.096 36.6298 138.096ZM36.7338 137.528C36.9205 137.528 37.0885 137.491 37.2378 137.416C37.3925 137.336 37.5231 137.229 37.6298 137.096C37.7365 136.957 37.8165 136.805 37.8698 136.64C37.9285 136.475 37.9578 136.301 37.9578 136.12V136.096H36.9498C36.6885 136.096 36.4778 136.128 36.3178 136.192C36.1578 136.251 36.0431 136.336 35.9738 136.448C35.9045 136.555 35.8698 136.677 35.8698 136.816C35.8698 136.96 35.9018 137.085 35.9658 137.192C36.0351 137.299 36.1338 137.381 36.2618 137.44C36.3951 137.499 36.5525 137.528 36.7338 137.528ZM39.6694 138V132.24H40.3414V138H39.6694ZM41.4506 138V133.968H42.0586L42.0906 134.672C42.2186 134.421 42.4 134.227 42.6346 134.088C42.8746 133.944 43.1466 133.872 43.4506 133.872C43.7653 133.872 44.0373 133.936 44.2666 134.064C44.496 134.187 44.6746 134.376 44.8026 134.632C44.9306 134.883 44.9946 135.203 44.9946 135.592V138H44.3226V135.664C44.3226 135.259 44.232 134.955 44.0506 134.752C43.8746 134.549 43.624 134.448 43.2986 134.448C43.0746 134.448 42.8746 134.504 42.6986 134.616C42.5226 134.723 42.3813 134.88 42.2746 135.088C42.1733 135.291 42.1226 135.544 42.1226 135.848V138H41.4506ZM47.3564 138.096C47.031 138.096 46.759 138.04 46.5404 137.928C46.3217 137.811 46.159 137.659 46.0524 137.472C45.9457 137.28 45.8924 137.072 45.8924 136.848C45.8924 136.576 45.9617 136.347 46.1004 136.16C46.2444 135.968 46.4444 135.824 46.7004 135.728C46.9617 135.627 47.2684 135.576 47.6204 135.576H48.6844C48.6844 135.325 48.6444 135.117 48.5644 134.952C48.4897 134.781 48.3777 134.653 48.2284 134.568C48.0844 134.483 47.903 134.44 47.6844 134.44C47.4284 134.44 47.207 134.504 47.0204 134.632C46.8337 134.76 46.719 134.949 46.6764 135.2H45.9884C46.0204 134.912 46.1164 134.672 46.2764 134.48C46.4417 134.283 46.6497 134.133 46.9004 134.032C47.151 133.925 47.4124 133.872 47.6844 133.872C48.0577 133.872 48.367 133.941 48.6124 134.08C48.863 134.213 49.0497 134.403 49.1724 134.648C49.295 134.888 49.3564 135.173 49.3564 135.504V138H48.7564L48.7164 137.288C48.663 137.4 48.5937 137.507 48.5084 137.608C48.4284 137.704 48.3324 137.789 48.2204 137.864C48.1084 137.933 47.9804 137.989 47.8364 138.032C47.6977 138.075 47.5377 138.096 47.3564 138.096ZM47.4604 137.528C47.647 137.528 47.815 137.491 47.9644 137.416C48.119 137.336 48.2497 137.229 48.3564 137.096C48.463 136.957 48.543 136.805 48.5964 136.64C48.655 136.475 48.6844 136.301 48.6844 136.12V136.096H47.6764C47.415 136.096 47.2044 136.128 47.0444 136.192C46.8844 136.251 46.7697 136.336 46.7004 136.448C46.631 136.555 46.5964 136.677 46.5964 136.816C46.5964 136.96 46.6284 137.085 46.6924 137.192C46.7617 137.299 46.8604 137.381 46.9884 137.44C47.1217 137.499 47.279 137.528 47.4604 137.528ZM55.0009 138L53.0809 135.792L54.8329 133.968H55.6569L53.6489 136.032L53.6569 135.552L55.8569 138H55.0009ZM52.5209 138V132.24H53.1929V138H52.5209ZM56.6162 138V133.968H57.2882V138H56.6162ZM56.9522 133.112C56.8189 133.112 56.7069 133.069 56.6162 132.984C56.5309 132.893 56.4882 132.781 56.4882 132.648C56.4882 132.515 56.5309 132.408 56.6162 132.328C56.7069 132.243 56.8189 132.2 56.9522 132.2C57.0802 132.2 57.1895 132.243 57.2802 132.328C57.3709 132.408 57.4162 132.515 57.4162 132.648C57.4162 132.781 57.3709 132.893 57.2802 132.984C57.1895 133.069 57.0802 133.112 56.9522 133.112ZM60.2901 138.096C59.9114 138.096 59.5701 138.008 59.2661 137.832C58.9674 137.656 58.7327 137.411 58.5621 137.096C58.3914 136.776 58.3061 136.408 58.3061 135.992C58.3061 135.565 58.3914 135.195 58.5621 134.88C58.7327 134.565 58.9674 134.32 59.2661 134.144C59.5701 133.963 59.9114 133.872 60.2901 133.872C60.7701 133.872 61.1701 133.997 61.4901 134.248C61.8101 134.493 62.0127 134.824 62.0981 135.24H61.4101C61.3567 134.989 61.2261 134.795 61.0181 134.656C60.8101 134.517 60.5647 134.448 60.2821 134.448C60.0527 134.448 59.8394 134.507 59.6421 134.624C59.4447 134.736 59.2874 134.907 59.1701 135.136C59.0527 135.365 58.9941 135.648 58.9941 135.984C58.9941 136.235 59.0287 136.459 59.0981 136.656C59.1674 136.848 59.2607 137.008 59.3781 137.136C59.4954 137.264 59.6314 137.363 59.7861 137.432C59.9461 137.496 60.1114 137.528 60.2821 137.528C60.4741 137.528 60.6474 137.499 60.8021 137.44C60.9567 137.376 61.0874 137.283 61.1941 137.16C61.3007 137.037 61.3727 136.893 61.4101 136.728H62.0981C62.0127 137.133 61.8074 137.464 61.4821 137.72C61.1621 137.971 60.7647 138.096 60.2901 138.096ZM60.2021 133.496L59.1061 132.84V132.32L60.2021 132.992L61.2981 132.32V132.84L60.2021 133.496ZM63.0522 138V133.968H63.6602L63.7002 134.544C63.8282 134.336 63.9989 134.173 64.2122 134.056C64.4309 133.933 64.6682 133.872 64.9242 133.872C65.1322 133.872 65.3189 133.901 65.4842 133.96C65.6549 134.013 65.8042 134.099 65.9322 134.216C66.0602 134.328 66.1642 134.472 66.2442 134.648C66.3829 134.403 66.5722 134.213 66.8122 134.08C67.0575 133.941 67.3189 133.872 67.5962 133.872C67.9055 133.872 68.1749 133.936 68.4042 134.064C68.6389 134.187 68.8175 134.376 68.9402 134.632C69.0682 134.883 69.1322 135.203 69.1322 135.592V138H68.4682V135.664C68.4682 135.259 68.3855 134.955 68.2202 134.752C68.0549 134.549 67.8229 134.448 67.5242 134.448C67.3162 134.448 67.1295 134.504 66.9642 134.616C66.7989 134.723 66.6682 134.88 66.5722 135.088C66.4762 135.296 66.4282 135.552 66.4282 135.856V138H65.7562V135.664C65.7562 135.259 65.6735 134.955 65.5082 134.752C65.3429 134.549 65.1082 134.448 64.8042 134.448C64.6015 134.448 64.4175 134.504 64.2522 134.616C64.0922 134.723 63.9642 134.88 63.8682 135.088C63.7722 135.296 63.7242 135.552 63.7242 135.856V138H63.0522ZM71.4892 138.096C71.1639 138.096 70.8919 138.04 70.6732 137.928C70.4545 137.811 70.2919 137.659 70.1852 137.472C70.0785 137.28 70.0252 137.072 70.0252 136.848C70.0252 136.576 70.0945 136.347 70.2332 136.16C70.3772 135.968 70.5772 135.824 70.8332 135.728C71.0945 135.627 71.4012 135.576 71.7532 135.576H72.8172C72.8172 135.325 72.7772 135.117 72.6972 134.952C72.6225 134.781 72.5105 134.653 72.3612 134.568C72.2172 134.483 72.0359 134.44 71.8172 134.44C71.5612 134.44 71.3399 134.504 71.1532 134.632C70.9665 134.76 70.8519 134.949 70.8092 135.2H70.1212C70.1532 134.912 70.2492 134.672 70.4092 134.48C70.5745 134.283 70.7825 134.133 71.0332 134.032C71.2839 133.925 71.5452 133.872 71.8172 133.872C72.1905 133.872 72.4999 133.941 72.7452 134.08C72.9959 134.213 73.1825 134.403 73.3052 134.648C73.4279 134.888 73.4892 135.173 73.4892 135.504V138H72.8892L72.8492 137.288C72.7959 137.4 72.7265 137.507 72.6412 137.608C72.5612 137.704 72.4652 137.789 72.3532 137.864C72.2412 137.933 72.1132 137.989 71.9692 138.032C71.8305 138.075 71.6705 138.096 71.4892 138.096ZM71.5932 137.528C71.7799 137.528 71.9479 137.491 72.0972 137.416C72.2519 137.336 72.3825 137.229 72.4892 137.096C72.5959 136.957 72.6759 136.805 72.7292 136.64C72.7879 136.475 72.8172 136.301 72.8172 136.12V136.096H71.8092C71.5479 136.096 71.3372 136.128 71.1772 136.192C71.0172 136.251 70.9025 136.336 70.8332 136.448C70.7639 136.555 70.7292 136.677 70.7292 136.816C70.7292 136.96 70.7612 137.085 70.8252 137.192C70.8945 137.299 70.9932 137.381 71.1212 137.44C71.2545 137.499 71.4119 137.528 71.5932 137.528ZM74.0008 138.984L74.4648 137.216H75.1608L74.4648 138.984H74.0008ZM79.6989 139.856C79.3362 139.856 79.0135 139.808 78.7309 139.712C78.4535 139.621 78.2375 139.48 78.0829 139.288C77.9282 139.096 77.8509 138.859 77.8509 138.576C77.8509 138.453 77.8749 138.323 77.9229 138.184C77.9762 138.045 78.0642 137.909 78.1869 137.776C78.3149 137.643 78.4935 137.523 78.7229 137.416L79.1869 137.688C78.9042 137.805 78.7202 137.939 78.6349 138.088C78.5495 138.243 78.5069 138.384 78.5069 138.512C78.5069 138.688 78.5575 138.835 78.6589 138.952C78.7602 139.069 78.9015 139.157 79.0829 139.216C79.2642 139.275 79.4695 139.304 79.6989 139.304C79.9282 139.304 80.1255 139.272 80.2909 139.208C80.4562 139.144 80.5842 139.053 80.6749 138.936C80.7655 138.819 80.8109 138.68 80.8109 138.52C80.8109 138.333 80.7415 138.176 80.6029 138.048C80.4642 137.925 80.2002 137.853 79.8109 137.832C79.4962 137.811 79.2322 137.781 79.0189 137.744C78.8055 137.707 78.6295 137.664 78.4909 137.616C78.3522 137.563 78.2349 137.504 78.1389 137.44C78.0482 137.376 77.9655 137.309 77.8909 137.24V137.056L78.6669 136.288L79.2509 136.496L78.4509 137.216L78.5549 136.936C78.6135 136.979 78.6695 137.019 78.7229 137.056C78.7762 137.093 78.8482 137.125 78.9389 137.152C79.0295 137.179 79.1549 137.203 79.3149 137.224C79.4802 137.245 79.6962 137.267 79.9629 137.288C80.3309 137.315 80.6242 137.379 80.8429 137.48C81.0669 137.581 81.2269 137.717 81.3229 137.888C81.4242 138.059 81.4749 138.261 81.4749 138.496C81.4749 138.725 81.4109 138.941 81.2829 139.144C81.1602 139.352 80.9682 139.523 80.7069 139.656C80.4455 139.789 80.1095 139.856 79.6989 139.856ZM79.6909 136.736C79.3549 136.736 79.0669 136.672 78.8269 136.544C78.5922 136.416 78.4135 136.245 78.2909 136.032C78.1682 135.813 78.1069 135.571 78.1069 135.304C78.1069 135.037 78.1682 134.797 78.2909 134.584C78.4189 134.371 78.6002 134.2 78.8349 134.072C79.0695 133.939 79.3549 133.872 79.6909 133.872C80.0269 133.872 80.3122 133.939 80.5469 134.072C80.7815 134.2 80.9602 134.371 81.0829 134.584C81.2055 134.797 81.2669 135.037 81.2669 135.304C81.2669 135.571 81.2055 135.813 81.0829 136.032C80.9602 136.245 80.7815 136.416 80.5469 136.544C80.3122 136.672 80.0269 136.736 79.6909 136.736ZM79.6909 136.184C79.9789 136.184 80.2055 136.109 80.3709 135.96C80.5362 135.811 80.6189 135.592 80.6189 135.304C80.6189 135.021 80.5362 134.805 80.3709 134.656C80.2055 134.507 79.9789 134.432 79.6909 134.432C79.4082 134.432 79.1789 134.507 79.0029 134.656C78.8322 134.805 78.7469 135.021 78.7469 135.304C78.7469 135.592 78.8322 135.811 79.0029 135.96C79.1735 136.109 79.4029 136.184 79.6909 136.184ZM80.3469 134.536L80.1469 133.968H81.7949V134.472L80.3469 134.536ZM82.5678 138V133.968H83.1758L83.2238 134.736C83.3145 134.555 83.4291 134.4 83.5678 134.272C83.7118 134.144 83.8825 134.045 84.0798 133.976C84.2825 133.907 84.5118 133.872 84.7678 133.872V134.576H84.5198C84.3491 134.576 84.1865 134.6 84.0318 134.648C83.8771 134.691 83.7385 134.763 83.6158 134.864C83.4985 134.965 83.4051 135.104 83.3358 135.28C83.2718 135.451 83.2398 135.664 83.2398 135.92V138H82.5678ZM86.9928 138.096C86.6834 138.096 86.4114 138.035 86.1768 137.912C85.9474 137.789 85.7688 137.6 85.6408 137.344C85.5181 137.088 85.4568 136.768 85.4568 136.384V133.968H86.1288V136.312C86.1288 136.712 86.2168 137.013 86.3928 137.216C86.5688 137.419 86.8168 137.52 87.1368 137.52C87.3608 137.52 87.5634 137.467 87.7448 137.36C87.9261 137.248 88.0674 137.091 88.1688 136.888C88.2754 136.68 88.3288 136.427 88.3288 136.128V133.968H89.0008V138H88.3928L88.3528 137.296C88.2301 137.547 88.0488 137.744 87.8088 137.888C87.5688 138.027 87.2968 138.096 86.9928 138.096ZM91.8907 138.096C91.5014 138.096 91.16 138.005 90.8667 137.824C90.5734 137.637 90.3467 137.384 90.1867 137.064C90.0267 136.744 89.9467 136.381 89.9467 135.976C89.9467 135.571 90.0267 135.211 90.1867 134.896C90.3467 134.576 90.5734 134.325 90.8667 134.144C91.1654 133.963 91.5094 133.872 91.8987 133.872C92.2294 133.872 92.5174 133.939 92.7627 134.072C93.0134 134.205 93.2054 134.392 93.3387 134.632V132.24H94.0107V138H93.4027L93.3467 137.336C93.2614 137.469 93.152 137.595 93.0187 137.712C92.8854 137.824 92.7254 137.917 92.5387 137.992C92.352 138.061 92.136 138.096 91.8907 138.096ZM91.9707 137.512C92.2374 137.512 92.472 137.448 92.6747 137.32C92.8774 137.192 93.0347 137.016 93.1467 136.792C93.2587 136.563 93.3147 136.293 93.3147 135.984C93.3147 135.68 93.2587 135.413 93.1467 135.184C93.0347 134.955 92.8774 134.776 92.6747 134.648C92.472 134.52 92.2374 134.456 91.9707 134.456C91.7094 134.456 91.4774 134.52 91.2747 134.648C91.072 134.776 90.9147 134.955 90.8027 135.184C90.6907 135.413 90.6347 135.68 90.6347 135.984C90.6347 136.293 90.6907 136.563 90.8027 136.792C90.9147 137.016 91.072 137.192 91.2747 137.32C91.4774 137.448 91.7094 137.512 91.9707 137.512ZM95.1943 138V133.968H95.8663V138H95.1943ZM95.5303 133.112C95.397 133.112 95.285 133.069 95.1943 132.984C95.109 132.893 95.0663 132.781 95.0663 132.648C95.0663 132.515 95.109 132.408 95.1943 132.328C95.285 132.243 95.397 132.2 95.5303 132.2C95.6583 132.2 95.7676 132.243 95.8583 132.328C95.949 132.408 95.9943 132.515 95.9943 132.648C95.9943 132.781 95.949 132.893 95.8583 132.984C95.7676 133.069 95.6583 133.112 95.5303 133.112ZM100.769 139.856C100.407 139.856 100.084 139.808 99.8012 139.712C99.5239 139.621 99.3079 139.48 99.1532 139.288C98.9985 139.096 98.9212 138.859 98.9212 138.576C98.9212 138.453 98.9452 138.323 98.9932 138.184C99.0465 138.045 99.1345 137.909 99.2572 137.776C99.3852 137.643 99.5639 137.523 99.7932 137.416L100.257 137.688C99.9745 137.805 99.7905 137.939 99.7052 138.088C99.6199 138.243 99.5772 138.384 99.5772 138.512C99.5772 138.688 99.6279 138.835 99.7292 138.952C99.8305 139.069 99.9719 139.157 100.153 139.216C100.335 139.275 100.54 139.304 100.769 139.304C100.999 139.304 101.196 139.272 101.361 139.208C101.527 139.144 101.655 139.053 101.745 138.936C101.836 138.819 101.881 138.68 101.881 138.52C101.881 138.333 101.812 138.176 101.673 138.048C101.535 137.925 101.271 137.853 100.881 137.832C100.567 137.811 100.303 137.781 100.089 137.744C99.8759 137.707 99.6999 137.664 99.5612 137.616C99.4225 137.563 99.3052 137.504 99.2092 137.44C99.1185 137.376 99.0359 137.309 98.9612 137.24V137.056L99.7372 136.288L100.321 136.496L99.5212 137.216L99.6252 136.936C99.6839 136.979 99.7399 137.019 99.7932 137.056C99.8465 137.093 99.9185 137.125 100.009 137.152C100.1 137.179 100.225 137.203 100.385 137.224C100.551 137.245 100.767 137.267 101.033 137.288C101.401 137.315 101.695 137.379 101.913 137.48C102.137 137.581 102.297 137.717 102.393 137.888C102.495 138.059 102.545 138.261 102.545 138.496C102.545 138.725 102.481 138.941 102.353 139.144C102.231 139.352 102.039 139.523 101.777 139.656C101.516 139.789 101.18 139.856 100.769 139.856ZM100.761 136.736C100.425 136.736 100.137 136.672 99.8972 136.544C99.6625 136.416 99.4839 136.245 99.3612 136.032C99.2385 135.813 99.1772 135.571 99.1772 135.304C99.1772 135.037 99.2385 134.797 99.3612 134.584C99.4892 134.371 99.6705 134.2 99.9052 134.072C100.14 133.939 100.425 133.872 100.761 133.872C101.097 133.872 101.383 133.939 101.617 134.072C101.852 134.2 102.031 134.371 102.153 134.584C102.276 134.797 102.337 135.037 102.337 135.304C102.337 135.571 102.276 135.813 102.153 136.032C102.031 136.245 101.852 136.416 101.617 136.544C101.383 136.672 101.097 136.736 100.761 136.736ZM100.761 136.184C101.049 136.184 101.276 136.109 101.441 135.96C101.607 135.811 101.689 135.592 101.689 135.304C101.689 135.021 101.607 134.805 101.441 134.656C101.276 134.507 101.049 134.432 100.761 134.432C100.479 134.432 100.249 134.507 100.073 134.656C99.9025 134.805 99.8172 135.021 99.8172 135.304C99.8172 135.592 99.9025 135.811 100.073 135.96C100.244 136.109 100.473 136.184 100.761 136.184ZM101.417 134.536L101.217 133.968H102.865V134.472L101.417 134.536ZM105.282 138.096C104.909 138.096 104.573 138.011 104.274 137.84C103.975 137.664 103.741 137.419 103.57 137.104C103.399 136.784 103.314 136.413 103.314 135.992C103.314 135.56 103.399 135.187 103.57 134.872C103.746 134.552 103.983 134.307 104.282 134.136C104.586 133.96 104.925 133.872 105.298 133.872C105.682 133.872 106.021 133.96 106.314 134.136C106.613 134.307 106.847 134.552 107.018 134.872C107.194 135.187 107.282 135.557 107.282 135.984C107.282 136.411 107.194 136.784 107.018 137.104C106.842 137.419 106.605 137.664 106.306 137.84C106.007 138.011 105.666 138.096 105.282 138.096ZM105.29 137.52C105.519 137.52 105.733 137.464 105.93 137.352C106.127 137.235 106.287 137.061 106.41 136.832C106.533 136.603 106.594 136.32 106.594 135.984C106.594 135.643 106.533 135.36 106.41 135.136C106.293 134.907 106.135 134.736 105.938 134.624C105.746 134.507 105.533 134.448 105.298 134.448C105.074 134.448 104.861 134.507 104.658 134.624C104.461 134.736 104.301 134.907 104.178 135.136C104.061 135.36 104.002 135.643 104.002 135.984C104.002 136.32 104.061 136.603 104.178 136.832C104.301 137.061 104.458 137.235 104.65 137.352C104.847 137.464 105.061 137.52 105.29 137.52ZM108.224 138V133.968H108.832L108.88 134.736C108.971 134.555 109.085 134.4 109.224 134.272C109.368 134.144 109.539 134.045 109.736 133.976C109.939 133.907 110.168 133.872 110.424 133.872V134.576H110.176C110.005 134.576 109.843 134.6 109.688 134.648C109.533 134.691 109.395 134.763 109.272 134.864C109.155 134.965 109.061 135.104 108.992 135.28C108.928 135.451 108.896 135.664 108.896 135.92V138H108.224ZM112.805 138.096C112.426 138.096 112.09 138.008 111.797 137.832C111.509 137.656 111.282 137.411 111.117 137.096C110.951 136.776 110.869 136.405 110.869 135.984C110.869 135.557 110.949 135.187 111.109 134.872C111.274 134.557 111.503 134.312 111.797 134.136C112.095 133.96 112.437 133.872 112.821 133.872C113.215 133.872 113.549 133.96 113.821 134.136C114.098 134.312 114.309 134.544 114.453 134.832C114.602 135.115 114.677 135.427 114.677 135.768C114.677 135.821 114.677 135.877 114.677 135.936C114.677 135.995 114.674 136.061 114.669 136.136H111.373V135.616H114.021C114.005 135.248 113.882 134.96 113.653 134.752C113.429 134.544 113.146 134.44 112.805 134.44C112.575 134.44 112.362 134.493 112.165 134.6C111.973 134.701 111.818 134.853 111.701 135.056C111.583 135.253 111.525 135.501 111.525 135.8V136.024C111.525 136.355 111.583 136.632 111.701 136.856C111.823 137.08 111.981 137.248 112.173 137.36C112.37 137.472 112.581 137.528 112.805 137.528C113.087 137.528 113.319 137.467 113.501 137.344C113.687 137.216 113.821 137.045 113.901 136.832H114.565C114.501 137.072 114.389 137.288 114.229 137.48C114.069 137.672 113.869 137.824 113.629 137.936C113.394 138.043 113.119 138.096 112.805 138.096Z" fill="white"/>
<rect x="10" y="162" width="185" height="29" fill="#1D1D1D"/>
<line x1="10.5278" y1="191" x2="10.5278" y2="162" stroke="#C8F135"/>
<path d="M15.75 172V165H17.81C18.63 165 19.3033 165.143 19.83 165.43C20.3633 165.71 20.7567 166.113 21.01 166.64C21.27 167.16 21.4 167.787 21.4 168.52C21.4 169.24 21.27 169.86 21.01 170.38C20.7567 170.9 20.3633 171.3 19.83 171.58C19.3033 171.86 18.63 172 17.81 172H15.75ZM16.59 171.3H17.79C18.47 171.3 19.01 171.19 19.41 170.97C19.81 170.743 20.0967 170.423 20.27 170.01C20.4433 169.59 20.53 169.093 20.53 168.52C20.53 167.933 20.4433 167.43 20.27 167.01C20.0967 166.59 19.81 166.267 19.41 166.04C19.01 165.813 18.47 165.7 17.79 165.7H16.59V171.3ZM24.4148 172.12C24.0281 172.12 23.6881 172.043 23.3948 171.89C23.1081 171.737 22.8848 171.5 22.7248 171.18C22.5714 170.86 22.4948 170.46 22.4948 169.98V166.96H23.3348V169.89C23.3348 170.39 23.4448 170.767 23.6648 171.02C23.8848 171.273 24.1948 171.4 24.5948 171.4C24.8748 171.4 25.1281 171.333 25.3548 171.2C25.5814 171.06 25.7581 170.863 25.8848 170.61C26.0181 170.35 26.0848 170.033 26.0848 169.66V166.96H26.9248V172H26.1648L26.1148 171.12C25.9614 171.433 25.7348 171.68 25.4348 171.86C25.1348 172.033 24.7948 172.12 24.4148 172.12ZM30.9572 172.12C30.6705 172.12 30.4105 172.08 30.1772 172C29.9505 171.913 29.7505 171.8 29.5772 171.66C29.4039 171.52 29.2605 171.357 29.1472 171.17L29.0772 172H28.3172V164.8H29.1572V167.79C29.3172 167.53 29.5472 167.307 29.8472 167.12C30.1472 166.933 30.5172 166.84 30.9572 166.84C31.4439 166.84 31.8705 166.957 32.2372 167.19C32.6039 167.417 32.8872 167.73 33.0872 168.13C33.2939 168.523 33.3972 168.973 33.3972 169.48C33.3972 169.987 33.2939 170.44 33.0872 170.84C32.8872 171.24 32.6039 171.553 32.2372 171.78C31.8705 172.007 31.4439 172.12 30.9572 172.12ZM30.8572 171.39C31.1839 171.39 31.4739 171.31 31.7272 171.15C31.9805 170.99 32.1772 170.77 32.3172 170.49C32.4639 170.203 32.5372 169.867 32.5372 169.48C32.5372 169.1 32.4639 168.767 32.3172 168.48C32.1772 168.193 31.9805 167.97 31.7272 167.81C31.4739 167.65 31.1839 167.57 30.8572 167.57C30.5239 167.57 30.2305 167.65 29.9772 167.81C29.7239 167.97 29.5272 168.193 29.3872 168.48C29.2472 168.767 29.1772 169.1 29.1772 169.48C29.1772 169.867 29.2472 170.203 29.3872 170.49C29.5272 170.77 29.7239 170.99 29.9772 171.15C30.2305 171.31 30.5239 171.39 30.8572 171.39ZM34.657 172V166.96H35.497V172H34.657ZM35.077 165.89C34.9103 165.89 34.7703 165.837 34.657 165.73C34.5503 165.617 34.497 165.477 34.497 165.31C34.497 165.143 34.5503 165.01 34.657 164.91C34.7703 164.803 34.9103 164.75 35.077 164.75C35.237 164.75 35.3736 164.803 35.487 164.91C35.6003 165.01 35.657 165.143 35.657 165.31C35.657 165.477 35.6003 165.617 35.487 165.73C35.3736 165.837 35.237 165.89 35.077 165.89ZM36.9793 172V166.96H37.7393L37.7793 167.84C37.9393 167.527 38.166 167.283 38.4593 167.11C38.7593 166.93 39.0993 166.84 39.4793 166.84C39.8726 166.84 40.2126 166.92 40.4993 167.08C40.786 167.233 41.0093 167.47 41.1693 167.79C41.3293 168.103 41.4093 168.503 41.4093 168.99V172H40.5693V169.08C40.5693 168.573 40.456 168.193 40.2293 167.94C40.0093 167.687 39.696 167.56 39.2893 167.56C39.0093 167.56 38.7593 167.63 38.5393 167.77C38.3193 167.903 38.1426 168.1 38.0093 168.36C37.8826 168.613 37.8193 168.93 37.8193 169.31V172H36.9793ZM44.3615 172.12C43.9548 172.12 43.6148 172.05 43.3415 171.91C43.0682 171.763 42.8648 171.573 42.7315 171.34C42.5982 171.1 42.5315 170.84 42.5315 170.56C42.5315 170.22 42.6182 169.933 42.7915 169.7C42.9715 169.46 43.2215 169.28 43.5415 169.16C43.8682 169.033 44.2515 168.97 44.6915 168.97H46.0215C46.0215 168.657 45.9715 168.397 45.8715 168.19C45.7782 167.977 45.6382 167.817 45.4515 167.71C45.2715 167.603 45.0448 167.55 44.7715 167.55C44.4515 167.55 44.1748 167.63 43.9415 167.79C43.7082 167.95 43.5648 168.187 43.5115 168.5H42.6515C42.6915 168.14 42.8115 167.84 43.0115 167.6C43.2182 167.353 43.4782 167.167 43.7915 167.04C44.1048 166.907 44.4315 166.84 44.7715 166.84C45.2382 166.84 45.6248 166.927 45.9315 167.1C46.2448 167.267 46.4782 167.503 46.6315 167.81C46.7848 168.11 46.8615 168.467 46.8615 168.88V172H46.1115L46.0615 171.11C45.9948 171.25 45.9082 171.383 45.8015 171.51C45.7015 171.63 45.5815 171.737 45.4415 171.83C45.3015 171.917 45.1415 171.987 44.9615 172.04C44.7882 172.093 44.5882 172.12 44.3615 172.12ZM44.4915 171.41C44.7248 171.41 44.9348 171.363 45.1215 171.27C45.3148 171.17 45.4782 171.037 45.6115 170.87C45.7448 170.697 45.8448 170.507 45.9115 170.3C45.9848 170.093 46.0215 169.877 46.0215 169.65V169.62H44.7615C44.4348 169.62 44.1715 169.66 43.9715 169.74C43.7715 169.813 43.6282 169.92 43.5415 170.06C43.4548 170.193 43.4115 170.347 43.4115 170.52C43.4115 170.7 43.4515 170.857 43.5315 170.99C43.6182 171.123 43.7415 171.227 43.9015 171.3C44.0682 171.373 44.2648 171.41 44.4915 171.41Z" fill="#C8F135"/>
<path d="M15.6 186V180.4H16.272V182.936L18.608 180.4H19.456L17.376 182.632L19.488 186H18.672L16.896 183.152L16.272 183.816V186H15.6ZM21.5631 186.096C21.2537 186.096 20.9817 186.035 20.7471 185.912C20.5177 185.789 20.3391 185.6 20.2111 185.344C20.0884 185.088 20.0271 184.768 20.0271 184.384V181.968H20.6991V184.312C20.6991 184.712 20.7871 185.013 20.9631 185.216C21.1391 185.419 21.3871 185.52 21.7071 185.52C21.9311 185.52 22.1337 185.467 22.3151 185.36C22.4964 185.248 22.6377 185.091 22.7391 184.888C22.8457 184.68 22.8991 184.427 22.8991 184.128V181.968H23.5711V186H22.9631L22.9231 185.296C22.8004 185.547 22.6191 185.744 22.3791 185.888C22.1391 186.027 21.8671 186.096 21.5631 186.096ZM27.165 186L25.245 183.792L26.997 181.968H27.821L25.813 184.032L25.821 183.552L28.021 186H27.165ZM24.685 186V180.24H25.357V186H24.685ZM30.9053 186V181.968H31.5773V186H30.9053ZM31.2413 181.112C31.1079 181.112 30.9959 181.069 30.9053 180.984C30.8199 180.893 30.7773 180.781 30.7773 180.648C30.7773 180.515 30.8199 180.408 30.9053 180.328C30.9959 180.243 31.1079 180.2 31.2413 180.2C31.3693 180.2 31.4786 180.243 31.5693 180.328C31.6599 180.408 31.7053 180.515 31.7053 180.648C31.7053 180.781 31.6599 180.893 31.5693 180.984C31.4786 181.069 31.3693 181.112 31.2413 181.112ZM34.2831 186.096C33.9471 186.096 33.6538 186.04 33.4031 185.928C33.1578 185.816 32.9605 185.661 32.8111 185.464C32.6671 185.261 32.5791 185.024 32.5471 184.752H33.2351C33.2618 184.891 33.3178 185.019 33.4031 185.136C33.4885 185.253 33.6031 185.349 33.7471 185.424C33.8965 185.493 34.0778 185.528 34.2911 185.528C34.4778 185.528 34.6325 185.501 34.7551 185.448C34.8778 185.389 34.9685 185.312 35.0271 185.216C35.0911 185.12 35.1231 185.016 35.1231 184.904C35.1231 184.739 35.0831 184.613 35.0031 184.528C34.9285 184.443 34.8165 184.376 34.6671 184.328C34.5178 184.275 34.3365 184.229 34.1231 184.192C33.9471 184.16 33.7738 184.117 33.6031 184.064C33.4325 184.011 33.2805 183.941 33.1471 183.856C33.0138 183.765 32.9071 183.656 32.8271 183.528C32.7525 183.4 32.7151 183.243 32.7151 183.056C32.7151 182.827 32.7738 182.624 32.8911 182.448C33.0085 182.267 33.1765 182.125 33.3951 182.024C33.6191 181.923 33.8778 181.872 34.1711 181.872C34.6031 181.872 34.9525 181.976 35.2191 182.184C35.4858 182.392 35.6431 182.693 35.6911 183.088H35.0271C35.0005 182.885 34.9125 182.728 34.7631 182.616C34.6191 182.499 34.4191 182.44 34.1631 182.44C33.9125 182.44 33.7205 182.491 33.5871 182.592C33.4591 182.693 33.3951 182.827 33.3951 182.992C33.3951 183.099 33.4298 183.195 33.4991 183.28C33.5738 183.36 33.6805 183.429 33.8191 183.488C33.9631 183.547 34.1391 183.595 34.3471 183.632C34.6138 183.68 34.8565 183.744 35.0751 183.824C35.2938 183.904 35.4698 184.024 35.6031 184.184C35.7418 184.339 35.8111 184.56 35.8111 184.848C35.8111 185.099 35.7471 185.317 35.6191 185.504C35.4965 185.691 35.3205 185.837 35.0911 185.944C34.8618 186.045 34.5925 186.096 34.2831 186.096ZM36.7788 187.76V181.968H37.3868L37.4428 182.624C37.5281 182.496 37.6374 182.376 37.7708 182.264C37.9041 182.147 38.0641 182.053 38.2508 181.984C38.4374 181.909 38.6508 181.872 38.8908 181.872C39.2854 181.872 39.6268 181.965 39.9148 182.152C40.2081 182.339 40.4348 182.592 40.5948 182.912C40.7601 183.227 40.8428 183.587 40.8428 183.992C40.8428 184.397 40.7601 184.76 40.5948 185.08C40.4348 185.395 40.2081 185.643 39.9148 185.824C39.6214 186.005 39.2774 186.096 38.8828 186.096C38.5574 186.096 38.2694 186.029 38.0188 185.896C37.7734 185.763 37.5841 185.576 37.4508 185.336V187.76H36.7788ZM38.8108 185.512C39.0721 185.512 39.3041 185.448 39.5068 185.32C39.7094 185.192 39.8668 185.016 39.9788 184.792C40.0961 184.563 40.1548 184.293 40.1548 183.984C40.1548 183.68 40.0961 183.413 39.9788 183.184C39.8668 182.955 39.7094 182.776 39.5068 182.648C39.3041 182.52 39.0721 182.456 38.8108 182.456C38.5441 182.456 38.3094 182.52 38.1068 182.648C37.9041 182.776 37.7468 182.955 37.6348 183.184C37.5228 183.413 37.4668 183.68 37.4668 183.984C37.4668 184.293 37.5228 184.563 37.6348 184.792C37.7468 185.016 37.9041 185.192 38.1068 185.32C38.3094 185.448 38.5441 185.512 38.8108 185.512ZM43.5866 186.096C43.2132 186.096 42.8772 186.011 42.5786 185.84C42.2799 185.664 42.0452 185.419 41.8746 185.104C41.7039 184.784 41.6186 184.413 41.6186 183.992C41.6186 183.56 41.7039 183.187 41.8746 182.872C42.0506 182.552 42.2879 182.307 42.5866 182.136C42.8906 181.96 43.2292 181.872 43.6026 181.872C43.9866 181.872 44.3252 181.96 44.6186 182.136C44.9172 182.307 45.1519 182.552 45.3226 182.872C45.4986 183.187 45.5866 183.557 45.5866 183.984C45.5866 184.411 45.4986 184.784 45.3226 185.104C45.1466 185.419 44.9092 185.664 44.6106 185.84C44.3119 186.011 43.9706 186.096 43.5866 186.096ZM43.5946 185.52C43.8239 185.52 44.0372 185.464 44.2346 185.352C44.4319 185.235 44.5919 185.061 44.7146 184.832C44.8372 184.603 44.8986 184.32 44.8986 183.984C44.8986 183.643 44.8372 183.36 44.7146 183.136C44.5972 182.907 44.4399 182.736 44.2426 182.624C44.0506 182.507 43.8372 182.448 43.6026 182.448C43.3786 182.448 43.1652 182.507 42.9626 182.624C42.7652 182.736 42.6052 182.907 42.4826 183.136C42.3652 183.36 42.3066 183.643 42.3066 183.984C42.3066 184.32 42.3652 184.603 42.4826 184.832C42.6052 185.061 42.7626 185.235 42.9546 185.352C43.1519 185.464 43.3652 185.52 43.5946 185.52ZM48.3048 186.096C47.9154 186.096 47.5741 186.005 47.2808 185.824C46.9874 185.637 46.7608 185.384 46.6008 185.064C46.4408 184.744 46.3608 184.381 46.3608 183.976C46.3608 183.571 46.4408 183.211 46.6008 182.896C46.7608 182.576 46.9874 182.325 47.2808 182.144C47.5794 181.963 47.9234 181.872 48.3128 181.872C48.6434 181.872 48.9314 181.939 49.1768 182.072C49.4274 182.205 49.6194 182.392 49.7528 182.632V180.24H50.4248V186H49.8168L49.7608 185.336C49.6754 185.469 49.5661 185.595 49.4328 185.712C49.2994 185.824 49.1394 185.917 48.9528 185.992C48.7661 186.061 48.5501 186.096 48.3048 186.096ZM48.3848 185.512C48.6514 185.512 48.8861 185.448 49.0888 185.32C49.2914 185.192 49.4488 185.016 49.5608 184.792C49.6728 184.563 49.7288 184.293 49.7288 183.984C49.7288 183.68 49.6728 183.413 49.5608 183.184C49.4488 182.955 49.2914 182.776 49.0888 182.648C48.8861 182.52 48.6514 182.456 48.3848 182.456C48.1234 182.456 47.8914 182.52 47.6888 182.648C47.4861 182.776 47.3288 182.955 47.2168 183.184C47.1048 183.413 47.0488 183.68 47.0488 183.984C47.0488 184.293 47.1048 184.563 47.2168 184.792C47.3288 185.016 47.4861 185.192 47.6888 185.32C47.8914 185.448 48.1234 185.512 48.3848 185.512ZM53.6694 186V180.24H54.3414V186H53.6694ZM55.5146 186V181.968H56.1866V186H55.5146ZM55.8506 181.112C55.7173 181.112 55.6053 181.069 55.5146 180.984C55.4293 180.893 55.3866 180.781 55.3866 180.648C55.3866 180.515 55.4293 180.408 55.5146 180.328C55.6053 180.243 55.7173 180.2 55.8506 180.2C55.9786 180.2 56.088 180.243 56.1786 180.328C56.2693 180.408 56.3146 180.515 56.3146 180.648C56.3146 180.781 56.2693 180.893 56.1786 180.984C56.088 181.069 55.9786 181.112 55.8506 181.112ZM57.3725 186V181.968H57.9805L58.0125 182.672C58.1405 182.421 58.3218 182.227 58.5565 182.088C58.7965 181.944 59.0685 181.872 59.3725 181.872C59.6872 181.872 59.9592 181.936 60.1885 182.064C60.4178 182.187 60.5965 182.376 60.7245 182.632C60.8525 182.883 60.9165 183.203 60.9165 183.592V186H60.2445V183.664C60.2445 183.259 60.1538 182.955 59.9725 182.752C59.7965 182.549 59.5458 182.448 59.2205 182.448C58.9965 182.448 58.7965 182.504 58.6205 182.616C58.4445 182.723 58.3032 182.88 58.1965 183.088C58.0952 183.291 58.0445 183.544 58.0445 183.848V186H57.3725ZM62.0303 186V181.968H62.7023V186H62.0303ZM62.3663 181.112C62.2329 181.112 62.1209 181.069 62.0303 180.984C61.9449 180.893 61.9023 180.781 61.9023 180.648C61.9023 180.515 61.9449 180.408 62.0303 180.328C62.1209 180.243 62.2329 180.2 62.3663 180.2C62.4943 180.2 62.6036 180.243 62.6943 180.328C62.7849 180.408 62.8303 180.515 62.8303 180.648C62.8303 180.781 62.7849 180.893 62.6943 180.984C62.6036 181.069 62.4943 181.112 62.3663 181.112ZM63.1121 187.76V187.184H63.4241C63.6268 187.184 63.7708 187.141 63.8561 187.056C63.9415 186.976 63.9841 186.837 63.9841 186.64V181.968H64.6561V186.656C64.6561 186.912 64.6135 187.12 64.5281 187.28C64.4428 187.445 64.3148 187.565 64.1441 187.64C63.9788 187.72 63.7735 187.76 63.5281 187.76H63.1121ZM64.3281 181.112C64.1948 181.112 64.0828 181.069 63.9921 180.984C63.9068 180.893 63.8641 180.781 63.8641 180.648C63.8641 180.515 63.9068 180.408 63.9921 180.328C64.0828 180.243 64.1948 180.2 64.3281 180.2C64.4561 180.2 64.5628 180.243 64.6481 180.328C64.7388 180.408 64.7841 180.515 64.7841 180.648C64.7841 180.781 64.7388 180.893 64.6481 180.984C64.5628 181.069 64.4561 181.112 64.3281 181.112ZM67.6014 186.096C67.2228 186.096 66.8868 186.008 66.5934 185.832C66.3054 185.656 66.0788 185.411 65.9134 185.096C65.7481 184.776 65.6654 184.405 65.6654 183.984C65.6654 183.557 65.7454 183.187 65.9054 182.872C66.0708 182.557 66.3001 182.312 66.5934 182.136C66.8921 181.96 67.2334 181.872 67.6174 181.872C68.0121 181.872 68.3454 181.96 68.6174 182.136C68.8948 182.312 69.1054 182.544 69.2494 182.832C69.3988 183.115 69.4734 183.427 69.4734 183.768C69.4734 183.821 69.4734 183.877 69.4734 183.936C69.4734 183.995 69.4708 184.061 69.4654 184.136H66.1694V183.616H68.8174C68.8014 183.248 68.6788 182.96 68.4494 182.752C68.2254 182.544 67.9428 182.44 67.6014 182.44C67.3721 182.44 67.1588 182.493 66.9614 182.6C66.7694 182.701 66.6148 182.853 66.4974 183.056C66.3801 183.253 66.3214 183.501 66.3214 183.8V184.024C66.3214 184.355 66.3801 184.632 66.4974 184.856C66.6201 185.08 66.7774 185.248 66.9694 185.36C67.1668 185.472 67.3774 185.528 67.6014 185.528C67.8841 185.528 68.1161 185.467 68.2974 185.344C68.4841 185.216 68.6174 185.045 68.6974 184.832H69.3614C69.2974 185.072 69.1854 185.288 69.0254 185.48C68.8654 185.672 68.6654 185.824 68.4254 185.936C68.1908 186.043 67.9161 186.096 67.6014 186.096ZM74.9853 186L73.0653 183.792L74.8173 181.968H75.6413L73.6333 184.032L73.6413 183.552L75.8413 186H74.9853ZM72.5053 186V180.24H73.1773V186H72.5053ZM78.0475 186.096C77.6742 186.096 77.3382 186.011 77.0395 185.84C76.7408 185.664 76.5062 185.419 76.3355 185.104C76.1648 184.784 76.0795 184.413 76.0795 183.992C76.0795 183.56 76.1648 183.187 76.3355 182.872C76.5115 182.552 76.7488 182.307 77.0475 182.136C77.3515 181.96 77.6902 181.872 78.0635 181.872C78.4475 181.872 78.7862 181.96 79.0795 182.136C79.3782 182.307 79.6128 182.552 79.7835 182.872C79.9595 183.187 80.0475 183.557 80.0475 183.984C80.0475 184.411 79.9595 184.784 79.7835 185.104C79.6075 185.419 79.3702 185.664 79.0715 185.84C78.7728 186.011 78.4315 186.096 78.0475 186.096ZM78.0555 185.52C78.2848 185.52 78.4982 185.464 78.6955 185.352C78.8928 185.235 79.0528 185.061 79.1755 184.832C79.2982 184.603 79.3595 184.32 79.3595 183.984C79.3595 183.643 79.2982 183.36 79.1755 183.136C79.0582 182.907 78.9008 182.736 78.7035 182.624C78.5115 182.507 78.2982 182.448 78.0635 182.448C77.8395 182.448 77.6262 182.507 77.4235 182.624C77.2262 182.736 77.0662 182.907 76.9435 183.136C76.8262 183.36 76.7675 183.643 76.7675 183.984C76.7675 184.32 76.8262 184.603 76.9435 184.832C77.0662 185.061 77.2235 185.235 77.4155 185.352C77.6128 185.464 77.8262 185.52 78.0555 185.52ZM80.9897 186V180.24H81.6617V186H80.9897ZM84.5389 186.096C84.1603 186.096 83.8243 186.008 83.5309 185.832C83.2429 185.656 83.0163 185.411 82.8509 185.096C82.6856 184.776 82.6029 184.405 82.6029 183.984C82.6029 183.557 82.6829 183.187 82.8429 182.872C83.0083 182.557 83.2376 182.312 83.5309 182.136C83.8296 181.96 84.1709 181.872 84.5549 181.872C84.9496 181.872 85.2829 181.96 85.5549 182.136C85.8323 182.312 86.0429 182.544 86.1869 182.832C86.3363 183.115 86.4109 183.427 86.4109 183.768C86.4109 183.821 86.4109 183.877 86.4109 183.936C86.4109 183.995 86.4083 184.061 86.4029 184.136H83.1069V183.616H85.7549C85.7389 183.248 85.6163 182.96 85.3869 182.752C85.1629 182.544 84.8803 182.44 84.5389 182.44C84.3096 182.44 84.0963 182.493 83.8989 182.6C83.7069 182.701 83.5523 182.853 83.4349 183.056C83.3176 183.253 83.2589 183.501 83.2589 183.8V184.024C83.2589 184.355 83.3176 184.632 83.4349 184.856C83.5576 185.08 83.7149 185.248 83.9069 185.36C84.1043 185.472 84.3149 185.528 84.5389 185.528C84.8216 185.528 85.0536 185.467 85.2349 185.344C85.4216 185.216 85.5549 185.045 85.6349 184.832H86.2989C86.2349 185.072 86.1229 185.288 85.9629 185.48C85.8029 185.672 85.6029 185.824 85.3629 185.936C85.1283 186.043 84.8536 186.096 84.5389 186.096ZM87.3178 186V181.968H87.9258L87.9578 182.672C88.0858 182.421 88.2671 182.227 88.5018 182.088C88.7418 181.944 89.0138 181.872 89.3178 181.872C89.6325 181.872 89.9045 181.936 90.1338 182.064C90.3631 182.187 90.5418 182.376 90.6698 182.632C90.7978 182.883 90.8618 183.203 90.8618 183.592V186H90.1898V183.664C90.1898 183.259 90.0991 182.955 89.9178 182.752C89.7418 182.549 89.4911 182.448 89.1658 182.448C88.9418 182.448 88.7418 182.504 88.5658 182.616C88.3898 182.723 88.2485 182.88 88.1418 183.088C88.0405 183.291 87.9898 183.544 87.9898 183.848V186H87.3178ZM93.2236 186.096C92.8982 186.096 92.6262 186.04 92.4076 185.928C92.1889 185.811 92.0262 185.659 91.9196 185.472C91.8129 185.28 91.7596 185.072 91.7596 184.848C91.7596 184.576 91.8289 184.347 91.9676 184.16C92.1116 183.968 92.3116 183.824 92.5676 183.728C92.8289 183.627 93.1356 183.576 93.4876 183.576H94.5516C94.5516 183.325 94.5116 183.117 94.4316 182.952C94.3569 182.781 94.2449 182.653 94.0956 182.568C93.9516 182.483 93.7702 182.44 93.5516 182.44C93.2956 182.44 93.0742 182.504 92.8876 182.632C92.7009 182.76 92.5862 182.949 92.5436 183.2H91.8556C91.8876 182.912 91.9836 182.672 92.1436 182.48C92.3089 182.283 92.5169 182.133 92.7676 182.032C93.0182 181.925 93.2796 181.872 93.5516 181.872C93.9249 181.872 94.2342 181.941 94.4796 182.08C94.7302 182.213 94.9169 182.403 95.0396 182.648C95.1622 182.888 95.2236 183.173 95.2236 183.504V186H94.6236L94.5836 185.288C94.5302 185.4 94.4609 185.507 94.3756 185.608C94.2956 185.704 94.1996 185.789 94.0876 185.864C93.9756 185.933 93.8476 185.989 93.7036 186.032C93.5649 186.075 93.4049 186.096 93.2236 186.096ZM93.3276 185.528C93.5142 185.528 93.6822 185.491 93.8316 185.416C93.9862 185.336 94.1169 185.229 94.2236 185.096C94.3302 184.957 94.4102 184.805 94.4636 184.64C94.5222 184.475 94.5516 184.301 94.5516 184.12V184.096H93.5436C93.2822 184.096 93.0716 184.128 92.9116 184.192C92.7516 184.251 92.6369 184.336 92.5676 184.448C92.4982 184.555 92.4636 184.677 92.4636 184.816C92.4636 184.96 92.4956 185.085 92.5596 185.192C92.6289 185.299 92.7276 185.381 92.8556 185.44C92.9889 185.499 93.1462 185.528 93.3276 185.528Z" fill="white"/>
</svg>
