<svg width="200" height="200" viewBox="0 0 200 200" fill="none" xmlns="http://www.w3.org/2000/svg">
<rect width="200" height="200" fill="#0A0A0A"/>
<path d="M12.875 92V74.5H23.525V76.225H14.975V82.375H22.25V84.075H14.975V92H12.875ZM34.0539 92.3C32.3706 92.3 30.8872 91.925 29.6039 91.175C28.3372 90.4083 27.3456 89.35 26.6289 88C25.9289 86.6333 25.5789 85.05 25.5789 83.25C25.5789 81.4667 25.9289 79.9 26.6289 78.55C27.3456 77.1833 28.3372 76.1167 29.6039 75.35C30.8872 74.5833 32.3706 74.2 34.0539 74.2C35.7706 74.2 37.2622 74.5833 38.5289 75.35C39.7956 76.1167 40.7789 77.1833 41.4789 78.55C42.1956 79.9 42.5539 81.4667 42.5539 83.25C42.5539 85.05 42.1956 86.6333 41.4789 88C40.7789 89.35 39.7956 90.4083 38.5289 91.175C37.2622 91.925 35.7706 92.3 34.0539 92.3ZM34.0539 90.45C35.3206 90.45 36.4289 90.1667 37.3789 89.6C38.3456 89.0167 39.0872 88.1917 39.6039 87.125C40.1372 86.0417 40.4039 84.75 40.4039 83.25C40.4039 81.75 40.1372 80.4667 39.6039 79.4C39.0872 78.3167 38.3456 77.4917 37.3789 76.925C36.4289 76.3583 35.3206 76.075 34.0539 76.075C32.8039 76.075 31.6956 76.3583 30.7289 76.925C29.7789 77.4917 29.0372 78.3167 28.5039 79.4C27.9872 80.4667 27.7289 81.75 27.7289 83.25C27.7289 84.75 27.9872 86.0417 28.5039 87.125C29.0372 88.1917 29.7789 89.0167 30.7289 89.6C31.6956 90.1667 32.8039 90.45 34.0539 90.45ZM45.6143 92V74.5H51.2643C52.6309 74.5 53.7476 74.7333 54.6143 75.2C55.4809 75.65 56.1226 76.2583 56.5393 77.025C56.9559 77.7917 57.1643 78.6583 57.1643 79.625C57.1643 80.5583 56.9476 81.4167 56.5143 82.2C56.0976 82.9833 55.4476 83.6083 54.5643 84.075C53.6809 84.5417 52.5476 84.775 51.1643 84.775H47.7143V92H45.6143ZM54.8643 92L51.0143 84.175H53.3643L57.3393 92H54.8643ZM47.7143 83.125H51.1143C52.4476 83.125 53.4226 82.8 54.0393 82.15C54.6726 81.5 54.9893 80.6667 54.9893 79.65C54.9893 78.6167 54.6809 77.8 54.0643 77.2C53.4643 76.5833 52.4726 76.275 51.0893 76.275H47.7143V83.125ZM60.458 92V74.5H62.908L69.083 86.725L75.283 74.5H77.758V92H75.658V78.25L69.883 89.55H68.308L62.558 78.3V92H60.458ZM80.3535 92L86.8035 74.5H89.0285L95.4535 92H93.2285L87.9035 77.125L82.5535 92H80.3535ZM83.3035 87.5L83.9035 85.8H91.8285L92.4285 87.5H83.3035ZM104.721 92V74.5H110.421C111.804 74.5 112.937 74.7333 113.821 75.2C114.721 75.65 115.379 76.2583 115.796 77.025C116.229 77.7917 116.446 78.6667 116.446 79.65C116.446 80.6 116.229 81.4667 115.796 82.25C115.379 83.0167 114.729 83.6333 113.846 84.1C112.962 84.5667 111.821 84.8 110.421 84.8H106.821V92H104.721ZM106.821 83.025H110.396C111.796 83.025 112.796 82.7167 113.396 82.1C113.996 81.4833 114.296 80.6667 114.296 79.65C114.296 78.5667 113.996 77.7333 113.396 77.15C112.796 76.55 111.796 76.25 110.396 76.25H106.821V83.025ZM119.223 92V74.5H124.873C126.239 74.5 127.356 74.7333 128.223 75.2C129.089 75.65 129.731 76.2583 130.148 77.025C130.564 77.7917 130.773 78.6583 130.773 79.625C130.773 80.5583 130.556 81.4167 130.123 82.2C129.706 82.9833 129.056 83.6083 128.173 84.075C127.289 84.5417 126.156 84.775 124.773 84.775H121.323V92H119.223ZM128.473 92L124.623 84.175H126.973L130.948 92H128.473ZM121.323 83.125H124.723C126.056 83.125 127.031 82.8 127.648 82.15C128.281 81.5 128.598 80.6667 128.598 79.65C128.598 78.6167 128.289 77.8 127.673 77.2C127.073 76.5833 126.081 76.275 124.698 76.275H121.323V83.125ZM134.066 92V74.5H144.891V76.225H136.166V82.325H144.141V84.025H136.166V90.275H144.891V92H134.066ZM16.975 125V109.225H11.75V107.5H24.3V109.225H19.075V125H16.975ZM26.8887 125V107.5H37.7137V109.225H28.9887V115.325H36.9637V117.025H28.9887V123.275H37.7137V125H26.8887ZM40.2744 125V123.35L48.9994 109.325H40.3994V107.5H51.4494V109.15L42.6994 123.175H51.5494V125H40.2744ZM45.9244 106.15L42.4994 104.1V102.475L45.9244 104.575L49.3494 102.475V104.1L45.9244 106.15ZM54.5498 125V107.5H56.6498V125H54.5498ZM60.4092 125V107.5H62.5092L71.8342 121.525V107.5H73.9342V125H71.8342L62.5092 110.975V125H60.4092ZM77.6943 125V107.5H88.5193V109.225H79.7943V115.325H87.7693V117.025H79.7943V123.275H88.5193V125H77.6943Z" fill="#C8F135"/>
<rect width="200" height="26" fill="#C8F135"/>
<rect y="165" width="200" height="35" fill="#C8F135"/>
<path d="M11.9 21V12.6H12.908L17.384 19.332V12.6H18.392V21H17.384L12.908 14.268V21H11.9ZM20.1969 21V12.6H21.3729L24.3369 18.468L27.3129 12.6H28.5009V21H27.4929V14.4L24.7209 19.824H23.9649L21.2049 14.424V21H20.1969ZM29.7467 21L32.8427 12.6H33.9107L36.9947 21H35.9267L33.3707 13.86L30.8027 21H29.7467ZM31.1627 18.84L31.4507 18.024H35.2547L35.5427 18.84H31.1627ZM38.2555 21V12.6H40.9915C41.6555 12.6 42.1995 12.712 42.6235 12.936C43.0555 13.152 43.3715 13.444 43.5715 13.812C43.7795 14.18 43.8835 14.6 43.8835 15.072C43.8835 15.528 43.7795 15.944 43.5715 16.32C43.3715 16.688 43.0595 16.984 42.6355 17.208C42.2115 17.432 41.6635 17.544 40.9915 17.544H39.2635V21H38.2555ZM39.2635 16.692H40.9795C41.6515 16.692 42.1315 16.544 42.4195 16.248C42.7075 15.952 42.8515 15.56 42.8515 15.072C42.8515 14.552 42.7075 14.152 42.4195 13.872C42.1315 13.584 41.6515 13.44 40.9795 13.44H39.2635V16.692Z" fill="#0A0A0A"/>
<path d="M15.257 187.132C14.5163 187.132 13.8637 186.967 13.299 186.637C12.7417 186.3 12.3053 185.834 11.99 185.24C11.682 184.639 11.528 183.942 11.528 183.15C11.528 182.365 11.682 181.676 11.99 181.082C12.3053 180.481 12.7417 180.011 13.299 179.674C13.8637 179.337 14.5163 179.168 15.257 179.168C16.0123 179.168 16.6687 179.337 17.226 179.674C17.7833 180.011 18.216 180.481 18.524 181.082C18.8393 181.676 18.997 182.365 18.997 183.15C18.997 183.942 18.8393 184.639 18.524 185.24C18.216 185.834 17.7833 186.3 17.226 186.637C16.6687 186.967 16.0123 187.132 15.257 187.132ZM15.257 186.318C15.8143 186.318 16.302 186.193 16.72 185.944C17.1453 185.687 17.4717 185.324 17.699 184.855C17.9337 184.378 18.051 183.81 18.051 183.15C18.051 182.49 17.9337 181.925 17.699 181.456C17.4717 180.979 17.1453 180.616 16.72 180.367C16.302 180.118 15.8143 179.993 15.257 179.993C14.707 179.993 14.2193 180.118 13.794 180.367C13.376 180.616 13.0497 180.979 12.815 181.456C12.5877 181.925 12.474 182.49 12.474 183.15C12.474 183.81 12.5877 184.378 12.815 184.855C13.0497 185.324 13.376 185.687 13.794 185.944C14.2193 186.193 14.707 186.318 15.257 186.318ZM22.7966 187.132C22.2319 187.132 21.7406 187.029 21.3226 186.824C20.9046 186.619 20.5819 186.333 20.3546 185.966C20.1272 185.599 20.0136 185.174 20.0136 184.69H20.9816C20.9816 184.991 21.0512 185.269 21.1906 185.526C21.3299 185.775 21.5316 185.977 21.7956 186.131C22.0669 186.278 22.4006 186.351 22.7966 186.351C23.1412 186.351 23.4346 186.296 23.6766 186.186C23.9259 186.069 24.1129 185.911 24.2376 185.713C24.3696 185.515 24.4356 185.291 24.4356 185.042C24.4356 184.741 24.3696 184.499 24.2376 184.316C24.1129 184.125 23.9406 183.971 23.7206 183.854C23.5006 183.737 23.2439 183.634 22.9506 183.546C22.6646 183.451 22.3639 183.352 22.0486 183.249C21.4399 183.044 20.9926 182.787 20.7066 182.479C20.4206 182.171 20.2776 181.771 20.2776 181.28C20.2776 180.862 20.3729 180.495 20.5636 180.18C20.7616 179.865 21.0402 179.619 21.3996 179.443C21.7662 179.26 22.1989 179.168 22.6976 179.168C23.1889 179.168 23.6142 179.26 23.9736 179.443C24.3402 179.626 24.6262 179.879 24.8316 180.202C25.0369 180.517 25.1396 180.884 25.1396 181.302H24.1716C24.1716 181.089 24.1166 180.88 24.0066 180.675C23.8966 180.47 23.7279 180.301 23.5006 180.169C23.2806 180.03 23.0019 179.96 22.6646 179.96C22.3859 179.953 22.1366 180 21.9166 180.103C21.7039 180.198 21.5352 180.338 21.4106 180.521C21.2932 180.704 21.2346 180.928 21.2346 181.192C21.2346 181.441 21.2859 181.643 21.3886 181.797C21.4986 181.951 21.6526 182.083 21.8506 182.193C22.0559 182.296 22.2942 182.391 22.5656 182.479C22.8369 182.567 23.1376 182.666 23.4676 182.776C23.8416 182.901 24.1716 183.055 24.4576 183.238C24.7509 183.414 24.9782 183.641 25.1396 183.92C25.3082 184.199 25.3926 184.554 25.3926 184.987C25.3926 185.354 25.2936 185.702 25.0956 186.032C24.9049 186.355 24.6189 186.619 24.2376 186.824C23.8562 187.029 23.3759 187.132 22.7966 187.132ZM26.2294 187L29.0674 179.3H30.0464L32.8734 187H31.8944L29.5514 180.455L27.1974 187H26.2294ZM27.5274 185.02L27.7914 184.272H31.2784L31.5424 185.02H27.5274ZM34.0291 187V179.3H35.1071L37.8241 184.679L40.5521 179.3H41.6411V187H40.7171V180.95L38.1761 185.922H37.4831L34.9531 180.972V187H34.0291ZM46.2 187V179.3H47.124L51.227 185.471V179.3H52.151V187H51.227L47.124 180.829V187H46.2ZM53.8055 187V179.3H58.5685V180.059H54.7295V182.743H58.2385V183.491H54.7295V186.241H58.5685V187H53.8055ZM60.0252 187V179.3H62.2912C63.1932 179.3 63.9339 179.458 64.5132 179.773C65.0999 180.081 65.5325 180.525 65.8112 181.104C66.0972 181.676 66.2402 182.365 66.2402 183.172C66.2402 183.964 66.0972 184.646 65.8112 185.218C65.5325 185.79 65.0999 186.23 64.5132 186.538C63.9339 186.846 63.1932 187 62.2912 187H60.0252ZM60.9492 186.23H62.2692C63.0172 186.23 63.6112 186.109 64.0512 185.867C64.4912 185.618 64.8065 185.266 64.9972 184.811C65.1879 184.349 65.2832 183.803 65.2832 183.172C65.2832 182.527 65.1879 181.973 64.9972 181.511C64.8065 181.049 64.4912 180.693 64.0512 180.444C63.6112 180.195 63.0172 180.07 62.2692 180.07H60.9492V186.23ZM67.5984 187V179.3H72.3614V180.059H68.5224V182.743H72.0314V183.491H68.5224V186.241H72.3614V187H67.5984ZM73.8182 187V179.3H74.7422V186.263H78.3282V187H73.8182ZM81.3349 187.132C80.8729 187.132 80.4733 187.044 80.1359 186.868C79.8059 186.692 79.5493 186.439 79.3659 186.109C79.1899 185.779 79.1019 185.387 79.1019 184.932H80.0369C80.0369 185.189 80.0773 185.423 80.1579 185.636C80.2459 185.841 80.3816 186.006 80.5649 186.131C80.7556 186.248 81.0086 186.307 81.3239 186.307C81.6319 186.307 81.8739 186.248 82.0499 186.131C82.2333 186.014 82.3616 185.856 82.4349 185.658C82.5156 185.453 82.5559 185.222 82.5559 184.965V179.3H83.4799V184.965C83.4799 185.654 83.2893 186.19 82.9079 186.571C82.5339 186.945 82.0096 187.132 81.3349 187.132ZM84.3017 187L87.1397 179.3H88.1187L90.9457 187H89.9667L87.6237 180.455L85.2697 187H84.3017ZM85.5997 185.02L85.8637 184.272H89.3507L89.6147 185.02H85.5997ZM92.3764 187.055C92.193 187.055 92.039 186.996 91.9144 186.879C91.797 186.754 91.7384 186.604 91.7384 186.428C91.7384 186.252 91.797 186.105 91.9144 185.988C92.039 185.863 92.193 185.801 92.3764 185.801C92.5597 185.801 92.71 185.863 92.8274 185.988C92.9447 186.105 93.0034 186.252 93.0034 186.428C93.0034 186.604 92.9447 186.754 92.8274 186.879C92.71 186.996 92.5597 187.055 92.3764 187.055ZM99.0079 187V180.059H96.7089V179.3H102.231V180.059H99.9319V187H99.0079ZM103.37 187V179.3H105.856C106.457 179.3 106.949 179.403 107.33 179.608C107.711 179.806 107.994 180.074 108.177 180.411C108.36 180.748 108.452 181.13 108.452 181.555C108.452 181.966 108.357 182.343 108.166 182.688C107.983 183.033 107.697 183.308 107.308 183.513C106.919 183.718 106.421 183.821 105.812 183.821H104.294V187H103.37ZM107.44 187L105.746 183.557H106.78L108.529 187H107.44ZM104.294 183.095H105.79C106.377 183.095 106.806 182.952 107.077 182.666C107.356 182.38 107.495 182.013 107.495 181.566C107.495 181.111 107.359 180.752 107.088 180.488C106.824 180.217 106.388 180.081 105.779 180.081H104.294V183.095ZM109.406 187L112.244 179.3H113.223L116.05 187H115.071L112.728 180.455L110.374 187H109.406ZM110.704 185.02L110.968 184.272H114.455L114.719 185.02H110.704ZM117.206 187V179.3H118.13L122.233 185.471V179.3H123.157V187H122.233L118.13 180.829V187H117.206ZM127.264 187.132C126.7 187.132 126.208 187.029 125.79 186.824C125.372 186.619 125.05 186.333 124.822 185.966C124.595 185.599 124.481 185.174 124.481 184.69H125.449C125.449 184.991 125.519 185.269 125.658 185.526C125.798 185.775 125.999 185.977 126.263 186.131C126.535 186.278 126.868 186.351 127.264 186.351C127.609 186.351 127.902 186.296 128.144 186.186C128.394 186.069 128.581 185.911 128.705 185.713C128.837 185.515 128.903 185.291 128.903 185.042C128.903 184.741 128.837 184.499 128.705 184.316C128.581 184.125 128.408 183.971 128.188 183.854C127.968 183.737 127.712 183.634 127.418 183.546C127.132 183.451 126.832 183.352 126.516 183.249C125.908 183.044 125.46 182.787 125.174 182.479C124.888 182.171 124.745 181.771 124.745 181.28C124.745 180.862 124.841 180.495 125.031 180.18C125.229 179.865 125.508 179.619 125.867 179.443C126.234 179.26 126.667 179.168 127.165 179.168C127.657 179.168 128.082 179.26 128.441 179.443C128.808 179.626 129.094 179.879 129.299 180.202C129.505 180.517 129.607 180.884 129.607 181.302H128.639C128.639 181.089 128.584 180.88 128.474 180.675C128.364 180.47 128.196 180.301 127.968 180.169C127.748 180.03 127.47 179.96 127.132 179.96C126.854 179.953 126.604 180 126.384 180.103C126.172 180.198 126.003 180.338 125.878 180.521C125.761 180.704 125.702 180.928 125.702 181.192C125.702 181.441 125.754 181.643 125.856 181.797C125.966 181.951 126.12 182.083 126.318 182.193C126.524 182.296 126.762 182.391 127.033 182.479C127.305 182.567 127.605 182.666 127.935 182.776C128.309 182.901 128.639 183.055 128.925 183.238C129.219 183.414 129.446 183.641 129.607 183.92C129.776 184.199 129.86 184.554 129.86 184.987C129.86 185.354 129.761 185.702 129.563 186.032C129.373 186.355 129.087 186.619 128.705 186.824C128.324 187.029 127.844 187.132 127.264 187.132ZM131.192 187V179.3H135.878V180.059H132.116V182.765H135.317V183.513H132.116V187H131.192ZM140.511 187.132C139.77 187.132 139.118 186.967 138.553 186.637C137.996 186.3 137.559 185.834 137.244 185.24C136.936 184.639 136.782 183.942 136.782 183.15C136.782 182.365 136.936 181.676 137.244 181.082C137.559 180.481 137.996 180.011 138.553 179.674C139.118 179.337 139.77 179.168 140.511 179.168C141.266 179.168 141.923 179.337 142.48 179.674C143.037 180.011 143.47 180.481 143.778 181.082C144.093 181.676 144.251 182.365 144.251 183.15C144.251 183.942 144.093 184.639 143.778 185.24C143.47 185.834 143.037 186.3 142.48 186.637C141.923 186.967 141.266 187.132 140.511 187.132ZM140.511 186.318C141.068 186.318 141.556 186.193 141.974 185.944C142.399 185.687 142.726 185.324 142.953 184.855C143.188 184.378 143.305 183.81 143.305 183.15C143.305 182.49 143.188 181.925 142.953 181.456C142.726 180.979 142.399 180.616 141.974 180.367C141.556 180.118 141.068 179.993 140.511 179.993C139.961 179.993 139.473 180.118 139.048 180.367C138.63 180.616 138.304 180.979 138.069 181.456C137.842 181.925 137.728 182.49 137.728 183.15C137.728 183.81 137.842 184.378 138.069 184.855C138.304 185.324 138.63 185.687 139.048 185.944C139.473 186.193 139.961 186.318 140.511 186.318ZM145.597 187V179.3H148.083C148.685 179.3 149.176 179.403 149.557 179.608C149.939 179.806 150.221 180.074 150.404 180.411C150.588 180.748 150.679 181.13 150.679 181.555C150.679 181.966 150.584 182.343 150.393 182.688C150.21 183.033 149.924 183.308 149.535 183.513C149.147 183.718 148.648 183.821 148.039 183.821H146.521V187H145.597ZM149.667 187L147.973 183.557H149.007L150.756 187H149.667ZM146.521 183.095H148.017C148.604 183.095 149.033 182.952 149.304 182.666C149.583 182.38 149.722 182.013 149.722 181.566C149.722 181.111 149.587 180.752 149.315 180.488C149.051 180.217 148.615 180.081 148.006 180.081H146.521V183.095ZM152.129 187V179.3H153.207L155.924 184.679L158.652 179.3H159.741V187H158.817V180.95L156.276 185.922H155.583L153.053 180.972V187H152.129ZM161.378 187V179.3H162.302V187H161.378ZM166.409 187.132C165.844 187.132 165.353 187.029 164.935 186.824C164.517 186.619 164.194 186.333 163.967 185.966C163.74 185.599 163.626 185.174 163.626 184.69H164.594C164.594 184.991 164.664 185.269 164.803 185.526C164.942 185.775 165.144 185.977 165.408 186.131C165.679 186.278 166.013 186.351 166.409 186.351C166.754 186.351 167.047 186.296 167.289 186.186C167.538 186.069 167.725 185.911 167.85 185.713C167.982 185.515 168.048 185.291 168.048 185.042C168.048 184.741 167.982 184.499 167.85 184.316C167.725 184.125 167.553 183.971 167.333 183.854C167.113 183.737 166.856 183.634 166.563 183.546C166.277 183.451 165.976 183.352 165.661 183.249C165.052 183.044 164.605 182.787 164.319 182.479C164.033 182.171 163.89 181.771 163.89 181.28C163.89 180.862 163.985 180.495 164.176 180.18C164.374 179.865 164.653 179.619 165.012 179.443C165.379 179.26 165.811 179.168 166.31 179.168C166.801 179.168 167.227 179.26 167.586 179.443C167.953 179.626 168.239 179.879 168.444 180.202C168.649 180.517 168.752 180.884 168.752 181.302H167.784C167.784 181.089 167.729 180.88 167.619 180.675C167.509 180.47 167.34 180.301 167.113 180.169C166.893 180.03 166.614 179.96 166.277 179.96C165.998 179.953 165.749 180 165.529 180.103C165.316 180.198 165.148 180.338 165.023 180.521C164.906 180.704 164.847 180.928 164.847 181.192C164.847 181.441 164.898 181.643 165.001 181.797C165.111 181.951 165.265 182.083 165.463 182.193C165.668 182.296 165.907 182.391 166.178 182.479C166.449 182.567 166.75 182.666 167.08 182.776C167.454 182.901 167.784 183.055 168.07 183.238C168.363 183.414 168.591 183.641 168.752 183.92C168.921 184.199 169.005 184.554 169.005 184.987C169.005 185.354 168.906 185.702 168.708 186.032C168.517 186.355 168.231 186.619 167.85 186.824C167.469 187.029 166.988 187.132 166.409 187.132ZM166.299 178.706L164.792 177.804V177.089L166.299 178.013L167.806 177.089V177.804L166.299 178.706ZM170.337 187V179.3H171.261V187H170.337ZM178.29 187.132C177.725 187.132 177.234 187.029 176.816 186.824C176.398 186.619 176.075 186.333 175.848 185.966C175.62 185.599 175.507 185.174 175.507 184.69H176.475C176.475 184.991 176.544 185.269 176.684 185.526C176.823 185.775 177.025 185.977 177.289 186.131C177.56 186.278 177.894 186.351 178.29 186.351C178.634 186.351 178.928 186.296 179.17 186.186C179.419 186.069 179.606 185.911 179.731 185.713C179.863 185.515 179.929 185.291 179.929 185.042C179.929 184.741 179.863 184.499 179.731 184.316C179.606 184.125 179.434 183.971 179.214 183.854C178.994 183.737 178.737 183.634 178.444 183.546C178.158 183.451 177.857 183.352 177.542 183.249C176.933 183.044 176.486 182.787 176.2 182.479C175.914 182.171 175.771 181.771 175.771 181.28C175.771 180.862 175.866 180.495 176.057 180.18C176.255 179.865 176.533 179.619 176.893 179.443C177.259 179.26 177.692 179.168 178.191 179.168C178.682 179.168 179.107 179.26 179.467 179.443C179.833 179.626 180.119 179.879 180.325 180.202C180.53 180.517 180.633 180.884 180.633 181.302H179.665C179.665 181.089 179.61 180.88 179.5 180.675C179.39 180.47 179.221 180.301 178.994 180.169C178.774 180.03 178.495 179.96 178.158 179.96C177.879 179.953 177.63 180 177.41 180.103C177.197 180.198 177.028 180.338 176.904 180.521C176.786 180.704 176.728 180.928 176.728 181.192C176.728 181.441 176.779 181.643 176.882 181.797C176.992 181.951 177.146 182.083 177.344 182.193C177.549 182.296 177.787 182.391 178.059 182.479C178.33 182.567 178.631 182.666 178.961 182.776C179.335 182.901 179.665 183.055 179.951 183.238C180.244 183.414 180.471 183.641 180.633 183.92C180.801 184.199 180.886 184.554 180.886 184.987C180.886 185.354 180.787 185.702 180.589 186.032C180.398 186.355 180.112 186.619 179.731 186.824C179.349 187.029 178.869 187.132 178.29 187.132ZM182.218 187V179.3H186.981V180.059H183.142V182.743H186.651V183.491H183.142V186.241H186.981V187H182.218Z" fill="#0A0A0A"/>
</svg>
