<svg width="200" height="200" viewBox="0 0 200 200" fill="none" xmlns="http://www.w3.org/2000/svg">
<rect width="200" height="200" fill="#0A0A0A"/>
<path d="M199.923 81.75L96 0L199.923 0V81.75Z" fill="#C8F135"/>
<path d="M148.912 22V13.6H149.92L154.396 20.344V13.6H155.404V22H154.396L149.92 15.256V22H148.912ZM157.221 22V13.6H158.397L161.313 19.492L164.229 13.6H165.417V22H164.409V15.412L161.697 20.848H160.941L158.229 15.436V22H157.221ZM166.7 22L169.796 13.6H170.864L173.948 22H172.868L170.324 14.86L167.756 22H166.7ZM168.116 19.84L168.404 19.024H172.208L172.496 19.84H168.116ZM175.221 22V13.6H177.945C178.609 13.6 179.153 13.712 179.577 13.936C180.009 14.152 180.329 14.448 180.537 14.824C180.745 15.2 180.849 15.624 180.849 16.096C180.849 16.56 180.745 16.98 180.537 17.356C180.337 17.732 180.021 18.032 179.589 18.256C179.165 18.48 178.617 18.592 177.945 18.592H176.229V22H175.221ZM176.229 17.74H177.921C178.609 17.74 179.097 17.592 179.385 17.296C179.673 16.992 179.817 16.592 179.817 16.096C179.817 15.576 179.673 15.172 179.385 14.884C179.097 14.588 178.609 14.44 177.921 14.44H176.229V17.74Z" fill="black"/>
<path d="M12.95 67V48.8H18.826C20.2473 48.8 21.4087 49.0427 22.31 49.528C23.2113 49.996 23.8787 50.6287 24.312 51.426C24.7453 52.2233 24.962 53.1247 24.962 54.13C24.962 55.1007 24.7367 55.9933 24.286 56.808C23.8527 57.6227 23.1767 58.2727 22.258 58.758C21.3393 59.2433 20.1607 59.486 18.722 59.486H15.134V67H12.95ZM22.57 67L18.566 58.862H21.01L25.144 67H22.57ZM15.134 57.77H18.67C20.0567 57.77 21.0707 57.432 21.712 56.756C22.3707 56.08 22.7 55.2133 22.7 54.156C22.7 53.0813 22.3793 52.232 21.738 51.608C21.114 50.9667 20.0827 50.646 18.644 50.646H15.134V57.77ZM27.2175 67L33.9255 48.8H36.2395L42.9215 67H40.6075L35.0695 51.53L29.5055 67H27.2175ZM30.2855 62.32L30.9095 60.552H39.1515L39.7755 62.32H30.2855ZM45.6531 67V48.8H51.0091C53.1411 48.8 54.8918 49.1727 56.2611 49.918C57.6478 50.646 58.6705 51.6947 59.3291 53.064C60.0051 54.416 60.3431 56.0453 60.3431 57.952C60.3431 59.824 60.0051 61.436 59.3291 62.788C58.6705 64.14 57.6478 65.18 56.2611 65.908C54.8918 66.636 53.1411 67 51.0091 67H45.6531ZM47.8371 65.18H50.9571C52.7251 65.18 54.1291 64.894 55.1691 64.322C56.2091 63.7327 56.9545 62.9007 57.4051 61.826C57.8558 60.734 58.0811 59.4427 58.0811 57.952C58.0811 56.4267 57.8558 55.118 57.4051 54.026C56.9545 52.934 56.2091 52.0933 55.1691 51.504C54.1291 50.9147 52.7251 50.62 50.9571 50.62H47.8371V65.18ZM63.5535 67V48.8H65.7375V67H63.5535ZM12.95 101V82.8H18.878C20.3167 82.8 21.4953 83.0427 22.414 83.528C23.35 83.996 24.0347 84.6287 24.468 85.426C24.9187 86.2233 25.144 87.1333 25.144 88.156C25.144 89.144 24.9187 90.0453 24.468 90.86C24.0347 91.6573 23.3587 92.2987 22.44 92.784C21.5213 93.2693 20.334 93.512 18.878 93.512H15.134V101H12.95ZM15.134 91.666H18.852C20.308 91.666 21.348 91.3453 21.972 90.704C22.596 90.0627 22.908 89.2133 22.908 88.156C22.908 87.0293 22.596 86.1627 21.972 85.556C21.348 84.932 20.308 84.62 18.852 84.62H15.134V91.666ZM28.032 101V82.8H33.908C35.3294 82.8 36.4907 83.0427 37.392 83.528C38.2934 83.996 38.9607 84.6287 39.394 85.426C39.8274 86.2233 40.044 87.1247 40.044 88.13C40.044 89.1007 39.8187 89.9933 39.368 90.808C38.9347 91.6227 38.2587 92.2727 37.34 92.758C36.4214 93.2433 35.2427 93.486 33.804 93.486H30.216V101H28.032ZM37.652 101L33.648 92.862H36.092L40.226 101H37.652ZM30.216 91.77H33.752C35.1387 91.77 36.1527 91.432 36.794 90.756C37.4527 90.08 37.782 89.2133 37.782 88.156C37.782 87.0813 37.4614 86.232 36.82 85.608C36.196 84.9667 35.1647 84.646 33.726 84.646H30.216V91.77ZM42.2995 101L49.0075 82.8H51.3215L58.0035 101H55.6895L50.1515 85.53L44.5875 101H42.2995ZM45.3675 96.32L45.9915 94.552H54.2335L54.8575 96.32H45.3675ZM63.6815 101L56.8435 82.8H59.2095L64.9555 98.686L70.7535 82.8H73.0675L66.2295 101H63.6815ZM75.6141 101V82.8H77.7981V101H75.6141ZM81.7078 101V82.8H83.8918V99.258H92.3678V101H81.7078ZM95.4188 101V82.8H97.6028L107.301 97.386V82.8H109.485V101H107.301L97.6028 86.414V101H95.4188ZM121.507 101.312C119.757 101.312 118.214 100.922 116.879 100.142C115.562 99.3447 114.531 98.244 113.785 96.84C113.057 95.4187 112.693 93.772 112.693 91.9C112.693 90.0453 113.057 88.416 113.785 87.012C114.531 85.5907 115.562 84.4813 116.879 83.684C118.214 82.8867 119.757 82.488 121.507 82.488C123.293 82.488 124.844 82.8867 126.161 83.684C127.479 84.4813 128.501 85.5907 129.229 87.012C129.975 88.416 130.347 90.0453 130.347 91.9C130.347 93.772 129.975 95.4187 129.229 96.84C128.501 98.244 127.479 99.3447 126.161 100.142C124.844 100.922 123.293 101.312 121.507 101.312ZM121.507 99.388C122.825 99.388 123.977 99.0933 124.965 98.504C125.971 97.8973 126.742 97.0393 127.279 95.93C127.834 94.8033 128.111 93.46 128.111 91.9C128.111 90.34 127.834 89.0053 127.279 87.896C126.742 86.7693 125.971 85.9113 124.965 85.322C123.977 84.7327 122.825 84.438 121.507 84.438C120.207 84.438 119.055 84.7327 118.049 85.322C117.061 85.9113 116.29 86.7693 115.735 87.896C115.198 89.0053 114.929 90.34 114.929 91.9C114.929 93.46 115.198 94.8033 115.735 95.93C116.29 97.0393 117.061 97.8973 118.049 98.504C119.055 99.0933 120.207 99.388 121.507 99.388Z" fill="white"/>
<path d="M14.483 148.108C13.877 148.108 13.343 147.973 12.881 147.703C12.425 147.427 12.068 147.046 11.81 146.56C11.558 146.068 11.432 145.498 11.432 144.85C11.432 144.208 11.558 143.644 11.81 143.158C12.068 142.666 12.425 142.282 12.881 142.006C13.343 141.73 13.877 141.592 14.483 141.592C15.101 141.592 15.638 141.73 16.094 142.006C16.55 142.282 16.904 142.666 17.156 143.158C17.414 143.644 17.543 144.208 17.543 144.85C17.543 145.498 17.414 146.068 17.156 146.56C16.904 147.046 16.55 147.427 16.094 147.703C15.638 147.973 15.101 148.108 14.483 148.108ZM14.483 147.442C14.939 147.442 15.338 147.34 15.68 147.136C16.028 146.926 16.295 146.629 16.481 146.245C16.673 145.855 16.769 145.39 16.769 144.85C16.769 144.31 16.673 143.848 16.481 143.464C16.295 143.074 16.028 142.777 15.68 142.573C15.338 142.369 14.939 142.267 14.483 142.267C14.033 142.267 13.634 142.369 13.286 142.573C12.944 142.777 12.677 143.074 12.485 143.464C12.299 143.848 12.206 144.31 12.206 144.85C12.206 145.39 12.299 145.855 12.485 146.245C12.677 146.629 12.944 146.926 13.286 147.136C13.634 147.34 14.033 147.442 14.483 147.442ZM20.3097 148.108C19.9317 148.108 19.6017 148.045 19.3197 147.919C19.0437 147.793 18.8217 147.619 18.6537 147.397C18.4917 147.169 18.3927 146.902 18.3567 146.596H19.1307C19.1607 146.752 19.2237 146.896 19.3197 147.028C19.4157 147.16 19.5447 147.268 19.7067 147.352C19.8747 147.43 20.0787 147.469 20.3187 147.469C20.5287 147.469 20.7027 147.439 20.8407 147.379C20.9787 147.313 21.0807 147.226 21.1467 147.118C21.2187 147.01 21.2547 146.893 21.2547 146.767C21.2547 146.581 21.2097 146.44 21.1197 146.344C21.0357 146.248 20.9097 146.173 20.7417 146.119C20.5737 146.059 20.3697 146.008 20.1297 145.966C19.9317 145.93 19.7367 145.882 19.5447 145.822C19.3527 145.762 19.1817 145.684 19.0317 145.588C18.8817 145.486 18.7617 145.363 18.6717 145.219C18.5877 145.075 18.5457 144.898 18.5457 144.688C18.5457 144.43 18.6117 144.202 18.7437 144.004C18.8757 143.8 19.0647 143.641 19.3107 143.527C19.5627 143.413 19.8537 143.356 20.1837 143.356C20.6697 143.356 21.0627 143.473 21.3627 143.707C21.6627 143.941 21.8397 144.28 21.8937 144.724H21.1467C21.1167 144.496 21.0177 144.319 20.8497 144.193C20.6877 144.061 20.4627 143.995 20.1747 143.995C19.8927 143.995 19.6767 144.052 19.5267 144.166C19.3827 144.28 19.3107 144.43 19.3107 144.616C19.3107 144.736 19.3497 144.844 19.4277 144.94C19.5117 145.03 19.6317 145.108 19.7877 145.174C19.9497 145.24 20.1477 145.294 20.3817 145.336C20.6817 145.39 20.9547 145.462 21.2007 145.552C21.4467 145.642 21.6447 145.777 21.7947 145.957C21.9507 146.131 22.0287 146.38 22.0287 146.704C22.0287 146.986 21.9567 147.232 21.8127 147.442C21.6747 147.652 21.4767 147.817 21.2187 147.937C20.9607 148.051 20.6577 148.108 20.3097 148.108ZM24.5933 148.108C24.2273 148.108 23.9213 148.045 23.6753 147.919C23.4293 147.787 23.2463 147.616 23.1263 147.406C23.0063 147.19 22.9463 146.956 22.9463 146.704C22.9463 146.398 23.0243 146.14 23.1803 145.93C23.3423 145.714 23.5673 145.552 23.8553 145.444C24.1493 145.33 24.4943 145.273 24.8903 145.273H26.0873C26.0873 144.991 26.0423 144.757 25.9523 144.571C25.8683 144.379 25.7423 144.235 25.5743 144.139C25.4123 144.043 25.2083 143.995 24.9623 143.995C24.6743 143.995 24.4253 144.067 24.2153 144.211C24.0053 144.355 23.8763 144.568 23.8283 144.85H23.0543C23.0903 144.526 23.1983 144.256 23.3783 144.04C23.5643 143.818 23.7983 143.65 24.0803 143.536C24.3623 143.416 24.6563 143.356 24.9623 143.356C25.3823 143.356 25.7303 143.434 26.0063 143.59C26.2883 143.74 26.4983 143.953 26.6363 144.229C26.7743 144.499 26.8433 144.82 26.8433 145.192V148H26.1683L26.1233 147.199C26.0633 147.325 25.9853 147.445 25.8893 147.559C25.7993 147.667 25.6913 147.763 25.5653 147.847C25.4393 147.925 25.2953 147.988 25.1333 148.036C24.9773 148.084 24.7973 148.108 24.5933 148.108ZM24.7103 147.469C24.9203 147.469 25.1093 147.427 25.2773 147.343C25.4513 147.253 25.5983 147.133 25.7183 146.983C25.8383 146.827 25.9283 146.656 25.9883 146.47C26.0543 146.284 26.0873 146.089 26.0873 145.885V145.858H24.9533C24.6593 145.858 24.4223 145.894 24.2423 145.966C24.0623 146.032 23.9333 146.128 23.8553 146.254C23.7773 146.374 23.7383 146.512 23.7383 146.668C23.7383 146.83 23.7743 146.971 23.8463 147.091C23.9243 147.211 24.0353 147.304 24.1793 147.37C24.3293 147.436 24.5063 147.469 24.7103 147.469ZM28.0128 148V143.464H28.6968L28.7418 144.112C28.8858 143.878 29.0778 143.695 29.3178 143.563C29.5638 143.425 29.8308 143.356 30.1188 143.356C30.3528 143.356 30.5628 143.389 30.7488 143.455C30.9408 143.515 31.1088 143.611 31.2528 143.743C31.3968 143.869 31.5138 144.031 31.6038 144.229C31.7598 143.953 31.9728 143.74 32.2428 143.59C32.5188 143.434 32.8128 143.356 33.1248 143.356C33.4728 143.356 33.7758 143.428 34.0338 143.572C34.2978 143.71 34.4988 143.923 34.6368 144.211C34.7808 144.493 34.8528 144.853 34.8528 145.291V148H34.1058V145.372C34.1058 144.916 34.0128 144.574 33.8268 144.346C33.6408 144.118 33.3798 144.004 33.0438 144.004C32.8098 144.004 32.5998 144.067 32.4138 144.193C32.2278 144.313 32.0808 144.49 31.9728 144.724C31.8648 144.958 31.8108 145.246 31.8108 145.588V148H31.0548V145.372C31.0548 144.916 30.9618 144.574 30.7758 144.346C30.5898 144.118 30.3258 144.004 29.9838 144.004C29.7558 144.004 29.5488 144.067 29.3628 144.193C29.1828 144.313 29.0388 144.49 28.9308 144.724C28.8228 144.958 28.7688 145.246 28.7688 145.588V148H28.0128ZM38.4191 148V143.464H39.1031L39.1391 144.256C39.2831 143.974 39.4871 143.755 39.7511 143.599C40.0211 143.437 40.3271 143.356 40.6691 143.356C41.0231 143.356 41.3291 143.428 41.5871 143.572C41.8451 143.71 42.0461 143.923 42.1901 144.211C42.3341 144.493 42.4061 144.853 42.4061 145.291V148H41.6501V145.372C41.6501 144.916 41.5481 144.574 41.3441 144.346C41.1461 144.118 40.8641 144.004 40.4981 144.004C40.2461 144.004 40.0211 144.067 39.8231 144.193C39.6251 144.313 39.4661 144.49 39.3461 144.724C39.2321 144.952 39.1751 145.237 39.1751 145.579V148H38.4191ZM45.576 148.108C45.15 148.108 44.772 148.009 44.442 147.811C44.118 147.613 43.863 147.337 43.677 146.983C43.491 146.623 43.398 146.206 43.398 145.732C43.398 145.252 43.488 144.835 43.668 144.481C43.854 144.127 44.112 143.851 44.442 143.653C44.778 143.455 45.162 143.356 45.594 143.356C46.038 143.356 46.413 143.455 46.719 143.653C47.031 143.851 47.268 144.112 47.43 144.436C47.598 144.754 47.682 145.105 47.682 145.489C47.682 145.549 47.682 145.612 47.682 145.678C47.682 145.744 47.679 145.819 47.673 145.903H43.965V145.318H46.944C46.926 144.904 46.788 144.58 46.53 144.346C46.278 144.112 45.96 143.995 45.576 143.995C45.318 143.995 45.078 144.055 44.856 144.175C44.64 144.289 44.466 144.46 44.334 144.688C44.202 144.91 44.136 145.189 44.136 145.525V145.777C44.136 146.149 44.202 146.461 44.334 146.713C44.472 146.965 44.649 147.154 44.865 147.28C45.087 147.406 45.324 147.469 45.576 147.469C45.894 147.469 46.155 147.4 46.359 147.262C46.569 147.118 46.719 146.926 46.809 146.686H47.556C47.484 146.956 47.358 147.199 47.178 147.415C46.998 147.631 46.773 147.802 46.503 147.928C46.239 148.048 45.93 148.108 45.576 148.108ZM50.7003 148.108C50.2623 148.108 49.8783 148.006 49.5483 147.802C49.2183 147.592 48.9633 147.307 48.7833 146.947C48.6033 146.587 48.5133 146.179 48.5133 145.723C48.5133 145.267 48.6033 144.862 48.7833 144.508C48.9633 144.148 49.2183 143.866 49.5483 143.662C49.8843 143.458 50.2713 143.356 50.7093 143.356C51.0813 143.356 51.4053 143.431 51.6813 143.581C51.9633 143.731 52.1793 143.941 52.3293 144.211V141.52H53.0853V148H52.4013L52.3383 147.253C52.2423 147.403 52.1193 147.544 51.9693 147.676C51.8193 147.802 51.6393 147.907 51.4293 147.991C51.2193 148.069 50.9763 148.108 50.7003 148.108ZM50.7903 147.451C51.0903 147.451 51.3543 147.379 51.5823 147.235C51.8103 147.091 51.9873 146.893 52.1133 146.641C52.2393 146.383 52.3023 146.08 52.3023 145.732C52.3023 145.39 52.2393 145.09 52.1133 144.832C51.9873 144.574 51.8103 144.373 51.5823 144.229C51.3543 144.085 51.0903 144.013 50.7903 144.013C50.4963 144.013 50.2353 144.085 50.0073 144.229C49.7793 144.373 49.6023 144.574 49.4763 144.832C49.3503 145.09 49.2873 145.39 49.2873 145.732C49.2873 146.08 49.3503 146.383 49.4763 146.641C49.6023 146.893 49.7793 147.091 50.0073 147.235C50.2353 147.379 50.4963 147.451 50.7903 147.451ZM56.3338 148.108C55.9078 148.108 55.5298 148.009 55.1998 147.811C54.8758 147.613 54.6208 147.337 54.4348 146.983C54.2488 146.623 54.1558 146.206 54.1558 145.732C54.1558 145.252 54.2458 144.835 54.4258 144.481C54.6118 144.127 54.8698 143.851 55.1998 143.653C55.5358 143.455 55.9198 143.356 56.3518 143.356C56.7958 143.356 57.1708 143.455 57.4768 143.653C57.7888 143.851 58.0258 144.112 58.1878 144.436C58.3558 144.754 58.4398 145.105 58.4398 145.489C58.4398 145.549 58.4398 145.612 58.4398 145.678C58.4398 145.744 58.4368 145.819 58.4308 145.903H54.7228V145.318H57.7018C57.6838 144.904 57.5458 144.58 57.2878 144.346C57.0358 144.112 56.7178 143.995 56.3338 143.995C56.0758 143.995 55.8358 144.055 55.6138 144.175C55.3978 144.289 55.2238 144.46 55.0918 144.688C54.9598 144.91 54.8938 145.189 54.8938 145.525V145.777C54.8938 146.149 54.9598 146.461 55.0918 146.713C55.2298 146.965 55.4068 147.154 55.6228 147.28C55.8448 147.406 56.0818 147.469 56.3338 147.469C56.6518 147.469 56.9128 147.4 57.1168 147.262C57.3268 147.118 57.4768 146.926 57.5668 146.686H58.3138C58.2418 146.956 58.1158 147.199 57.9358 147.415C57.7558 147.631 57.5308 147.802 57.2608 147.928C56.9968 148.048 56.6878 148.108 56.3338 148.108ZM59.4601 148V141.52H60.2161V148H59.4601ZM60.591 149.98V149.332H60.942C61.17 149.332 61.332 149.284 61.428 149.188C61.524 149.098 61.572 148.942 61.572 148.72V143.464H62.328V148.738C62.328 149.026 62.28 149.26 62.184 149.44C62.088 149.626 61.944 149.761 61.752 149.845C61.566 149.935 61.335 149.98 61.059 149.98H60.591ZM61.959 142.501C61.809 142.501 61.683 142.453 61.581 142.357C61.485 142.255 61.437 142.129 61.437 141.979C61.437 141.829 61.485 141.709 61.581 141.619C61.683 141.523 61.809 141.475 61.959 141.475C62.103 141.475 62.223 141.523 62.319 141.619C62.421 141.709 62.472 141.829 62.472 141.979C62.472 142.129 62.421 142.255 62.319 142.357C62.223 142.453 62.103 142.501 61.959 142.501ZM65.1285 148.108C64.7625 148.108 64.4565 148.045 64.2105 147.919C63.9645 147.787 63.7815 147.616 63.6615 147.406C63.5415 147.19 63.4815 146.956 63.4815 146.704C63.4815 146.398 63.5595 146.14 63.7155 145.93C63.8775 145.714 64.1025 145.552 64.3905 145.444C64.6845 145.33 65.0295 145.273 65.4255 145.273H66.6225C66.6225 144.991 66.5775 144.757 66.4875 144.571C66.4035 144.379 66.2775 144.235 66.1095 144.139C65.9475 144.043 65.7435 143.995 65.4975 143.995C65.2095 143.995 64.9605 144.067 64.7505 144.211C64.5405 144.355 64.4115 144.568 64.3635 144.85H63.5895C63.6255 144.526 63.7335 144.256 63.9135 144.04C64.0995 143.818 64.3335 143.65 64.6155 143.536C64.8975 143.416 65.1915 143.356 65.4975 143.356C65.9175 143.356 66.2655 143.434 66.5415 143.59C66.8235 143.74 67.0335 143.953 67.1715 144.229C67.3095 144.499 67.3785 144.82 67.3785 145.192V148H66.7035L66.6585 147.199C66.5985 147.325 66.5205 147.445 66.4245 147.559C66.3345 147.667 66.2265 147.763 66.1005 147.847C65.9745 147.925 65.8305 147.988 65.6685 148.036C65.5125 148.084 65.3325 148.108 65.1285 148.108ZM65.2455 147.469C65.4555 147.469 65.6445 147.427 65.8125 147.343C65.9865 147.253 66.1335 147.133 66.2535 146.983C66.3735 146.827 66.4635 146.656 66.5235 146.47C66.5895 146.284 66.6225 146.089 66.6225 145.885V145.858H65.4885C65.1945 145.858 64.9575 145.894 64.7775 145.966C64.5975 146.032 64.4685 146.128 64.3905 146.254C64.3125 146.374 64.2735 146.512 64.2735 146.668C64.2735 146.83 64.3095 146.971 64.3815 147.091C64.4595 147.211 64.5705 147.304 64.7145 147.37C64.8645 147.436 65.0415 147.469 65.2455 147.469ZM68.818 148.045C68.668 148.045 68.542 147.997 68.44 147.901C68.344 147.799 68.296 147.676 68.296 147.532C68.296 147.388 68.344 147.268 68.44 147.172C68.542 147.07 68.668 147.019 68.818 147.019C68.968 147.019 69.091 147.07 69.187 147.172C69.283 147.268 69.331 147.388 69.331 147.532C69.331 147.676 69.283 147.799 69.187 147.901C69.091 147.997 68.968 148.045 68.818 148.045ZM74.1718 148.108C73.7938 148.108 73.4668 148.036 73.1908 147.892C72.9208 147.748 72.7108 147.541 72.5608 147.271C72.4168 147.001 72.3448 146.68 72.3448 146.308H73.1098C73.1098 146.518 73.1428 146.71 73.2088 146.884C73.2808 147.052 73.3918 147.187 73.5418 147.289C73.6978 147.385 73.9048 147.433 74.1628 147.433C74.4148 147.433 74.6128 147.385 74.7568 147.289C74.9068 147.193 75.0118 147.064 75.0718 146.902C75.1378 146.734 75.1708 146.545 75.1708 146.335V141.7H75.9268V146.335C75.9268 146.899 75.7708 147.337 75.4588 147.649C75.1528 147.955 74.7238 148.108 74.1718 148.108ZM79.2206 148.108C78.7946 148.108 78.4166 148.009 78.0866 147.811C77.7626 147.613 77.5076 147.337 77.3216 146.983C77.1356 146.623 77.0426 146.206 77.0426 145.732C77.0426 145.252 77.1326 144.835 77.3126 144.481C77.4986 144.127 77.7566 143.851 78.0866 143.653C78.4226 143.455 78.8066 143.356 79.2386 143.356C79.6826 143.356 80.0576 143.455 80.3636 143.653C80.6756 143.851 80.9126 144.112 81.0746 144.436C81.2426 144.754 81.3266 145.105 81.3266 145.489C81.3266 145.549 81.3266 145.612 81.3266 145.678C81.3266 145.744 81.3236 145.819 81.3176 145.903H77.6096V145.318H80.5886C80.5706 144.904 80.4326 144.58 80.1746 144.346C79.9226 144.112 79.6046 143.995 79.2206 143.995C78.9626 143.995 78.7226 144.055 78.5006 144.175C78.2846 144.289 78.1106 144.46 77.9786 144.688C77.8466 144.91 77.7806 145.189 77.7806 145.525V145.777C77.7806 146.149 77.8466 146.461 77.9786 146.713C78.1166 146.965 78.2936 147.154 78.5096 147.28C78.7316 147.406 78.9686 147.469 79.2206 147.469C79.5386 147.469 79.7996 147.4 80.0036 147.262C80.2136 147.118 80.3636 146.926 80.4536 146.686H81.2006C81.1286 146.956 81.0026 147.199 80.8226 147.415C80.6426 147.631 80.4176 147.802 80.1476 147.928C79.8836 148.048 79.5746 148.108 79.2206 148.108ZM84.3448 148.108C83.9068 148.108 83.5228 148.006 83.1928 147.802C82.8628 147.592 82.6078 147.307 82.4278 146.947C82.2478 146.587 82.1578 146.179 82.1578 145.723C82.1578 145.267 82.2478 144.862 82.4278 144.508C82.6078 144.148 82.8628 143.866 83.1928 143.662C83.5288 143.458 83.9158 143.356 84.3538 143.356C84.7258 143.356 85.0498 143.431 85.3258 143.581C85.6078 143.731 85.8238 143.941 85.9738 144.211V141.52H86.7298V148H86.0458L85.9828 147.253C85.8868 147.403 85.7638 147.544 85.6138 147.676C85.4638 147.802 85.2838 147.907 85.0738 147.991C84.8638 148.069 84.6208 148.108 84.3448 148.108ZM84.4348 147.451C84.7348 147.451 84.9988 147.379 85.2268 147.235C85.4548 147.091 85.6318 146.893 85.7578 146.641C85.8838 146.383 85.9468 146.08 85.9468 145.732C85.9468 145.39 85.8838 145.09 85.7578 144.832C85.6318 144.574 85.4548 144.373 85.2268 144.229C84.9988 144.085 84.7348 144.013 84.4348 144.013C84.1408 144.013 83.8798 144.085 83.6518 144.229C83.4238 144.373 83.2468 144.574 83.1208 144.832C82.9948 145.09 82.9318 145.39 82.9318 145.732C82.9318 146.08 82.9948 146.383 83.1208 146.641C83.2468 146.893 83.4238 147.091 83.6518 147.235C83.8798 147.379 84.1408 147.451 84.4348 147.451ZM87.9894 148V143.464H88.6734L88.7094 144.256C88.8534 143.974 89.0574 143.755 89.3214 143.599C89.5914 143.437 89.8974 143.356 90.2394 143.356C90.5934 143.356 90.8994 143.428 91.1574 143.572C91.4154 143.71 91.6164 143.923 91.7604 144.211C91.9044 144.493 91.9764 144.853 91.9764 145.291V148H91.2204V145.372C91.2204 144.916 91.1184 144.574 90.9144 144.346C90.7164 144.118 90.4344 144.004 90.0684 144.004C89.8164 144.004 89.5914 144.067 89.3934 144.193C89.1954 144.313 89.0364 144.49 88.9164 144.724C88.8024 144.952 88.7454 145.237 88.7454 145.579V148H87.9894ZM94.6333 148.108C94.2673 148.108 93.9613 148.045 93.7153 147.919C93.4693 147.787 93.2863 147.616 93.1663 147.406C93.0463 147.19 92.9863 146.956 92.9863 146.704C92.9863 146.398 93.0643 146.14 93.2203 145.93C93.3823 145.714 93.6073 145.552 93.8953 145.444C94.1893 145.33 94.5343 145.273 94.9303 145.273H96.1273C96.1273 144.991 96.0823 144.757 95.9923 144.571C95.9083 144.379 95.7823 144.235 95.6143 144.139C95.4523 144.043 95.2483 143.995 95.0023 143.995C94.7143 143.995 94.4653 144.067 94.2553 144.211C94.0453 144.355 93.9163 144.568 93.8683 144.85H93.0943C93.1303 144.526 93.2383 144.256 93.4183 144.04C93.6043 143.818 93.8383 143.65 94.1203 143.536C94.4023 143.416 94.6963 143.356 95.0023 143.356C95.4223 143.356 95.7703 143.434 96.0463 143.59C96.3283 143.74 96.5383 143.953 96.6763 144.229C96.8143 144.499 96.8833 144.82 96.8833 145.192V148H96.2083L96.1633 147.199C96.1033 147.325 96.0253 147.445 95.9293 147.559C95.8393 147.667 95.7313 147.763 95.6053 147.847C95.4793 147.925 95.3353 147.988 95.1733 148.036C95.0173 148.084 94.8373 148.108 94.6333 148.108ZM94.7503 147.469C94.9603 147.469 95.1493 147.427 95.3173 147.343C95.4913 147.253 95.6383 147.133 95.7583 146.983C95.8783 146.827 95.9683 146.656 96.0283 146.47C96.0943 146.284 96.1273 146.089 96.1273 145.885V145.858H94.9933C94.6993 145.858 94.4623 145.894 94.2823 145.966C94.1023 146.032 93.9733 146.128 93.8953 146.254C93.8173 146.374 93.7783 146.512 93.7783 146.668C93.7783 146.83 93.8143 146.971 93.8863 147.091C93.9643 147.211 94.0753 147.304 94.2193 147.37C94.3693 147.436 94.5463 147.469 94.7503 147.469ZM100.443 148V143.464H101.127L101.163 144.256C101.307 143.974 101.511 143.755 101.775 143.599C102.045 143.437 102.351 143.356 102.693 143.356C103.047 143.356 103.353 143.428 103.611 143.572C103.869 143.71 104.07 143.923 104.214 144.211C104.358 144.493 104.43 144.853 104.43 145.291V148H103.674V145.372C103.674 144.916 103.572 144.574 103.368 144.346C103.17 144.118 102.888 144.004 102.522 144.004C102.27 144.004 102.045 144.067 101.847 144.193C101.649 144.313 101.49 144.49 101.37 144.724C101.256 144.952 101.199 145.237 101.199 145.579V148H100.443ZM107.087 148.108C106.721 148.108 106.415 148.045 106.169 147.919C105.923 147.787 105.74 147.616 105.62 147.406C105.5 147.19 105.44 146.956 105.44 146.704C105.44 146.398 105.518 146.14 105.674 145.93C105.836 145.714 106.061 145.552 106.349 145.444C106.643 145.33 106.988 145.273 107.384 145.273H108.581C108.581 144.991 108.536 144.757 108.446 144.571C108.362 144.379 108.236 144.235 108.068 144.139C107.906 144.043 107.702 143.995 107.456 143.995C107.168 143.995 106.919 144.067 106.709 144.211C106.499 144.355 106.37 144.568 106.322 144.85H105.548C105.584 144.526 105.692 144.256 105.872 144.04C106.058 143.818 106.292 143.65 106.574 143.536C106.856 143.416 107.15 143.356 107.456 143.356C107.876 143.356 108.224 143.434 108.5 143.59C108.782 143.74 108.992 143.953 109.13 144.229C109.268 144.499 109.337 144.82 109.337 145.192V148H108.662L108.617 147.199C108.557 147.325 108.479 147.445 108.383 147.559C108.293 147.667 108.185 147.763 108.059 147.847C107.933 147.925 107.789 147.988 107.627 148.036C107.471 148.084 107.291 148.108 107.087 148.108ZM107.204 147.469C107.414 147.469 107.603 147.427 107.771 147.343C107.945 147.253 108.092 147.133 108.212 146.983C108.332 146.827 108.422 146.656 108.482 146.47C108.548 146.284 108.581 146.089 108.581 145.885V145.858H107.447C107.153 145.858 106.916 145.894 106.736 145.966C106.556 146.032 106.427 146.128 106.349 146.254C106.271 146.374 106.232 146.512 106.232 146.668C106.232 146.83 106.268 146.971 106.34 147.091C106.418 147.211 106.529 147.304 106.673 147.37C106.823 147.436 107 147.469 107.204 147.469ZM111.645 148L109.926 143.464H110.718L112.086 147.271L113.463 143.464H114.237L112.518 148H111.645ZM115.158 148V143.464H115.914V148H115.158ZM115.536 142.501C115.386 142.501 115.26 142.453 115.158 142.357C115.062 142.255 115.014 142.129 115.014 141.979C115.014 141.829 115.062 141.709 115.158 141.619C115.26 141.523 115.386 141.475 115.536 141.475C115.68 141.475 115.803 141.523 115.905 141.619C116.007 141.709 116.058 141.829 116.058 141.979C116.058 142.129 116.007 142.255 115.905 142.357C115.803 142.453 115.68 142.501 115.536 142.501ZM120.038 148L117.878 145.516L119.849 143.464H120.776L118.517 145.786L118.526 145.246L121.001 148H120.038ZM117.248 148V141.52H118.004V148H117.248ZM123.224 148.108C122.858 148.108 122.552 148.045 122.306 147.919C122.06 147.787 121.877 147.616 121.757 147.406C121.637 147.19 121.577 146.956 121.577 146.704C121.577 146.398 121.655 146.14 121.811 145.93C121.973 145.714 122.198 145.552 122.486 145.444C122.78 145.33 123.125 145.273 123.521 145.273H124.718C124.718 144.991 124.673 144.757 124.583 144.571C124.499 144.379 124.373 144.235 124.205 144.139C124.043 144.043 123.839 143.995 123.593 143.995C123.305 143.995 123.056 144.067 122.846 144.211C122.636 144.355 122.507 144.568 122.459 144.85H121.685C121.721 144.526 121.829 144.256 122.009 144.04C122.195 143.818 122.429 143.65 122.711 143.536C122.993 143.416 123.287 143.356 123.593 143.356C124.013 143.356 124.361 143.434 124.637 143.59C124.919 143.74 125.129 143.953 125.267 144.229C125.405 144.499 125.474 144.82 125.474 145.192V148H124.799L124.754 147.199C124.694 147.325 124.616 147.445 124.52 147.559C124.43 147.667 124.322 147.763 124.196 147.847C124.07 147.925 123.926 147.988 123.764 148.036C123.608 148.084 123.428 148.108 123.224 148.108ZM123.341 147.469C123.551 147.469 123.74 147.427 123.908 147.343C124.082 147.253 124.229 147.133 124.349 146.983C124.469 146.827 124.559 146.656 124.619 146.47C124.685 146.284 124.718 146.089 124.718 145.885V145.858H123.584C123.29 145.858 123.053 145.894 122.873 145.966C122.693 146.032 122.564 146.128 122.486 146.254C122.408 146.374 122.369 146.512 122.369 146.668C122.369 146.83 122.405 146.971 122.477 147.091C122.555 147.211 122.666 147.304 122.81 147.37C122.96 147.436 123.137 147.469 123.341 147.469Z" fill="#9B9B9B"/>
<line x1="11" y1="117.5" x2="131" y2="117.5" stroke="#C8F135"/>
</svg>
