<svg width="200" height="200" viewBox="0 0 200 200" fill="none" xmlns="http://www.w3.org/2000/svg">
<rect width="200" height="200" fill="#0A0A0A"/>
<line x1="1.5" y1="55" x2="1.5" y2="200" stroke="#C8F135" stroke-width="3"/>
<rect width="200" height="55" fill="#1D1D1D"/>
<path d="M11.35 47V34.4H13.114L17.56 43.202L22.024 34.4H23.806V47H22.294V37.1L18.136 45.236H17.002L12.862 37.136V47H11.35ZM26.4848 47V34.4H30.5528C31.5368 34.4 32.3408 34.568 32.9648 34.904C33.5888 35.228 34.0508 35.666 34.3508 36.218C34.6508 36.77 34.8008 37.394 34.8008 38.09C34.8008 38.762 34.6448 39.38 34.3328 39.944C34.0328 40.508 33.5648 40.958 32.9288 41.294C32.2928 41.63 31.4768 41.798 30.4808 41.798H27.9968V47H26.4848ZM33.1448 47L30.3728 41.366H32.0648L34.9268 47H33.1448ZM27.9968 40.61H30.4448C31.4048 40.61 32.1068 40.376 32.5508 39.908C33.0068 39.44 33.2348 38.84 33.2348 38.108C33.2348 37.364 33.0128 36.776 32.5688 36.344C32.1368 35.9 31.4228 35.678 30.4268 35.678H27.9968V40.61ZM40.1243 47V35.642H36.3623V34.4H45.3983V35.642H41.6363V47H40.1243ZM51.0421 47L46.3081 34.4H47.9461L51.9241 45.398L55.9381 34.4H57.5401L52.8061 47H51.0421ZM64.4269 47.216C63.2149 47.216 62.1469 46.946 61.2229 46.406C60.3109 45.854 59.5969 45.092 59.0809 44.12C58.5769 43.136 58.3249 41.996 58.3249 40.7C58.3249 39.416 58.5769 38.288 59.0809 37.316C59.5969 36.332 60.3109 35.564 61.2229 35.012C62.1469 34.46 63.2149 34.184 64.4269 34.184C65.6629 34.184 66.7369 34.46 67.6489 35.012C68.5609 35.564 69.2689 36.332 69.7729 37.316C70.2889 38.288 70.5469 39.416 70.5469 40.7C70.5469 41.996 70.2889 43.136 69.7729 44.12C69.2689 45.092 68.5609 45.854 67.6489 46.406C66.7369 46.946 65.6629 47.216 64.4269 47.216ZM64.4269 45.884C65.3389 45.884 66.1369 45.68 66.8209 45.272C67.5169 44.852 68.0509 44.258 68.4229 43.49C68.8069 42.71 68.9989 41.78 68.9989 40.7C68.9989 39.62 68.8069 38.696 68.4229 37.928C68.0509 37.148 67.5169 36.554 66.8209 36.146C66.1369 35.738 65.3389 35.534 64.4269 35.534C63.5269 35.534 62.7289 35.738 62.0329 36.146C61.3489 36.554 60.8149 37.148 60.4309 37.928C60.0589 38.696 59.8729 39.62 59.8729 40.7C59.8729 41.78 60.0589 42.71 60.4309 43.49C60.8149 44.258 61.3489 44.852 62.0329 45.272C62.7289 45.68 63.5269 45.884 64.4269 45.884ZM77.5316 47V34.4H81.2396C82.7156 34.4 83.9276 34.658 84.8756 35.174C85.8356 35.678 86.5436 36.404 86.9996 37.352C87.4676 38.288 87.7016 39.416 87.7016 40.736C87.7016 42.032 87.4676 43.148 86.9996 44.084C86.5436 45.02 85.8356 45.74 84.8756 46.244C83.9276 46.748 82.7156 47 81.2396 47H77.5316ZM79.0436 45.74H81.2036C82.4276 45.74 83.3996 45.542 84.1196 45.146C84.8396 44.738 85.3556 44.162 85.6676 43.418C85.9796 42.662 86.1356 41.768 86.1356 40.736C86.1356 39.68 85.9796 38.774 85.6676 38.018C85.3556 37.262 84.8396 36.68 84.1196 36.272C83.3996 35.864 82.4276 35.66 81.2036 35.66H79.0436V45.74ZM89.9242 47V34.4H91.4362V47H89.9242ZM93.603 47V45.812L99.885 35.714H93.693V34.4H101.649V35.588L95.349 45.686H101.721V47H93.603ZM103.071 47L107.715 34.4H109.317L113.943 47H112.341L108.507 36.29L104.655 47H103.071ZM105.195 43.76L105.627 42.536H111.333L111.765 43.76H105.195ZM115.834 47V34.4H117.346L124.06 44.498V34.4H125.572V47H124.06L117.346 36.902V47H115.834ZM131.088 47.216C130.332 47.216 129.678 47.072 129.126 46.784C128.586 46.496 128.166 46.082 127.866 45.542C127.578 45.002 127.434 44.36 127.434 43.616H128.964C128.964 44.036 129.03 44.42 129.162 44.768C129.306 45.104 129.528 45.374 129.828 45.578C130.14 45.77 130.554 45.866 131.07 45.866C131.574 45.866 131.97 45.77 132.258 45.578C132.558 45.386 132.768 45.128 132.888 44.804C133.02 44.468 133.086 44.09 133.086 43.67V34.4H134.598V43.67C134.598 44.798 134.286 45.674 133.662 46.298C133.05 46.91 132.192 47.216 131.088 47.216ZM137.297 47V34.4H145.091V35.642H138.809V40.034H144.551V41.258H138.809V45.758H145.091V47H137.297Z" fill="white"/>
<path d="M11.675 18V11.7H12.431L15.788 16.749V11.7H16.544V18H15.788L12.431 12.951V18H11.675ZM17.8977 18V11.7H18.7797L21.0027 16.101L23.2347 11.7H24.1257V18H23.3697V13.05L21.2907 17.118H20.7237L18.6537 13.068V18H17.8977ZM25.06 18L27.382 11.7H28.183L30.496 18H29.695L27.778 12.645L25.852 18H25.06ZM26.122 16.38L26.338 15.768H29.191L29.407 16.38H26.122ZM31.4416 18V11.7H33.4936C33.9916 11.7 34.3996 11.784 34.7176 11.952C35.0416 12.114 35.2786 12.333 35.4286 12.609C35.5846 12.885 35.6626 13.2 35.6626 13.554C35.6626 13.896 35.5846 14.208 35.4286 14.49C35.2786 14.766 35.0446 14.988 34.7266 15.156C34.4086 15.324 33.9976 15.408 33.4936 15.408H32.1976V18H31.4416ZM32.1976 14.769H33.4846C33.9886 14.769 34.3486 14.658 34.5646 14.436C34.7806 14.214 34.8886 13.92 34.8886 13.554C34.8886 13.164 34.7806 12.864 34.5646 12.654C34.3486 12.438 33.9886 12.33 33.4846 12.33H32.1976V14.769ZM36.8873 18.045C36.7373 18.045 36.6113 17.997 36.5093 17.901C36.4133 17.799 36.3653 17.676 36.3653 17.532C36.3653 17.388 36.4133 17.268 36.5093 17.172C36.6113 17.07 36.7373 17.019 36.8873 17.019C37.0373 17.019 37.1603 17.07 37.2563 17.172C37.3523 17.268 37.4003 17.388 37.4003 17.532C37.4003 17.676 37.3523 17.799 37.2563 17.901C37.1603 17.997 37.0373 18.045 36.8873 18.045ZM36.8873 14.382C36.7373 14.382 36.6113 14.334 36.5093 14.238C36.4133 14.136 36.3653 14.013 36.3653 13.869C36.3653 13.725 36.4133 13.605 36.5093 13.509C36.6113 13.407 36.7373 13.356 36.8873 13.356C37.0373 13.356 37.1603 13.407 37.2563 13.509C37.3523 13.605 37.4003 13.725 37.4003 13.869C37.4003 14.013 37.3523 14.136 37.2563 14.238C37.1603 14.334 37.0373 14.382 36.8873 14.382ZM42.3483 18V12.321H40.4673V11.7H44.9853V12.321H43.1043V18H42.3483ZM47.0526 18.108C46.6266 18.108 46.2486 18.009 45.9186 17.811C45.5946 17.613 45.3396 17.337 45.1536 16.983C44.9676 16.623 44.8746 16.206 44.8746 15.732C44.8746 15.252 44.9646 14.835 45.1446 14.481C45.3306 14.127 45.5886 13.851 45.9186 13.653C46.2546 13.455 46.6386 13.356 47.0706 13.356C47.5146 13.356 47.8896 13.455 48.1956 13.653C48.5076 13.851 48.7446 14.112 48.9066 14.436C49.0746 14.754 49.1586 15.105 49.1586 15.489C49.1586 15.549 49.1586 15.612 49.1586 15.678C49.1586 15.744 49.1556 15.819 49.1496 15.903H45.4416V15.318H48.4206C48.4026 14.904 48.2646 14.58 48.0066 14.346C47.7546 14.112 47.4366 13.995 47.0526 13.995C46.7946 13.995 46.5546 14.055 46.3326 14.175C46.1166 14.289 45.9426 14.46 45.8106 14.688C45.6786 14.91 45.6126 15.189 45.6126 15.525V15.777C45.6126 16.149 45.6786 16.461 45.8106 16.713C45.9486 16.965 46.1256 17.154 46.3416 17.28C46.5636 17.406 46.8006 17.469 47.0526 17.469C47.3706 17.469 47.6316 17.4 47.8356 17.262C48.0456 17.118 48.1956 16.926 48.2856 16.686H49.0326C48.9606 16.956 48.8346 17.199 48.6546 17.415C48.4746 17.631 48.2496 17.802 47.9796 17.928C47.7156 18.048 47.4066 18.108 47.0526 18.108ZM50.1788 18V11.52H50.9348V14.229C51.0848 13.959 51.2948 13.746 51.5648 13.59C51.8408 13.434 52.1408 13.356 52.4648 13.356C52.8128 13.356 53.1158 13.428 53.3738 13.572C53.6318 13.71 53.8298 13.923 53.9678 14.211C54.1058 14.499 54.1748 14.862 54.1748 15.3V18H53.4278V15.381C53.4278 14.925 53.3318 14.583 53.1398 14.355C52.9478 14.121 52.6688 14.004 52.3028 14.004C52.0448 14.004 51.8108 14.067 51.6008 14.193C51.3968 14.319 51.2348 14.499 51.1148 14.733C50.9948 14.967 50.9348 15.255 50.9348 15.597V18H50.1788ZM55.3556 18V13.464H56.0396L56.0756 14.256C56.2196 13.974 56.4236 13.755 56.6876 13.599C56.9576 13.437 57.2636 13.356 57.6056 13.356C57.9596 13.356 58.2656 13.428 58.5236 13.572C58.7816 13.71 58.9826 13.923 59.1266 14.211C59.2706 14.493 59.3426 14.853 59.3426 15.291V18H58.5866V15.372C58.5866 14.916 58.4846 14.574 58.2806 14.346C58.0826 14.118 57.8006 14.004 57.4346 14.004C57.1826 14.004 56.9576 14.067 56.7596 14.193C56.5616 14.313 56.4026 14.49 56.2826 14.724C56.1686 14.952 56.1116 15.237 56.1116 15.579V18H55.3556ZM60.5956 18V13.464H61.3516V18H60.5956ZM60.9736 12.501C60.8236 12.501 60.6976 12.453 60.5956 12.357C60.4996 12.255 60.4516 12.129 60.4516 11.979C60.4516 11.829 60.4996 11.709 60.5956 11.619C60.6976 11.523 60.8236 11.475 60.9736 11.475C61.1176 11.475 61.2406 11.523 61.3426 11.619C61.4446 11.709 61.4956 11.829 61.4956 11.979C61.4956 12.129 61.4446 12.255 61.3426 12.357C61.2406 12.453 61.1176 12.501 60.9736 12.501ZM65.4757 18L63.3157 15.516L65.2867 13.464H66.2137L63.9547 15.786L63.9637 15.246L66.4387 18H65.4757ZM62.6857 18V11.52H63.4417V18H62.6857ZM68.6617 18.108C68.2957 18.108 67.9897 18.045 67.7437 17.919C67.4977 17.787 67.3147 17.616 67.1947 17.406C67.0747 17.19 67.0147 16.956 67.0147 16.704C67.0147 16.398 67.0927 16.14 67.2487 15.93C67.4107 15.714 67.6357 15.552 67.9237 15.444C68.2177 15.33 68.5627 15.273 68.9587 15.273H70.1557C70.1557 14.991 70.1107 14.757 70.0207 14.571C69.9367 14.379 69.8107 14.235 69.6427 14.139C69.4807 14.043 69.2767 13.995 69.0307 13.995C68.7427 13.995 68.4937 14.067 68.2837 14.211C68.0737 14.355 67.9447 14.568 67.8967 14.85H67.1227C67.1587 14.526 67.2667 14.256 67.4467 14.04C67.6327 13.818 67.8667 13.65 68.1487 13.536C68.4307 13.416 68.7247 13.356 69.0307 13.356C69.4507 13.356 69.7987 13.434 70.0747 13.59C70.3567 13.74 70.5667 13.953 70.7047 14.229C70.8427 14.499 70.9117 14.82 70.9117 15.192V18H70.2367L70.1917 17.199C70.1317 17.325 70.0537 17.445 69.9577 17.559C69.8677 17.667 69.7597 17.763 69.6337 17.847C69.5077 17.925 69.3637 17.988 69.2017 18.036C69.0457 18.084 68.8657 18.108 68.6617 18.108ZM68.7787 17.469C68.9887 17.469 69.1777 17.427 69.3457 17.343C69.5197 17.253 69.6667 17.133 69.7867 16.983C69.9067 16.827 69.9967 16.656 70.0567 16.47C70.1227 16.284 70.1557 16.089 70.1557 15.885V15.858H69.0217C68.7277 15.858 68.4907 15.894 68.3107 15.966C68.1307 16.032 68.0017 16.128 67.9237 16.254C67.8457 16.374 67.8067 16.512 67.8067 16.668C67.8067 16.83 67.8427 16.971 67.9147 17.091C67.9927 17.211 68.1037 17.304 68.2477 17.37C68.3977 17.436 68.5747 17.469 68.7787 17.469Z" fill="#C8F135"/>
<rect x="9" y="66" width="185" height="29" fill="#1D1D1D"/>
<line x1="9.52777" y1="95" x2="9.52777" y2="66" stroke="#C8F135"/>
<path d="M16.98 76.12C16.4667 76.12 16.02 76.0267 15.64 75.84C15.26 75.6533 14.9667 75.3933 14.76 75.06C14.5533 74.7267 14.45 74.34 14.45 73.9H15.33C15.33 74.1733 15.3933 74.4267 15.52 74.66C15.6467 74.8867 15.83 75.07 16.07 75.21C16.3167 75.3433 16.62 75.41 16.98 75.41C17.2933 75.41 17.56 75.36 17.78 75.26C18.0067 75.1533 18.1767 75.01 18.29 74.83C18.41 74.65 18.47 74.4467 18.47 74.22C18.47 73.9467 18.41 73.7267 18.29 73.56C18.1767 73.3867 18.02 73.2467 17.82 73.14C17.62 73.0333 17.3867 72.94 17.12 72.86C16.86 72.7733 16.5867 72.6833 16.3 72.59C15.7467 72.4033 15.34 72.17 15.08 71.89C14.82 71.61 14.69 71.2467 14.69 70.8C14.69 70.42 14.7767 70.0867 14.95 69.8C15.13 69.5133 15.3833 69.29 15.71 69.13C16.0433 68.9633 16.4367 68.88 16.89 68.88C17.3367 68.88 17.7233 68.9633 18.05 69.13C18.3833 69.2967 18.6433 69.5267 18.83 69.82C19.0167 70.1067 19.11 70.44 19.11 70.82H18.23C18.23 70.6267 18.18 70.4367 18.08 70.25C17.98 70.0633 17.8267 69.91 17.62 69.79C17.42 69.6633 17.1667 69.6 16.86 69.6C16.6067 69.5933 16.38 69.6367 16.18 69.73C15.9867 69.8167 15.8333 69.9433 15.72 70.11C15.6133 70.2767 15.56 70.48 15.56 70.72C15.56 70.9467 15.6067 71.13 15.7 71.27C15.8 71.41 15.94 71.53 16.12 71.63C16.3067 71.7233 16.5233 71.81 16.77 71.89C17.0167 71.97 17.29 72.06 17.59 72.16C17.93 72.2733 18.23 72.4133 18.49 72.58C18.7567 72.74 18.9633 72.9467 19.11 73.2C19.2633 73.4533 19.34 73.7767 19.34 74.17C19.34 74.5033 19.25 74.82 19.07 75.12C18.8967 75.4133 18.6367 75.6533 18.29 75.84C17.9433 76.0267 17.5067 76.12 16.98 76.12ZM16.88 68.46L15.51 67.64V66.99L16.88 67.83L18.25 66.99V67.64L16.88 68.46ZM20.5808 76V70.96H21.4208V76H20.5808ZM21.0008 69.89C20.8341 69.89 20.6941 69.8367 20.5808 69.73C20.4741 69.6167 20.4208 69.4767 20.4208 69.31C20.4208 69.1433 20.4741 69.01 20.5808 68.91C20.6941 68.8033 20.8341 68.75 21.0008 68.75C21.1608 68.75 21.2974 68.8033 21.4108 68.91C21.5241 69.01 21.5808 69.1433 21.5808 69.31C21.5808 69.4767 21.5241 69.6167 21.4108 69.73C21.2974 69.8367 21.1608 69.89 21.0008 69.89ZM22.9031 78.2V70.96H23.6631L23.7331 71.78C23.8398 71.62 23.9765 71.47 24.1431 71.33C24.3098 71.1833 24.5098 71.0667 24.7431 70.98C24.9765 70.8867 25.2431 70.84 25.5431 70.84C26.0365 70.84 26.4631 70.9567 26.8231 71.19C27.1898 71.4233 27.4731 71.74 27.6731 72.14C27.8798 72.5333 27.9831 72.9833 27.9831 73.49C27.9831 73.9967 27.8798 74.45 27.6731 74.85C27.4731 75.2433 27.1898 75.5533 26.8231 75.78C26.4565 76.0067 26.0265 76.12 25.5331 76.12C25.1265 76.12 24.7665 76.0367 24.4531 75.87C24.1465 75.7033 23.9098 75.47 23.7431 75.17V78.2H22.9031ZM25.4431 75.39C25.7698 75.39 26.0598 75.31 26.3131 75.15C26.5665 74.99 26.7631 74.77 26.9031 74.49C27.0498 74.2033 27.1231 73.8667 27.1231 73.48C27.1231 73.1 27.0498 72.7667 26.9031 72.48C26.7631 72.1933 26.5665 71.97 26.3131 71.81C26.0598 71.65 25.7698 71.57 25.4431 71.57C25.1098 71.57 24.8165 71.65 24.5631 71.81C24.3098 71.97 24.1131 72.1933 23.9731 72.48C23.8331 72.7667 23.7631 73.1 23.7631 73.48C23.7631 73.8667 23.8331 74.2033 23.9731 74.49C24.1131 74.77 24.3098 74.99 24.5631 75.15C24.8165 75.31 25.1098 75.39 25.4431 75.39ZM32.2629 76L29.8629 73.24L32.0529 70.96H33.0829L30.5729 73.54L30.5829 72.94L33.3329 76H32.2629ZM29.1629 76V68.8H30.0029V76H29.1629ZM35.8029 76.12C35.3962 76.12 35.0562 76.05 34.7829 75.91C34.5096 75.7633 34.3062 75.5733 34.1729 75.34C34.0396 75.1 33.9729 74.84 33.9729 74.56C33.9729 74.22 34.0596 73.9333 34.2329 73.7C34.4129 73.46 34.6629 73.28 34.9829 73.16C35.3096 73.0333 35.6929 72.97 36.1329 72.97H37.4629C37.4629 72.6567 37.4129 72.3967 37.3129 72.19C37.2196 71.9767 37.0796 71.8167 36.8929 71.71C36.7129 71.6033 36.4862 71.55 36.2129 71.55C35.8929 71.55 35.6162 71.63 35.3829 71.79C35.1496 71.95 35.0062 72.1867 34.9529 72.5H34.0929C34.1329 72.14 34.2529 71.84 34.4529 71.6C34.6596 71.3533 34.9196 71.1667 35.2329 71.04C35.5462 70.9067 35.8729 70.84 36.2129 70.84C36.6796 70.84 37.0662 70.9267 37.3729 71.1C37.6862 71.2667 37.9196 71.5033 38.0729 71.81C38.2262 72.11 38.3029 72.4667 38.3029 72.88V76H37.5529L37.5029 75.11C37.4362 75.25 37.3496 75.3833 37.2429 75.51C37.1429 75.63 37.0229 75.7367 36.8829 75.83C36.7429 75.9167 36.5829 75.9867 36.4029 76.04C36.2296 76.0933 36.0296 76.12 35.8029 76.12ZM35.9329 75.41C36.1662 75.41 36.3762 75.3633 36.5629 75.27C36.7562 75.17 36.9196 75.0367 37.0529 74.87C37.1862 74.6967 37.2862 74.5067 37.3529 74.3C37.4262 74.0933 37.4629 73.8767 37.4629 73.65V73.62H36.2029C35.8762 73.62 35.6129 73.66 35.4129 73.74C35.2129 73.8133 35.0696 73.92 34.9829 74.06C34.8962 74.1933 34.8529 74.3467 34.8529 74.52C34.8529 74.7 34.8929 74.8567 34.9729 74.99C35.0596 75.1233 35.1829 75.2267 35.3429 75.3C35.5096 75.3733 35.7062 75.41 35.9329 75.41Z" fill="#C8F135"/>
<path d="M14.6 90V84.4H15.272V90H14.6ZM16.163 90V89.448L18.395 86.528H16.203V85.968H19.163V86.52L16.923 89.44H19.203V90H16.163ZM20.0991 90V85.968H20.7071L20.7391 86.672C20.8671 86.4213 21.0484 86.2267 21.2831 86.088C21.5231 85.944 21.7951 85.872 22.0991 85.872C22.4137 85.872 22.6857 85.936 22.9151 86.064C23.1444 86.1867 23.3231 86.376 23.4511 86.632C23.5791 86.8827 23.6431 87.2027 23.6431 87.592V90H22.9711V87.664C22.9711 87.2587 22.8804 86.9547 22.6991 86.752C22.5231 86.5493 22.2724 86.448 21.9471 86.448C21.7231 86.448 21.5231 86.504 21.3471 86.616C21.1711 86.7227 21.0297 86.88 20.9231 87.088C20.8217 87.2907 20.7711 87.544 20.7711 87.848V90H20.0991ZM26.0048 90.096C25.6795 90.096 25.4075 90.04 25.1888 89.928C24.9701 89.8107 24.8075 89.6587 24.7008 89.472C24.5941 89.28 24.5408 89.072 24.5408 88.848C24.5408 88.576 24.6101 88.3467 24.7488 88.16C24.8928 87.968 25.0928 87.824 25.3488 87.728C25.6101 87.6267 25.9168 87.576 26.2688 87.576H27.3328C27.3328 87.3253 27.2928 87.1173 27.2128 86.952C27.1381 86.7813 27.0261 86.6533 26.8768 86.568C26.7328 86.4827 26.5515 86.44 26.3328 86.44C26.0768 86.44 25.8555 86.504 25.6688 86.632C25.4821 86.76 25.3675 86.9493 25.3248 87.2H24.6368C24.6688 86.912 24.7648 86.672 24.9248 86.48C25.0901 86.2827 25.2981 86.1333 25.5488 86.032C25.7995 85.9253 26.0608 85.872 26.3328 85.872C26.7061 85.872 27.0155 85.9413 27.2608 86.08C27.5115 86.2133 27.6981 86.4027 27.8208 86.648C27.9435 86.888 28.0048 87.1733 28.0048 87.504V90H27.4048L27.3648 89.288C27.3115 89.4 27.2421 89.5067 27.1568 89.608C27.0768 89.704 26.9808 89.7893 26.8688 89.864C26.7568 89.9333 26.6288 89.9893 26.4848 90.032C26.3461 90.0747 26.1861 90.096 26.0048 90.096ZM26.1088 89.528C26.2955 89.528 26.4635 89.4907 26.6128 89.416C26.7675 89.336 26.8981 89.2293 27.0048 89.096C27.1115 88.9573 27.1915 88.8053 27.2448 88.64C27.3035 88.4747 27.3328 88.3013 27.3328 88.12V88.096H26.3248C26.0635 88.096 25.8528 88.128 25.6928 88.192C25.5328 88.2507 25.4181 88.336 25.3488 88.448C25.2795 88.5547 25.2448 88.6773 25.2448 88.816C25.2448 88.96 25.2768 89.0853 25.3408 89.192C25.4101 89.2987 25.5088 89.3813 25.6368 89.44C25.7701 89.4987 25.9275 89.528 26.1088 89.528ZM30.8204 90.096C30.431 90.096 30.0897 90.0053 29.7964 89.824C29.503 89.6373 29.2764 89.384 29.1164 89.064C28.9564 88.744 28.8764 88.3813 28.8764 87.976C28.8764 87.5707 28.9564 87.2107 29.1164 86.896C29.2764 86.576 29.503 86.3253 29.7964 86.144C30.095 85.9627 30.439 85.872 30.8284 85.872C31.159 85.872 31.447 85.9387 31.6924 86.072C31.943 86.2053 32.135 86.392 32.2684 86.632V84.24H32.9404V90H32.3324L32.2764 89.336C32.191 89.4693 32.0817 89.5947 31.9484 89.712C31.815 89.824 31.655 89.9173 31.4684 89.992C31.2817 90.0613 31.0657 90.096 30.8204 90.096ZM30.9004 89.512C31.167 89.512 31.4017 89.448 31.6044 89.32C31.807 89.192 31.9644 89.016 32.0764 88.792C32.1884 88.5627 32.2444 88.2933 32.2444 87.984C32.2444 87.68 32.1884 87.4133 32.0764 87.184C31.9644 86.9547 31.807 86.776 31.6044 86.648C31.4017 86.52 31.167 86.456 30.9004 86.456C30.639 86.456 30.407 86.52 30.2044 86.648C30.0017 86.776 29.8444 86.9547 29.7324 87.184C29.6204 87.4133 29.5644 87.68 29.5644 87.984C29.5644 88.2933 29.6204 88.5627 29.7324 88.792C29.8444 89.016 30.0017 89.192 30.2044 89.32C30.407 89.448 30.639 89.512 30.9004 89.512ZM37.705 90.096C37.369 90.096 37.0757 90.04 36.825 89.928C36.5797 89.816 36.3823 89.6613 36.233 89.464C36.089 89.2613 36.001 89.024 35.969 88.752H36.657C36.6837 88.8907 36.7397 89.0187 36.825 89.136C36.9103 89.2533 37.025 89.3493 37.169 89.424C37.3183 89.4933 37.4997 89.528 37.713 89.528C37.8997 89.528 38.0543 89.5013 38.177 89.448C38.2997 89.3893 38.3903 89.312 38.449 89.216C38.513 89.12 38.545 89.016 38.545 88.904C38.545 88.7387 38.505 88.6133 38.425 88.528C38.3503 88.4427 38.2383 88.376 38.089 88.328C37.9397 88.2747 37.7583 88.2293 37.545 88.192C37.369 88.16 37.1957 88.1173 37.025 88.064C36.8543 88.0107 36.7023 87.9413 36.569 87.856C36.4357 87.7653 36.329 87.656 36.249 87.528C36.1743 87.4 36.137 87.2427 36.137 87.056C36.137 86.8267 36.1957 86.624 36.313 86.448C36.4303 86.2667 36.5983 86.1253 36.817 86.024C37.041 85.9227 37.2997 85.872 37.593 85.872C38.025 85.872 38.3743 85.976 38.641 86.184C38.9077 86.392 39.065 86.6933 39.113 87.088H38.449C38.4223 86.8853 38.3343 86.728 38.185 86.616C38.041 86.4987 37.841 86.44 37.585 86.44C37.3343 86.44 37.1423 86.4907 37.009 86.592C36.881 86.6933 36.817 86.8267 36.817 86.992C36.817 87.0987 36.8517 87.1947 36.921 87.28C36.9957 87.36 37.1023 87.4293 37.241 87.488C37.385 87.5467 37.561 87.5947 37.769 87.632C38.0357 87.68 38.2783 87.744 38.497 87.824C38.7157 87.904 38.8917 88.024 39.025 88.184C39.1637 88.3387 39.233 88.56 39.233 88.848C39.233 89.0987 39.169 89.3173 39.041 89.504C38.9183 89.6907 38.7423 89.8373 38.513 89.944C38.2837 90.0453 38.0143 90.096 37.705 90.096ZM40.2006 90V85.968H40.8086L40.8566 86.736C40.9473 86.5547 41.062 86.4 41.2006 86.272C41.3446 86.144 41.5153 86.0453 41.7126 85.976C41.9153 85.9067 42.1446 85.872 42.4006 85.872V86.576H42.1526C41.982 86.576 41.8193 86.6 41.6646 86.648C41.51 86.6907 41.3713 86.7627 41.2486 86.864C41.1313 86.9653 41.038 87.104 40.9686 87.28C40.9046 87.4507 40.8726 87.664 40.8726 87.92V90H40.2006ZM44.7811 90.096C44.4025 90.096 44.0665 90.008 43.7731 89.832C43.4851 89.656 43.2585 89.4107 43.0931 89.096C42.9278 88.776 42.8451 88.4053 42.8451 87.984C42.8451 87.5573 42.9251 87.1867 43.0851 86.872C43.2505 86.5573 43.4798 86.312 43.7731 86.136C44.0718 85.96 44.4131 85.872 44.7971 85.872C45.1918 85.872 45.5251 85.96 45.7971 86.136C46.0745 86.312 46.2851 86.544 46.4291 86.832C46.5785 87.1147 46.6531 87.4267 46.6531 87.768C46.6531 87.8213 46.6531 87.8773 46.6531 87.936C46.6531 87.9947 46.6505 88.0613 46.6451 88.136H43.3491V87.616H45.9971C45.9811 87.248 45.8585 86.96 45.6291 86.752C45.4051 86.544 45.1225 86.44 44.7811 86.44C44.5518 86.44 44.3385 86.4933 44.1411 86.6C43.9491 86.7013 43.7945 86.8533 43.6771 87.056C43.5598 87.2533 43.5011 87.5013 43.5011 87.8V88.024C43.5011 88.3547 43.5598 88.632 43.6771 88.856C43.7998 89.08 43.9571 89.248 44.1491 89.36C44.3465 89.472 44.5571 89.528 44.7811 89.528C45.0638 89.528 45.2958 89.4667 45.4771 89.344C45.6638 89.216 45.7971 89.0453 45.8771 88.832H46.5411C46.4771 89.072 46.3651 89.288 46.2051 89.48C46.0451 89.672 45.8451 89.824 45.6051 89.936C45.3705 90.0427 45.0958 90.096 44.7811 90.096ZM49.336 90.096C48.9467 90.096 48.6053 90.0053 48.312 89.824C48.0187 89.6373 47.792 89.384 47.632 89.064C47.472 88.744 47.392 88.3813 47.392 87.976C47.392 87.5707 47.472 87.2107 47.632 86.896C47.792 86.576 48.0187 86.3253 48.312 86.144C48.6107 85.9627 48.9547 85.872 49.344 85.872C49.6747 85.872 49.9627 85.9387 50.208 86.072C50.4587 86.2053 50.6507 86.392 50.784 86.632V84.24H51.456V90H50.848L50.792 89.336C50.7067 89.4693 50.5973 89.5947 50.464 89.712C50.3307 89.824 50.1707 89.9173 49.984 89.992C49.7973 90.0613 49.5813 90.096 49.336 90.096ZM49.416 89.512C49.6827 89.512 49.9173 89.448 50.12 89.32C50.3227 89.192 50.48 89.016 50.592 88.792C50.704 88.5627 50.76 88.2933 50.76 87.984C50.76 87.68 50.704 87.4133 50.592 87.184C50.48 86.9547 50.3227 86.776 50.12 86.648C49.9173 86.52 49.6827 86.456 49.416 86.456C49.1547 86.456 48.9227 86.52 48.72 86.648C48.5173 86.776 48.36 86.9547 48.248 87.184C48.136 87.4133 48.08 87.68 48.08 87.984C48.08 88.2933 48.136 88.5627 48.248 88.792C48.36 89.016 48.5173 89.192 48.72 89.32C48.9227 89.448 49.1547 89.512 49.416 89.512ZM52.6396 90V85.968H53.3116V90H52.6396ZM52.9756 85.112C52.8423 85.112 52.7303 85.0693 52.6396 84.984C52.5543 84.8933 52.5116 84.7813 52.5116 84.648C52.5116 84.5147 52.5543 84.408 52.6396 84.328C52.7303 84.2427 52.8423 84.2 52.9756 84.2C53.1036 84.2 53.213 84.2427 53.3036 84.328C53.3943 84.408 53.4396 84.5147 53.4396 84.648C53.4396 84.7813 53.3943 84.8933 53.3036 84.984C53.213 85.0693 53.1036 85.112 52.9756 85.112ZM54.4975 90V85.968H55.1055L55.1375 86.672C55.2655 86.4213 55.4468 86.2267 55.6815 86.088C55.9215 85.944 56.1935 85.872 56.4975 85.872C56.8122 85.872 57.0842 85.936 57.3135 86.064C57.5428 86.1867 57.7215 86.376 57.8495 86.632C57.9775 86.8827 58.0415 87.2027 58.0415 87.592V90H57.3695V87.664C57.3695 87.2587 57.2788 86.9547 57.0975 86.752C56.9215 86.5493 56.6708 86.448 56.3455 86.448C56.1215 86.448 55.9215 86.504 55.7455 86.616C55.5695 86.7227 55.4282 86.88 55.3215 87.088C55.2202 87.2907 55.1695 87.544 55.1695 87.848V90H54.4975ZM60.8593 90.096C60.4806 90.096 60.1446 90.008 59.8513 89.832C59.5633 89.656 59.3366 89.4107 59.1713 89.096C59.0059 88.776 58.9233 88.4053 58.9233 87.984C58.9233 87.5573 59.0033 87.1867 59.1633 86.872C59.3286 86.5573 59.5579 86.312 59.8513 86.136C60.1499 85.96 60.4913 85.872 60.8753 85.872C61.2699 85.872 61.6033 85.96 61.8753 86.136C62.1526 86.312 62.3633 86.544 62.5073 86.832C62.6566 87.1147 62.7313 87.4267 62.7313 87.768C62.7313 87.8213 62.7313 87.8773 62.7313 87.936C62.7313 87.9947 62.7286 88.0613 62.7233 88.136H59.4273V87.616H62.0753C62.0593 87.248 61.9366 86.96 61.7073 86.752C61.4833 86.544 61.2006 86.44 60.8593 86.44C60.6299 86.44 60.4166 86.4933 60.2193 86.6C60.0273 86.7013 59.8726 86.8533 59.7553 87.056C59.6379 87.2533 59.5793 87.5013 59.5793 87.8V88.024C59.5793 88.3547 59.6379 88.632 59.7553 88.856C59.8779 89.08 60.0353 89.248 60.2273 89.36C60.4246 89.472 60.6353 89.528 60.8593 89.528C61.1419 89.528 61.3739 89.4667 61.5553 89.344C61.7419 89.216 61.8753 89.0453 61.9553 88.832H62.6193C62.5553 89.072 62.4433 89.288 62.2833 89.48C62.1233 89.672 61.9233 89.824 61.6833 89.936C61.4486 90.0427 61.1739 90.096 60.8593 90.096ZM67.2831 90.096C66.9471 90.096 66.6538 90.04 66.4031 89.928C66.1578 89.816 65.9605 89.6613 65.8111 89.464C65.6671 89.2613 65.5791 89.024 65.5471 88.752H66.2351C66.2618 88.8907 66.3178 89.0187 66.4031 89.136C66.4885 89.2533 66.6031 89.3493 66.7471 89.424C66.8965 89.4933 67.0778 89.528 67.2911 89.528C67.4778 89.528 67.6325 89.5013 67.7551 89.448C67.8778 89.3893 67.9685 89.312 68.0271 89.216C68.0911 89.12 68.1231 89.016 68.1231 88.904C68.1231 88.7387 68.0831 88.6133 68.0031 88.528C67.9285 88.4427 67.8165 88.376 67.6671 88.328C67.5178 88.2747 67.3365 88.2293 67.1231 88.192C66.9471 88.16 66.7738 88.1173 66.6031 88.064C66.4325 88.0107 66.2805 87.9413 66.1471 87.856C66.0138 87.7653 65.9071 87.656 65.8271 87.528C65.7525 87.4 65.7151 87.2427 65.7151 87.056C65.7151 86.8267 65.7738 86.624 65.8911 86.448C66.0085 86.2667 66.1765 86.1253 66.3951 86.024C66.6191 85.9227 66.8778 85.872 67.1711 85.872C67.6031 85.872 67.9525 85.976 68.2191 86.184C68.4858 86.392 68.6431 86.6933 68.6911 87.088H68.0271C68.0005 86.8853 67.9125 86.728 67.7631 86.616C67.6191 86.4987 67.4191 86.44 67.1631 86.44C66.9125 86.44 66.7205 86.4907 66.5871 86.592C66.4591 86.6933 66.3951 86.8267 66.3951 86.992C66.3951 87.0987 66.4298 87.1947 66.4991 87.28C66.5738 87.36 66.6805 87.4293 66.8191 87.488C66.9631 87.5467 67.1391 87.5947 67.3471 87.632C67.6138 87.68 67.8565 87.744 68.0751 87.824C68.2938 87.904 68.4698 88.024 68.6031 88.184C68.7418 88.3387 68.8111 88.56 68.8111 88.848C68.8111 89.0987 68.7471 89.3173 68.6191 89.504C68.4965 89.6907 68.3205 89.8373 68.0911 89.944C67.8618 90.0453 67.5925 90.096 67.2831 90.096ZM71.1831 90C70.9431 90 70.7351 89.9627 70.5591 89.888C70.3831 89.8133 70.2471 89.688 70.1511 89.512C70.0604 89.3307 70.0151 89.088 70.0151 88.784V86.536H69.3111V85.968H70.0151L70.1031 84.992H70.6871V85.968H71.8551V86.536H70.6871V88.784C70.6871 89.0347 70.7377 89.2053 70.8391 89.296C70.9404 89.3813 71.1191 89.424 71.3751 89.424H71.8071V90H71.1831ZM74.4225 90.096C74.0492 90.096 73.7132 90.0107 73.4145 89.84C73.1158 89.664 72.8812 89.4187 72.7105 89.104C72.5398 88.784 72.4545 88.4133 72.4545 87.992C72.4545 87.56 72.5398 87.1867 72.7105 86.872C72.8865 86.552 73.1238 86.3067 73.4225 86.136C73.7265 85.96 74.0652 85.872 74.4385 85.872C74.8225 85.872 75.1612 85.96 75.4545 86.136C75.7532 86.3067 75.9878 86.552 76.1585 86.872C76.3345 87.1867 76.4225 87.5573 76.4225 87.984C76.4225 88.4107 76.3345 88.784 76.1585 89.104C75.9825 89.4187 75.7452 89.664 75.4465 89.84C75.1478 90.0107 74.8065 90.096 74.4225 90.096ZM74.4305 89.52C74.6598 89.52 74.8732 89.464 75.0705 89.352C75.2678 89.2347 75.4278 89.0613 75.5505 88.832C75.6732 88.6027 75.7345 88.32 75.7345 87.984C75.7345 87.6427 75.6732 87.36 75.5505 87.136C75.4332 86.9067 75.2758 86.736 75.0785 86.624C74.8865 86.5067 74.6732 86.448 74.4385 86.448C74.2145 86.448 74.0012 86.5067 73.7985 86.624C73.6012 86.736 73.4412 86.9067 73.3185 87.136C73.2012 87.36 73.1425 87.6427 73.1425 87.984C73.1425 88.32 73.2012 88.6027 73.3185 88.832C73.4412 89.0613 73.5985 89.2347 73.7905 89.352C73.9878 89.464 74.2012 89.52 74.4305 89.52ZM77.3647 91.76V85.968H77.9727L78.0287 86.624C78.114 86.496 78.2234 86.376 78.3567 86.264C78.49 86.1467 78.65 86.0533 78.8367 85.984C79.0234 85.9093 79.2367 85.872 79.4767 85.872C79.8714 85.872 80.2127 85.9653 80.5007 86.152C80.794 86.3387 81.0207 86.592 81.1807 86.912C81.346 87.2267 81.4287 87.5867 81.4287 87.992C81.4287 88.3973 81.346 88.76 81.1807 89.08C81.0207 89.3947 80.794 89.6427 80.5007 89.824C80.2074 90.0053 79.8634 90.096 79.4687 90.096C79.1434 90.096 78.8554 90.0293 78.6047 89.896C78.3594 89.7627 78.17 89.576 78.0367 89.336V91.76H77.3647ZM79.3967 89.512C79.658 89.512 79.89 89.448 80.0927 89.32C80.2954 89.192 80.4527 89.016 80.5647 88.792C80.682 88.5627 80.7407 88.2933 80.7407 87.984C80.7407 87.68 80.682 87.4133 80.5647 87.184C80.4527 86.9547 80.2954 86.776 80.0927 86.648C79.89 86.52 79.658 86.456 79.3967 86.456C79.13 86.456 78.8954 86.52 78.6927 86.648C78.49 86.776 78.3327 86.9547 78.2207 87.184C78.1087 87.4133 78.0527 87.68 78.0527 87.984C78.0527 88.2933 78.1087 88.5627 78.2207 88.792C78.3327 89.016 78.49 89.192 78.6927 89.32C78.8954 89.448 79.13 89.512 79.3967 89.512ZM83.6845 90.096C83.3592 90.096 83.0872 90.04 82.8685 89.928C82.6498 89.8107 82.4872 89.6587 82.3805 89.472C82.2738 89.28 82.2205 89.072 82.2205 88.848C82.2205 88.576 82.2898 88.3467 82.4285 88.16C82.5725 87.968 82.7725 87.824 83.0285 87.728C83.2898 87.6267 83.5965 87.576 83.9485 87.576H85.0125C85.0125 87.3253 84.9725 87.1173 84.8925 86.952C84.8178 86.7813 84.7058 86.6533 84.5565 86.568C84.4125 86.4827 84.2312 86.44 84.0125 86.44C83.7565 86.44 83.5352 86.504 83.3485 86.632C83.1618 86.76 83.0472 86.9493 83.0045 87.2H82.3165C82.3485 86.912 82.4445 86.672 82.6045 86.48C82.7698 86.2827 82.9778 86.1333 83.2285 86.032C83.4792 85.9253 83.7405 85.872 84.0125 85.872C84.3858 85.872 84.6952 85.9413 84.9405 86.08C85.1912 86.2133 85.3778 86.4027 85.5005 86.648C85.6232 86.888 85.6845 87.1733 85.6845 87.504V90H85.0845L85.0445 89.288C84.9912 89.4 84.9218 89.5067 84.8365 89.608C84.7565 89.704 84.6605 89.7893 84.5485 89.864C84.4365 89.9333 84.3085 89.9893 84.1645 90.032C84.0258 90.0747 83.8658 90.096 83.6845 90.096ZM83.7885 89.528C83.9752 89.528 84.1432 89.4907 84.2925 89.416C84.4472 89.336 84.5778 89.2293 84.6845 89.096C84.7912 88.9573 84.8712 88.8053 84.9245 88.64C84.9832 88.4747 85.0125 88.3013 85.0125 88.12V88.096H84.0045C83.7432 88.096 83.5325 88.128 83.3725 88.192C83.2125 88.2507 83.0978 88.336 83.0285 88.448C82.9592 88.5547 82.9245 88.6773 82.9245 88.816C82.9245 88.96 82.9565 89.0853 83.0205 89.192C83.0898 89.2987 83.1885 89.3813 83.3165 89.44C83.4498 89.4987 83.6072 89.528 83.7885 89.528ZM86.7241 90V84.24H87.3961V90H86.7241ZM89.8173 90.096C89.492 90.096 89.22 90.04 89.0013 89.928C88.7826 89.8107 88.62 89.6587 88.5133 89.472C88.4066 89.28 88.3533 89.072 88.3533 88.848C88.3533 88.576 88.4226 88.3467 88.5613 88.16C88.7053 87.968 88.9053 87.824 89.1613 87.728C89.4226 87.6267 89.7293 87.576 90.0813 87.576H91.1453C91.1453 87.3253 91.1053 87.1173 91.0253 86.952C90.9506 86.7813 90.8386 86.6533 90.6893 86.568C90.5453 86.4827 90.364 86.44 90.1453 86.44C89.8893 86.44 89.668 86.504 89.4813 86.632C89.2946 86.76 89.18 86.9493 89.1373 87.2H88.4493C88.4813 86.912 88.5773 86.672 88.7373 86.48C88.9026 86.2827 89.1106 86.1333 89.3613 86.032C89.612 85.9253 89.8733 85.872 90.1453 85.872C90.5186 85.872 90.828 85.9413 91.0733 86.08C91.324 86.2133 91.5106 86.4027 91.6333 86.648C91.756 86.888 91.8173 87.1733 91.8173 87.504V90H91.2173L91.1773 89.288C91.124 89.4 91.0546 89.5067 90.9693 89.608C90.8893 89.704 90.7933 89.7893 90.6813 89.864C90.5693 89.9333 90.4413 89.9893 90.2973 90.032C90.1586 90.0747 89.9986 90.096 89.8173 90.096ZM89.9213 89.528C90.108 89.528 90.276 89.4907 90.4253 89.416C90.58 89.336 90.7106 89.2293 90.8173 89.096C90.924 88.9573 91.004 88.8053 91.0573 88.64C91.116 88.4747 91.1453 88.3013 91.1453 88.12V88.096H90.1373C89.876 88.096 89.6653 88.128 89.5053 88.192C89.3453 88.2507 89.2306 88.336 89.1613 88.448C89.092 88.5547 89.0573 88.6773 89.0573 88.816C89.0573 88.96 89.0893 89.0853 89.1533 89.192C89.2226 89.2987 89.3213 89.3813 89.4493 89.44C89.5826 89.4987 89.74 89.528 89.9213 89.528Z" fill="white"/>
<rect x="9" y="114" width="185" height="29" fill="#1D1D1D"/>
<line x1="9.52777" y1="143" x2="9.52777" y2="114" stroke="#C8F135"/>
<path d="M14.75 124V117H15.59V123.33H18.85V124H14.75ZM21.9686 124.12C21.4953 124.12 21.0753 124.01 20.7086 123.79C20.3486 123.57 20.0653 123.263 19.8586 122.87C19.6519 122.47 19.5486 122.007 19.5486 121.48C19.5486 120.947 19.6486 120.483 19.8486 120.09C20.0553 119.697 20.3419 119.39 20.7086 119.17C21.0819 118.95 21.5086 118.84 21.9886 118.84C22.4819 118.84 22.8986 118.95 23.2386 119.17C23.5853 119.39 23.8486 119.68 24.0286 120.04C24.2153 120.393 24.3086 120.783 24.3086 121.21C24.3086 121.277 24.3086 121.347 24.3086 121.42C24.3086 121.493 24.3053 121.577 24.2986 121.67H20.1786V121.02H23.4886C23.4686 120.56 23.3153 120.2 23.0286 119.94C22.7486 119.68 22.3953 119.55 21.9686 119.55C21.6819 119.55 21.4153 119.617 21.1686 119.75C20.9286 119.877 20.7353 120.067 20.5886 120.32C20.4419 120.567 20.3686 120.877 20.3686 121.25V121.53C20.3686 121.943 20.4419 122.29 20.5886 122.57C20.7419 122.85 20.9386 123.06 21.1786 123.2C21.4253 123.34 21.6886 123.41 21.9686 123.41C22.3219 123.41 22.6119 123.333 22.8386 123.18C23.0719 123.02 23.2386 122.807 23.3386 122.54H24.1686C24.0886 122.84 23.9486 123.11 23.7486 123.35C23.5486 123.59 23.2986 123.78 22.9986 123.92C22.7053 124.053 22.3619 124.12 21.9686 124.12ZM28.0522 118.3V117.65H31.0922V118.3H28.0522ZM27.6622 124.12C27.1755 124.12 26.7489 124.007 26.3822 123.78C26.0155 123.547 25.7322 123.23 25.5322 122.83C25.3322 122.43 25.2322 121.977 25.2322 121.47C25.2322 120.963 25.3322 120.513 25.5322 120.12C25.7322 119.72 26.0155 119.407 26.3822 119.18C26.7555 118.953 27.1855 118.84 27.6722 118.84C28.0855 118.84 28.4455 118.923 28.7522 119.09C29.0655 119.257 29.3055 119.49 29.4722 119.79V116.8H30.3122V124H29.5522L29.4822 123.17C29.3755 123.337 29.2389 123.493 29.0722 123.64C28.9055 123.78 28.7055 123.897 28.4722 123.99C28.2389 124.077 27.9689 124.12 27.6622 124.12ZM27.7622 123.39C28.0955 123.39 28.3889 123.31 28.6422 123.15C28.8955 122.99 29.0922 122.77 29.2322 122.49C29.3722 122.203 29.4422 121.867 29.4422 121.48C29.4422 121.1 29.3722 120.767 29.2322 120.48C29.0922 120.193 28.8955 119.97 28.6422 119.81C28.3889 119.65 28.0955 119.57 27.7622 119.57C27.4355 119.57 27.1455 119.65 26.8922 119.81C26.6389 119.97 26.4422 120.193 26.3022 120.48C26.1622 120.767 26.0922 121.1 26.0922 121.48C26.0922 121.867 26.1622 122.203 26.3022 122.49C26.4422 122.77 26.6389 122.99 26.8922 123.15C27.1455 123.31 27.4355 123.39 27.7622 123.39ZM33.8302 124.12C33.4236 124.12 33.0836 124.05 32.8102 123.91C32.5369 123.763 32.3336 123.573 32.2002 123.34C32.0669 123.1 32.0002 122.84 32.0002 122.56C32.0002 122.22 32.0869 121.933 32.2602 121.7C32.4402 121.46 32.6902 121.28 33.0102 121.16C33.3369 121.033 33.7202 120.97 34.1602 120.97H35.4902C35.4902 120.657 35.4402 120.397 35.3402 120.19C35.2469 119.977 35.1069 119.817 34.9202 119.71C34.7402 119.603 34.5136 119.55 34.2402 119.55C33.9202 119.55 33.6436 119.63 33.4102 119.79C33.1769 119.95 33.0336 120.187 32.9802 120.5H32.1202C32.1602 120.14 32.2802 119.84 32.4802 119.6C32.6869 119.353 32.9469 119.167 33.2602 119.04C33.5736 118.907 33.9002 118.84 34.2402 118.84C34.7069 118.84 35.0936 118.927 35.4002 119.1C35.7136 119.267 35.9469 119.503 36.1002 119.81C36.2536 120.11 36.3302 120.467 36.3302 120.88V124H35.5802L35.5302 123.11C35.4636 123.25 35.3769 123.383 35.2702 123.51C35.1702 123.63 35.0502 123.737 34.9102 123.83C34.7702 123.917 34.6102 123.987 34.4302 124.04C34.2569 124.093 34.0569 124.12 33.8302 124.12ZM33.9602 123.41C34.1936 123.41 34.4036 123.363 34.5902 123.27C34.7836 123.17 34.9469 123.037 35.0802 122.87C35.2136 122.697 35.3136 122.507 35.3802 122.3C35.4536 122.093 35.4902 121.877 35.4902 121.65V121.62H34.2302C33.9036 121.62 33.6402 121.66 33.4402 121.74C33.2402 121.813 33.0969 121.92 33.0102 122.06C32.9236 122.193 32.8802 122.347 32.8802 122.52C32.8802 122.7 32.9202 122.857 33.0002 122.99C33.0869 123.123 33.2102 123.227 33.3702 123.3C33.5369 123.373 33.7336 123.41 33.9602 123.41Z" fill="#C8F135"/>
<path d="M14.6 138V132.4H15.272L18.256 136.888V132.4H18.928V138H18.256L15.272 133.512V138H14.6ZM21.8593 138.096C21.4806 138.096 21.1446 138.008 20.8513 137.832C20.5633 137.656 20.3366 137.411 20.1713 137.096C20.0059 136.776 19.9233 136.405 19.9233 135.984C19.9233 135.557 20.0033 135.187 20.1633 134.872C20.3286 134.557 20.5579 134.312 20.8513 134.136C21.1499 133.96 21.4913 133.872 21.8753 133.872C22.2699 133.872 22.6033 133.96 22.8753 134.136C23.1526 134.312 23.3633 134.544 23.5073 134.832C23.6566 135.115 23.7313 135.427 23.7313 135.768C23.7313 135.821 23.7313 135.877 23.7313 135.936C23.7313 135.995 23.7286 136.061 23.7233 136.136H20.4273V135.616H23.0753C23.0593 135.248 22.9366 134.96 22.7073 134.752C22.4833 134.544 22.2006 134.44 21.8593 134.44C21.6299 134.44 21.4166 134.493 21.2193 134.6C21.0273 134.701 20.8726 134.853 20.7553 135.056C20.6379 135.253 20.5793 135.501 20.5793 135.8V136.024C20.5793 136.355 20.6379 136.632 20.7553 136.856C20.8779 137.08 21.0353 137.248 21.2273 137.36C21.4246 137.472 21.6353 137.528 21.8593 137.528C22.1419 137.528 22.3739 137.467 22.5553 137.344C22.7419 137.216 22.8753 137.045 22.9553 136.832H23.6193C23.5553 137.072 23.4433 137.288 23.2833 137.48C23.1233 137.672 22.9233 137.824 22.6833 137.936C22.4486 138.043 22.1739 138.096 21.8593 138.096ZM26.1021 138.096C25.7928 138.096 25.5208 138.035 25.2861 137.912C25.0568 137.789 24.8781 137.6 24.7501 137.344C24.6275 137.088 24.5661 136.768 24.5661 136.384V133.968H25.2381V136.312C25.2381 136.712 25.3261 137.013 25.5021 137.216C25.6781 137.419 25.9261 137.52 26.2461 137.52C26.4701 137.52 26.6728 137.467 26.8541 137.36C27.0355 137.248 27.1768 137.091 27.2781 136.888C27.3848 136.68 27.4381 136.427 27.4381 136.128V133.968H28.1101V138H27.5021L27.4621 137.296C27.3395 137.547 27.1581 137.744 26.9181 137.888C26.6781 138.027 26.4061 138.096 26.1021 138.096ZM30.8081 138C30.5681 138 30.3601 137.963 30.1841 137.888C30.0081 137.813 29.8721 137.688 29.7761 137.512C29.6854 137.331 29.6401 137.088 29.6401 136.784V134.536H28.9361V133.968H29.6401L29.7281 132.992H30.3121V133.968H31.4801V134.536H30.3121V136.784C30.3121 137.035 30.3627 137.205 30.4641 137.296C30.5654 137.381 30.7441 137.424 31.0001 137.424H31.4321V138H30.8081ZM32.3569 138V133.968H32.9649L33.0129 134.736C33.1035 134.555 33.2182 134.4 33.3569 134.272C33.5009 134.144 33.6715 134.045 33.8689 133.976C34.0715 133.907 34.3009 133.872 34.5569 133.872V134.576H34.3089C34.1382 134.576 33.9755 134.6 33.8209 134.648C33.6662 134.691 33.5275 134.763 33.4049 134.864C33.2875 134.965 33.1942 135.104 33.1249 135.28C33.0609 135.451 33.0289 135.664 33.0289 135.92V138H32.3569ZM36.6298 138.096C36.3045 138.096 36.0325 138.04 35.8138 137.928C35.5951 137.811 35.4325 137.659 35.3258 137.472C35.2191 137.28 35.1658 137.072 35.1658 136.848C35.1658 136.576 35.2351 136.347 35.3738 136.16C35.5178 135.968 35.7178 135.824 35.9738 135.728C36.2351 135.627 36.5418 135.576 36.8938 135.576H37.9578C37.9578 135.325 37.9178 135.117 37.8378 134.952C37.7631 134.781 37.6511 134.653 37.5018 134.568C37.3578 134.483 37.1765 134.44 36.9578 134.44C36.7018 134.44 36.4805 134.504 36.2938 134.632C36.1071 134.76 35.9925 134.949 35.9498 135.2H35.2618C35.2938 134.912 35.3898 134.672 35.5498 134.48C35.7151 134.283 35.9231 134.133 36.1738 134.032C36.4245 133.925 36.6858 133.872 36.9578 133.872C37.3311 133.872 37.6405 133.941 37.8858 134.08C38.1365 134.213 38.3231 134.403 38.4458 134.648C38.5685 134.888 38.6298 135.173 38.6298 135.504V138H38.0298L37.9898 137.288C37.9365 137.4 37.8671 137.507 37.7818 137.608C37.7018 137.704 37.6058 137.789 37.4938 137.864C37.3818 137.933 37.2538 137.989 37.1098 138.032C36.9711 138.075 36.8111 138.096 36.6298 138.096ZM36.7338 137.528C36.9205 137.528 37.0885 137.491 37.2378 137.416C37.3925 137.336 37.5231 137.229 37.6298 137.096C37.7365 136.957 37.8165 136.805 37.8698 136.64C37.9285 136.475 37.9578 136.301 37.9578 136.12V136.096H36.9498C36.6885 136.096 36.4778 136.128 36.3178 136.192C36.1578 136.251 36.0431 136.336 35.9738 136.448C35.9045 136.555 35.8698 136.677 35.8698 136.816C35.8698 136.96 35.9018 137.085 35.9658 137.192C36.0351 137.299 36.1338 137.381 36.2618 137.44C36.3951 137.499 36.5525 137.528 36.7338 137.528ZM39.6694 138V132.24H40.3414V138H39.6694ZM41.4506 138V133.968H42.0586L42.0906 134.672C42.2186 134.421 42.4 134.227 42.6346 134.088C42.8746 133.944 43.1466 133.872 43.4506 133.872C43.7653 133.872 44.0373 133.936 44.2666 134.064C44.496 134.187 44.6746 134.376 44.8026 134.632C44.9306 134.883 44.9946 135.203 44.9946 135.592V138H44.3226V135.664C44.3226 135.259 44.232 134.955 44.0506 134.752C43.8746 134.549 43.624 134.448 43.2986 134.448C43.0746 134.448 42.8746 134.504 42.6986 134.616C42.5226 134.723 42.3813 134.88 42.2746 135.088C42.1733 135.291 42.1226 135.544 42.1226 135.848V138H41.4506ZM47.3564 138.096C47.031 138.096 46.759 138.04 46.5404 137.928C46.3217 137.811 46.159 137.659 46.0524 137.472C45.9457 137.28 45.8924 137.072 45.8924 136.848C45.8924 136.576 45.9617 136.347 46.1004 136.16C46.2444 135.968 46.4444 135.824 46.7004 135.728C46.9617 135.627 47.2684 135.576 47.6204 135.576H48.6844C48.6844 135.325 48.6444 135.117 48.5644 134.952C48.4897 134.781 48.3777 134.653 48.2284 134.568C48.0844 134.483 47.903 134.44 47.6844 134.44C47.4284 134.44 47.207 134.504 47.0204 134.632C46.8337 134.76 46.719 134.949 46.6764 135.2H45.9884C46.0204 134.912 46.1164 134.672 46.2764 134.48C46.4417 134.283 46.6497 134.133 46.9004 134.032C47.151 133.925 47.4124 133.872 47.6844 133.872C48.0577 133.872 48.367 133.941 48.6124 134.08C48.863 134.213 49.0497 134.403 49.1724 134.648C49.295 134.888 49.3564 135.173 49.3564 135.504V138H48.7564L48.7164 137.288C48.663 137.4 48.5937 137.507 48.5084 137.608C48.4284 137.704 48.3324 137.789 48.2204 137.864C48.1084 137.933 47.9804 137.989 47.8364 138.032C47.6977 138.075 47.5377 138.096 47.3564 138.096ZM47.4604 137.528C47.647 137.528 47.815 137.491 47.9644 137.416C48.119 137.336 48.2497 137.229 48.3564 137.096C48.463 136.957 48.543 136.805 48.5964 136.64C48.655 136.475 48.6844 136.301 48.6844 136.12V136.096H47.6764C47.415 136.096 47.2044 136.128 47.0444 136.192C46.8844 136.251 46.7697 136.336 46.7004 136.448C46.631 136.555 46.5964 136.677 46.5964 136.816C46.5964 136.96 46.6284 137.085 46.6924 137.192C46.7617 137.299 46.8604 137.381 46.9884 137.44C47.1217 137.499 47.279 137.528 47.4604 137.528ZM55.0009 138L53.0809 135.792L54.8329 133.968H55.6569L53.6489 136.032L53.6569 135.552L55.8569 138H55.0009ZM52.5209 138V132.24H53.1929V138H52.5209ZM56.6162 138V133.968H57.2882V138H56.6162ZM56.9522 133.112C56.8189 133.112 56.7069 133.069 56.6162 132.984C56.5309 132.893 56.4882 132.781 56.4882 132.648C56.4882 132.515 56.5309 132.408 56.6162 132.328C56.7069 132.243 56.8189 132.2 56.9522 132.2C57.0802 132.2 57.1895 132.243 57.2802 132.328C57.3709 132.408 57.4162 132.515 57.4162 132.648C57.4162 132.781 57.3709 132.893 57.2802 132.984C57.1895 133.069 57.0802 133.112 56.9522 133.112ZM60.2901 138.096C59.9114 138.096 59.5701 138.008 59.2661 137.832C58.9674 137.656 58.7327 137.411 58.5621 137.096C58.3914 136.776 58.3061 136.408 58.3061 135.992C58.3061 135.565 58.3914 135.195 58.5621 134.88C58.7327 134.565 58.9674 134.32 59.2661 134.144C59.5701 133.963 59.9114 133.872 60.2901 133.872C60.7701 133.872 61.1701 133.997 61.4901 134.248C61.8101 134.493 62.0127 134.824 62.0981 135.24H61.4101C61.3567 134.989 61.2261 134.795 61.0181 134.656C60.8101 134.517 60.5647 134.448 60.2821 134.448C60.0527 134.448 59.8394 134.507 59.6421 134.624C59.4447 134.736 59.2874 134.907 59.1701 135.136C59.0527 135.365 58.9941 135.648 58.9941 135.984C58.9941 136.235 59.0287 136.459 59.0981 136.656C59.1674 136.848 59.2607 137.008 59.3781 137.136C59.4954 137.264 59.6314 137.363 59.7861 137.432C59.9461 137.496 60.1114 137.528 60.2821 137.528C60.4741 137.528 60.6474 137.499 60.8021 137.44C60.9567 137.376 61.0874 137.283 61.1941 137.16C61.3007 137.037 61.3727 136.893 61.4101 136.728H62.0981C62.0127 137.133 61.8074 137.464 61.4821 137.72C61.1621 137.971 60.7647 138.096 60.2901 138.096ZM60.2021 133.496L59.1061 132.84V132.32L60.2021 132.992L61.2981 132.32V132.84L60.2021 133.496ZM63.0522 138V133.968H63.6602L63.7002 134.544C63.8282 134.336 63.9989 134.173 64.2122 134.056C64.4309 133.933 64.6682 133.872 64.9242 133.872C65.1322 133.872 65.3189 133.901 65.4842 133.96C65.6549 134.013 65.8042 134.099 65.9322 134.216C66.0602 134.328 66.1642 134.472 66.2442 134.648C66.3829 134.403 66.5722 134.213 66.8122 134.08C67.0575 133.941 67.3189 133.872 67.5962 133.872C67.9055 133.872 68.1749 133.936 68.4042 134.064C68.6389 134.187 68.8175 134.376 68.9402 134.632C69.0682 134.883 69.1322 135.203 69.1322 135.592V138H68.4682V135.664C68.4682 135.259 68.3855 134.955 68.2202 134.752C68.0549 134.549 67.8229 134.448 67.5242 134.448C67.3162 134.448 67.1295 134.504 66.9642 134.616C66.7989 134.723 66.6682 134.88 66.5722 135.088C66.4762 135.296 66.4282 135.552 66.4282 135.856V138H65.7562V135.664C65.7562 135.259 65.6735 134.955 65.5082 134.752C65.3429 134.549 65.1082 134.448 64.8042 134.448C64.6015 134.448 64.4175 134.504 64.2522 134.616C64.0922 134.723 63.9642 134.88 63.8682 135.088C63.7722 135.296 63.7242 135.552 63.7242 135.856V138H63.0522ZM71.4892 138.096C71.1639 138.096 70.8919 138.04 70.6732 137.928C70.4545 137.811 70.2919 137.659 70.1852 137.472C70.0785 137.28 70.0252 137.072 70.0252 136.848C70.0252 136.576 70.0945 136.347 70.2332 136.16C70.3772 135.968 70.5772 135.824 70.8332 135.728C71.0945 135.627 71.4012 135.576 71.7532 135.576H72.8172C72.8172 135.325 72.7772 135.117 72.6972 134.952C72.6225 134.781 72.5105 134.653 72.3612 134.568C72.2172 134.483 72.0359 134.44 71.8172 134.44C71.5612 134.44 71.3399 134.504 71.1532 134.632C70.9665 134.76 70.8519 134.949 70.8092 135.2H70.1212C70.1532 134.912 70.2492 134.672 70.4092 134.48C70.5745 134.283 70.7825 134.133 71.0332 134.032C71.2839 133.925 71.5452 133.872 71.8172 133.872C72.1905 133.872 72.4999 133.941 72.7452 134.08C72.9959 134.213 73.1825 134.403 73.3052 134.648C73.4279 134.888 73.4892 135.173 73.4892 135.504V138H72.8892L72.8492 137.288C72.7959 137.4 72.7265 137.507 72.6412 137.608C72.5612 137.704 72.4652 137.789 72.3532 137.864C72.2412 137.933 72.1132 137.989 71.9692 138.032C71.8305 138.075 71.6705 138.096 71.4892 138.096ZM71.5932 137.528C71.7799 137.528 71.9479 137.491 72.0972 137.416C72.2519 137.336 72.3825 137.229 72.4892 137.096C72.5959 136.957 72.6759 136.805 72.7292 136.64C72.7879 136.475 72.8172 136.301 72.8172 136.12V136.096H71.8092C71.5479 136.096 71.3372 136.128 71.1772 136.192C71.0172 136.251 70.9025 136.336 70.8332 136.448C70.7639 136.555 70.7292 136.677 70.7292 136.816C70.7292 136.96 70.7612 137.085 70.8252 137.192C70.8945 137.299 70.9932 137.381 71.1212 137.44C71.2545 137.499 71.4119 137.528 71.5932 137.528Z" fill="white"/>
<rect x="10" y="162" width="185" height="29" fill="#1D1D1D"/>
<line x1="10.5278" y1="191" x2="10.5278" y2="162" stroke="#C8F135"/>
<path d="M15.75 172V165H18.03C18.5833 165 19.0367 165.093 19.39 165.28C19.75 165.46 20.0133 165.703 20.18 166.01C20.3533 166.317 20.44 166.667 20.44 167.06C20.44 167.44 20.3533 167.787 20.18 168.1C20.0133 168.407 19.7533 168.653 19.4 168.84C19.0467 169.027 18.59 169.12 18.03 169.12H16.59V172H15.75ZM16.59 168.41H18.02C18.58 168.41 18.98 168.287 19.22 168.04C19.46 167.793 19.58 167.467 19.58 167.06C19.58 166.627 19.46 166.293 19.22 166.06C18.98 165.82 18.58 165.7 18.02 165.7H16.59V168.41ZM23.4578 172.12C22.9911 172.12 22.5711 172.013 22.1978 171.8C21.8245 171.58 21.5311 171.273 21.3178 170.88C21.1045 170.48 20.9978 170.017 20.9978 169.49C20.9978 168.95 21.1045 168.483 21.3178 168.09C21.5378 167.69 21.8345 167.383 22.2078 167.17C22.5878 166.95 23.0111 166.84 23.4778 166.84C23.9578 166.84 24.3811 166.95 24.7478 167.17C25.1211 167.383 25.4145 167.69 25.6278 168.09C25.8478 168.483 25.9578 168.947 25.9578 169.48C25.9578 170.013 25.8478 170.48 25.6278 170.88C25.4078 171.273 25.1111 171.58 24.7378 171.8C24.3645 172.013 23.9378 172.12 23.4578 172.12ZM23.4678 171.4C23.7545 171.4 24.0211 171.33 24.2678 171.19C24.5145 171.043 24.7145 170.827 24.8678 170.54C25.0211 170.253 25.0978 169.9 25.0978 169.48C25.0978 169.053 25.0211 168.7 24.8678 168.42C24.7211 168.133 24.5245 167.92 24.2778 167.78C24.0378 167.633 23.7711 167.56 23.4778 167.56C23.1978 167.56 22.9311 167.633 22.6778 167.78C22.4311 167.92 22.2311 168.133 22.0778 168.42C21.9311 168.7 21.8578 169.053 21.8578 169.48C21.8578 169.9 21.9311 170.253 22.0778 170.54C22.2311 170.827 22.4278 171.043 22.6678 171.19C22.9145 171.33 23.1811 171.4 23.4678 171.4ZM30.2355 172L27.8355 169.24L30.0255 166.96H31.0555L28.5455 169.54L28.5555 168.94L31.3055 172H30.2355ZM27.1355 172V164.8H27.9755V172H27.1355ZM32.1746 172V166.96H32.9346L32.9946 167.92C33.1079 167.693 33.2513 167.5 33.4246 167.34C33.6046 167.18 33.8179 167.057 34.0646 166.97C34.3179 166.883 34.6046 166.84 34.9246 166.84V167.72H34.6146C34.4013 167.72 34.1979 167.75 34.0046 167.81C33.8113 167.863 33.6379 167.953 33.4846 168.08C33.3379 168.207 33.2213 168.38 33.1346 168.6C33.0546 168.813 33.0146 169.08 33.0146 169.4V172H32.1746ZM37.9002 172.12C37.4269 172.12 37.0069 172.01 36.6402 171.79C36.2802 171.57 35.9969 171.263 35.7902 170.87C35.5836 170.47 35.4802 170.007 35.4802 169.48C35.4802 168.947 35.5802 168.483 35.7802 168.09C35.9869 167.697 36.2736 167.39 36.6402 167.17C37.0136 166.95 37.4402 166.84 37.9202 166.84C38.4136 166.84 38.8302 166.95 39.1702 167.17C39.5169 167.39 39.7802 167.68 39.9602 168.04C40.1469 168.393 40.2402 168.783 40.2402 169.21C40.2402 169.277 40.2402 169.347 40.2402 169.42C40.2402 169.493 40.2369 169.577 40.2302 169.67H36.1102V169.02H39.4202C39.4002 168.56 39.2469 168.2 38.9602 167.94C38.6802 167.68 38.3269 167.55 37.9002 167.55C37.6136 167.55 37.3469 167.617 37.1002 167.75C36.8602 167.877 36.6669 168.067 36.5202 168.32C36.3736 168.567 36.3002 168.877 36.3002 169.25V169.53C36.3002 169.943 36.3736 170.29 36.5202 170.57C36.6736 170.85 36.8702 171.06 37.1102 171.2C37.3569 171.34 37.6202 171.41 37.9002 171.41C38.2536 171.41 38.5436 171.333 38.7702 171.18C39.0036 171.02 39.1702 170.807 39.2702 170.54H40.1002C40.0202 170.84 39.8802 171.11 39.6802 171.35C39.4802 171.59 39.2302 171.78 38.9302 171.92C38.6369 172.053 38.2936 172.12 37.9002 172.12ZM43.1878 172C42.8878 172 42.6278 171.953 42.4078 171.86C42.1878 171.767 42.0178 171.61 41.8978 171.39C41.7845 171.163 41.7278 170.86 41.7278 170.48V167.67H40.8478V166.96H41.7278L41.8378 165.74H42.5678V166.96H44.0278V167.67H42.5678V170.48C42.5678 170.793 42.6311 171.007 42.7578 171.12C42.8845 171.227 43.1078 171.28 43.4278 171.28H43.9678V172H43.1878Z" fill="#C8F135"/>
<path d="M15.6 186V180.4H16.272V182.936L18.608 180.4H19.456L17.376 182.632L19.488 186H18.672L16.896 183.152L16.272 183.816V186H15.6ZM21.5631 186.096C21.2537 186.096 20.9817 186.035 20.7471 185.912C20.5177 185.789 20.3391 185.6 20.2111 185.344C20.0884 185.088 20.0271 184.768 20.0271 184.384V181.968H20.6991V184.312C20.6991 184.712 20.7871 185.013 20.9631 185.216C21.1391 185.419 21.3871 185.52 21.7071 185.52C21.9311 185.52 22.1337 185.467 22.3151 185.36C22.4964 185.248 22.6377 185.091 22.7391 184.888C22.8457 184.68 22.8991 184.427 22.8991 184.128V181.968H23.5711V186H22.9631L22.9231 185.296C22.8004 185.547 22.6191 185.744 22.3791 185.888C22.1391 186.027 21.8671 186.096 21.5631 186.096ZM27.165 186L25.245 183.792L26.997 181.968H27.821L25.813 184.032L25.821 183.552L28.021 186H27.165ZM24.685 186V180.24H25.357V186H24.685ZM32.3053 186.096C31.9959 186.096 31.7239 186.035 31.4893 185.912C31.2599 185.789 31.0813 185.6 30.9533 185.344C30.8306 185.088 30.7693 184.768 30.7693 184.384V181.968H31.4413V184.312C31.4413 184.712 31.5293 185.013 31.7053 185.216C31.8813 185.419 32.1293 185.52 32.4493 185.52C32.6733 185.52 32.8759 185.467 33.0573 185.36C33.2386 185.248 33.3799 185.091 33.4813 184.888C33.5879 184.68 33.6413 184.427 33.6413 184.128V181.968H34.3133V186H33.7053L33.6653 185.296C33.5426 185.547 33.3613 185.744 33.1213 185.888C32.8813 186.027 32.6093 186.096 32.3053 186.096ZM35.4272 186V181.968H36.0352L36.0672 182.672C36.1952 182.421 36.3765 182.227 36.6112 182.088C36.8512 181.944 37.1232 181.872 37.4272 181.872C37.7419 181.872 38.0139 181.936 38.2432 182.064C38.4725 182.187 38.6512 182.376 38.7792 182.632C38.9072 182.883 38.9712 183.203 38.9712 183.592V186H38.2992V183.664C38.2992 183.259 38.2085 182.955 38.0272 182.752C37.8512 182.549 37.6005 182.448 37.2752 182.448C37.0512 182.448 36.8512 182.504 36.6752 182.616C36.4992 182.723 36.3579 182.88 36.2512 183.088C36.1499 183.291 36.0992 183.544 36.0992 183.848V186H35.4272ZM41.3329 186.096C41.0076 186.096 40.7356 186.04 40.5169 185.928C40.2983 185.811 40.1356 185.659 40.0289 185.472C39.9223 185.28 39.8689 185.072 39.8689 184.848C39.8689 184.576 39.9383 184.347 40.0769 184.16C40.2209 183.968 40.4209 183.824 40.6769 183.728C40.9383 183.627 41.2449 183.576 41.5969 183.576H42.6609C42.6609 183.325 42.6209 183.117 42.5409 182.952C42.4663 182.781 42.3543 182.653 42.2049 182.568C42.0609 182.483 41.8796 182.44 41.6609 182.44C41.4049 182.44 41.1836 182.504 40.9969 182.632C40.8103 182.76 40.6956 182.949 40.6529 183.2H39.9649C39.9969 182.912 40.0929 182.672 40.2529 182.48C40.4183 182.283 40.6263 182.133 40.8769 182.032C41.1276 181.925 41.3889 181.872 41.6609 181.872C42.0343 181.872 42.3436 181.941 42.5889 182.08C42.8396 182.213 43.0263 182.403 43.1489 182.648C43.2716 182.888 43.3329 183.173 43.3329 183.504V186H42.7329L42.6929 185.288C42.6396 185.4 42.5703 185.507 42.4849 185.608C42.4049 185.704 42.3089 185.789 42.1969 185.864C42.0849 185.933 41.9569 185.989 41.8129 186.032C41.6743 186.075 41.5143 186.096 41.3329 186.096ZM41.4369 185.528C41.6236 185.528 41.7916 185.491 41.9409 185.416C42.0956 185.336 42.2263 185.229 42.3329 185.096C42.4396 184.957 42.5196 184.805 42.5729 184.64C42.6316 184.475 42.6609 184.301 42.6609 184.12V184.096H41.6529C41.3916 184.096 41.1809 184.128 41.0209 184.192C40.8609 184.251 40.7463 184.336 40.6769 184.448C40.6076 184.555 40.5729 184.677 40.5729 184.816C40.5729 184.96 40.6049 185.085 40.6689 185.192C40.7383 185.299 40.8369 185.381 40.9649 185.44C41.0983 185.499 41.2556 185.528 41.4369 185.528ZM44.1005 186V185.448L46.3325 182.528H44.1405V181.968H47.1005V182.52L44.8605 185.44H47.1405V186H44.1005ZM49.3486 186.096C49.0232 186.096 48.7512 186.04 48.5326 185.928C48.3139 185.811 48.1512 185.659 48.0446 185.472C47.9379 185.28 47.8846 185.072 47.8846 184.848C47.8846 184.576 47.9539 184.347 48.0926 184.16C48.2366 183.968 48.4366 183.824 48.6926 183.728C48.9539 183.627 49.2606 183.576 49.6126 183.576H50.6766C50.6766 183.325 50.6366 183.117 50.5566 182.952C50.4819 182.781 50.3699 182.653 50.2206 182.568C50.0766 182.483 49.8952 182.44 49.6766 182.44C49.4206 182.44 49.1992 182.504 49.0126 182.632C48.8259 182.76 48.7112 182.949 48.6686 183.2H47.9806C48.0126 182.912 48.1086 182.672 48.2686 182.48C48.4339 182.283 48.6419 182.133 48.8926 182.032C49.1432 181.925 49.4046 181.872 49.6766 181.872C50.0499 181.872 50.3592 181.941 50.6046 182.08C50.8552 182.213 51.0419 182.403 51.1646 182.648C51.2872 182.888 51.3486 183.173 51.3486 183.504V186H50.7486L50.7086 185.288C50.6552 185.4 50.5859 185.507 50.5006 185.608C50.4206 185.704 50.3246 185.789 50.2126 185.864C50.1006 185.933 49.9726 185.989 49.8286 186.032C49.6899 186.075 49.5299 186.096 49.3486 186.096ZM49.4526 185.528C49.6392 185.528 49.8072 185.491 49.9566 185.416C50.1112 185.336 50.2419 185.229 50.3486 185.096C50.4552 184.957 50.5352 184.805 50.5886 184.64C50.6472 184.475 50.6766 184.301 50.6766 184.12V184.096H49.6686C49.4072 184.096 49.1966 184.128 49.0366 184.192C48.8766 184.251 48.7619 184.336 48.6926 184.448C48.6232 184.555 48.5886 184.677 48.5886 184.816C48.5886 184.96 48.6206 185.085 48.6846 185.192C48.7539 185.299 48.8526 185.381 48.9806 185.44C49.1139 185.499 49.2712 185.528 49.4526 185.528ZM54.1641 186.096C53.7748 186.096 53.4335 186.005 53.1401 185.824C52.8468 185.637 52.6201 185.384 52.4601 185.064C52.3001 184.744 52.2201 184.381 52.2201 183.976C52.2201 183.571 52.3001 183.211 52.4601 182.896C52.6201 182.576 52.8468 182.325 53.1401 182.144C53.4388 181.963 53.7828 181.872 54.1721 181.872C54.5028 181.872 54.7908 181.939 55.0361 182.072C55.2868 182.205 55.4788 182.392 55.6121 182.632V180.24H56.2841V186H55.6761L55.6201 185.336C55.5348 185.469 55.4255 185.595 55.2921 185.712C55.1588 185.824 54.9988 185.917 54.8121 185.992C54.6255 186.061 54.4095 186.096 54.1641 186.096ZM54.2441 185.512C54.5108 185.512 54.7455 185.448 54.9481 185.32C55.1508 185.192 55.3081 185.016 55.4201 184.792C55.5321 184.563 55.5881 184.293 55.5881 183.984C55.5881 183.68 55.5321 183.413 55.4201 183.184C55.3081 182.955 55.1508 182.776 54.9481 182.648C54.7455 182.52 54.5108 182.456 54.2441 182.456C53.9828 182.456 53.7508 182.52 53.5481 182.648C53.3455 182.776 53.1881 182.955 53.0761 183.184C52.9641 183.413 52.9081 183.68 52.9081 183.984C52.9081 184.293 52.9641 184.563 53.0761 184.792C53.1881 185.016 53.3455 185.192 53.5481 185.32C53.7508 185.448 53.9828 185.512 54.2441 185.512ZM56.8758 186.984L57.3398 185.216H58.0358L57.3398 186.984H56.8758ZM60.9819 186V181.968H61.5899L61.6379 182.736C61.7285 182.555 61.8432 182.4 61.9819 182.272C62.1259 182.144 62.2965 182.045 62.4939 181.976C62.6965 181.907 62.9259 181.872 63.1819 181.872V182.576H62.9339C62.7632 182.576 62.6005 182.6 62.4459 182.648C62.2912 182.691 62.1525 182.763 62.0299 182.864C61.9125 182.965 61.8192 183.104 61.7499 183.28C61.6859 183.451 61.6539 183.664 61.6539 183.92V186H60.9819ZM65.2548 186.096C64.9295 186.096 64.6575 186.04 64.4388 185.928C64.2201 185.811 64.0575 185.659 63.9508 185.472C63.8441 185.28 63.7908 185.072 63.7908 184.848C63.7908 184.576 63.8601 184.347 63.9988 184.16C64.1428 183.968 64.3428 183.824 64.5988 183.728C64.8601 183.627 65.1668 183.576 65.5188 183.576H66.5828C66.5828 183.325 66.5428 183.117 66.4628 182.952C66.3881 182.781 66.2761 182.653 66.1268 182.568C65.9828 182.483 65.8015 182.44 65.5828 182.44C65.3268 182.44 65.1055 182.504 64.9188 182.632C64.7321 182.76 64.6175 182.949 64.5748 183.2H63.8868C63.9188 182.912 64.0148 182.672 64.1748 182.48C64.3401 182.283 64.5481 182.133 64.7988 182.032C65.0495 181.925 65.3108 181.872 65.5828 181.872C65.9561 181.872 66.2655 181.941 66.5108 182.08C66.7615 182.213 66.9481 182.403 67.0708 182.648C67.1935 182.888 67.2548 183.173 67.2548 183.504V186H66.6548L66.6148 185.288C66.5615 185.4 66.4921 185.507 66.4068 185.608C66.3268 185.704 66.2308 185.789 66.1188 185.864C66.0068 185.933 65.8788 185.989 65.7348 186.032C65.5961 186.075 65.4361 186.096 65.2548 186.096ZM65.3588 185.528C65.5455 185.528 65.7135 185.491 65.8628 185.416C66.0175 185.336 66.1481 185.229 66.2548 185.096C66.3615 184.957 66.4415 184.805 66.4948 184.64C66.5535 184.475 66.5828 184.301 66.5828 184.12V184.096H65.5748C65.3135 184.096 65.1028 184.128 64.9428 184.192C64.7828 184.251 64.6681 184.336 64.5988 184.448C64.5295 184.555 64.4948 184.677 64.4948 184.816C64.4948 184.96 64.5268 185.085 64.5908 185.192C64.6601 185.299 64.7588 185.381 64.8868 185.44C65.0201 185.499 65.1775 185.528 65.3588 185.528ZM70.0704 186.096C69.681 186.096 69.3397 186.005 69.0464 185.824C68.753 185.637 68.5264 185.384 68.3664 185.064C68.2064 184.744 68.1264 184.381 68.1264 183.976C68.1264 183.571 68.2064 183.211 68.3664 182.896C68.5264 182.576 68.753 182.325 69.0464 182.144C69.345 181.963 69.689 181.872 70.0784 181.872C70.409 181.872 70.697 181.939 70.9424 182.072C71.193 182.205 71.385 182.392 71.5184 182.632V180.24H72.1904V186H71.5824L71.5264 185.336C71.441 185.469 71.3317 185.595 71.1984 185.712C71.065 185.824 70.905 185.917 70.7184 185.992C70.5317 186.061 70.3157 186.096 70.0704 186.096ZM70.1504 185.512C70.417 185.512 70.6517 185.448 70.8544 185.32C71.057 185.192 71.2144 185.016 71.3264 184.792C71.4384 184.563 71.4944 184.293 71.4944 183.984C71.4944 183.68 71.4384 183.413 71.3264 183.184C71.2144 182.955 71.057 182.776 70.8544 182.648C70.6517 182.52 70.417 182.456 70.1504 182.456C69.889 182.456 69.657 182.52 69.4544 182.648C69.2517 182.776 69.0944 182.955 68.9824 183.184C68.8704 183.413 68.8144 183.68 68.8144 183.984C68.8144 184.293 68.8704 184.563 68.9824 184.792C69.0944 185.016 69.2517 185.192 69.4544 185.32C69.657 185.448 69.889 185.512 70.1504 185.512ZM73.374 186V181.968H74.046V186H73.374ZM73.71 181.112C73.5767 181.112 73.4647 181.069 73.374 180.984C73.2887 180.893 73.246 180.781 73.246 180.648C73.246 180.515 73.2887 180.408 73.374 180.328C73.4647 180.243 73.5767 180.2 73.71 180.2C73.838 180.2 73.9473 180.243 74.038 180.328C74.1287 180.408 74.174 180.515 74.174 180.648C74.174 180.781 74.1287 180.893 74.038 180.984C73.9473 181.069 73.838 181.112 73.71 181.112ZM75.2319 186V181.968H75.8399L75.8799 182.544C76.0079 182.336 76.1785 182.173 76.3919 182.056C76.6105 181.933 76.8479 181.872 77.1039 181.872C77.3119 181.872 77.4985 181.901 77.6639 181.96C77.8345 182.013 77.9839 182.099 78.1119 182.216C78.2399 182.328 78.3439 182.472 78.4239 182.648C78.5625 182.403 78.7519 182.213 78.9919 182.08C79.2372 181.941 79.4985 181.872 79.7759 181.872C80.0852 181.872 80.3545 181.936 80.5839 182.064C80.8185 182.187 80.9972 182.376 81.1199 182.632C81.2479 182.883 81.3119 183.203 81.3119 183.592V186H80.6479V183.664C80.6479 183.259 80.5652 182.955 80.3999 182.752C80.2345 182.549 80.0025 182.448 79.7039 182.448C79.4959 182.448 79.3092 182.504 79.1439 182.616C78.9785 182.723 78.8479 182.88 78.7519 183.088C78.6559 183.296 78.6079 183.552 78.6079 183.856V186H77.9359V183.664C77.9359 183.259 77.8532 182.955 77.6879 182.752C77.5225 182.549 77.2879 182.448 76.9839 182.448C76.7812 182.448 76.5972 182.504 76.4319 182.616C76.2719 182.723 76.1439 182.88 76.0479 183.088C75.9519 183.296 75.9039 183.552 75.9039 183.856V186H75.2319ZM84.1569 186.096C83.7835 186.096 83.4475 186.011 83.1489 185.84C82.8502 185.664 82.6155 185.419 82.4449 185.104C82.2742 184.784 82.1889 184.413 82.1889 183.992C82.1889 183.56 82.2742 183.187 82.4449 182.872C82.6209 182.552 82.8582 182.307 83.1569 182.136C83.4609 181.96 83.7995 181.872 84.1729 181.872C84.5569 181.872 84.8955 181.96 85.1889 182.136C85.4875 182.307 85.7222 182.552 85.8929 182.872C86.0689 183.187 86.1569 183.557 86.1569 183.984C86.1569 184.411 86.0689 184.784 85.8929 185.104C85.7169 185.419 85.4795 185.664 85.1809 185.84C84.8822 186.011 84.5409 186.096 84.1569 186.096ZM84.1649 185.52C84.3942 185.52 84.6075 185.464 84.8049 185.352C85.0022 185.235 85.1622 185.061 85.2849 184.832C85.4075 184.603 85.4689 184.32 85.4689 183.984C85.4689 183.643 85.4075 183.36 85.2849 183.136C85.1675 182.907 85.0102 182.736 84.8129 182.624C84.6209 182.507 84.4075 182.448 84.1729 182.448C83.9489 182.448 83.7355 182.507 83.5329 182.624C83.3355 182.736 83.1755 182.907 83.0529 183.136C82.9355 183.36 82.8769 183.643 82.8769 183.984C82.8769 184.32 82.9355 184.603 83.0529 184.832C83.1755 185.061 83.3329 185.235 83.5249 185.352C83.7222 185.464 83.9355 185.52 84.1649 185.52ZM89.2241 186V180.24H89.8961V182.648C90.0294 182.408 90.2161 182.219 90.4561 182.08C90.7014 181.941 90.9681 181.872 91.2561 181.872C91.5654 181.872 91.8347 181.936 92.0641 182.064C92.2934 182.187 92.4694 182.376 92.5921 182.632C92.7147 182.888 92.7761 183.211 92.7761 183.6V186H92.1121V183.672C92.1121 183.267 92.0267 182.963 91.8561 182.76C91.6854 182.552 91.4374 182.448 91.1121 182.448C90.8827 182.448 90.6747 182.504 90.4881 182.616C90.3067 182.728 90.1627 182.888 90.0561 183.096C89.9494 183.304 89.8961 183.56 89.8961 183.864V186H89.2241ZM93.8896 186V181.968H94.5616V186H93.8896ZM94.2256 181.112C94.0923 181.112 93.9803 181.069 93.8896 180.984C93.8043 180.893 93.7616 180.781 93.7616 180.648C93.7616 180.515 93.8043 180.408 93.8896 180.328C93.9803 180.243 94.0923 180.2 94.2256 180.2C94.3536 180.2 94.463 180.243 94.5536 180.328C94.6443 180.408 94.6896 180.515 94.6896 180.648C94.6896 180.781 94.6443 180.893 94.5536 180.984C94.463 181.069 94.3536 181.112 94.2256 181.112ZM95.7475 187.76V181.968H96.3555L96.4115 182.624C96.4968 182.496 96.6062 182.376 96.7395 182.264C96.8728 182.147 97.0328 182.053 97.2195 181.984C97.4062 181.909 97.6195 181.872 97.8595 181.872C98.2542 181.872 98.5955 181.965 98.8835 182.152C99.1768 182.339 99.4035 182.592 99.5635 182.912C99.7288 183.227 99.8115 183.587 99.8115 183.992C99.8115 184.397 99.7288 184.76 99.5635 185.08C99.4035 185.395 99.1768 185.643 98.8835 185.824C98.5902 186.005 98.2462 186.096 97.8515 186.096C97.5262 186.096 97.2382 186.029 96.9875 185.896C96.7422 185.763 96.5528 185.576 96.4195 185.336V187.76H95.7475ZM97.7795 185.512C98.0408 185.512 98.2728 185.448 98.4755 185.32C98.6782 185.192 98.8355 185.016 98.9475 184.792C99.0648 184.563 99.1235 184.293 99.1235 183.984C99.1235 183.68 99.0648 183.413 98.9475 183.184C98.8355 182.955 98.6782 182.776 98.4755 182.648C98.2728 182.52 98.0408 182.456 97.7795 182.456C97.5128 182.456 97.2782 182.52 97.0755 182.648C96.8728 182.776 96.7155 182.955 96.6035 183.184C96.4915 183.413 96.4355 183.68 96.4355 183.984C96.4355 184.293 96.4915 184.563 96.6035 184.792C96.7155 185.016 96.8728 185.192 97.0755 185.32C97.2782 185.448 97.5128 185.512 97.7795 185.512ZM102.88 186V180.24H103.552V182.648C103.686 182.408 103.872 182.219 104.112 182.08C104.358 181.941 104.624 181.872 104.912 181.872C105.222 181.872 105.491 181.936 105.72 182.064C105.95 182.187 106.126 182.376 106.248 182.632C106.371 182.888 106.432 183.211 106.432 183.6V186H105.768V183.672C105.768 183.267 105.683 182.963 105.512 182.76C105.342 182.552 105.094 182.448 104.768 182.448C104.539 182.448 104.331 182.504 104.144 182.616C103.963 182.728 103.819 182.888 103.712 183.096C103.606 183.304 103.552 183.56 103.552 183.864V186H102.88ZM107.546 186V181.968H108.218V186H107.546ZM107.882 181.112C107.749 181.112 107.637 181.069 107.546 180.984C107.461 180.893 107.418 180.781 107.418 180.648C107.418 180.515 107.461 180.408 107.546 180.328C107.637 180.243 107.749 180.2 107.882 180.2C108.01 180.2 108.119 180.243 108.21 180.328C108.301 180.408 108.346 180.515 108.346 180.648C108.346 180.781 108.301 180.893 108.21 180.984C108.119 181.069 108.01 181.112 107.882 181.112ZM109.404 186V181.968H110.012L110.044 182.672C110.172 182.421 110.353 182.227 110.588 182.088C110.828 181.944 111.1 181.872 111.404 181.872C111.718 181.872 111.99 181.936 112.22 182.064C112.449 182.187 112.628 182.376 112.756 182.632C112.884 182.883 112.948 183.203 112.948 183.592V186H112.276V183.664C112.276 183.259 112.185 182.955 112.004 182.752C111.828 182.549 111.577 182.448 111.252 182.448C111.028 182.448 110.828 182.504 110.652 182.616C110.476 182.723 110.334 182.88 110.228 183.088C110.126 183.291 110.076 183.544 110.076 183.848V186H109.404ZM115.59 187.856C115.227 187.856 114.904 187.808 114.622 187.712C114.344 187.621 114.128 187.48 113.974 187.288C113.819 187.096 113.742 186.859 113.742 186.576C113.742 186.453 113.766 186.323 113.814 186.184C113.867 186.045 113.955 185.909 114.078 185.776C114.206 185.643 114.384 185.523 114.613 185.416L115.078 185.688C114.795 185.805 114.611 185.939 114.526 186.088C114.44 186.243 114.398 186.384 114.398 186.512C114.398 186.688 114.448 186.835 114.55 186.952C114.651 187.069 114.792 187.157 114.974 187.216C115.155 187.275 115.36 187.304 115.59 187.304C115.819 187.304 116.016 187.272 116.182 187.208C116.347 187.144 116.475 187.053 116.566 186.936C116.656 186.819 116.702 186.68 116.702 186.52C116.702 186.333 116.632 186.176 116.494 186.048C116.355 185.925 116.091 185.853 115.702 185.832C115.387 185.811 115.123 185.781 114.91 185.744C114.696 185.707 114.52 185.664 114.382 185.616C114.243 185.563 114.126 185.504 114.03 185.44C113.939 185.376 113.856 185.309 113.782 185.24V185.056L114.558 184.288L115.142 184.496L114.342 185.216L114.446 184.936C114.504 184.979 114.56 185.019 114.613 185.056C114.667 185.093 114.739 185.125 114.83 185.152C114.92 185.179 115.046 185.203 115.206 185.224C115.371 185.245 115.587 185.267 115.854 185.288C116.222 185.315 116.515 185.379 116.734 185.48C116.958 185.581 117.118 185.717 117.214 185.888C117.315 186.059 117.366 186.261 117.366 186.496C117.366 186.725 117.302 186.941 117.174 187.144C117.051 187.352 116.859 187.523 116.598 187.656C116.336 187.789 116 187.856 115.59 187.856ZM115.582 184.736C115.246 184.736 114.958 184.672 114.718 184.544C114.483 184.416 114.304 184.245 114.182 184.032C114.059 183.813 113.998 183.571 113.998 183.304C113.998 183.037 114.059 182.797 114.182 182.584C114.31 182.371 114.491 182.2 114.726 182.072C114.96 181.939 115.246 181.872 115.582 181.872C115.918 181.872 116.203 181.939 116.438 182.072C116.672 182.2 116.851 182.371 116.974 182.584C117.096 182.797 117.158 183.037 117.158 183.304C117.158 183.571 117.096 183.813 116.974 184.032C116.851 184.245 116.672 184.416 116.438 184.544C116.203 184.672 115.918 184.736 115.582 184.736ZM115.582 184.184C115.87 184.184 116.096 184.109 116.262 183.96C116.427 183.811 116.51 183.592 116.51 183.304C116.51 183.021 116.427 182.805 116.262 182.656C116.096 182.507 115.87 182.432 115.582 182.432C115.299 182.432 115.07 182.507 114.894 182.656C114.723 182.805 114.638 183.021 114.638 183.304C114.638 183.592 114.723 183.811 114.894 183.96C115.064 184.109 115.294 184.184 115.582 184.184ZM116.238 182.536L116.038 181.968H117.686V182.472L116.238 182.536ZM120.07 186.096C119.692 186.096 119.356 186.008 119.062 185.832C118.774 185.656 118.548 185.411 118.382 185.096C118.217 184.776 118.134 184.405 118.134 183.984C118.134 183.557 118.214 183.187 118.374 182.872C118.54 182.557 118.769 182.312 119.062 182.136C119.361 181.96 119.702 181.872 120.086 181.872C120.481 181.872 120.814 181.96 121.086 182.136C121.364 182.312 121.574 182.544 121.718 182.832C121.868 183.115 121.942 183.427 121.942 183.768C121.942 183.821 121.942 183.877 121.942 183.936C121.942 183.995 121.94 184.061 121.934 184.136H118.638V183.616H121.286C121.27 183.248 121.148 182.96 120.918 182.752C120.694 182.544 120.412 182.44 120.07 182.44C119.841 182.44 119.628 182.493 119.43 182.6C119.238 182.701 119.084 182.853 118.966 183.056C118.849 183.253 118.79 183.501 118.79 183.8V184.024C118.79 184.355 118.849 184.632 118.966 184.856C119.089 185.08 119.246 185.248 119.438 185.36C119.636 185.472 119.846 185.528 120.07 185.528C120.353 185.528 120.585 185.467 120.766 185.344C120.953 185.216 121.086 185.045 121.166 184.832H121.83C121.766 185.072 121.654 185.288 121.494 185.48C121.334 185.672 121.134 185.824 120.894 185.936C120.66 186.043 120.385 186.096 120.07 186.096ZM126.286 186.096C125.961 186.096 125.689 186.04 125.47 185.928C125.251 185.811 125.089 185.659 124.982 185.472C124.875 185.28 124.822 185.072 124.822 184.848C124.822 184.576 124.891 184.347 125.03 184.16C125.174 183.968 125.374 183.824 125.63 183.728C125.891 183.627 126.198 183.576 126.55 183.576H127.614C127.614 183.325 127.574 183.117 127.494 182.952C127.419 182.781 127.307 182.653 127.158 182.568C127.014 182.483 126.833 182.44 126.614 182.44C126.358 182.44 126.137 182.504 125.95 182.632C125.763 182.76 125.649 182.949 125.606 183.2H124.918C124.95 182.912 125.046 182.672 125.206 182.48C125.371 182.283 125.579 182.133 125.83 182.032C126.081 181.925 126.342 181.872 126.614 181.872C126.987 181.872 127.297 181.941 127.542 182.08C127.793 182.213 127.979 182.403 128.102 182.648C128.225 182.888 128.286 183.173 128.286 183.504V186H127.686L127.646 185.288C127.593 185.4 127.523 185.507 127.438 185.608C127.358 185.704 127.262 185.789 127.15 185.864C127.038 185.933 126.91 185.989 126.766 186.032C126.627 186.075 126.467 186.096 126.286 186.096ZM126.39 185.528C126.577 185.528 126.745 185.491 126.894 185.416C127.049 185.336 127.179 185.229 127.286 185.096C127.393 184.957 127.473 184.805 127.526 184.64C127.585 184.475 127.614 184.301 127.614 184.12V184.096H126.606C126.345 184.096 126.134 184.128 125.974 184.192C125.814 184.251 125.699 184.336 125.63 184.448C125.561 184.555 125.526 184.677 125.526 184.816C125.526 184.96 125.558 185.085 125.622 185.192C125.691 185.299 125.79 185.381 125.918 185.44C126.051 185.499 126.209 185.528 126.39 185.528ZM131.451 186V181.968H132.059L132.091 182.672C132.219 182.421 132.4 182.227 132.635 182.088C132.875 181.944 133.147 181.872 133.451 181.872C133.765 181.872 134.037 181.936 134.267 182.064C134.496 182.187 134.675 182.376 134.803 182.632C134.931 182.883 134.995 183.203 134.995 183.592V186H134.323V183.664C134.323 183.259 134.232 182.955 134.051 182.752C133.875 182.549 133.624 182.448 133.299 182.448C133.075 182.448 132.875 182.504 132.699 182.616C132.523 182.723 132.381 182.88 132.275 183.088C132.173 183.291 132.123 183.544 132.123 183.848V186H131.451ZM137.812 186.096C137.434 186.096 137.098 186.008 136.804 185.832C136.516 185.656 136.29 185.411 136.124 185.096C135.959 184.776 135.876 184.405 135.876 183.984C135.876 183.557 135.956 183.187 136.116 182.872C136.282 182.557 136.511 182.312 136.804 182.136C137.103 181.96 137.444 181.872 137.828 181.872C138.223 181.872 138.556 181.96 138.828 182.136C139.106 182.312 139.316 182.544 139.46 182.832C139.61 183.115 139.684 183.427 139.684 183.768C139.684 183.821 139.684 183.877 139.684 183.936C139.684 183.995 139.682 184.061 139.676 184.136H136.38V183.616H139.028C139.012 183.248 138.89 182.96 138.66 182.752C138.436 182.544 138.154 182.44 137.812 182.44C137.583 182.44 137.37 182.493 137.172 182.6C136.98 182.701 136.826 182.853 136.708 183.056C136.591 183.253 136.532 183.501 136.532 183.8V184.024C136.532 184.355 136.591 184.632 136.708 184.856C136.831 185.08 136.988 185.248 137.18 185.36C137.378 185.472 137.588 185.528 137.812 185.528C138.095 185.528 138.327 185.467 138.508 185.344C138.695 185.216 138.828 185.045 138.908 184.832H139.572C139.508 185.072 139.396 185.288 139.236 185.48C139.076 185.672 138.876 185.824 138.636 185.936C138.402 186.043 138.127 186.096 137.812 186.096ZM144.532 186.096C144.154 186.096 143.812 186.008 143.508 185.832C143.21 185.656 142.975 185.411 142.804 185.096C142.634 184.776 142.548 184.408 142.548 183.992C142.548 183.565 142.634 183.195 142.804 182.88C142.975 182.565 143.21 182.32 143.508 182.144C143.812 181.963 144.154 181.872 144.532 181.872C145.012 181.872 145.412 181.997 145.732 182.248C146.052 182.493 146.255 182.824 146.34 183.24H145.652C145.599 182.989 145.468 182.795 145.26 182.656C145.052 182.517 144.807 182.448 144.524 182.448C144.295 182.448 144.082 182.507 143.884 182.624C143.687 182.736 143.53 182.907 143.412 183.136C143.295 183.365 143.236 183.648 143.236 183.984C143.236 184.235 143.271 184.459 143.34 184.656C143.41 184.848 143.503 185.008 143.62 185.136C143.738 185.264 143.874 185.363 144.028 185.432C144.188 185.496 144.354 185.528 144.524 185.528C144.716 185.528 144.89 185.499 145.044 185.44C145.199 185.376 145.33 185.283 145.436 185.16C145.543 185.037 145.615 184.893 145.652 184.728H146.34C146.255 185.133 146.05 185.464 145.724 185.72C145.404 185.971 145.007 186.096 144.532 186.096ZM144.444 181.496L143.348 180.84V180.32L144.444 180.992L145.54 180.32V180.84L144.444 181.496ZM148.758 186.096C148.449 186.096 148.177 186.035 147.942 185.912C147.713 185.789 147.534 185.6 147.406 185.344C147.284 185.088 147.222 184.768 147.222 184.384V181.968H147.894V184.312C147.894 184.712 147.982 185.013 148.158 185.216C148.334 185.419 148.582 185.52 148.902 185.52C149.126 185.52 149.329 185.467 149.51 185.36C149.692 185.248 149.833 185.091 149.934 184.888C150.041 184.68 150.094 184.427 150.094 184.128V181.968H150.766V186H150.158L150.118 185.296C149.996 185.547 149.814 185.744 149.574 185.888C149.334 186.027 149.062 186.096 148.758 186.096ZM153.696 186.096C153.318 186.096 152.976 186.008 152.672 185.832C152.374 185.656 152.139 185.411 151.968 185.096C151.798 184.776 151.712 184.408 151.712 183.992C151.712 183.565 151.798 183.195 151.968 182.88C152.139 182.565 152.374 182.32 152.672 182.144C152.976 181.963 153.318 181.872 153.696 181.872C154.176 181.872 154.576 181.997 154.896 182.248C155.216 182.493 155.419 182.824 155.504 183.24H154.816C154.763 182.989 154.632 182.795 154.424 182.656C154.216 182.517 153.971 182.448 153.688 182.448C153.459 182.448 153.246 182.507 153.048 182.624C152.851 182.736 152.694 182.907 152.576 183.136C152.459 183.365 152.4 183.648 152.4 183.984C152.4 184.235 152.435 184.459 152.504 184.656C152.574 184.848 152.667 185.008 152.784 185.136C152.902 185.264 153.038 185.363 153.192 185.432C153.352 185.496 153.518 185.528 153.688 185.528C153.88 185.528 154.054 185.499 154.208 185.44C154.363 185.376 154.494 185.283 154.6 185.16C154.707 185.037 154.779 184.893 154.816 184.728H155.504C155.419 185.133 155.214 185.464 154.888 185.72C154.568 185.971 154.171 186.096 153.696 186.096ZM153.608 181.496L152.512 180.84V180.32L153.608 180.992L154.704 180.32V180.84L153.608 181.496ZM157.77 186.096C157.445 186.096 157.173 186.04 156.954 185.928C156.736 185.811 156.573 185.659 156.466 185.472C156.36 185.28 156.306 185.072 156.306 184.848C156.306 184.576 156.376 184.347 156.514 184.16C156.658 183.968 156.858 183.824 157.114 183.728C157.376 183.627 157.682 183.576 158.034 183.576H159.098C159.098 183.325 159.058 183.117 158.978 182.952C158.904 182.781 158.792 182.653 158.642 182.568C158.498 182.483 158.317 182.44 158.098 182.44C157.842 182.44 157.621 182.504 157.434 182.632C157.248 182.76 157.133 182.949 157.09 183.2H156.402C156.434 182.912 156.53 182.672 156.69 182.48C156.856 182.283 157.064 182.133 157.314 182.032C157.565 181.925 157.826 181.872 158.098 181.872C158.472 181.872 158.781 181.941 159.026 182.08C159.277 182.213 159.464 182.403 159.586 182.648C159.709 182.888 159.77 183.173 159.77 183.504V186H159.17L159.13 185.288C159.077 185.4 159.008 185.507 158.922 185.608C158.842 185.704 158.746 185.789 158.634 185.864C158.522 185.933 158.394 185.989 158.25 186.032C158.112 186.075 157.952 186.096 157.77 186.096ZM157.874 185.528C158.061 185.528 158.229 185.491 158.378 185.416C158.533 185.336 158.664 185.229 158.77 185.096C158.877 184.957 158.957 184.805 159.01 184.64C159.069 184.475 159.098 184.301 159.098 184.12V184.096H158.09C157.829 184.096 157.618 184.128 157.458 184.192C157.298 184.251 157.184 184.336 157.114 184.448C157.045 184.555 157.01 184.677 157.01 184.816C157.01 184.96 157.042 185.085 157.106 185.192C157.176 185.299 157.274 185.381 157.402 185.44C157.536 185.499 157.693 185.528 157.874 185.528ZM160.81 186V181.968H161.418L161.45 182.672C161.578 182.421 161.759 182.227 161.994 182.088C162.234 181.944 162.506 181.872 162.81 181.872C163.125 181.872 163.397 181.936 163.626 182.064C163.855 182.187 164.034 182.376 164.162 182.632C164.29 182.883 164.354 183.203 164.354 183.592V186H163.682V183.664C163.682 183.259 163.591 182.955 163.41 182.752C163.234 182.549 162.983 182.448 162.658 182.448C162.434 182.448 162.234 182.504 162.058 182.616C161.882 182.723 161.741 182.88 161.634 183.088C161.533 183.291 161.482 183.544 161.482 183.848V186H160.81ZM164.628 187.76V187.184H164.94C165.142 187.184 165.286 187.141 165.372 187.056C165.457 186.976 165.5 186.837 165.5 186.64V181.968H166.172V186.656C166.172 186.912 166.129 187.12 166.044 187.28C165.958 187.445 165.83 187.565 165.66 187.64C165.494 187.72 165.289 187.76 165.044 187.76H164.628ZM165.844 181.112C165.71 181.112 165.598 181.069 165.508 180.984C165.422 180.893 165.38 180.781 165.38 180.648C165.38 180.515 165.422 180.408 165.508 180.328C165.598 180.243 165.71 180.2 165.844 180.2C165.972 180.2 166.078 180.243 166.164 180.328C166.254 180.408 166.3 180.515 166.3 180.648C166.3 180.781 166.254 180.893 166.164 180.984C166.078 181.069 165.972 181.112 165.844 181.112Z" fill="white"/>
</svg>
