<svg width="200" height="200" viewBox="0 0 200 200" fill="none" xmlns="http://www.w3.org/2000/svg">
<rect width="200" height="200" fill="#0A0A0A"/>
<line x1="1.5" y1="55" x2="1.5" y2="200" stroke="#C8F135" stroke-width="3"/>
<rect width="200" height="55" fill="#1D1D1D"/>
<path d="M10.95 50V31.8H17.346C18.6287 31.8 19.686 32.008 20.518 32.424C21.3673 32.8227 22 33.3773 22.416 34.088C22.832 34.7813 23.04 35.5613 23.04 36.428C23.04 37.364 22.832 38.144 22.416 38.768C22.0173 39.392 21.4887 39.8687 20.83 40.198C20.1887 40.5273 19.504 40.7267 18.776 40.796L19.14 40.536C19.92 40.5533 20.6393 40.7613 21.298 41.16C21.9567 41.5587 22.4767 42.096 22.858 42.772C23.2567 43.448 23.456 44.202 23.456 45.034C23.456 45.9527 23.2307 46.7933 22.78 47.556C22.3293 48.3013 21.662 48.8993 20.778 49.35C19.9113 49.7833 18.8367 50 17.554 50H10.95ZM13.134 48.18H17.32C18.5507 48.18 19.504 47.894 20.18 47.322C20.8733 46.7327 21.22 45.918 21.22 44.878C21.22 43.8553 20.8647 43.0407 20.154 42.434C19.4607 41.81 18.4987 41.498 17.268 41.498H13.134V48.18ZM13.134 39.756H17.19C18.3687 39.756 19.2613 39.4787 19.868 38.924C20.492 38.3693 20.804 37.6153 20.804 36.662C20.804 35.7433 20.492 35.0067 19.868 34.452C19.2613 33.8973 18.3427 33.62 17.112 33.62H13.134V39.756ZM26.616 50V31.8H37.874V33.594H28.8V39.938H37.094V41.706H28.8V48.206H37.874V50H26.616ZM41.3172 50V31.8H43.5012L53.1992 46.386V31.8H55.3832V50H53.1992L43.5012 35.414V50H41.3172ZM67.1978 50.312C65.4298 50.312 63.8958 49.922 62.5958 49.142C61.3131 48.3447 60.3251 47.244 59.6318 45.84C58.9384 44.4187 58.5918 42.772 58.5918 40.9C58.5918 39.028 58.9384 37.39 59.6318 35.986C60.3251 34.5647 61.3131 33.464 62.5958 32.684C63.8958 31.8867 65.4298 31.488 67.1978 31.488C69.2778 31.488 70.9678 31.982 72.2678 32.97C73.5678 33.958 74.3998 35.3533 74.7638 37.156H72.3458C72.0684 36.0293 71.5051 35.128 70.6558 34.452C69.8064 33.7587 68.6538 33.412 67.1978 33.412C65.8978 33.412 64.7711 33.7153 63.8178 34.322C62.8644 34.9113 62.1278 35.7693 61.6078 36.896C61.0878 38.0053 60.8278 39.34 60.8278 40.9C60.8278 42.46 61.0878 43.8033 61.6078 44.93C62.1278 46.0393 62.8644 46.8973 63.8178 47.504C64.7711 48.0933 65.8978 48.388 67.1978 48.388C68.6538 48.388 69.8064 48.0587 70.6558 47.4C71.5051 46.724 72.0684 45.8313 72.3458 44.722H74.7638C74.3998 46.4727 73.5678 47.842 72.2678 48.83C70.9678 49.818 69.2778 50.312 67.1978 50.312ZM66.6778 30.396L63.1158 28.264V26.574L66.6778 28.758L70.2398 26.574V28.264L66.6778 30.396Z" fill="white"/>
<path d="M11.675 18V11.7H12.431L15.788 16.749V11.7H16.544V18H15.788L12.431 12.951V18H11.675ZM17.8977 18V11.7H18.7797L21.0027 16.101L23.2347 11.7H24.1257V18H23.3697V13.05L21.2907 17.118H20.7237L18.6537 13.068V18H17.8977ZM25.06 18L27.382 11.7H28.183L30.496 18H29.695L27.778 12.645L25.852 18H25.06ZM26.122 16.38L26.338 15.768H29.191L29.407 16.38H26.122ZM31.4416 18V11.7H33.4936C33.9916 11.7 34.3996 11.784 34.7176 11.952C35.0416 12.114 35.2786 12.333 35.4286 12.609C35.5846 12.885 35.6626 13.2 35.6626 13.554C35.6626 13.896 35.5846 14.208 35.4286 14.49C35.2786 14.766 35.0446 14.988 34.7266 15.156C34.4086 15.324 33.9976 15.408 33.4936 15.408H32.1976V18H31.4416ZM32.1976 14.769H33.4846C33.9886 14.769 34.3486 14.658 34.5646 14.436C34.7806 14.214 34.8886 13.92 34.8886 13.554C34.8886 13.164 34.7806 12.864 34.5646 12.654C34.3486 12.438 33.9886 12.33 33.4846 12.33H32.1976V14.769ZM36.8873 18.045C36.7373 18.045 36.6113 17.997 36.5093 17.901C36.4133 17.799 36.3653 17.676 36.3653 17.532C36.3653 17.388 36.4133 17.268 36.5093 17.172C36.6113 17.07 36.7373 17.019 36.8873 17.019C37.0373 17.019 37.1603 17.07 37.2563 17.172C37.3523 17.268 37.4003 17.388 37.4003 17.532C37.4003 17.676 37.3523 17.799 37.2563 17.901C37.1603 17.997 37.0373 18.045 36.8873 18.045ZM36.8873 14.382C36.7373 14.382 36.6113 14.334 36.5093 14.238C36.4133 14.136 36.3653 14.013 36.3653 13.869C36.3653 13.725 36.4133 13.605 36.5093 13.509C36.6113 13.407 36.7373 13.356 36.8873 13.356C37.0373 13.356 37.1603 13.407 37.2563 13.509C37.3523 13.605 37.4003 13.725 37.4003 13.869C37.4003 14.013 37.3523 14.136 37.2563 14.238C37.1603 14.334 37.0373 14.382 36.8873 14.382ZM42.3483 18V12.321H40.4673V11.7H44.9853V12.321H43.1043V18H42.3483ZM47.0526 18.108C46.6266 18.108 46.2486 18.009 45.9186 17.811C45.5946 17.613 45.3396 17.337 45.1536 16.983C44.9676 16.623 44.8746 16.206 44.8746 15.732C44.8746 15.252 44.9646 14.835 45.1446 14.481C45.3306 14.127 45.5886 13.851 45.9186 13.653C46.2546 13.455 46.6386 13.356 47.0706 13.356C47.5146 13.356 47.8896 13.455 48.1956 13.653C48.5076 13.851 48.7446 14.112 48.9066 14.436C49.0746 14.754 49.1586 15.105 49.1586 15.489C49.1586 15.549 49.1586 15.612 49.1586 15.678C49.1586 15.744 49.1556 15.819 49.1496 15.903H45.4416V15.318H48.4206C48.4026 14.904 48.2646 14.58 48.0066 14.346C47.7546 14.112 47.4366 13.995 47.0526 13.995C46.7946 13.995 46.5546 14.055 46.3326 14.175C46.1166 14.289 45.9426 14.46 45.8106 14.688C45.6786 14.91 45.6126 15.189 45.6126 15.525V15.777C45.6126 16.149 45.6786 16.461 45.8106 16.713C45.9486 16.965 46.1256 17.154 46.3416 17.28C46.5636 17.406 46.8006 17.469 47.0526 17.469C47.3706 17.469 47.6316 17.4 47.8356 17.262C48.0456 17.118 48.1956 16.926 48.2856 16.686H49.0326C48.9606 16.956 48.8346 17.199 48.6546 17.415C48.4746 17.631 48.2496 17.802 47.9796 17.928C47.7156 18.048 47.4066 18.108 47.0526 18.108ZM50.1788 18V11.52H50.9348V14.229C51.0848 13.959 51.2948 13.746 51.5648 13.59C51.8408 13.434 52.1408 13.356 52.4648 13.356C52.8128 13.356 53.1158 13.428 53.3738 13.572C53.6318 13.71 53.8298 13.923 53.9678 14.211C54.1058 14.499 54.1748 14.862 54.1748 15.3V18H53.4278V15.381C53.4278 14.925 53.3318 14.583 53.1398 14.355C52.9478 14.121 52.6688 14.004 52.3028 14.004C52.0448 14.004 51.8108 14.067 51.6008 14.193C51.3968 14.319 51.2348 14.499 51.1148 14.733C50.9948 14.967 50.9348 15.255 50.9348 15.597V18H50.1788ZM55.3556 18V13.464H56.0396L56.0756 14.256C56.2196 13.974 56.4236 13.755 56.6876 13.599C56.9576 13.437 57.2636 13.356 57.6056 13.356C57.9596 13.356 58.2656 13.428 58.5236 13.572C58.7816 13.71 58.9826 13.923 59.1266 14.211C59.2706 14.493 59.3426 14.853 59.3426 15.291V18H58.5866V15.372C58.5866 14.916 58.4846 14.574 58.2806 14.346C58.0826 14.118 57.8006 14.004 57.4346 14.004C57.1826 14.004 56.9576 14.067 56.7596 14.193C56.5616 14.313 56.4026 14.49 56.2826 14.724C56.1686 14.952 56.1116 15.237 56.1116 15.579V18H55.3556ZM60.5956 18V13.464H61.3516V18H60.5956ZM60.9736 12.501C60.8236 12.501 60.6976 12.453 60.5956 12.357C60.4996 12.255 60.4516 12.129 60.4516 11.979C60.4516 11.829 60.4996 11.709 60.5956 11.619C60.6976 11.523 60.8236 11.475 60.9736 11.475C61.1176 11.475 61.2406 11.523 61.3426 11.619C61.4446 11.709 61.4956 11.829 61.4956 11.979C61.4956 12.129 61.4446 12.255 61.3426 12.357C61.2406 12.453 61.1176 12.501 60.9736 12.501ZM65.4757 18L63.3157 15.516L65.2867 13.464H66.2137L63.9547 15.786L63.9637 15.246L66.4387 18H65.4757ZM62.6857 18V11.52H63.4417V18H62.6857ZM68.6617 18.108C68.2957 18.108 67.9897 18.045 67.7437 17.919C67.4977 17.787 67.3147 17.616 67.1947 17.406C67.0747 17.19 67.0147 16.956 67.0147 16.704C67.0147 16.398 67.0927 16.14 67.2487 15.93C67.4107 15.714 67.6357 15.552 67.9237 15.444C68.2177 15.33 68.5627 15.273 68.9587 15.273H70.1557C70.1557 14.991 70.1107 14.757 70.0207 14.571C69.9367 14.379 69.8107 14.235 69.6427 14.139C69.4807 14.043 69.2767 13.995 69.0307 13.995C68.7427 13.995 68.4937 14.067 68.2837 14.211C68.0737 14.355 67.9447 14.568 67.8967 14.85H67.1227C67.1587 14.526 67.2667 14.256 67.4467 14.04C67.6327 13.818 67.8667 13.65 68.1487 13.536C68.4307 13.416 68.7247 13.356 69.0307 13.356C69.4507 13.356 69.7987 13.434 70.0747 13.59C70.3567 13.74 70.5667 13.953 70.7047 14.229C70.8427 14.499 70.9117 14.82 70.9117 15.192V18H70.2367L70.1917 17.199C70.1317 17.325 70.0537 17.445 69.9577 17.559C69.8677 17.667 69.7597 17.763 69.6337 17.847C69.5077 17.925 69.3637 17.988 69.2017 18.036C69.0457 18.084 68.8657 18.108 68.6617 18.108ZM68.7787 17.469C68.9887 17.469 69.1777 17.427 69.3457 17.343C69.5197 17.253 69.6667 17.133 69.7867 16.983C69.9067 16.827 69.9967 16.656 70.0567 16.47C70.1227 16.284 70.1557 16.089 70.1557 15.885V15.858H69.0217C68.7277 15.858 68.4907 15.894 68.3107 15.966C68.1307 16.032 68.0017 16.128 67.9237 16.254C67.8457 16.374 67.8067 16.512 67.8067 16.668C67.8067 16.83 67.8427 16.971 67.9147 17.091C67.9927 17.211 68.1037 17.304 68.2477 17.37C68.3977 17.436 68.5747 17.469 68.7787 17.469Z" fill="#C8F135"/>
<rect x="9" y="66" width="185" height="29" fill="#1D1D1D"/>
<line x1="9.52777" y1="95" x2="9.52777" y2="66" stroke="#C8F135"/>
<path d="M14.75 76V69H15.59V75.33H18.85V76H14.75ZM22.0086 76.12C21.5419 76.12 21.1219 76.0133 20.7486 75.8C20.3753 75.58 20.0819 75.2733 19.8686 74.88C19.6553 74.48 19.5486 74.0167 19.5486 73.49C19.5486 72.95 19.6553 72.4833 19.8686 72.09C20.0886 71.69 20.3853 71.3833 20.7586 71.17C21.1386 70.95 21.5619 70.84 22.0286 70.84C22.5086 70.84 22.9319 70.95 23.2986 71.17C23.6719 71.3833 23.9653 71.69 24.1786 72.09C24.3986 72.4833 24.5086 72.9467 24.5086 73.48C24.5086 74.0133 24.3986 74.48 24.1786 74.88C23.9586 75.2733 23.6619 75.58 23.2886 75.8C22.9153 76.0133 22.4886 76.12 22.0086 76.12ZM22.0186 75.4C22.3053 75.4 22.5719 75.33 22.8186 75.19C23.0653 75.0433 23.2653 74.8267 23.4186 74.54C23.5719 74.2533 23.6486 73.9 23.6486 73.48C23.6486 73.0533 23.5719 72.7 23.4186 72.42C23.2719 72.1333 23.0753 71.92 22.8286 71.78C22.5886 71.6333 22.3219 71.56 22.0286 71.56C21.7486 71.56 21.4819 71.6333 21.2286 71.78C20.9819 71.92 20.7819 72.1333 20.6286 72.42C20.4819 72.7 20.4086 73.0533 20.4086 73.48C20.4086 73.9 20.4819 74.2533 20.6286 74.54C20.7819 74.8267 20.9786 75.0433 21.2186 75.19C21.4653 75.33 21.7319 75.4 22.0186 75.4ZM25.6863 78.2V70.96H26.4463L26.5163 71.78C26.623 71.62 26.7597 71.47 26.9263 71.33C27.093 71.1833 27.293 71.0667 27.5263 70.98C27.7597 70.8867 28.0263 70.84 28.3263 70.84C28.8197 70.84 29.2463 70.9567 29.6063 71.19C29.973 71.4233 30.2563 71.74 30.4563 72.14C30.663 72.5333 30.7663 72.9833 30.7663 73.49C30.7663 73.9967 30.663 74.45 30.4563 74.85C30.2563 75.2433 29.973 75.5533 29.6063 75.78C29.2397 76.0067 28.8097 76.12 28.3163 76.12C27.9097 76.12 27.5497 76.0367 27.2363 75.87C26.9297 75.7033 26.693 75.47 26.5263 75.17V78.2H25.6863ZM28.2263 75.39C28.553 75.39 28.843 75.31 29.0963 75.15C29.3497 74.99 29.5463 74.77 29.6863 74.49C29.833 74.2033 29.9063 73.8667 29.9063 73.48C29.9063 73.1 29.833 72.7667 29.6863 72.48C29.5463 72.1933 29.3497 71.97 29.0963 71.81C28.843 71.65 28.553 71.57 28.2263 71.57C27.893 71.57 27.5997 71.65 27.3463 71.81C27.093 71.97 26.8963 72.1933 26.7563 72.48C26.6163 72.7667 26.5463 73.1 26.5463 73.48C26.5463 73.8667 26.6163 74.2033 26.7563 74.49C26.8963 74.77 27.093 74.99 27.3463 75.15C27.5997 75.31 27.893 75.39 28.2263 75.39ZM33.5861 76.12C33.1794 76.12 32.8394 76.05 32.5661 75.91C32.2928 75.7633 32.0894 75.5733 31.9561 75.34C31.8228 75.1 31.7561 74.84 31.7561 74.56C31.7561 74.22 31.8428 73.9333 32.0161 73.7C32.1961 73.46 32.4461 73.28 32.7661 73.16C33.0928 73.0333 33.4761 72.97 33.9161 72.97H35.2461C35.2461 72.6567 35.1961 72.3967 35.0961 72.19C35.0028 71.9767 34.8628 71.8167 34.6761 71.71C34.4961 71.6033 34.2694 71.55 33.9961 71.55C33.6761 71.55 33.3994 71.63 33.1661 71.79C32.9328 71.95 32.7894 72.1867 32.7361 72.5H31.8761C31.9161 72.14 32.0361 71.84 32.2361 71.6C32.4428 71.3533 32.7028 71.1667 33.0161 71.04C33.3294 70.9067 33.6561 70.84 33.9961 70.84C34.4628 70.84 34.8494 70.9267 35.1561 71.1C35.4694 71.2667 35.7028 71.5033 35.8561 71.81C36.0094 72.11 36.0861 72.4667 36.0861 72.88V76H35.3361L35.2861 75.11C35.2194 75.25 35.1328 75.3833 35.0261 75.51C34.9261 75.63 34.8061 75.7367 34.6661 75.83C34.5261 75.9167 34.3661 75.9867 34.1861 76.04C34.0128 76.0933 33.8128 76.12 33.5861 76.12ZM33.7161 75.41C33.9494 75.41 34.1594 75.3633 34.3461 75.27C34.5394 75.17 34.7028 75.0367 34.8361 74.87C34.9694 74.6967 35.0694 74.5067 35.1361 74.3C35.2094 74.0933 35.2461 73.8767 35.2461 73.65V73.62H33.9861C33.6594 73.62 33.3961 73.66 33.1961 73.74C32.9961 73.8133 32.8528 73.92 32.7661 74.06C32.6794 74.1933 32.6361 74.3467 32.6361 74.52C32.6361 74.7 32.6761 74.8567 32.7561 74.99C32.8428 75.1233 32.9661 75.2267 33.1261 75.3C33.2928 75.3733 33.4894 75.41 33.7161 75.41ZM39.2288 76C38.9288 76 38.6688 75.9533 38.4488 75.86C38.2288 75.7667 38.0588 75.61 37.9388 75.39C37.8255 75.1633 37.7688 74.86 37.7688 74.48V71.67H36.8888V70.96H37.7688L37.8788 69.74H38.6088V70.96H40.0688V71.67H38.6088V74.48C38.6088 74.7933 38.6722 75.0067 38.7988 75.12C38.9255 75.2267 39.1488 75.28 39.4688 75.28H40.0088V76H39.2288ZM41.2448 76V70.96H42.0848V76H41.2448ZM41.6648 69.89C41.4982 69.89 41.3582 69.8367 41.2448 69.73C41.1382 69.6167 41.0848 69.4767 41.0848 69.31C41.0848 69.1433 41.1382 69.01 41.2448 68.91C41.3582 68.8033 41.4982 68.75 41.6648 68.75C41.8248 68.75 41.9615 68.8033 42.0748 68.91C42.1882 69.01 42.2448 69.1433 42.2448 69.31C42.2448 69.4767 42.1882 69.6167 42.0748 69.73C41.9615 69.8367 41.8248 69.89 41.6648 69.89ZM45.8372 76.12C45.3639 76.12 44.9372 76.01 44.5572 75.79C44.1839 75.57 43.8905 75.2633 43.6772 74.87C43.4639 74.47 43.3572 74.01 43.3572 73.49C43.3572 72.9567 43.4639 72.4933 43.6772 72.1C43.8905 71.7067 44.1839 71.4 44.5572 71.18C44.9372 70.9533 45.3639 70.84 45.8372 70.84C46.4372 70.84 46.9372 70.9967 47.3372 71.31C47.7372 71.6167 47.9905 72.03 48.0972 72.55H47.2372C47.1705 72.2367 47.0072 71.9933 46.7472 71.82C46.4872 71.6467 46.1805 71.56 45.8272 71.56C45.5405 71.56 45.2739 71.6333 45.0272 71.78C44.7805 71.92 44.5839 72.1333 44.4372 72.42C44.2905 72.7067 44.2172 73.06 44.2172 73.48C44.2172 73.7933 44.2605 74.0733 44.3472 74.32C44.4339 74.56 44.5505 74.76 44.6972 74.92C44.8439 75.08 45.0139 75.2033 45.2072 75.29C45.4072 75.37 45.6139 75.41 45.8272 75.41C46.0672 75.41 46.2839 75.3733 46.4772 75.3C46.6705 75.22 46.8339 75.1033 46.9672 74.95C47.1005 74.7967 47.1905 74.6167 47.2372 74.41H48.0972C47.9905 74.9167 47.7339 75.33 47.3272 75.65C46.9272 75.9633 46.4305 76.12 45.8372 76.12ZM51.4998 76.12C51.0265 76.12 50.6065 76.01 50.2398 75.79C49.8798 75.57 49.5965 75.2633 49.3898 74.87C49.1832 74.47 49.0798 74.0067 49.0798 73.48C49.0798 72.9467 49.1798 72.4833 49.3798 72.09C49.5865 71.6967 49.8732 71.39 50.2398 71.17C50.6132 70.95 51.0398 70.84 51.5198 70.84C52.0132 70.84 52.4298 70.95 52.7698 71.17C53.1165 71.39 53.3798 71.68 53.5598 72.04C53.7465 72.3933 53.8398 72.7833 53.8398 73.21C53.8398 73.2767 53.8398 73.3467 53.8398 73.42C53.8398 73.4933 53.8365 73.5767 53.8298 73.67H49.7098V73.02H53.0198C52.9998 72.56 52.8465 72.2 52.5598 71.94C52.2798 71.68 51.9265 71.55 51.4998 71.55C51.2132 71.55 50.9465 71.6167 50.6998 71.75C50.4598 71.8767 50.2665 72.0667 50.1198 72.32C49.9732 72.5667 49.8998 72.8767 49.8998 73.25V73.53C49.8998 73.9433 49.9732 74.29 50.1198 74.57C50.2732 74.85 50.4698 75.06 50.7098 75.2C50.9565 75.34 51.2198 75.41 51.4998 75.41C51.8532 75.41 52.1432 75.3333 52.3698 75.18C52.6032 75.02 52.7698 74.8067 52.8698 74.54H53.6998C53.6198 74.84 53.4798 75.11 53.2798 75.35C53.0798 75.59 52.8298 75.78 52.5298 75.92C52.2365 76.0533 51.8932 76.12 51.4998 76.12Z" fill="#C8F135"/>
<path d="M16.384 90.096C15.9733 90.096 15.616 90.0213 15.312 89.872C15.008 89.7227 14.7733 89.5147 14.608 89.248C14.4427 88.9813 14.36 88.672 14.36 88.32H15.064C15.064 88.5387 15.1147 88.7413 15.216 88.928C15.3173 89.1093 15.464 89.256 15.656 89.368C15.8533 89.4747 16.096 89.528 16.384 89.528C16.6347 89.528 16.848 89.488 17.024 89.408C17.2053 89.3227 17.3413 89.208 17.432 89.064C17.528 88.92 17.576 88.7573 17.576 88.576C17.576 88.3573 17.528 88.1813 17.432 88.048C17.3413 87.9093 17.216 87.7973 17.056 87.712C16.896 87.6267 16.7093 87.552 16.496 87.488C16.288 87.4187 16.0693 87.3467 15.84 87.272C15.3973 87.1227 15.072 86.936 14.864 86.712C14.656 86.488 14.552 86.1973 14.552 85.84C14.552 85.536 14.6213 85.2693 14.76 85.04C14.904 84.8107 15.1067 84.632 15.368 84.504C15.6347 84.3707 15.9493 84.304 16.312 84.304C16.6693 84.304 16.9787 84.3707 17.24 84.504C17.5067 84.6373 17.7147 84.8213 17.864 85.056C18.0133 85.2853 18.088 85.552 18.088 85.856H17.384C17.384 85.7013 17.344 85.5493 17.264 85.4C17.184 85.2507 17.0613 85.128 16.896 85.032C16.736 84.9307 16.5333 84.88 16.288 84.88C16.0853 84.8747 15.904 84.9093 15.744 84.984C15.5893 85.0533 15.4667 85.1547 15.376 85.288C15.2907 85.4213 15.248 85.584 15.248 85.776C15.248 85.9573 15.2853 86.104 15.36 86.216C15.44 86.328 15.552 86.424 15.696 86.504C15.8453 86.5787 16.0187 86.648 16.216 86.712C16.4133 86.776 16.632 86.848 16.872 86.928C17.144 87.0187 17.384 87.1307 17.592 87.264C17.8053 87.392 17.9707 87.5573 18.088 87.76C18.2107 87.9627 18.272 88.2213 18.272 88.536C18.272 88.8027 18.2 89.056 18.056 89.296C17.9173 89.5307 17.7093 89.7227 17.432 89.872C17.1547 90.0213 16.8053 90.096 16.384 90.096ZM20.7846 90C20.5446 90 20.3366 89.9627 20.1606 89.888C19.9846 89.8133 19.8486 89.688 19.7526 89.512C19.662 89.3307 19.6166 89.088 19.6166 88.784V86.536H18.9126V85.968H19.6166L19.7046 84.992H20.2886V85.968H21.4566V86.536H20.2886V88.784C20.2886 89.0347 20.3393 89.2053 20.4406 89.296C20.542 89.3813 20.7206 89.424 20.9766 89.424H21.4086V90H20.7846ZM22.3974 90V85.968H23.0694V90H22.3974ZM22.7334 85.112C22.6001 85.112 22.4881 85.0693 22.3974 84.984C22.3121 84.8933 22.2694 84.7813 22.2694 84.648C22.2694 84.5147 22.3121 84.408 22.3974 84.328C22.4881 84.2427 22.6001 84.2 22.7334 84.2C22.8614 84.2 22.9708 84.2427 23.0614 84.328C23.1521 84.408 23.1974 84.5147 23.1974 84.648C23.1974 84.7813 23.1521 84.8933 23.0614 84.984C22.9708 85.0693 22.8614 85.112 22.7334 85.112ZM25.7753 90.096C25.4393 90.096 25.146 90.04 24.8953 89.928C24.65 89.816 24.4526 89.6613 24.3033 89.464C24.1593 89.2613 24.0713 89.024 24.0393 88.752H24.7273C24.754 88.8907 24.81 89.0187 24.8953 89.136C24.9806 89.2533 25.0953 89.3493 25.2393 89.424C25.3886 89.4933 25.57 89.528 25.7833 89.528C25.97 89.528 26.1246 89.5013 26.2473 89.448C26.37 89.3893 26.4606 89.312 26.5193 89.216C26.5833 89.12 26.6153 89.016 26.6153 88.904C26.6153 88.7387 26.5753 88.6133 26.4953 88.528C26.4206 88.4427 26.3086 88.376 26.1593 88.328C26.01 88.2747 25.8286 88.2293 25.6153 88.192C25.4393 88.16 25.266 88.1173 25.0953 88.064C24.9246 88.0107 24.7726 87.9413 24.6393 87.856C24.506 87.7653 24.3993 87.656 24.3193 87.528C24.2446 87.4 24.2073 87.2427 24.2073 87.056C24.2073 86.8267 24.266 86.624 24.3833 86.448C24.5006 86.2667 24.6686 86.1253 24.8873 86.024C25.1113 85.9227 25.37 85.872 25.6633 85.872C26.0953 85.872 26.4446 85.976 26.7113 86.184C26.978 86.392 27.1353 86.6933 27.1833 87.088H26.5193C26.4926 86.8853 26.4046 86.728 26.2553 86.616C26.1113 86.4987 25.9113 86.44 25.6553 86.44C25.4046 86.44 25.2126 86.4907 25.0793 86.592C24.9513 86.6933 24.8873 86.8267 24.8873 86.992C24.8873 87.0987 24.922 87.1947 24.9913 87.28C25.066 87.36 25.1726 87.4293 25.3113 87.488C25.4553 87.5467 25.6313 87.5947 25.8393 87.632C26.106 87.68 26.3486 87.744 26.5673 87.824C26.786 87.904 26.962 88.024 27.0953 88.184C27.234 88.3387 27.3033 88.56 27.3033 88.848C27.3033 89.0987 27.2393 89.3173 27.1113 89.504C26.9886 89.6907 26.8126 89.8373 26.5833 89.944C26.354 90.0453 26.0846 90.096 25.7753 90.096ZM28.2709 90V85.968H28.8789L28.9109 86.672C29.0389 86.4213 29.2203 86.2267 29.4549 86.088C29.6949 85.944 29.9669 85.872 30.2709 85.872C30.5856 85.872 30.8576 85.936 31.0869 86.064C31.3163 86.1867 31.4949 86.376 31.6229 86.632C31.7509 86.8827 31.8149 87.2027 31.8149 87.592V90H31.1429V87.664C31.1429 87.2587 31.0523 86.9547 30.8709 86.752C30.6949 86.5493 30.4443 86.448 30.1189 86.448C29.8949 86.448 29.6949 86.504 29.5189 86.616C29.3429 86.7227 29.2016 86.88 29.0949 87.088C28.9936 87.2907 28.9429 87.544 28.9429 87.848V90H28.2709ZM34.3287 90.096C34.0194 90.096 33.7474 90.0347 33.5127 89.912C33.2834 89.7893 33.1047 89.6 32.9767 89.344C32.854 89.088 32.7927 88.768 32.7927 88.384V85.968H33.4647V88.312C33.4647 88.712 33.5527 89.0133 33.7287 89.216C33.9047 89.4187 34.1527 89.52 34.4727 89.52C34.6967 89.52 34.8994 89.4667 35.0807 89.36C35.262 89.248 35.4034 89.0907 35.5047 88.888C35.6114 88.68 35.6647 88.4267 35.6647 88.128V85.968H36.3367V90H35.7287L35.6887 89.296C35.566 89.5467 35.3847 89.744 35.1447 89.888C34.9047 90.0267 34.6327 90.096 34.3287 90.096ZM39.0346 90C38.7946 90 38.5866 89.9627 38.4106 89.888C38.2346 89.8133 38.0986 89.688 38.0026 89.512C37.912 89.3307 37.8666 89.088 37.8666 88.784V86.536H37.1626V85.968H37.8666L37.9546 84.992H38.5386V85.968H39.7066V86.536H38.5386V88.784C38.5386 89.0347 38.5893 89.2053 38.6906 89.296C38.792 89.3813 38.9706 89.424 39.2266 89.424H39.6586V90H39.0346ZM42.2421 90.096C41.8634 90.096 41.5274 90.008 41.2341 89.832C40.9461 89.656 40.7194 89.4107 40.5541 89.096C40.3887 88.776 40.3061 88.4053 40.3061 87.984C40.3061 87.5573 40.3861 87.1867 40.5461 86.872C40.7114 86.5573 40.9407 86.312 41.2341 86.136C41.5327 85.96 41.8741 85.872 42.2581 85.872C42.6527 85.872 42.9861 85.96 43.2581 86.136C43.5354 86.312 43.7461 86.544 43.8901 86.832C44.0394 87.1147 44.1141 87.4267 44.1141 87.768C44.1141 87.8213 44.1141 87.8773 44.1141 87.936C44.1141 87.9947 44.1114 88.0613 44.1061 88.136H40.8101V87.616H43.4581C43.4421 87.248 43.3194 86.96 43.0901 86.752C42.8661 86.544 42.5834 86.44 42.2421 86.44C42.0127 86.44 41.7994 86.4933 41.6021 86.6C41.4101 86.7013 41.2554 86.8533 41.1381 87.056C41.0207 87.2533 40.9621 87.5013 40.9621 87.8V88.024C40.9621 88.3547 41.0207 88.632 41.1381 88.856C41.2607 89.08 41.4181 89.248 41.6101 89.36C41.8074 89.472 42.0181 89.528 42.2421 89.528C42.5247 89.528 42.7567 89.4667 42.9381 89.344C43.1247 89.216 43.2581 89.0453 43.3381 88.832H44.0021C43.9381 89.072 43.8261 89.288 43.6661 89.48C43.5061 89.672 43.3061 89.824 43.0661 89.936C42.8314 90.0427 42.5567 90.096 42.2421 90.096ZM47.2099 90V85.968H47.8819V90H47.2099ZM47.5459 85.112C47.4126 85.112 47.3006 85.0693 47.2099 84.984C47.1246 84.8933 47.0819 84.7813 47.0819 84.648C47.0819 84.5147 47.1246 84.408 47.2099 84.328C47.3006 84.2427 47.4126 84.2 47.5459 84.2C47.6739 84.2 47.7833 84.2427 47.8739 84.328C47.9646 84.408 48.0099 84.5147 48.0099 84.648C48.0099 84.7813 47.9646 84.8933 47.8739 84.984C47.7833 85.0693 47.6739 85.112 47.5459 85.112ZM50.9208 90V89.448L53.1528 86.528H50.9608V85.968H53.9208V86.52L51.6808 89.44H53.9608V90H50.9208ZM56.1689 90.096C55.8435 90.096 55.5715 90.04 55.3529 89.928C55.1342 89.8107 54.9715 89.6587 54.8649 89.472C54.7582 89.28 54.7049 89.072 54.7049 88.848C54.7049 88.576 54.7742 88.3467 54.9129 88.16C55.0569 87.968 55.2569 87.824 55.5129 87.728C55.7742 87.6267 56.0809 87.576 56.4329 87.576H57.4969C57.4969 87.3253 57.4569 87.1173 57.3769 86.952C57.3022 86.7813 57.1902 86.6533 57.0409 86.568C56.8969 86.4827 56.7155 86.44 56.4969 86.44C56.2409 86.44 56.0195 86.504 55.8329 86.632C55.6462 86.76 55.5315 86.9493 55.4889 87.2H54.8009C54.8329 86.912 54.9289 86.672 55.0889 86.48C55.2542 86.2827 55.4622 86.1333 55.7129 86.032C55.9635 85.9253 56.2249 85.872 56.4969 85.872C56.8702 85.872 57.1795 85.9413 57.4249 86.08C57.6755 86.2133 57.8622 86.4027 57.9849 86.648C58.1075 86.888 58.1689 87.1733 58.1689 87.504V90H57.5689L57.5289 89.288C57.4755 89.4 57.4062 89.5067 57.3209 89.608C57.2409 89.704 57.1449 89.7893 57.0329 89.864C56.9209 89.9333 56.7929 89.9893 56.6489 90.032C56.5102 90.0747 56.3502 90.096 56.1689 90.096ZM56.2729 89.528C56.4595 89.528 56.6275 89.4907 56.7769 89.416C56.9315 89.336 57.0622 89.2293 57.1689 89.096C57.2755 88.9573 57.3555 88.8053 57.4089 88.64C57.4675 88.4747 57.4969 88.3013 57.4969 88.12V88.096H56.4889C56.2275 88.096 56.0169 88.128 55.8569 88.192C55.6969 88.2507 55.5822 88.336 55.5129 88.448C55.4435 88.5547 55.4089 88.6773 55.4089 88.816C55.4089 88.96 55.4409 89.0853 55.5049 89.192C55.5742 89.2987 55.6729 89.3813 55.8009 89.44C55.9342 89.4987 56.0915 89.528 56.2729 89.528ZM61.6884 90L59.7684 87.792L61.5204 85.968H62.3444L60.3364 88.032L60.3444 87.552L62.5444 90H61.6884ZM59.2084 90V84.24H59.8804V90H59.2084ZM64.7506 90.096C64.3773 90.096 64.0413 90.0107 63.7426 89.84C63.444 89.664 63.2093 89.4187 63.0386 89.104C62.868 88.784 62.7826 88.4133 62.7826 87.992C62.7826 87.56 62.868 87.1867 63.0386 86.872C63.2146 86.552 63.452 86.3067 63.7506 86.136C64.0546 85.96 64.3933 85.872 64.7666 85.872C65.1506 85.872 65.4893 85.96 65.7826 86.136C66.0813 86.3067 66.316 86.552 66.4866 86.872C66.6626 87.1867 66.7506 87.5573 66.7506 87.984C66.7506 88.4107 66.6626 88.784 66.4866 89.104C66.3106 89.4187 66.0733 89.664 65.7746 89.84C65.476 90.0107 65.1346 90.096 64.7506 90.096ZM64.7586 89.52C64.988 89.52 65.2013 89.464 65.3986 89.352C65.596 89.2347 65.756 89.0613 65.8786 88.832C66.0013 88.6027 66.0626 88.32 66.0626 87.984C66.0626 87.6427 66.0013 87.36 65.8786 87.136C65.7613 86.9067 65.604 86.736 65.4066 86.624C65.2146 86.5067 65.0013 86.448 64.7666 86.448C64.5426 86.448 64.3293 86.5067 64.1266 86.624C63.9293 86.736 63.7693 86.9067 63.6466 87.136C63.5293 87.36 63.4706 87.6427 63.4706 87.984C63.4706 88.32 63.5293 88.6027 63.6466 88.832C63.7693 89.0613 63.9266 89.2347 64.1186 89.352C64.316 89.464 64.5293 89.52 64.7586 89.52ZM67.6928 91.76V85.968H68.3008L68.3568 86.624C68.4421 86.496 68.5515 86.376 68.6848 86.264C68.8181 86.1467 68.9781 86.0533 69.1648 85.984C69.3515 85.9093 69.5648 85.872 69.8048 85.872C70.1995 85.872 70.5408 85.9653 70.8288 86.152C71.1221 86.3387 71.3488 86.592 71.5088 86.912C71.6741 87.2267 71.7568 87.5867 71.7568 87.992C71.7568 88.3973 71.6741 88.76 71.5088 89.08C71.3488 89.3947 71.1221 89.6427 70.8288 89.824C70.5355 90.0053 70.1915 90.096 69.7968 90.096C69.4715 90.096 69.1835 90.0293 68.9328 89.896C68.6875 89.7627 68.4981 89.576 68.3648 89.336V91.76H67.6928ZM69.7248 89.512C69.9861 89.512 70.2181 89.448 70.4208 89.32C70.6235 89.192 70.7808 89.016 70.8928 88.792C71.0101 88.5627 71.0688 88.2933 71.0688 87.984C71.0688 87.68 71.0101 87.4133 70.8928 87.184C70.7808 86.9547 70.6235 86.776 70.4208 86.648C70.2181 86.52 69.9861 86.456 69.7248 86.456C69.4581 86.456 69.2235 86.52 69.0208 86.648C68.8181 86.776 68.6608 86.9547 68.5488 87.184C68.4368 87.4133 68.3808 87.68 68.3808 87.984C68.3808 88.2933 68.4368 88.5627 68.5488 88.792C68.6608 89.016 68.8181 89.192 69.0208 89.32C69.2235 89.448 69.4581 89.512 69.7248 89.512ZM74.0126 90.096C73.6873 90.096 73.4153 90.04 73.1966 89.928C72.978 89.8107 72.8153 89.6587 72.7086 89.472C72.602 89.28 72.5486 89.072 72.5486 88.848C72.5486 88.576 72.618 88.3467 72.7566 88.16C72.9006 87.968 73.1006 87.824 73.3566 87.728C73.618 87.6267 73.9246 87.576 74.2766 87.576H75.3406C75.3406 87.3253 75.3006 87.1173 75.2206 86.952C75.146 86.7813 75.034 86.6533 74.8846 86.568C74.7406 86.4827 74.5593 86.44 74.3406 86.44C74.0846 86.44 73.8633 86.504 73.6766 86.632C73.49 86.76 73.3753 86.9493 73.3326 87.2H72.6446C72.6766 86.912 72.7726 86.672 72.9326 86.48C73.098 86.2827 73.306 86.1333 73.5566 86.032C73.8073 85.9253 74.0686 85.872 74.3406 85.872C74.714 85.872 75.0233 85.9413 75.2686 86.08C75.5193 86.2133 75.706 86.4027 75.8286 86.648C75.9513 86.888 76.0126 87.1733 76.0126 87.504V90H75.4126L75.3726 89.288C75.3193 89.4 75.25 89.5067 75.1646 89.608C75.0846 89.704 74.9886 89.7893 74.8766 89.864C74.7646 89.9333 74.6366 89.9893 74.4926 90.032C74.354 90.0747 74.194 90.096 74.0126 90.096ZM74.1166 89.528C74.3033 89.528 74.4713 89.4907 74.6206 89.416C74.7753 89.336 74.906 89.2293 75.0126 89.096C75.1193 88.9573 75.1993 88.8053 75.2526 88.64C75.3113 88.4747 75.3406 88.3013 75.3406 88.12V88.096H74.3326C74.0713 88.096 73.8606 88.128 73.7006 88.192C73.5406 88.2507 73.426 88.336 73.3566 88.448C73.2873 88.5547 73.2526 88.6773 73.2526 88.816C73.2526 88.96 73.2846 89.0853 73.3486 89.192C73.418 89.2987 73.5166 89.3813 73.6446 89.44C73.778 89.4987 73.9353 89.528 74.1166 89.528ZM77.0522 90V85.968H77.6602L77.6922 86.672C77.8202 86.4213 78.0015 86.2267 78.2362 86.088C78.4762 85.944 78.7482 85.872 79.0522 85.872C79.3669 85.872 79.6389 85.936 79.8682 86.064C80.0975 86.1867 80.2762 86.376 80.4042 86.632C80.5322 86.8827 80.5962 87.2027 80.5962 87.592V90H79.9242V87.664C79.9242 87.2587 79.8335 86.9547 79.6522 86.752C79.4762 86.5493 79.2255 86.448 78.9002 86.448C78.6762 86.448 78.4762 86.504 78.3002 86.616C78.1242 86.7227 77.9829 86.88 77.8762 87.088C77.7749 87.2907 77.7242 87.544 77.7242 87.848V90H77.0522ZM83.4139 90.096C83.0353 90.096 82.6993 90.008 82.4059 89.832C82.1179 89.656 81.8913 89.4107 81.7259 89.096C81.5606 88.776 81.4779 88.4053 81.4779 87.984C81.4779 87.5573 81.5579 87.1867 81.7179 86.872C81.8833 86.5573 82.1126 86.312 82.4059 86.136C82.7046 85.96 83.0459 85.872 83.4299 85.872C83.8246 85.872 84.1579 85.96 84.4299 86.136C84.7073 86.312 84.9179 86.544 85.0619 86.832C85.2113 87.1147 85.2859 87.4267 85.2859 87.768C85.2859 87.8213 85.2859 87.8773 85.2859 87.936C85.2859 87.9947 85.2833 88.0613 85.2779 88.136H81.9819V87.616H84.6299C84.6139 87.248 84.4913 86.96 84.2619 86.752C84.0379 86.544 83.7553 86.44 83.4139 86.44C83.1846 86.44 82.9713 86.4933 82.7739 86.6C82.5819 86.7013 82.4273 86.8533 82.3099 87.056C82.1926 87.2533 82.1339 87.5013 82.1339 87.8V88.024C82.1339 88.3547 82.1926 88.632 82.3099 88.856C82.4326 89.08 82.5899 89.248 82.7819 89.36C82.9793 89.472 83.1899 89.528 83.4139 89.528C83.6966 89.528 83.9286 89.4667 84.1099 89.344C84.2966 89.216 84.4299 89.0453 84.5099 88.832H85.1739C85.1099 89.072 84.9979 89.288 84.8379 89.48C84.6779 89.672 84.4779 89.824 84.2379 89.936C84.0033 90.0427 83.7286 90.096 83.4139 90.096ZM89.7818 90.096C89.4725 90.096 89.2005 90.0347 88.9658 89.912C88.7365 89.7893 88.5578 89.6 88.4298 89.344C88.3071 89.088 88.2458 88.768 88.2458 88.384V85.968H88.9178V88.312C88.9178 88.712 89.0058 89.0133 89.1818 89.216C89.3578 89.4187 89.6058 89.52 89.9258 89.52C90.1498 89.52 90.3525 89.4667 90.5338 89.36C90.7151 89.248 90.8565 89.0907 90.9578 88.888C91.0645 88.68 91.1178 88.4267 91.1178 88.128V85.968H91.7898V90H91.1818L91.1418 89.296C91.0191 89.5467 90.8378 89.744 90.5978 89.888C90.3578 90.0267 90.0858 90.096 89.7818 90.096ZM97.5088 90L95.5888 87.792L97.3408 85.968H98.1648L96.1568 88.032L96.1648 87.552L98.3648 90H97.5088ZM95.0288 90V84.24H95.7008V90H95.0288ZM99.06 90V84.24H99.732V90H99.06ZM102.305 90.096C101.996 90.096 101.724 90.0347 101.489 89.912C101.26 89.7893 101.081 89.6 100.953 89.344C100.831 89.088 100.769 88.768 100.769 88.384V85.968H101.441V88.312C101.441 88.712 101.529 89.0133 101.705 89.216C101.881 89.4187 102.129 89.52 102.449 89.52C102.673 89.52 102.876 89.4667 103.057 89.36C103.239 89.248 103.38 89.0907 103.481 88.888C103.588 88.68 103.641 88.4267 103.641 88.128V85.968H104.313V90H103.705L103.665 89.296C103.543 89.5467 103.361 89.744 103.121 89.888C102.881 90.0267 102.609 90.096 102.305 90.096ZM105.427 91.76V85.968H106.035L106.091 86.624C106.177 86.496 106.286 86.376 106.419 86.264C106.553 86.1467 106.713 86.0533 106.899 85.984C107.086 85.9093 107.299 85.872 107.539 85.872C107.934 85.872 108.275 85.9653 108.563 86.152C108.857 86.3387 109.083 86.592 109.243 86.912C109.409 87.2267 109.491 87.5867 109.491 87.992C109.491 88.3973 109.409 88.76 109.243 89.08C109.083 89.3947 108.857 89.6427 108.563 89.824C108.27 90.0053 107.926 90.096 107.531 90.096C107.206 90.096 106.918 90.0293 106.667 89.896C106.422 89.7627 106.233 89.576 106.099 89.336V91.76H105.427ZM107.459 89.512C107.721 89.512 107.953 89.448 108.155 89.32C108.358 89.192 108.515 89.016 108.627 88.792C108.745 88.5627 108.803 88.2933 108.803 87.984C108.803 87.68 108.745 87.4133 108.627 87.184C108.515 86.9547 108.358 86.776 108.155 86.648C107.953 86.52 107.721 86.456 107.459 86.456C107.193 86.456 106.958 86.52 106.755 86.648C106.553 86.776 106.395 86.9547 106.283 87.184C106.171 87.4133 106.115 87.68 106.115 87.984C106.115 88.2933 106.171 88.5627 106.283 88.792C106.395 89.016 106.553 89.192 106.755 89.32C106.958 89.448 107.193 89.512 107.459 89.512ZM110.499 90V85.968H111.171V90H110.499ZM110.835 85.112C110.702 85.112 110.59 85.0693 110.499 84.984C110.414 84.8933 110.371 84.7813 110.371 84.648C110.371 84.5147 110.414 84.408 110.499 84.328C110.59 84.2427 110.702 84.2 110.835 84.2C110.963 84.2 111.072 84.2427 111.163 84.328C111.254 84.408 111.299 84.5147 111.299 84.648C111.299 84.7813 111.254 84.8933 111.163 84.984C111.072 85.0693 110.963 85.112 110.835 85.112Z" fill="white"/>
<rect x="9" y="114" width="185" height="29" fill="#1D1D1D"/>
<line x1="9.52777" y1="143" x2="9.52777" y2="114" stroke="#C8F135"/>
<path d="M14.75 124V117H15.59V123.33H18.85V124H14.75ZM21.6134 124.12C21.2068 124.12 20.8668 124.05 20.5934 123.91C20.3201 123.763 20.1168 123.573 19.9834 123.34C19.8501 123.1 19.7834 122.84 19.7834 122.56C19.7834 122.22 19.8701 121.933 20.0434 121.7C20.2234 121.46 20.4734 121.28 20.7934 121.16C21.1201 121.033 21.5034 120.97 21.9434 120.97H23.2734C23.2734 120.657 23.2234 120.397 23.1234 120.19C23.0301 119.977 22.8901 119.817 22.7034 119.71C22.5234 119.603 22.2968 119.55 22.0234 119.55C21.7034 119.55 21.4268 119.63 21.1934 119.79C20.9601 119.95 20.8168 120.187 20.7634 120.5H19.9034C19.9434 120.14 20.0634 119.84 20.2634 119.6C20.4701 119.353 20.7301 119.167 21.0434 119.04C21.3568 118.907 21.6834 118.84 22.0234 118.84C22.4901 118.84 22.8768 118.927 23.1834 119.1C23.4968 119.267 23.7301 119.503 23.8834 119.81C24.0368 120.11 24.1134 120.467 24.1134 120.88V124H23.3634L23.3134 123.11C23.2468 123.25 23.1601 123.383 23.0534 123.51C22.9534 123.63 22.8334 123.737 22.6934 123.83C22.5534 123.917 22.3934 123.987 22.2134 124.04C22.0401 124.093 21.8401 124.12 21.6134 124.12ZM21.7434 123.41C21.9768 123.41 22.1868 123.363 22.3734 123.27C22.5668 123.17 22.7301 123.037 22.8634 122.87C22.9968 122.697 23.0968 122.507 23.1634 122.3C23.2368 122.093 23.2734 121.877 23.2734 121.65V121.62H22.0134C21.6868 121.62 21.4234 121.66 21.2234 121.74C21.0234 121.813 20.8801 121.92 20.7934 122.06C20.7068 122.193 20.6634 122.347 20.6634 122.52C20.6634 122.7 20.7034 122.857 20.7834 122.99C20.8701 123.123 20.9934 123.227 21.1534 123.3C21.3201 123.373 21.5168 123.41 21.7434 123.41ZM28.5129 124L26.1129 121.24L28.3029 118.96H29.3329L26.8229 121.54L26.8329 120.94L29.5829 124H28.5129ZM25.4129 124V116.8H26.2529V124H25.4129ZM32.432 124C32.132 124 31.872 123.953 31.652 123.86C31.432 123.767 31.262 123.61 31.142 123.39C31.0286 123.163 30.972 122.86 30.972 122.48V119.67H30.092V118.96H30.972L31.082 117.74H31.812V118.96H33.272V119.67H31.812V122.48C31.812 122.793 31.8753 123.007 32.002 123.12C32.1286 123.227 32.352 123.28 32.672 123.28H33.212V124H32.432ZM36.4813 124.12C36.0146 124.12 35.5946 124.013 35.2213 123.8C34.8479 123.58 34.5546 123.273 34.3413 122.88C34.1279 122.48 34.0213 122.017 34.0213 121.49C34.0213 120.95 34.1279 120.483 34.3413 120.09C34.5613 119.69 34.8579 119.383 35.2313 119.17C35.6113 118.95 36.0346 118.84 36.5013 118.84C36.9813 118.84 37.4046 118.95 37.7713 119.17C38.1446 119.383 38.4379 119.69 38.6513 120.09C38.8713 120.483 38.9813 120.947 38.9813 121.48C38.9813 122.013 38.8713 122.48 38.6513 122.88C38.4313 123.273 38.1346 123.58 37.7613 123.8C37.3879 124.013 36.9613 124.12 36.4813 124.12ZM36.4913 123.4C36.7779 123.4 37.0446 123.33 37.2913 123.19C37.5379 123.043 37.7379 122.827 37.8913 122.54C38.0446 122.253 38.1213 121.9 38.1213 121.48C38.1213 121.053 38.0446 120.7 37.8913 120.42C37.7446 120.133 37.5479 119.92 37.3013 119.78C37.0613 119.633 36.7946 119.56 36.5013 119.56C36.2213 119.56 35.9546 119.633 35.7013 119.78C35.4546 119.92 35.2546 120.133 35.1013 120.42C34.9546 120.7 34.8813 121.053 34.8813 121.48C34.8813 121.9 34.9546 122.253 35.1013 122.54C35.2546 122.827 35.4513 123.043 35.6913 123.19C35.9379 123.33 36.2046 123.4 36.4913 123.4ZM41.3551 124L39.4451 118.96H40.3251L41.8451 123.19L43.3751 118.96H44.2351L42.3251 124H41.3551ZM45.2585 124V118.96H46.0985V124H45.2585ZM45.6785 117.89C45.5118 117.89 45.3718 117.837 45.2585 117.73C45.1518 117.617 45.0985 117.477 45.0985 117.31C45.0985 117.143 45.1518 117.01 45.2585 116.91C45.3718 116.803 45.5118 116.75 45.6785 116.75C45.8385 116.75 45.9752 116.803 46.0885 116.91C46.2018 117.01 46.2585 117.143 46.2585 117.31C46.2585 117.477 46.2018 117.617 46.0885 117.73C45.9752 117.837 45.8385 117.89 45.6785 117.89Z" fill="#C8F135"/>
<path d="M15.104 138L17.288 132.976H14.216V132.4H17.976V132.904L15.816 138H15.104ZM20.5271 138.096C20.1431 138.096 19.8097 138.027 19.5271 137.888C19.2497 137.749 19.0284 137.56 18.8631 137.32C18.7031 137.08 18.6017 136.811 18.5591 136.512H19.2151C19.2791 136.811 19.4257 137.053 19.6551 137.24C19.8844 137.427 20.1777 137.52 20.5351 137.52C20.8017 137.52 21.0284 137.459 21.2151 137.336C21.4071 137.213 21.5537 137.045 21.6551 136.832C21.7617 136.619 21.8151 136.381 21.8151 136.12C21.8151 135.848 21.7617 135.608 21.6551 135.4C21.5484 135.192 21.4017 135.032 21.2151 134.92C21.0284 134.803 20.8097 134.744 20.5591 134.744C20.2551 134.744 19.9964 134.811 19.7831 134.944C19.5697 135.077 19.4097 135.248 19.3031 135.456H18.6551L19.1191 132.4H22.0791V132.984H19.6391L19.3271 134.704C19.4604 134.549 19.6364 134.424 19.8551 134.328C20.0791 134.227 20.3377 134.176 20.6311 134.176C20.9084 134.176 21.1591 134.224 21.3831 134.32C21.6071 134.416 21.7991 134.552 21.9591 134.728C22.1191 134.904 22.2417 135.109 22.3271 135.344C22.4177 135.579 22.4631 135.835 22.4631 136.112C22.4631 136.384 22.4177 136.64 22.3271 136.88C22.2417 137.115 22.1164 137.325 21.9511 137.512C21.7857 137.693 21.5831 137.837 21.3431 137.944C21.1031 138.045 20.8311 138.096 20.5271 138.096ZM27.1269 138.096C26.7909 138.096 26.4975 138.04 26.2469 137.928C26.0015 137.816 25.8042 137.661 25.6549 137.464C25.5109 137.261 25.4229 137.024 25.3909 136.752H26.0789C26.1055 136.891 26.1615 137.019 26.2469 137.136C26.3322 137.253 26.4469 137.349 26.5909 137.424C26.7402 137.493 26.9215 137.528 27.1349 137.528C27.3215 137.528 27.4762 137.501 27.5989 137.448C27.7215 137.389 27.8122 137.312 27.8709 137.216C27.9349 137.12 27.9669 137.016 27.9669 136.904C27.9669 136.739 27.9269 136.613 27.8469 136.528C27.7722 136.443 27.6602 136.376 27.5109 136.328C27.3615 136.275 27.1802 136.229 26.9669 136.192C26.7909 136.16 26.6175 136.117 26.4469 136.064C26.2762 136.011 26.1242 135.941 25.9909 135.856C25.8575 135.765 25.7509 135.656 25.6709 135.528C25.5962 135.4 25.5589 135.243 25.5589 135.056C25.5589 134.827 25.6175 134.624 25.7349 134.448C25.8522 134.267 26.0202 134.125 26.2389 134.024C26.4629 133.923 26.7215 133.872 27.0149 133.872C27.4469 133.872 27.7962 133.976 28.0629 134.184C28.3295 134.392 28.4869 134.693 28.5349 135.088H27.8709C27.8442 134.885 27.7562 134.728 27.6069 134.616C27.4629 134.499 27.2629 134.44 27.0069 134.44C26.7562 134.44 26.5642 134.491 26.4309 134.592C26.3029 134.693 26.2389 134.827 26.2389 134.992C26.2389 135.099 26.2735 135.195 26.3429 135.28C26.4175 135.36 26.5242 135.429 26.6629 135.488C26.8069 135.547 26.9829 135.595 27.1909 135.632C27.4575 135.68 27.7002 135.744 27.9189 135.824C28.1375 135.904 28.3135 136.024 28.4469 136.184C28.5855 136.339 28.6549 136.56 28.6549 136.848C28.6549 137.099 28.5909 137.317 28.4629 137.504C28.3402 137.691 28.1642 137.837 27.9349 137.944C27.7055 138.045 27.4362 138.096 27.1269 138.096ZM31.0268 138C30.7868 138 30.5788 137.963 30.4028 137.888C30.2268 137.813 30.0908 137.688 29.9948 137.512C29.9041 137.331 29.8588 137.088 29.8588 136.784V134.536H29.1548V133.968H29.8588L29.9468 132.992H30.5308V133.968H31.6988V134.536H30.5308V136.784C30.5308 137.035 30.5815 137.205 30.6828 137.296C30.7841 137.381 30.9628 137.424 31.2188 137.424H31.6508V138H31.0268ZM34.2343 138.096C33.8556 138.096 33.5196 138.008 33.2263 137.832C32.9383 137.656 32.7116 137.411 32.5463 137.096C32.3809 136.776 32.2983 136.405 32.2983 135.984C32.2983 135.557 32.3783 135.187 32.5383 134.872C32.7036 134.557 32.9329 134.312 33.2263 134.136C33.5249 133.96 33.8663 133.872 34.2503 133.872C34.6449 133.872 34.9783 133.96 35.2503 134.136C35.5276 134.312 35.7383 134.544 35.8823 134.832C36.0316 135.115 36.1063 135.427 36.1063 135.768C36.1063 135.821 36.1063 135.877 36.1063 135.936C36.1063 135.995 36.1036 136.061 36.0983 136.136H32.8023V135.616H35.4503C35.4343 135.248 35.3116 134.96 35.0823 134.752C34.8583 134.544 34.5756 134.44 34.2343 134.44C34.0049 134.44 33.7916 134.493 33.5943 134.6C33.4023 134.701 33.2476 134.853 33.1303 135.056C33.0129 135.253 32.9543 135.501 32.9543 135.8V136.024C32.9543 136.355 33.0129 136.632 33.1303 136.856C33.2529 137.08 33.4103 137.248 33.6023 137.36C33.7996 137.472 34.0103 137.528 34.2343 137.528C34.5169 137.528 34.7489 137.467 34.9303 137.344C35.1169 137.216 35.2503 137.045 35.3303 136.832H35.9943C35.9303 137.072 35.8183 137.288 35.6583 137.48C35.4983 137.672 35.2983 137.824 35.0583 137.936C34.8236 138.043 34.5489 138.096 34.2343 138.096ZM37.0131 139.76V133.968H37.6211L37.6771 134.624C37.7625 134.496 37.8718 134.376 38.0051 134.264C38.1385 134.147 38.2985 134.053 38.4851 133.984C38.6718 133.909 38.8851 133.872 39.1251 133.872C39.5198 133.872 39.8611 133.965 40.1491 134.152C40.4425 134.339 40.6691 134.592 40.8291 134.912C40.9945 135.227 41.0771 135.587 41.0771 135.992C41.0771 136.397 40.9945 136.76 40.8291 137.08C40.6691 137.395 40.4425 137.643 40.1491 137.824C39.8558 138.005 39.5118 138.096 39.1171 138.096C38.7918 138.096 38.5038 138.029 38.2531 137.896C38.0078 137.763 37.8185 137.576 37.6851 137.336V139.76H37.0131ZM39.0451 137.512C39.3065 137.512 39.5385 137.448 39.7411 137.32C39.9438 137.192 40.1011 137.016 40.2131 136.792C40.3305 136.563 40.3891 136.293 40.3891 135.984C40.3891 135.68 40.3305 135.413 40.2131 135.184C40.1011 134.955 39.9438 134.776 39.7411 134.648C39.5385 134.52 39.3065 134.456 39.0451 134.456C38.7785 134.456 38.5438 134.52 38.3411 134.648C38.1385 134.776 37.9811 134.955 37.8691 135.184C37.7571 135.413 37.7011 135.68 37.7011 135.984C37.7011 136.293 37.7571 136.563 37.8691 136.792C37.9811 137.016 38.1385 137.192 38.3411 137.32C38.5438 137.448 38.7785 137.512 39.0451 137.512ZM43.7889 138.096C43.4103 138.096 43.0743 138.008 42.7809 137.832C42.4929 137.656 42.2663 137.411 42.1009 137.096C41.9356 136.776 41.8529 136.405 41.8529 135.984C41.8529 135.557 41.9329 135.187 42.0929 134.872C42.2583 134.557 42.4876 134.312 42.7809 134.136C43.0796 133.96 43.4209 133.872 43.8049 133.872C44.1996 133.872 44.5329 133.96 44.8049 134.136C45.0823 134.312 45.2929 134.544 45.4369 134.832C45.5863 135.115 45.6609 135.427 45.6609 135.768C45.6609 135.821 45.6609 135.877 45.6609 135.936C45.6609 135.995 45.6583 136.061 45.6529 136.136H42.3569V135.616H45.0049C44.9889 135.248 44.8663 134.96 44.6369 134.752C44.4129 134.544 44.1303 134.44 43.7889 134.44C43.5596 134.44 43.3463 134.493 43.1489 134.6C42.9569 134.701 42.8023 134.853 42.6849 135.056C42.5676 135.253 42.5089 135.501 42.5089 135.8V136.024C42.5089 136.355 42.5676 136.632 42.6849 136.856C42.8076 137.08 42.9649 137.248 43.1569 137.36C43.3543 137.472 43.5649 137.528 43.7889 137.528C44.0716 137.528 44.3036 137.467 44.4849 137.344C44.6716 137.216 44.8049 137.045 44.8849 136.832H45.5489C45.4849 137.072 45.3729 137.288 45.2129 137.48C45.0529 137.672 44.8529 137.824 44.6129 137.936C44.3783 138.043 44.1036 138.096 43.7889 138.096ZM46.5678 138V133.968H47.1758L47.2078 134.672C47.3358 134.421 47.5171 134.227 47.7518 134.088C47.9918 133.944 48.2638 133.872 48.5678 133.872C48.8825 133.872 49.1545 133.936 49.3838 134.064C49.6131 134.187 49.7918 134.376 49.9198 134.632C50.0478 134.883 50.1118 135.203 50.1118 135.592V138H49.4398V135.664C49.4398 135.259 49.3491 134.955 49.1678 134.752C48.9918 134.549 48.7411 134.448 48.4158 134.448C48.1918 134.448 47.9918 134.504 47.8158 134.616C47.6398 134.723 47.4985 134.88 47.3918 135.088C47.2905 135.291 47.2398 135.544 47.2398 135.848V138H46.5678ZM51.2256 138V133.968H51.8976V138H51.2256ZM51.5616 133.112C51.4282 133.112 51.3162 133.069 51.2256 132.984C51.1402 132.893 51.0976 132.781 51.0976 132.648C51.0976 132.515 51.1402 132.408 51.2256 132.328C51.3162 132.243 51.4282 132.2 51.5616 132.2C51.6896 132.2 51.7989 132.243 51.8896 132.328C51.9802 132.408 52.0256 132.515 52.0256 132.648C52.0256 132.781 51.9802 132.893 51.8896 132.984C51.7989 133.069 51.6896 133.112 51.5616 133.112ZM52.5554 138.984L53.0194 137.216H53.7154L53.0194 138.984H52.5554ZM56.6616 138V133.968H57.2696L57.3016 134.672C57.4296 134.421 57.6109 134.227 57.8456 134.088C58.0856 133.944 58.3576 133.872 58.6616 133.872C58.9762 133.872 59.2482 133.936 59.4776 134.064C59.7069 134.187 59.8856 134.376 60.0136 134.632C60.1416 134.883 60.2056 135.203 60.2056 135.592V138H59.5336V135.664C59.5336 135.259 59.4429 134.955 59.2616 134.752C59.0856 134.549 58.8349 134.448 58.5096 134.448C58.2856 134.448 58.0856 134.504 57.9096 134.616C57.7336 134.723 57.5922 134.88 57.4856 135.088C57.3842 135.291 57.3336 135.544 57.3336 135.848V138H56.6616ZM63.0233 138.096C62.6446 138.096 62.3086 138.008 62.0153 137.832C61.7273 137.656 61.5006 137.411 61.3353 137.096C61.17 136.776 61.0873 136.405 61.0873 135.984C61.0873 135.557 61.1673 135.187 61.3273 134.872C61.4926 134.557 61.722 134.312 62.0153 134.136C62.314 133.96 62.6553 133.872 63.0393 133.872C63.434 133.872 63.7673 133.96 64.0393 134.136C64.3166 134.312 64.5273 134.544 64.6713 134.832C64.8206 135.115 64.8953 135.427 64.8953 135.768C64.8953 135.821 64.8953 135.877 64.8953 135.936C64.8953 135.995 64.8926 136.061 64.8873 136.136H61.5913V135.616H64.2393C64.2233 135.248 64.1006 134.96 63.8713 134.752C63.6473 134.544 63.3646 134.44 63.0233 134.44C62.794 134.44 62.5806 134.493 62.3833 134.6C62.1913 134.701 62.0366 134.853 61.9193 135.056C61.802 135.253 61.7433 135.501 61.7433 135.8V136.024C61.7433 136.355 61.802 136.632 61.9193 136.856C62.042 137.08 62.1993 137.248 62.3913 137.36C62.5886 137.472 62.7993 137.528 63.0233 137.528C63.306 137.528 63.538 137.467 63.7193 137.344C63.906 137.216 64.0393 137.045 64.1193 136.832H64.7833C64.7193 137.072 64.6073 137.288 64.4473 137.48C64.2873 137.672 64.0873 137.824 63.8473 137.936C63.6126 138.043 63.338 138.096 63.0233 138.096ZM69.3912 138.096C69.0819 138.096 68.8099 138.035 68.5752 137.912C68.3459 137.789 68.1672 137.6 68.0392 137.344C67.9165 137.088 67.8552 136.768 67.8552 136.384V133.968H68.5272V136.312C68.5272 136.712 68.6152 137.013 68.7912 137.216C68.9672 137.419 69.2152 137.52 69.5352 137.52C69.7592 137.52 69.9619 137.467 70.1432 137.36C70.3245 137.248 70.4659 137.091 70.5672 136.888C70.6739 136.68 70.7272 136.427 70.7272 136.128V133.968H71.3992V138H70.7912L70.7512 137.296C70.6285 137.547 70.4472 137.744 70.2072 137.888C69.9672 138.027 69.6952 138.096 69.3912 138.096ZM72.2411 138V137.448L74.4731 134.528H72.2811V133.968H75.2411V134.52L73.0011 137.44H75.2811V138H72.2411ZM79.8862 138C79.6462 138 79.4382 137.963 79.2622 137.888C79.0862 137.813 78.9502 137.688 78.8542 137.512C78.7635 137.331 78.7182 137.088 78.7182 136.784V134.536H78.0142V133.968H78.7182L78.8062 132.992H79.3902V133.968H80.5582V134.536H79.3902V136.784C79.3902 137.035 79.4409 137.205 79.5422 137.296C79.6435 137.381 79.8222 137.424 80.0782 137.424H80.5102V138H79.8862ZM83.0936 138.096C82.715 138.096 82.379 138.008 82.0856 137.832C81.7976 137.656 81.571 137.411 81.4056 137.096C81.2403 136.776 81.1576 136.405 81.1576 135.984C81.1576 135.557 81.2376 135.187 81.3976 134.872C81.563 134.557 81.7923 134.312 82.0856 134.136C82.3843 133.96 82.7256 133.872 83.1096 133.872C83.5043 133.872 83.8376 133.96 84.1096 134.136C84.387 134.312 84.5976 134.544 84.7416 134.832C84.891 135.115 84.9656 135.427 84.9656 135.768C84.9656 135.821 84.9656 135.877 84.9656 135.936C84.9656 135.995 84.963 136.061 84.9576 136.136H81.6616V135.616H84.3096C84.2936 135.248 84.171 134.96 83.9416 134.752C83.7176 134.544 83.435 134.44 83.0936 134.44C82.8643 134.44 82.651 134.493 82.4536 134.6C82.2616 134.701 82.107 134.853 81.9896 135.056C81.8723 135.253 81.8136 135.501 81.8136 135.8V136.024C81.8136 136.355 81.8723 136.632 81.9896 136.856C82.1123 137.08 82.2696 137.248 82.4616 137.36C82.659 137.472 82.8696 137.528 83.0936 137.528C83.3763 137.528 83.6083 137.467 83.7896 137.344C83.9763 137.216 84.1096 137.045 84.1896 136.832H84.8536C84.7896 137.072 84.6776 137.288 84.5176 137.48C84.3576 137.672 84.1576 137.824 83.9176 137.936C83.683 138.043 83.4083 138.096 83.0936 138.096ZM85.8725 138V132.24H86.5445V138H85.8725ZM89.4538 138.096C89.0804 138.096 88.7444 138.011 88.4458 137.84C88.1471 137.664 87.9124 137.419 87.7418 137.104C87.5711 136.784 87.4858 136.413 87.4858 135.992C87.4858 135.56 87.5711 135.187 87.7418 134.872C87.9178 134.552 88.1551 134.307 88.4538 134.136C88.7578 133.96 89.0964 133.872 89.4698 133.872C89.8538 133.872 90.1924 133.96 90.4858 134.136C90.7844 134.307 91.0191 134.552 91.1898 134.872C91.3658 135.187 91.4538 135.557 91.4538 135.984C91.4538 136.411 91.3658 136.784 91.1898 137.104C91.0138 137.419 90.7764 137.664 90.4778 137.84C90.1791 138.011 89.8378 138.096 89.4538 138.096ZM89.4618 137.52C89.6911 137.52 89.9044 137.464 90.1018 137.352C90.2991 137.235 90.4591 137.061 90.5818 136.832C90.7044 136.603 90.7658 136.32 90.7658 135.984C90.7658 135.643 90.7044 135.36 90.5818 135.136C90.4644 134.907 90.3071 134.736 90.1098 134.624C89.9178 134.507 89.7044 134.448 89.4698 134.448C89.2458 134.448 89.0324 134.507 88.8298 134.624C88.6324 134.736 88.4724 134.907 88.3498 135.136C88.2324 135.36 88.1738 135.643 88.1738 135.984C88.1738 136.32 88.2324 136.603 88.3498 136.832C88.4724 137.061 88.6298 137.235 88.8218 137.352C89.0191 137.464 89.2324 137.52 89.4618 137.52Z" fill="white"/>
<rect x="10" y="162" width="185" height="29" fill="#1D1D1D"/>
<line x1="10.5278" y1="191" x2="10.5278" y2="162" stroke="#C8F135"/>
<path d="M15.75 172V165H18.03C18.5833 165 19.0367 165.093 19.39 165.28C19.75 165.46 20.0133 165.703 20.18 166.01C20.3533 166.317 20.44 166.667 20.44 167.06C20.44 167.44 20.3533 167.787 20.18 168.1C20.0133 168.407 19.7533 168.653 19.4 168.84C19.0467 169.027 18.59 169.12 18.03 169.12H16.59V172H15.75ZM16.59 168.41H18.02C18.58 168.41 18.98 168.287 19.22 168.04C19.46 167.793 19.58 167.467 19.58 167.06C19.58 166.627 19.46 166.293 19.22 166.06C18.98 165.82 18.58 165.7 18.02 165.7H16.59V168.41ZM23.4578 172.12C22.9911 172.12 22.5711 172.013 22.1978 171.8C21.8245 171.58 21.5311 171.273 21.3178 170.88C21.1045 170.48 20.9978 170.017 20.9978 169.49C20.9978 168.95 21.1045 168.483 21.3178 168.09C21.5378 167.69 21.8345 167.383 22.2078 167.17C22.5878 166.95 23.0111 166.84 23.4778 166.84C23.9578 166.84 24.3811 166.95 24.7478 167.17C25.1211 167.383 25.4145 167.69 25.6278 168.09C25.8478 168.483 25.9578 168.947 25.9578 169.48C25.9578 170.013 25.8478 170.48 25.6278 170.88C25.4078 171.273 25.1111 171.58 24.7378 171.8C24.3645 172.013 23.9378 172.12 23.4578 172.12ZM23.4678 171.4C23.7545 171.4 24.0211 171.33 24.2678 171.19C24.5145 171.043 24.7145 170.827 24.8678 170.54C25.0211 170.253 25.0978 169.9 25.0978 169.48C25.0978 169.053 25.0211 168.7 24.8678 168.42C24.7211 168.133 24.5245 167.92 24.2778 167.78C24.0378 167.633 23.7711 167.56 23.4778 167.56C23.1978 167.56 22.9311 167.633 22.6778 167.78C22.4311 167.92 22.2311 168.133 22.0778 168.42C21.9311 168.7 21.8578 169.053 21.8578 169.48C21.8578 169.9 21.9311 170.253 22.0778 170.54C22.2311 170.827 22.4278 171.043 22.6678 171.19C22.9145 171.33 23.1811 171.4 23.4678 171.4ZM30.2355 172L27.8355 169.24L30.0255 166.96H31.0555L28.5455 169.54L28.5555 168.94L31.3055 172H30.2355ZM27.1355 172V164.8H27.9755V172H27.1355ZM32.1746 172V166.96H32.9346L32.9946 167.92C33.1079 167.693 33.2513 167.5 33.4246 167.34C33.6046 167.18 33.8179 167.057 34.0646 166.97C34.3179 166.883 34.6046 166.84 34.9246 166.84V167.72H34.6146C34.4013 167.72 34.1979 167.75 34.0046 167.81C33.8113 167.863 33.6379 167.953 33.4846 168.08C33.3379 168.207 33.2213 168.38 33.1346 168.6C33.0546 168.813 33.0146 169.08 33.0146 169.4V172H32.1746ZM37.9002 172.12C37.4269 172.12 37.0069 172.01 36.6402 171.79C36.2802 171.57 35.9969 171.263 35.7902 170.87C35.5836 170.47 35.4802 170.007 35.4802 169.48C35.4802 168.947 35.5802 168.483 35.7802 168.09C35.9869 167.697 36.2736 167.39 36.6402 167.17C37.0136 166.95 37.4402 166.84 37.9202 166.84C38.4136 166.84 38.8302 166.95 39.1702 167.17C39.5169 167.39 39.7802 167.68 39.9602 168.04C40.1469 168.393 40.2402 168.783 40.2402 169.21C40.2402 169.277 40.2402 169.347 40.2402 169.42C40.2402 169.493 40.2369 169.577 40.2302 169.67H36.1102V169.02H39.4202C39.4002 168.56 39.2469 168.2 38.9602 167.94C38.6802 167.68 38.3269 167.55 37.9002 167.55C37.6136 167.55 37.3469 167.617 37.1002 167.75C36.8602 167.877 36.6669 168.067 36.5202 168.32C36.3736 168.567 36.3002 168.877 36.3002 169.25V169.53C36.3002 169.943 36.3736 170.29 36.5202 170.57C36.6736 170.85 36.8702 171.06 37.1102 171.2C37.3569 171.34 37.6202 171.41 37.9002 171.41C38.2536 171.41 38.5436 171.333 38.7702 171.18C39.0036 171.02 39.1702 170.807 39.2702 170.54H40.1002C40.0202 170.84 39.8802 171.11 39.6802 171.35C39.4802 171.59 39.2302 171.78 38.9302 171.92C38.6369 172.053 38.2936 172.12 37.9002 172.12ZM43.1878 172C42.8878 172 42.6278 171.953 42.4078 171.86C42.1878 171.767 42.0178 171.61 41.8978 171.39C41.7845 171.163 41.7278 170.86 41.7278 170.48V167.67H40.8478V166.96H41.7278L41.8378 165.74H42.5678V166.96H44.0278V167.67H42.5678V170.48C42.5678 170.793 42.6311 171.007 42.7578 171.12C42.8845 171.227 43.1078 171.28 43.4278 171.28H43.9678V172H43.1878Z" fill="#C8F135"/>
<path d="M17.384 186.096C16.9733 186.096 16.616 186.021 16.312 185.872C16.008 185.723 15.7733 185.515 15.608 185.248C15.4427 184.981 15.36 184.672 15.36 184.32H16.064C16.064 184.539 16.1147 184.741 16.216 184.928C16.3173 185.109 16.464 185.256 16.656 185.368C16.8533 185.475 17.096 185.528 17.384 185.528C17.6347 185.528 17.848 185.488 18.024 185.408C18.2053 185.323 18.3413 185.208 18.432 185.064C18.528 184.92 18.576 184.757 18.576 184.576C18.576 184.357 18.528 184.181 18.432 184.048C18.3413 183.909 18.216 183.797 18.056 183.712C17.896 183.627 17.7093 183.552 17.496 183.488C17.288 183.419 17.0693 183.347 16.84 183.272C16.3973 183.123 16.072 182.936 15.864 182.712C15.656 182.488 15.552 182.197 15.552 181.84C15.552 181.536 15.6213 181.269 15.76 181.04C15.904 180.811 16.1067 180.632 16.368 180.504C16.6347 180.371 16.9493 180.304 17.312 180.304C17.6693 180.304 17.9787 180.371 18.24 180.504C18.5067 180.637 18.7147 180.821 18.864 181.056C19.0133 181.285 19.088 181.552 19.088 181.856H18.384C18.384 181.701 18.344 181.549 18.264 181.4C18.184 181.251 18.0613 181.128 17.896 181.032C17.736 180.931 17.5333 180.88 17.288 180.88C17.0853 180.875 16.904 180.909 16.744 180.984C16.5893 181.053 16.4667 181.155 16.376 181.288C16.2907 181.421 16.248 181.584 16.248 181.776C16.248 181.957 16.2853 182.104 16.36 182.216C16.44 182.328 16.552 182.424 16.696 182.504C16.8453 182.579 17.0187 182.648 17.216 182.712C17.4133 182.776 17.632 182.848 17.872 182.928C18.144 183.019 18.384 183.131 18.592 183.264C18.8053 183.392 18.9707 183.557 19.088 183.76C19.2107 183.963 19.272 184.221 19.272 184.536C19.272 184.803 19.2 185.056 19.056 185.296C18.9173 185.531 18.7093 185.723 18.432 185.872C18.1547 186.021 17.8053 186.096 17.384 186.096ZM17.304 179.968L16.208 179.312V178.792L17.304 179.464L18.4 178.792V179.312L17.304 179.968ZM20.2646 186V181.968H20.9366V186H20.2646ZM20.6006 181.112C20.4673 181.112 20.3553 181.069 20.2646 180.984C20.1793 180.893 20.1366 180.781 20.1366 180.648C20.1366 180.515 20.1793 180.408 20.2646 180.328C20.3553 180.243 20.4673 180.2 20.6006 180.2C20.7286 180.2 20.838 180.243 20.9286 180.328C21.0193 180.408 21.0646 180.515 21.0646 180.648C21.0646 180.781 21.0193 180.893 20.9286 180.984C20.838 181.069 20.7286 181.112 20.6006 181.112ZM22.1225 187.76V181.968H22.7305L22.7865 182.624C22.8718 182.496 22.9812 182.376 23.1145 182.264C23.2478 182.147 23.4078 182.053 23.5945 181.984C23.7812 181.909 23.9945 181.872 24.2345 181.872C24.6292 181.872 24.9705 181.965 25.2585 182.152C25.5518 182.339 25.7785 182.592 25.9385 182.912C26.1038 183.227 26.1865 183.587 26.1865 183.992C26.1865 184.397 26.1038 184.76 25.9385 185.08C25.7785 185.395 25.5518 185.643 25.2585 185.824C24.9652 186.005 24.6212 186.096 24.2265 186.096C23.9012 186.096 23.6132 186.029 23.3625 185.896C23.1172 185.763 22.9278 185.576 22.7945 185.336V187.76H22.1225ZM24.1545 185.512C24.4158 185.512 24.6478 185.448 24.8505 185.32C25.0532 185.192 25.2105 185.016 25.3225 184.792C25.4398 184.563 25.4985 184.293 25.4985 183.984C25.4985 183.68 25.4398 183.413 25.3225 183.184C25.2105 182.955 25.0532 182.776 24.8505 182.648C24.6478 182.52 24.4158 182.456 24.1545 182.456C23.8878 182.456 23.6532 182.52 23.4505 182.648C23.2478 182.776 23.0905 182.955 22.9785 183.184C22.8665 183.413 22.8105 183.68 22.8105 183.984C22.8105 184.293 22.8665 184.563 22.9785 184.792C23.0905 185.016 23.2478 185.192 23.4505 185.32C23.6532 185.448 23.8878 185.512 24.1545 185.512ZM29.6103 186L27.6903 183.792L29.4423 181.968H30.2663L28.2583 184.032L28.2663 183.552L30.4663 186H29.6103ZM27.1303 186V180.24H27.8023V186H27.1303ZM32.4423 186.096C32.117 186.096 31.845 186.04 31.6263 185.928C31.4076 185.811 31.245 185.659 31.1383 185.472C31.0316 185.28 30.9783 185.072 30.9783 184.848C30.9783 184.576 31.0476 184.347 31.1863 184.16C31.3303 183.968 31.5303 183.824 31.7863 183.728C32.0476 183.627 32.3543 183.576 32.7063 183.576H33.7703C33.7703 183.325 33.7303 183.117 33.6503 182.952C33.5756 182.781 33.4636 182.653 33.3143 182.568C33.1703 182.483 32.989 182.44 32.7703 182.44C32.5143 182.44 32.293 182.504 32.1063 182.632C31.9196 182.76 31.805 182.949 31.7623 183.2H31.0743C31.1063 182.912 31.2023 182.672 31.3623 182.48C31.5276 182.283 31.7356 182.133 31.9863 182.032C32.237 181.925 32.4983 181.872 32.7703 181.872C33.1436 181.872 33.453 181.941 33.6983 182.08C33.949 182.213 34.1356 182.403 34.2583 182.648C34.381 182.888 34.4423 183.173 34.4423 183.504V186H33.8423L33.8023 185.288C33.749 185.4 33.6796 185.507 33.5943 185.608C33.5143 185.704 33.4183 185.789 33.3063 185.864C33.1943 185.933 33.0663 185.989 32.9223 186.032C32.7836 186.075 32.6236 186.096 32.4423 186.096ZM32.5463 185.528C32.733 185.528 32.901 185.491 33.0503 185.416C33.205 185.336 33.3356 185.229 33.4423 185.096C33.549 184.957 33.629 184.805 33.6823 184.64C33.741 184.475 33.7703 184.301 33.7703 184.12V184.096H32.7623C32.501 184.096 32.2903 184.128 32.1303 184.192C31.9703 184.251 31.8556 184.336 31.7863 184.448C31.717 184.555 31.6823 184.677 31.6823 184.816C31.6823 184.96 31.7143 185.085 31.7783 185.192C31.8476 185.299 31.9463 185.381 32.0743 185.44C32.2076 185.499 32.365 185.528 32.5463 185.528ZM39.1909 186C38.9509 186 38.7429 185.963 38.5669 185.888C38.3909 185.813 38.2549 185.688 38.1589 185.512C38.0682 185.331 38.0229 185.088 38.0229 184.784V182.536H37.3189V181.968H38.0229L38.1109 180.992H38.6949V181.968H39.8629V182.536H38.6949V184.784C38.6949 185.035 38.7455 185.205 38.8469 185.296C38.9482 185.381 39.1269 185.424 39.3829 185.424H39.8149V186H39.1909ZM40.7397 186V181.968H41.3477L41.3957 182.736C41.4864 182.555 41.601 182.4 41.7397 182.272C41.8837 182.144 42.0544 182.045 42.2517 181.976C42.4544 181.907 42.6837 181.872 42.9397 181.872V182.576H42.6917C42.521 182.576 42.3584 182.6 42.2037 182.648C42.049 182.691 41.9104 182.763 41.7877 182.864C41.6704 182.965 41.577 183.104 41.5077 183.28C41.4437 183.451 41.4117 183.664 41.4117 183.92V186H40.7397ZM45.3202 186.096C44.9415 186.096 44.6055 186.008 44.3122 185.832C44.0242 185.656 43.7975 185.411 43.6322 185.096C43.4669 184.776 43.3842 184.405 43.3842 183.984C43.3842 183.557 43.4642 183.187 43.6242 182.872C43.7895 182.557 44.0189 182.312 44.3122 182.136C44.6109 181.96 44.9522 181.872 45.3362 181.872C45.7309 181.872 46.0642 181.96 46.3362 182.136C46.6135 182.312 46.8242 182.544 46.9682 182.832C47.1175 183.115 47.1922 183.427 47.1922 183.768C47.1922 183.821 47.1922 183.877 47.1922 183.936C47.1922 183.995 47.1895 184.061 47.1842 184.136H43.8882V183.616H46.5362C46.5202 183.248 46.3975 182.96 46.1682 182.752C45.9442 182.544 45.6615 182.44 45.3202 182.44C45.0909 182.44 44.8775 182.493 44.6802 182.6C44.4882 182.701 44.3335 182.853 44.2162 183.056C44.0989 183.253 44.0402 183.501 44.0402 183.8V184.024C44.0402 184.355 44.0989 184.632 44.2162 184.856C44.3389 185.08 44.4962 185.248 44.6882 185.36C44.8855 185.472 45.0962 185.528 45.3202 185.528C45.6029 185.528 45.8349 185.467 46.0162 185.344C46.2029 185.216 46.3362 185.045 46.4162 184.832H47.0802C47.0162 185.072 46.9042 185.288 46.7442 185.48C46.5842 185.672 46.3842 185.824 46.1442 185.936C45.9095 186.043 45.6349 186.096 45.3202 186.096ZM50.2111 186.096C49.9817 186.096 49.7737 186.064 49.5871 186C49.4057 185.931 49.2457 185.84 49.1071 185.728C48.9684 185.616 48.8537 185.485 48.7631 185.336L48.7071 186H48.0991V180.24H48.7711V182.632C48.8991 182.424 49.0831 182.245 49.3231 182.096C49.5631 181.947 49.8591 181.872 50.2111 181.872C50.6004 181.872 50.9417 181.965 51.2351 182.152C51.5284 182.333 51.7551 182.584 51.9151 182.904C52.0804 183.219 52.1631 183.579 52.1631 183.984C52.1631 184.389 52.0804 184.752 51.9151 185.072C51.7551 185.392 51.5284 185.643 51.2351 185.824C50.9417 186.005 50.6004 186.096 50.2111 186.096ZM50.1311 185.512C50.3924 185.512 50.6244 185.448 50.8271 185.32C51.0297 185.192 51.1871 185.016 51.2991 184.792C51.4164 184.563 51.4751 184.293 51.4751 183.984C51.4751 183.68 51.4164 183.413 51.2991 183.184C51.1871 182.955 51.0297 182.776 50.8271 182.648C50.6244 182.52 50.3924 182.456 50.1311 182.456C49.8644 182.456 49.6297 182.52 49.4271 182.648C49.2244 182.776 49.0671 182.955 48.9551 183.184C48.8431 183.413 48.7871 183.68 48.7871 183.984C48.7871 184.293 48.8431 184.563 48.9551 184.792C49.0671 185.016 49.2244 185.192 49.4271 185.32C49.6297 185.448 49.8644 185.512 50.1311 185.512ZM54.4189 186.096C54.0935 186.096 53.8215 186.04 53.6029 185.928C53.3842 185.811 53.2215 185.659 53.1149 185.472C53.0082 185.28 52.9549 185.072 52.9549 184.848C52.9549 184.576 53.0242 184.347 53.1629 184.16C53.3069 183.968 53.5069 183.824 53.7629 183.728C54.0242 183.627 54.3309 183.576 54.6829 183.576H55.7469C55.7469 183.325 55.7069 183.117 55.6269 182.952C55.5522 182.781 55.4402 182.653 55.2909 182.568C55.1469 182.483 54.9655 182.44 54.7469 182.44C54.4909 182.44 54.2695 182.504 54.0829 182.632C53.8962 182.76 53.7815 182.949 53.7389 183.2H53.0509C53.0829 182.912 53.1789 182.672 53.3389 182.48C53.5042 182.283 53.7122 182.133 53.9629 182.032C54.2135 181.925 54.4749 181.872 54.7469 181.872C55.1202 181.872 55.4295 181.941 55.6749 182.08C55.9255 182.213 56.1122 182.403 56.2349 182.648C56.3575 182.888 56.4189 183.173 56.4189 183.504V186H55.8189L55.7789 185.288C55.7255 185.4 55.6562 185.507 55.5709 185.608C55.4909 185.704 55.3949 185.789 55.2829 185.864C55.1709 185.933 55.0429 185.989 54.8989 186.032C54.7602 186.075 54.6002 186.096 54.4189 186.096ZM54.5229 185.528C54.7095 185.528 54.8775 185.491 55.0269 185.416C55.1815 185.336 55.3122 185.229 55.4189 185.096C55.5255 184.957 55.6055 184.805 55.6589 184.64C55.7175 184.475 55.7469 184.301 55.7469 184.12V184.096H54.7389C54.4775 184.096 54.2669 184.128 54.1069 184.192C53.9469 184.251 53.8322 184.336 53.7629 184.448C53.6935 184.555 53.6589 184.677 53.6589 184.816C53.6589 184.96 53.6909 185.085 53.7549 185.192C53.8242 185.299 53.9229 185.381 54.0509 185.44C54.1842 185.499 54.3415 185.528 54.5229 185.528ZM61.3594 186.096C60.9701 186.096 60.6288 186.005 60.3354 185.824C60.0421 185.637 59.8154 185.384 59.6554 185.064C59.4954 184.744 59.4154 184.381 59.4154 183.976C59.4154 183.571 59.4954 183.211 59.6554 182.896C59.8154 182.576 60.0421 182.325 60.3354 182.144C60.6341 181.963 60.9781 181.872 61.3674 181.872C61.6981 181.872 61.9861 181.939 62.2314 182.072C62.4821 182.205 62.6741 182.392 62.8074 182.632V180.24H63.4794V186H62.8714L62.8154 185.336C62.7301 185.469 62.6208 185.595 62.4874 185.712C62.3541 185.824 62.1941 185.917 62.0074 185.992C61.8208 186.061 61.6048 186.096 61.3594 186.096ZM61.4394 185.512C61.7061 185.512 61.9408 185.448 62.1434 185.32C62.3461 185.192 62.5034 185.016 62.6154 184.792C62.7274 184.563 62.7834 184.293 62.7834 183.984C62.7834 183.68 62.7274 183.413 62.6154 183.184C62.5034 182.955 62.3461 182.776 62.1434 182.648C61.9408 182.52 61.7061 182.456 61.4394 182.456C61.1781 182.456 60.9461 182.52 60.7434 182.648C60.5408 182.776 60.3834 182.955 60.2714 183.184C60.1594 183.413 60.1034 183.68 60.1034 183.984C60.1034 184.293 60.1594 184.563 60.2714 184.792C60.3834 185.016 60.5408 185.192 60.7434 185.32C60.9461 185.448 61.1781 185.512 61.4394 185.512ZM65.9111 186.096C65.5857 186.096 65.3137 186.04 65.0951 185.928C64.8764 185.811 64.7137 185.659 64.6071 185.472C64.5004 185.28 64.4471 185.072 64.4471 184.848C64.4471 184.576 64.5164 184.347 64.6551 184.16C64.7991 183.968 64.9991 183.824 65.2551 183.728C65.5164 183.627 65.8231 183.576 66.1751 183.576H67.2391C67.2391 183.325 67.1991 183.117 67.1191 182.952C67.0444 182.781 66.9324 182.653 66.7831 182.568C66.6391 182.483 66.4577 182.44 66.2391 182.44C65.9831 182.44 65.7617 182.504 65.5751 182.632C65.3884 182.76 65.2737 182.949 65.2311 183.2H64.5431C64.5751 182.912 64.6711 182.672 64.8311 182.48C64.9964 182.283 65.2044 182.133 65.4551 182.032C65.7057 181.925 65.9671 181.872 66.2391 181.872C66.6124 181.872 66.9217 181.941 67.1671 182.08C67.4177 182.213 67.6044 182.403 67.7271 182.648C67.8497 182.888 67.9111 183.173 67.9111 183.504V186H67.3111L67.2711 185.288C67.2177 185.4 67.1484 185.507 67.0631 185.608C66.9831 185.704 66.8871 185.789 66.7751 185.864C66.6631 185.933 66.5351 185.989 66.3911 186.032C66.2524 186.075 66.0924 186.096 65.9111 186.096ZM66.0151 185.528C66.2017 185.528 66.3697 185.491 66.5191 185.416C66.6737 185.336 66.8044 185.229 66.9111 185.096C67.0177 184.957 67.0977 184.805 67.1511 184.64C67.2097 184.475 67.2391 184.301 67.2391 184.12V184.096H66.2311C65.9697 184.096 65.7591 184.128 65.5991 184.192C65.4391 184.251 65.3244 184.336 65.2551 184.448C65.1857 184.555 65.1511 184.677 65.1511 184.816C65.1511 184.96 65.1831 185.085 65.2471 185.192C65.3164 185.299 65.4151 185.381 65.5431 185.44C65.6764 185.499 65.8337 185.528 66.0151 185.528ZM72.8516 186.096C72.4623 186.096 72.121 186.005 71.8276 185.824C71.5343 185.637 71.3076 185.384 71.1476 185.064C70.9876 184.744 70.9076 184.381 70.9076 183.976C70.9076 183.571 70.9876 183.211 71.1476 182.896C71.3076 182.576 71.5343 182.325 71.8276 182.144C72.1263 181.963 72.4703 181.872 72.8596 181.872C73.1903 181.872 73.4783 181.939 73.7236 182.072C73.9743 182.205 74.1663 182.392 74.2996 182.632V180.24H74.9716V186H74.3636L74.3076 185.336C74.2223 185.469 74.113 185.595 73.9796 185.712C73.8463 185.824 73.6863 185.917 73.4996 185.992C73.313 186.061 73.097 186.096 72.8516 186.096ZM72.9316 185.512C73.1983 185.512 73.433 185.448 73.6356 185.32C73.8383 185.192 73.9956 185.016 74.1076 184.792C74.2196 184.563 74.2756 184.293 74.2756 183.984C74.2756 183.68 74.2196 183.413 74.1076 183.184C73.9956 182.955 73.8383 182.776 73.6356 182.648C73.433 182.52 73.1983 182.456 72.9316 182.456C72.6703 182.456 72.4383 182.52 72.2356 182.648C72.033 182.776 71.8756 182.955 71.7636 183.184C71.6516 183.413 71.5956 183.68 71.5956 183.984C71.5956 184.293 71.6516 184.563 71.7636 184.792C71.8756 185.016 72.033 185.192 72.2356 185.32C72.4383 185.448 72.6703 185.512 72.9316 185.512ZM77.8913 186.096C77.5179 186.096 77.1819 186.011 76.8833 185.84C76.5846 185.664 76.3499 185.419 76.1793 185.104C76.0086 184.784 75.9233 184.413 75.9233 183.992C75.9233 183.56 76.0086 183.187 76.1793 182.872C76.3553 182.552 76.5926 182.307 76.8913 182.136C77.1953 181.96 77.5339 181.872 77.9073 181.872C78.2913 181.872 78.6299 181.96 78.9233 182.136C79.2219 182.307 79.4566 182.552 79.6273 182.872C79.8033 183.187 79.8913 183.557 79.8913 183.984C79.8913 184.411 79.8033 184.784 79.6273 185.104C79.4513 185.419 79.2139 185.664 78.9153 185.84C78.6166 186.011 78.2753 186.096 77.8913 186.096ZM77.8993 185.52C78.1286 185.52 78.3419 185.464 78.5393 185.352C78.7366 185.235 78.8966 185.061 79.0193 184.832C79.1419 184.603 79.2033 184.32 79.2033 183.984C79.2033 183.643 79.1419 183.36 79.0193 183.136C78.9019 182.907 78.7446 182.736 78.5473 182.624C78.3553 182.507 78.1419 182.448 77.9073 182.448C77.6833 182.448 77.4699 182.507 77.2673 182.624C77.0699 182.736 76.9099 182.907 76.7873 183.136C76.6699 183.36 76.6113 183.643 76.6113 183.984C76.6113 184.32 76.6699 184.603 76.7873 184.832C76.9099 185.061 77.0673 185.235 77.2593 185.352C77.4566 185.464 77.6699 185.52 77.8993 185.52ZM82.6094 186.096C82.2201 186.096 81.8788 186.005 81.5854 185.824C81.2921 185.637 81.0654 185.384 80.9054 185.064C80.7454 184.744 80.6654 184.381 80.6654 183.976C80.6654 183.571 80.7454 183.211 80.9054 182.896C81.0654 182.576 81.2921 182.325 81.5854 182.144C81.8841 181.963 82.2281 181.872 82.6174 181.872C82.9481 181.872 83.2361 181.939 83.4814 182.072C83.7321 182.205 83.9241 182.392 84.0574 182.632V180.24H84.7294V186H84.1214L84.0654 185.336C83.9801 185.469 83.8708 185.595 83.7374 185.712C83.6041 185.824 83.4441 185.917 83.2574 185.992C83.0708 186.061 82.8548 186.096 82.6094 186.096ZM82.6894 185.512C82.9561 185.512 83.1908 185.448 83.3934 185.32C83.5961 185.192 83.7534 185.016 83.8654 184.792C83.9774 184.563 84.0334 184.293 84.0334 183.984C84.0334 183.68 83.9774 183.413 83.8654 183.184C83.7534 182.955 83.5961 182.776 83.3934 182.648C83.1908 182.52 82.9561 182.456 82.6894 182.456C82.4281 182.456 82.1961 182.52 81.9934 182.648C81.7908 182.776 81.6334 182.955 81.5214 183.184C81.4094 183.413 81.3534 183.68 81.3534 183.984C81.3534 184.293 81.4094 184.563 81.5214 184.792C81.6334 185.016 81.7908 185.192 81.9934 185.32C82.1961 185.448 82.4281 185.512 82.6894 185.512ZM85.9131 186V181.968H86.5851V186H85.9131ZM86.2491 181.112C86.1157 181.112 86.0037 181.069 85.9131 180.984C85.8277 180.893 85.7851 180.781 85.7851 180.648C85.7851 180.515 85.8277 180.408 85.9131 180.328C86.0037 180.243 86.1157 180.2 86.2491 180.2C86.3771 180.2 86.4864 180.243 86.5771 180.328C86.6677 180.408 86.7131 180.515 86.7131 180.648C86.7131 180.781 86.6677 180.893 86.5771 180.984C86.4864 181.069 86.3771 181.112 86.2491 181.112ZM87.7709 186V181.968H88.3789L88.4269 182.736C88.5176 182.555 88.6323 182.4 88.7709 182.272C88.9149 182.144 89.0856 182.045 89.2829 181.976C89.4856 181.907 89.7149 181.872 89.9709 181.872V182.576H89.7229C89.5523 182.576 89.3896 182.6 89.2349 182.648C89.0803 182.691 88.9416 182.763 88.8189 182.864C88.7016 182.965 88.6083 183.104 88.5389 183.28C88.4749 183.451 88.4429 183.664 88.4429 183.92V186H87.7709ZM90.7319 186V181.968H91.3399L91.3719 182.672C91.4999 182.421 91.6812 182.227 91.9159 182.088C92.1559 181.944 92.4279 181.872 92.7319 181.872C93.0465 181.872 93.3185 181.936 93.5479 182.064C93.7772 182.187 93.9559 182.376 94.0839 182.632C94.2119 182.883 94.2759 183.203 94.2759 183.592V186H93.6039V183.664C93.6039 183.259 93.5132 182.955 93.3319 182.752C93.1559 182.549 92.9052 182.448 92.5799 182.448C92.3559 182.448 92.1559 182.504 91.9799 182.616C91.8039 182.723 91.6625 182.88 91.5559 183.088C91.4545 183.291 91.4039 183.544 91.4039 183.848V186H90.7319ZM97.0936 186.096C96.715 186.096 96.379 186.008 96.0856 185.832C95.7976 185.656 95.571 185.411 95.4056 185.096C95.2403 184.776 95.1576 184.405 95.1576 183.984C95.1576 183.557 95.2376 183.187 95.3976 182.872C95.563 182.557 95.7923 182.312 96.0856 182.136C96.3843 181.96 96.7256 181.872 97.1096 181.872C97.5043 181.872 97.8376 181.96 98.1096 182.136C98.387 182.312 98.5976 182.544 98.7416 182.832C98.891 183.115 98.9656 183.427 98.9656 183.768C98.9656 183.821 98.9656 183.877 98.9656 183.936C98.9656 183.995 98.963 184.061 98.9576 184.136H95.6616V183.616H98.3096C98.2936 183.248 98.171 182.96 97.9416 182.752C97.7176 182.544 97.435 182.44 97.0936 182.44C96.8643 182.44 96.651 182.493 96.4536 182.6C96.2616 182.701 96.107 182.853 95.9896 183.056C95.8723 183.253 95.8136 183.501 95.8136 183.8V184.024C95.8136 184.355 95.8723 184.632 95.9896 184.856C96.1123 185.08 96.2696 185.248 96.4616 185.36C96.659 185.472 96.8696 185.528 97.0936 185.528C97.3763 185.528 97.6083 185.467 97.7896 185.344C97.9763 185.216 98.1096 185.045 98.1896 184.832H98.8536C98.7896 185.072 98.6776 185.288 98.5176 185.48C98.3576 185.672 98.1576 185.824 97.9176 185.936C97.683 186.043 97.4083 186.096 97.0936 186.096ZM103.518 186.096C103.182 186.096 102.888 186.04 102.638 185.928C102.392 185.816 102.195 185.661 102.046 185.464C101.902 185.261 101.814 185.024 101.782 184.752H102.47C102.496 184.891 102.552 185.019 102.638 185.136C102.723 185.253 102.838 185.349 102.982 185.424C103.131 185.493 103.312 185.528 103.526 185.528C103.712 185.528 103.867 185.501 103.99 185.448C104.112 185.389 104.203 185.312 104.262 185.216C104.326 185.12 104.358 185.016 104.358 184.904C104.358 184.739 104.318 184.613 104.238 184.528C104.163 184.443 104.051 184.376 103.902 184.328C103.752 184.275 103.571 184.229 103.358 184.192C103.182 184.16 103.008 184.117 102.838 184.064C102.667 184.011 102.515 183.941 102.382 183.856C102.248 183.765 102.142 183.656 102.062 183.528C101.987 183.4 101.95 183.243 101.95 183.056C101.95 182.827 102.008 182.624 102.126 182.448C102.243 182.267 102.411 182.125 102.63 182.024C102.854 181.923 103.112 181.872 103.406 181.872C103.838 181.872 104.187 181.976 104.454 182.184C104.72 182.392 104.878 182.693 104.926 183.088H104.262C104.235 182.885 104.147 182.728 103.998 182.616C103.854 182.499 103.654 182.44 103.398 182.44C103.147 182.44 102.955 182.491 102.822 182.592C102.694 182.693 102.63 182.827 102.63 182.992C102.63 183.099 102.664 183.195 102.734 183.28C102.808 183.36 102.915 183.429 103.054 183.488C103.198 183.547 103.374 183.595 103.582 183.632C103.848 183.68 104.091 183.744 104.31 183.824C104.528 183.904 104.704 184.024 104.838 184.184C104.976 184.339 105.046 184.56 105.046 184.848C105.046 185.099 104.982 185.317 104.854 185.504C104.731 185.691 104.555 185.837 104.326 185.944C104.096 186.045 103.827 186.096 103.518 186.096ZM106.013 186V181.968H106.621L106.669 182.736C106.76 182.555 106.874 182.4 107.013 182.272C107.157 182.144 107.328 182.045 107.525 181.976C107.728 181.907 107.957 181.872 108.213 181.872V182.576H107.965C107.794 182.576 107.632 182.6 107.477 182.648C107.322 182.691 107.184 182.763 107.061 182.864C106.944 182.965 106.85 183.104 106.781 183.28C106.717 183.451 106.685 183.664 106.685 183.92V186H106.013ZM110.594 186.096C110.215 186.096 109.879 186.008 109.586 185.832C109.298 185.656 109.071 185.411 108.906 185.096C108.74 184.776 108.658 184.405 108.658 183.984C108.658 183.557 108.738 183.187 108.898 182.872C109.063 182.557 109.292 182.312 109.586 182.136C109.884 181.96 110.226 181.872 110.61 181.872C111.004 181.872 111.338 181.96 111.61 182.136C111.887 182.312 112.098 182.544 112.242 182.832C112.391 183.115 112.466 183.427 112.466 183.768C112.466 183.821 112.466 183.877 112.466 183.936C112.466 183.995 112.463 184.061 112.458 184.136H109.162V183.616H111.81C111.794 183.248 111.671 182.96 111.442 182.752C111.218 182.544 110.935 182.44 110.594 182.44C110.364 182.44 110.151 182.493 109.954 182.6C109.762 182.701 109.607 182.853 109.49 183.056C109.372 183.253 109.314 183.501 109.314 183.8V184.024C109.314 184.355 109.372 184.632 109.49 184.856C109.612 185.08 109.77 185.248 109.962 185.36C110.159 185.472 110.37 185.528 110.594 185.528C110.876 185.528 111.108 185.467 111.29 185.344C111.476 185.216 111.61 185.045 111.69 184.832H112.354C112.29 185.072 112.178 185.288 112.018 185.48C111.858 185.672 111.658 185.824 111.418 185.936C111.183 186.043 110.908 186.096 110.594 186.096ZM115.149 186.096C114.759 186.096 114.418 186.005 114.125 185.824C113.831 185.637 113.605 185.384 113.445 185.064C113.285 184.744 113.205 184.381 113.205 183.976C113.205 183.571 113.285 183.211 113.445 182.896C113.605 182.576 113.831 182.325 114.125 182.144C114.423 181.963 114.767 181.872 115.157 181.872C115.487 181.872 115.775 181.939 116.021 182.072C116.271 182.205 116.463 182.392 116.597 182.632V180.24H117.269V186H116.661L116.605 185.336C116.519 185.469 116.41 185.595 116.277 185.712C116.143 185.824 115.983 185.917 115.797 185.992C115.61 186.061 115.394 186.096 115.149 186.096ZM115.229 185.512C115.495 185.512 115.73 185.448 115.933 185.32C116.135 185.192 116.293 185.016 116.405 184.792C116.517 184.563 116.573 184.293 116.573 183.984C116.573 183.68 116.517 183.413 116.405 183.184C116.293 182.955 116.135 182.776 115.933 182.648C115.73 182.52 115.495 182.456 115.229 182.456C114.967 182.456 114.735 182.52 114.533 182.648C114.33 182.776 114.173 182.955 114.061 183.184C113.949 183.413 113.893 183.68 113.893 183.984C113.893 184.293 113.949 184.563 114.061 184.792C114.173 185.016 114.33 185.192 114.533 185.32C114.735 185.448 114.967 185.512 115.229 185.512ZM118.452 186V181.968H119.124V186H118.452ZM118.788 181.112C118.655 181.112 118.543 181.069 118.452 180.984C118.367 180.893 118.324 180.781 118.324 180.648C118.324 180.515 118.367 180.408 118.452 180.328C118.543 180.243 118.655 180.2 118.788 180.2C118.916 180.2 119.025 180.243 119.116 180.328C119.207 180.408 119.252 180.515 119.252 180.648C119.252 180.781 119.207 180.893 119.116 180.984C119.025 181.069 118.916 181.112 118.788 181.112ZM120.31 186V181.968H120.918L120.95 182.672C121.078 182.421 121.259 182.227 121.494 182.088C121.734 181.944 122.006 181.872 122.31 181.872C122.625 181.872 122.897 181.936 123.126 182.064C123.355 182.187 123.534 182.376 123.662 182.632C123.79 182.883 123.854 183.203 123.854 183.592V186H123.182V183.664C123.182 183.259 123.091 182.955 122.91 182.752C122.734 182.549 122.483 182.448 122.158 182.448C121.934 182.448 121.734 182.504 121.558 182.616C121.382 182.723 121.241 182.88 121.134 183.088C121.033 183.291 120.982 183.544 120.982 183.848V186H120.31ZM126.368 186.096C126.058 186.096 125.786 186.035 125.552 185.912C125.322 185.789 125.144 185.6 125.016 185.344C124.893 185.088 124.832 184.768 124.832 184.384V181.968H125.504V184.312C125.504 184.712 125.592 185.013 125.768 185.216C125.944 185.419 126.192 185.52 126.512 185.52C126.736 185.52 126.938 185.467 127.12 185.36C127.301 185.248 127.442 185.091 127.544 184.888C127.65 184.68 127.704 184.427 127.704 184.128V181.968H128.376V186H127.768L127.728 185.296C127.605 185.547 127.424 185.744 127.184 185.888C126.944 186.027 126.672 186.096 126.368 186.096ZM133.207 187.856C132.844 187.856 132.521 187.808 132.239 187.712C131.961 187.621 131.745 187.48 131.591 187.288C131.436 187.096 131.359 186.859 131.359 186.576C131.359 186.453 131.383 186.323 131.431 186.184C131.484 186.045 131.572 185.909 131.695 185.776C131.823 185.643 132.001 185.523 132.231 185.416L132.695 185.688C132.412 185.805 132.228 185.939 132.143 186.088C132.057 186.243 132.015 186.384 132.015 186.512C132.015 186.688 132.065 186.835 132.167 186.952C132.268 187.069 132.409 187.157 132.591 187.216C132.772 187.275 132.977 187.304 133.207 187.304C133.436 187.304 133.633 187.272 133.799 187.208C133.964 187.144 134.092 187.053 134.183 186.936C134.273 186.819 134.319 186.68 134.319 186.52C134.319 186.333 134.249 186.176 134.111 186.048C133.972 185.925 133.708 185.853 133.319 185.832C133.004 185.811 132.74 185.781 132.527 185.744C132.313 185.707 132.137 185.664 131.999 185.616C131.86 185.563 131.743 185.504 131.647 185.44C131.556 185.376 131.473 185.309 131.399 185.24V185.056L132.175 184.288L132.759 184.496L131.959 185.216L132.063 184.936C132.121 184.979 132.177 185.019 132.231 185.056C132.284 185.093 132.356 185.125 132.447 185.152C132.537 185.179 132.663 185.203 132.823 185.224C132.988 185.245 133.204 185.267 133.471 185.288C133.839 185.315 134.132 185.379 134.351 185.48C134.575 185.581 134.735 185.717 134.831 185.888C134.932 186.059 134.983 186.261 134.983 186.496C134.983 186.725 134.919 186.941 134.791 187.144C134.668 187.352 134.476 187.523 134.215 187.656C133.953 187.789 133.617 187.856 133.207 187.856ZM133.199 184.736C132.863 184.736 132.575 184.672 132.335 184.544C132.1 184.416 131.921 184.245 131.799 184.032C131.676 183.813 131.615 183.571 131.615 183.304C131.615 183.037 131.676 182.797 131.799 182.584C131.927 182.371 132.108 182.2 132.343 182.072C132.577 181.939 132.863 181.872 133.199 181.872C133.535 181.872 133.82 181.939 134.055 182.072C134.289 182.2 134.468 182.371 134.591 182.584C134.713 182.797 134.775 183.037 134.775 183.304C134.775 183.571 134.713 183.813 134.591 184.032C134.468 184.245 134.289 184.416 134.055 184.544C133.82 184.672 133.535 184.736 133.199 184.736ZM133.199 184.184C133.487 184.184 133.713 184.109 133.879 183.96C134.044 183.811 134.127 183.592 134.127 183.304C134.127 183.021 134.044 182.805 133.879 182.656C133.713 182.507 133.487 182.432 133.199 182.432C132.916 182.432 132.687 182.507 132.511 182.656C132.34 182.805 132.255 183.021 132.255 183.304C132.255 183.592 132.34 183.811 132.511 183.96C132.681 184.109 132.911 184.184 133.199 184.184ZM133.855 182.536L133.655 181.968H135.303V182.472L133.855 182.536ZM136.076 186V181.968H136.684L136.732 182.736C136.822 182.555 136.937 182.4 137.076 182.272C137.22 182.144 137.39 182.045 137.588 181.976C137.79 181.907 138.02 181.872 138.276 181.872V182.576H138.028C137.857 182.576 137.694 182.6 137.54 182.648C137.385 182.691 137.246 182.763 137.124 182.864C137.006 182.965 136.913 183.104 136.844 183.28C136.78 183.451 136.748 183.664 136.748 183.92V186H136.076ZM140.501 186.096C140.191 186.096 139.919 186.035 139.685 185.912C139.455 185.789 139.277 185.6 139.149 185.344C139.026 185.088 138.965 184.768 138.965 184.384V181.968H139.637V184.312C139.637 184.712 139.725 185.013 139.901 185.216C140.077 185.419 140.325 185.52 140.645 185.52C140.869 185.52 141.071 185.467 141.253 185.36C141.434 185.248 141.575 185.091 141.677 184.888C141.783 184.68 141.837 184.427 141.837 184.128V181.968H142.509V186H141.901L141.861 185.296C141.738 185.547 141.557 185.744 141.317 185.888C141.077 186.027 140.805 186.096 140.501 186.096ZM145.399 186.096C145.009 186.096 144.668 186.005 144.375 185.824C144.081 185.637 143.855 185.384 143.695 185.064C143.535 184.744 143.455 184.381 143.455 183.976C143.455 183.571 143.535 183.211 143.695 182.896C143.855 182.576 144.081 182.325 144.375 182.144C144.673 181.963 145.017 181.872 145.407 181.872C145.737 181.872 146.025 181.939 146.271 182.072C146.521 182.205 146.713 182.392 146.847 182.632V180.24H147.519V186H146.911L146.855 185.336C146.769 185.469 146.66 185.595 146.527 185.712C146.393 185.824 146.233 185.917 146.047 185.992C145.86 186.061 145.644 186.096 145.399 186.096ZM145.479 185.512C145.745 185.512 145.98 185.448 146.183 185.32C146.385 185.192 146.543 185.016 146.655 184.792C146.767 184.563 146.823 184.293 146.823 183.984C146.823 183.68 146.767 183.413 146.655 183.184C146.543 182.955 146.385 182.776 146.183 182.648C145.98 182.52 145.745 182.456 145.479 182.456C145.217 182.456 144.985 182.52 144.783 182.648C144.58 182.776 144.423 182.955 144.311 183.184C144.199 183.413 144.143 183.68 144.143 183.984C144.143 184.293 144.199 184.563 144.311 184.792C144.423 185.016 144.58 185.192 144.783 185.32C144.985 185.448 145.217 185.512 145.479 185.512ZM148.702 186V181.968H149.374V186H148.702ZM149.038 181.112C148.905 181.112 148.793 181.069 148.702 180.984C148.617 180.893 148.574 180.781 148.574 180.648C148.574 180.515 148.617 180.408 148.702 180.328C148.793 180.243 148.905 180.2 149.038 180.2C149.166 180.2 149.275 180.243 149.366 180.328C149.457 180.408 149.502 180.515 149.502 180.648C149.502 180.781 149.457 180.893 149.366 180.984C149.275 181.069 149.166 181.112 149.038 181.112ZM150.032 186.984L150.496 185.216H151.192L150.496 186.984H150.032ZM154.138 186V181.968H154.746L154.778 182.672C154.906 182.421 155.087 182.227 155.322 182.088C155.562 181.944 155.834 181.872 156.138 181.872C156.453 181.872 156.725 181.936 156.954 182.064C157.183 182.187 157.362 182.376 157.49 182.632C157.618 182.883 157.682 183.203 157.682 183.592V186H157.01V183.664C157.01 183.259 156.919 182.955 156.738 182.752C156.562 182.549 156.311 182.448 155.986 182.448C155.762 182.448 155.562 182.504 155.386 182.616C155.21 182.723 155.069 182.88 154.962 183.088C154.861 183.291 154.81 183.544 154.81 183.848V186H154.138ZM158.796 186V181.968H159.468V186H158.796ZM159.132 181.112C158.999 181.112 158.887 181.069 158.796 180.984C158.711 180.893 158.668 180.781 158.668 180.648C158.668 180.515 158.711 180.408 158.796 180.328C158.887 180.243 158.999 180.2 159.132 180.2C159.26 180.2 159.369 180.243 159.46 180.328C159.551 180.408 159.596 180.515 159.596 180.648C159.596 180.781 159.551 180.893 159.46 180.984C159.369 181.069 159.26 181.112 159.132 181.112ZM163.134 186L161.214 183.792L162.966 181.968H163.79L161.782 184.032L161.79 183.552L163.99 186H163.134ZM160.654 186V180.24H161.326V186H160.654ZM165.966 186.096C165.64 186.096 165.368 186.04 165.15 185.928C164.931 185.811 164.768 185.659 164.662 185.472C164.555 185.28 164.502 185.072 164.502 184.848C164.502 184.576 164.571 184.347 164.71 184.16C164.854 183.968 165.054 183.824 165.31 183.728C165.571 183.627 165.878 183.576 166.23 183.576H167.294C167.294 183.325 167.254 183.117 167.174 182.952C167.099 182.781 166.987 182.653 166.838 182.568C166.694 182.483 166.512 182.44 166.294 182.44C166.038 182.44 165.816 182.504 165.63 182.632C165.443 182.76 165.328 182.949 165.286 183.2H164.598C164.63 182.912 164.726 182.672 164.886 182.48C165.051 182.283 165.259 182.133 165.51 182.032C165.76 181.925 166.022 181.872 166.294 181.872C166.667 181.872 166.976 181.941 167.222 182.08C167.472 182.213 167.659 182.403 167.782 182.648C167.904 182.888 167.966 183.173 167.966 183.504V186H167.366L167.326 185.288C167.272 185.4 167.203 185.507 167.118 185.608C167.038 185.704 166.942 185.789 166.83 185.864C166.718 185.933 166.59 185.989 166.446 186.032C166.307 186.075 166.147 186.096 165.966 186.096ZM166.07 185.528C166.256 185.528 166.424 185.491 166.574 185.416C166.728 185.336 166.859 185.229 166.966 185.096C167.072 184.957 167.152 184.805 167.206 184.64C167.264 184.475 167.294 184.301 167.294 184.12V184.096H166.286C166.024 184.096 165.814 184.128 165.654 184.192C165.494 184.251 165.379 184.336 165.31 184.448C165.24 184.555 165.206 184.677 165.206 184.816C165.206 184.96 165.238 185.085 165.302 185.192C165.371 185.299 165.47 185.381 165.598 185.44C165.731 185.499 165.888 185.528 166.07 185.528ZM171.485 186L169.565 183.792L171.317 181.968H172.141L170.133 184.032L170.141 183.552L172.341 186H171.485ZM169.005 186V180.24H169.677V186H169.005ZM174.548 186.096C174.174 186.096 173.838 186.011 173.54 185.84C173.241 185.664 173.006 185.419 172.836 185.104C172.665 184.784 172.58 184.413 172.58 183.992C172.58 183.56 172.665 183.187 172.836 182.872C173.012 182.552 173.249 182.307 173.548 182.136C173.852 181.96 174.19 181.872 174.564 181.872C174.948 181.872 175.286 181.96 175.58 182.136C175.878 182.307 176.113 182.552 176.284 182.872C176.46 183.187 176.548 183.557 176.548 183.984C176.548 184.411 176.46 184.784 176.284 185.104C176.108 185.419 175.87 185.664 175.572 185.84C175.273 186.011 174.932 186.096 174.548 186.096ZM174.556 185.52C174.785 185.52 174.998 185.464 175.196 185.352C175.393 185.235 175.553 185.061 175.676 184.832C175.798 184.603 175.86 184.32 175.86 183.984C175.86 183.643 175.798 183.36 175.676 183.136C175.558 182.907 175.401 182.736 175.204 182.624C175.012 182.507 174.798 182.448 174.564 182.448C174.34 182.448 174.126 182.507 173.924 182.624C173.726 182.736 173.566 182.907 173.444 183.136C173.326 183.36 173.268 183.643 173.268 183.984C173.268 184.32 173.326 184.603 173.444 184.832C173.566 185.061 173.724 185.235 173.916 185.352C174.113 185.464 174.326 185.52 174.556 185.52ZM180.775 186L179.247 181.968H179.951L181.167 185.352L182.391 181.968H183.079L181.551 186H180.775ZM183.833 186V181.968H184.441L184.489 182.736C184.58 182.555 184.695 182.4 184.833 182.272C184.977 182.144 185.148 182.045 185.345 181.976C185.548 181.907 185.777 181.872 186.033 181.872V182.576H185.785C185.615 182.576 185.452 182.6 185.297 182.648C185.143 182.691 185.004 182.763 184.881 182.864C184.764 182.965 184.671 183.104 184.601 183.28C184.537 183.451 184.505 183.664 184.505 183.92V186H183.833ZM188.106 186.096C187.781 186.096 187.509 186.04 187.29 185.928C187.072 185.811 186.909 185.659 186.802 185.472C186.696 185.28 186.642 185.072 186.642 184.848C186.642 184.576 186.712 184.347 186.85 184.16C186.994 183.968 187.194 183.824 187.45 183.728C187.712 183.627 188.018 183.576 188.37 183.576H189.434C189.434 183.325 189.394 183.117 189.314 182.952C189.24 182.781 189.128 182.653 188.978 182.568C188.834 182.483 188.653 182.44 188.434 182.44C188.178 182.44 187.957 182.504 187.77 182.632C187.584 182.76 187.469 182.949 187.426 183.2H186.738C186.77 182.912 186.866 182.672 187.026 182.48C187.192 182.283 187.4 182.133 187.65 182.032C187.901 181.925 188.162 181.872 188.434 181.872C188.808 181.872 189.117 181.941 189.362 182.08C189.613 182.213 189.8 182.403 189.922 182.648C190.045 182.888 190.106 183.173 190.106 183.504V186H189.506L189.466 185.288C189.413 185.4 189.344 185.507 189.258 185.608C189.178 185.704 189.082 185.789 188.97 185.864C188.858 185.933 188.73 185.989 188.586 186.032C188.448 186.075 188.288 186.096 188.106 186.096ZM188.21 185.528C188.397 185.528 188.565 185.491 188.714 185.416C188.869 185.336 189 185.229 189.106 185.096C189.213 184.957 189.293 184.805 189.346 184.64C189.405 184.475 189.434 184.301 189.434 184.12V184.096H188.426C188.165 184.096 187.954 184.128 187.794 184.192C187.634 184.251 187.52 184.336 187.45 184.448C187.381 184.555 187.346 184.677 187.346 184.816C187.346 184.96 187.378 185.085 187.442 185.192C187.512 185.299 187.61 185.381 187.738 185.44C187.872 185.499 188.029 185.528 188.21 185.528ZM192.621 186C192.381 186 192.173 185.963 191.997 185.888C191.821 185.813 191.685 185.688 191.589 185.512C191.498 185.331 191.453 185.088 191.453 184.784V182.536H190.749V181.968H191.453L191.541 180.992H192.125V181.968H193.293V182.536H192.125V184.784C192.125 185.035 192.175 185.205 192.277 185.296C192.378 185.381 192.557 185.424 192.813 185.424H193.245V186H192.621Z" fill="white"/>
</svg>
