<svg width="200" height="200" viewBox="0 0 200 200" fill="none" xmlns="http://www.w3.org/2000/svg">
<rect width="200" height="200" fill="#0A0A0A"/>
<path d="M11.9 25V16.6H12.908L17.384 23.332V16.6H18.392V25H17.384L12.908 18.268V25H11.9ZM20.1969 25V16.6H21.3729L24.3369 22.468L27.3129 16.6H28.5009V25H27.4929V18.4L24.7209 23.824H23.9649L21.2049 18.424V25H20.1969ZM29.7467 25L32.8427 16.6H33.9107L36.9947 25H35.9267L33.3707 17.86L30.8027 25H29.7467ZM31.1627 22.84L31.4507 22.024H35.2547L35.5427 22.84H31.1627ZM38.2555 25V16.6H40.9915C41.6555 16.6 42.1995 16.712 42.6235 16.936C43.0555 17.152 43.3715 17.444 43.5715 17.812C43.7795 18.18 43.8835 18.6 43.8835 19.072C43.8835 19.528 43.7795 19.944 43.5715 20.32C43.3715 20.688 43.0595 20.984 42.6355 21.208C42.2115 21.432 41.6635 21.544 40.9915 21.544H39.2635V25H38.2555ZM39.2635 20.692H40.9795C41.6515 20.692 42.1315 20.544 42.4195 20.248C42.7075 19.952 42.8515 19.56 42.8515 19.072C42.8515 18.552 42.7075 18.152 42.4195 17.872C42.1315 17.584 41.6515 17.44 40.9795 17.44H39.2635V20.692Z" fill="#C8F135"/>
<path d="M54.24 99.72C51.52 99.72 49.08 99.22 46.92 98.22C44.76 97.18 43.04 95.76 41.76 93.96C40.48 92.12 39.84 90 39.84 87.6C39.84 85.88 40.18 84.28 40.86 82.8C41.54 81.32 42.48 80.04 43.68 78.96C44.92 77.84 46.34 77.06 47.94 76.62C45.7 75.82 43.96 74.58 42.72 72.9C41.52 71.22 40.92 69.4 40.92 67.44C40.92 65.36 41.46 63.48 42.54 61.8C43.62 60.12 45.14 58.78 47.1 57.78C49.1 56.78 51.48 56.28 54.24 56.28C57.04 56.28 59.42 56.78 61.38 57.78C63.38 58.78 64.9 60.12 65.94 61.8C67.02 63.48 67.56 65.36 67.56 67.44C67.56 69.4 66.94 71.22 65.7 72.9C64.5 74.58 62.78 75.82 60.54 76.62C62.18 77.06 63.6 77.84 64.8 78.96C66.04 80.04 66.98 81.32 67.62 82.8C68.3 84.28 68.64 85.88 68.64 87.6C68.64 90 68 92.12 66.72 93.96C65.48 95.76 63.76 97.18 61.56 98.22C59.4 99.22 56.96 99.72 54.24 99.72ZM54.24 95.28C57.4 95.28 59.74 94.56 61.26 93.12C62.82 91.64 63.6 89.7 63.6 87.3C63.6 84.58 62.74 82.52 61.02 81.12C59.34 79.72 57.08 79.02 54.24 79.02C51.4 79.02 49.12 79.72 47.4 81.12C45.72 82.52 44.88 84.58 44.88 87.3C44.88 89.7 45.66 91.64 47.22 93.12C48.78 94.56 51.12 95.28 54.24 95.28ZM54.24 74.82C56.76 74.82 58.76 74.16 60.24 72.84C61.72 71.52 62.46 69.82 62.46 67.74C62.46 65.38 61.72 63.6 60.24 62.4C58.8 61.2 56.8 60.6 54.24 60.6C51.72 60.6 49.72 61.2 48.24 62.4C46.8 63.6 46.08 65.38 46.08 67.74C46.08 69.82 46.8 71.52 48.24 72.84C49.72 74.16 51.72 74.82 54.24 74.82ZM93.0839 99.72C89.4039 99.72 86.2239 98.82 83.5439 97.02C80.9039 95.18 78.8839 92.64 77.4839 89.4C76.0839 86.12 75.3839 82.32 75.3839 78C75.3839 73.68 76.0839 69.9 77.4839 66.66C78.8839 63.38 80.9039 60.84 83.5439 59.04C86.2239 57.2 89.4039 56.28 93.0839 56.28C96.7639 56.28 99.9039 57.2 102.504 59.04C105.144 60.84 107.164 63.38 108.564 66.66C109.964 69.9 110.664 73.68 110.664 78C110.664 82.32 109.964 86.12 108.564 89.4C107.164 92.64 105.144 95.18 102.504 97.02C99.9039 98.82 96.7639 99.72 93.0839 99.72ZM93.0239 95.28C95.4239 95.28 97.5639 94.6 99.4439 93.24C101.324 91.84 102.804 89.86 103.884 87.3C104.964 84.7 105.504 81.6 105.504 78C105.504 74.4 104.964 71.32 103.884 68.76C102.804 66.16 101.324 64.18 99.4439 62.82C97.5639 61.46 95.4239 60.78 93.0239 60.78C90.6239 60.78 88.4639 61.46 86.5439 62.82C84.6639 64.18 83.1839 66.16 82.1039 68.76C81.0639 71.32 80.5439 74.4 80.5439 78C80.5439 81.6 81.0639 84.7 82.1039 87.3C83.1839 89.86 84.6639 91.84 86.5439 93.24C88.4639 94.6 90.6239 95.28 93.0239 95.28ZM122.22 99L146.64 57H151.68L127.26 99H122.22ZM148.68 99.72C146.88 99.72 145.26 99.32 143.82 98.52C142.38 97.68 141.22 96.5 140.34 94.98C139.5 93.46 139.08 91.68 139.08 89.64C139.08 87.56 139.5 85.78 140.34 84.3C141.22 82.78 142.38 81.62 143.82 80.82C145.26 79.98 146.88 79.56 148.68 79.56C150.52 79.56 152.14 79.98 153.54 80.82C154.98 81.62 156.12 82.78 156.96 84.3C157.8 85.78 158.22 87.56 158.22 89.64C158.22 91.68 157.8 93.46 156.96 94.98C156.12 96.5 154.98 97.68 153.54 98.52C152.1 99.32 150.48 99.72 148.68 99.72ZM148.62 95.82C149.58 95.82 150.46 95.6 151.26 95.16C152.06 94.68 152.7 93.98 153.18 93.06C153.7 92.14 153.96 91 153.96 89.64C153.96 88.24 153.72 87.08 153.24 86.16C152.76 85.24 152.12 84.56 151.32 84.12C150.52 83.64 149.64 83.4 148.68 83.4C147.76 83.4 146.88 83.64 146.04 84.12C145.24 84.56 144.58 85.24 144.06 86.16C143.58 87.08 143.34 88.24 143.34 89.64C143.34 91 143.58 92.14 144.06 93.06C144.58 93.98 145.24 94.68 146.04 95.16C146.84 95.6 147.7 95.82 148.62 95.82ZM125.58 76.5C123.78 76.5 122.16 76.1 120.72 75.3C119.28 74.46 118.12 73.28 117.24 71.76C116.4 70.24 115.98 68.46 115.98 66.42C115.98 64.34 116.4 62.56 117.24 61.08C118.12 59.56 119.28 58.4 120.72 57.6C122.2 56.76 123.84 56.34 125.64 56.34C127.44 56.34 129.06 56.76 130.5 57.6C131.94 58.4 133.08 59.56 133.92 61.08C134.76 62.56 135.18 64.34 135.18 66.42C135.18 68.46 134.76 70.24 133.92 71.76C133.08 73.28 131.92 74.46 130.44 75.3C129 76.1 127.38 76.5 125.58 76.5ZM125.58 72.6C126.54 72.6 127.42 72.38 128.22 71.94C129.02 71.46 129.66 70.76 130.14 69.84C130.62 68.92 130.86 67.78 130.86 66.42C130.86 65.02 130.62 63.86 130.14 62.94C129.66 61.98 129.02 61.28 128.22 60.84C127.42 60.36 126.56 60.12 125.64 60.12C124.72 60.12 123.84 60.36 123 60.84C122.16 61.28 121.48 61.98 120.96 62.94C120.48 63.86 120.24 65.02 120.24 66.42C120.24 67.78 120.48 68.92 120.96 69.84C121.48 70.76 122.14 71.46 122.94 71.94C123.78 72.38 124.66 72.6 125.58 72.6Z" fill="#C8F135"/>
<path d="M11.675 136V129.7H13.889C14.333 129.7 14.699 129.772 14.987 129.916C15.281 130.054 15.5 130.246 15.644 130.492C15.788 130.732 15.86 131.002 15.86 131.302C15.86 131.626 15.788 131.896 15.644 132.112C15.506 132.328 15.323 132.493 15.095 132.607C14.873 132.721 14.636 132.79 14.384 132.814L14.51 132.724C14.78 132.73 15.029 132.802 15.257 132.94C15.485 133.078 15.665 133.264 15.797 133.498C15.935 133.732 16.004 133.993 16.004 134.281C16.004 134.599 15.926 134.89 15.77 135.154C15.614 135.412 15.383 135.619 15.077 135.775C14.777 135.925 14.405 136 13.961 136H11.675ZM12.431 135.37H13.88C14.306 135.37 14.636 135.271 14.87 135.073C15.11 134.869 15.23 134.587 15.23 134.227C15.23 133.873 15.107 133.591 14.861 133.381C14.621 133.165 14.288 133.057 13.862 133.057H12.431V135.37ZM12.431 132.454H13.835C14.243 132.454 14.552 132.358 14.762 132.166C14.978 131.974 15.086 131.713 15.086 131.383C15.086 131.065 14.978 130.81 14.762 130.618C14.552 130.426 14.234 130.33 13.808 130.33H12.431V132.454ZM17.0529 136V131.464H17.7369L17.7909 132.328C17.8929 132.124 18.0219 131.95 18.1779 131.806C18.3399 131.662 18.5319 131.551 18.7539 131.473C18.9819 131.395 19.2399 131.356 19.5279 131.356V132.148H19.2489C19.0569 132.148 18.8739 132.175 18.6999 132.229C18.5259 132.277 18.3699 132.358 18.2319 132.472C18.0999 132.586 17.9949 132.742 17.9169 132.94C17.8449 133.132 17.8089 133.372 17.8089 133.66V136H17.0529ZM22.2419 136.108C21.8219 136.108 21.4439 136.012 21.1079 135.82C20.7719 135.622 20.5079 135.346 20.3159 134.992C20.1239 134.632 20.0279 134.215 20.0279 133.741C20.0279 133.255 20.1239 132.835 20.3159 132.481C20.5139 132.121 20.7809 131.845 21.1169 131.653C21.4589 131.455 21.8399 131.356 22.2599 131.356C22.6919 131.356 23.0729 131.455 23.4029 131.653C23.7389 131.845 24.0029 132.121 24.1949 132.481C24.3929 132.835 24.4919 133.252 24.4919 133.732C24.4919 134.212 24.3929 134.632 24.1949 134.992C23.9969 135.346 23.7299 135.622 23.3939 135.82C23.0579 136.012 22.6739 136.108 22.2419 136.108ZM22.2509 135.46C22.5089 135.46 22.7489 135.397 22.9709 135.271C23.1929 135.139 23.3729 134.944 23.5109 134.686C23.6489 134.428 23.7179 134.11 23.7179 133.732C23.7179 133.348 23.6489 133.03 23.5109 132.778C23.3789 132.52 23.2019 132.328 22.9799 132.202C22.7639 132.07 22.5239 132.004 22.2599 132.004C22.0079 132.004 21.7679 132.07 21.5399 132.202C21.3179 132.328 21.1379 132.52 20.9999 132.778C20.8679 133.03 20.8019 133.348 20.8019 133.732C20.8019 134.11 20.8679 134.428 20.9999 134.686C21.1379 134.944 21.3149 135.139 21.5309 135.271C21.7529 135.397 21.9929 135.46 22.2509 135.46ZM24.6789 137.98V137.332H25.0299C25.2579 137.332 25.4199 137.284 25.5159 137.188C25.6119 137.098 25.6599 136.942 25.6599 136.72V131.464H26.4159V136.738C26.4159 137.026 26.3679 137.26 26.2719 137.44C26.1759 137.626 26.0319 137.761 25.8399 137.845C25.6539 137.935 25.4229 137.98 25.1469 137.98H24.6789ZM26.0469 130.501C25.8969 130.501 25.7709 130.453 25.6689 130.357C25.5729 130.255 25.5249 130.129 25.5249 129.979C25.5249 129.829 25.5729 129.709 25.6689 129.619C25.7709 129.523 25.8969 129.475 26.0469 129.475C26.1909 129.475 26.3109 129.523 26.4069 129.619C26.5089 129.709 26.5599 129.829 26.5599 129.979C26.5599 130.129 26.5089 130.255 26.4069 130.357C26.3109 130.453 26.1909 130.501 26.0469 130.501ZM30.203 136V131.464H30.959V136H30.203ZM30.581 130.501C30.431 130.501 30.305 130.453 30.203 130.357C30.107 130.255 30.059 130.129 30.059 129.979C30.059 129.829 30.107 129.709 30.203 129.619C30.305 129.523 30.431 129.475 30.581 129.475C30.725 129.475 30.848 129.523 30.95 129.619C31.052 129.709 31.103 129.829 31.103 129.979C31.103 130.129 31.052 130.255 30.95 130.357C30.848 130.453 30.725 130.501 30.581 130.501ZM31.9871 136V135.379L34.4981 132.094H32.0321V131.464H35.3621V132.085L32.8421 135.37H35.4071V136H31.9871ZM36.4152 136V131.464H37.0992L37.1352 132.256C37.2792 131.974 37.4832 131.755 37.7472 131.599C38.0172 131.437 38.3232 131.356 38.6652 131.356C39.0192 131.356 39.3252 131.428 39.5832 131.572C39.8412 131.71 40.0422 131.923 40.1862 132.211C40.3302 132.493 40.4022 132.853 40.4022 133.291V136H39.6462V133.372C39.6462 132.916 39.5442 132.574 39.3402 132.346C39.1422 132.118 38.8602 132.004 38.4942 132.004C38.2422 132.004 38.0172 132.067 37.8192 132.193C37.6212 132.313 37.4622 132.49 37.3422 132.724C37.2282 132.952 37.1712 133.237 37.1712 133.579V136H36.4152ZM43.0591 136.108C42.6931 136.108 42.3871 136.045 42.1411 135.919C41.8951 135.787 41.7121 135.616 41.5921 135.406C41.4721 135.19 41.4121 134.956 41.4121 134.704C41.4121 134.398 41.4901 134.14 41.6461 133.93C41.8081 133.714 42.0331 133.552 42.3211 133.444C42.6151 133.33 42.9601 133.273 43.3561 133.273H44.5531C44.5531 132.991 44.5081 132.757 44.4181 132.571C44.3341 132.379 44.2081 132.235 44.0401 132.139C43.8781 132.043 43.6741 131.995 43.4281 131.995C43.1401 131.995 42.8911 132.067 42.6811 132.211C42.4711 132.355 42.3421 132.568 42.2941 132.85H41.5201C41.5561 132.526 41.6641 132.256 41.8441 132.04C42.0301 131.818 42.2641 131.65 42.5461 131.536C42.8281 131.416 43.1221 131.356 43.4281 131.356C43.8481 131.356 44.1961 131.434 44.4721 131.59C44.7541 131.74 44.9641 131.953 45.1021 132.229C45.2401 132.499 45.3091 132.82 45.3091 133.192V136H44.6341L44.5891 135.199C44.5291 135.325 44.4511 135.445 44.3551 135.559C44.2651 135.667 44.1571 135.763 44.0311 135.847C43.9051 135.925 43.7611 135.988 43.5991 136.036C43.4431 136.084 43.2631 136.108 43.0591 136.108ZM43.1761 135.469C43.3861 135.469 43.5751 135.427 43.7431 135.343C43.9171 135.253 44.0641 135.133 44.1841 134.983C44.3041 134.827 44.3941 134.656 44.4541 134.47C44.5201 134.284 44.5531 134.089 44.5531 133.885V133.858H43.4191C43.1251 133.858 42.8881 133.894 42.7081 133.966C42.5281 134.032 42.3991 134.128 42.3211 134.254C42.2431 134.374 42.2041 134.512 42.2041 134.668C42.2041 134.83 42.2401 134.971 42.3121 135.091C42.3901 135.211 42.5011 135.304 42.6451 135.37C42.7951 135.436 42.9721 135.469 43.1761 135.469ZM48.4766 136.108C48.0386 136.108 47.6546 136.006 47.3246 135.802C46.9946 135.592 46.7396 135.307 46.5596 134.947C46.3796 134.587 46.2896 134.179 46.2896 133.723C46.2896 133.267 46.3796 132.862 46.5596 132.508C46.7396 132.148 46.9946 131.866 47.3246 131.662C47.6606 131.458 48.0476 131.356 48.4856 131.356C48.8576 131.356 49.1816 131.431 49.4576 131.581C49.7396 131.731 49.9556 131.941 50.1056 132.211V129.52H50.8616V136H50.1776L50.1146 135.253C50.0186 135.403 49.8956 135.544 49.7456 135.676C49.5956 135.802 49.4156 135.907 49.2056 135.991C48.9956 136.069 48.7526 136.108 48.4766 136.108ZM48.5666 135.451C48.8666 135.451 49.1306 135.379 49.3586 135.235C49.5866 135.091 49.7636 134.893 49.8896 134.641C50.0156 134.383 50.0786 134.08 50.0786 133.732C50.0786 133.39 50.0156 133.09 49.8896 132.832C49.7636 132.574 49.5866 132.373 49.3586 132.229C49.1306 132.085 48.8666 132.013 48.5666 132.013C48.2726 132.013 48.0116 132.085 47.7836 132.229C47.5556 132.373 47.3786 132.574 47.2526 132.832C47.1266 133.09 47.0636 133.39 47.0636 133.732C47.0636 134.08 47.1266 134.383 47.2526 134.641C47.3786 134.893 47.5556 135.091 47.7836 135.235C48.0116 135.379 48.2726 135.451 48.5666 135.451ZM54.5118 137.98V131.464H55.1958L55.2588 132.202C55.3548 132.058 55.4778 131.923 55.6278 131.797C55.7778 131.665 55.9578 131.56 56.1678 131.482C56.3778 131.398 56.6178 131.356 56.8878 131.356C57.3318 131.356 57.7158 131.461 58.0398 131.671C58.3698 131.881 58.6248 132.166 58.8048 132.526C58.9908 132.88 59.0838 133.285 59.0838 133.741C59.0838 134.197 58.9908 134.605 58.8048 134.965C58.6248 135.319 58.3698 135.598 58.0398 135.802C57.7098 136.006 57.3228 136.108 56.8788 136.108C56.5128 136.108 56.1888 136.033 55.9068 135.883C55.6308 135.733 55.4178 135.523 55.2678 135.253V137.98H54.5118ZM56.7978 135.451C57.0918 135.451 57.3528 135.379 57.5808 135.235C57.8088 135.091 57.9858 134.893 58.1118 134.641C58.2438 134.383 58.3098 134.08 58.3098 133.732C58.3098 133.39 58.2438 133.09 58.1118 132.832C57.9858 132.574 57.8088 132.373 57.5808 132.229C57.3528 132.085 57.0918 132.013 56.7978 132.013C56.4978 132.013 56.2338 132.085 56.0058 132.229C55.7778 132.373 55.6008 132.574 55.4748 132.832C55.3488 133.09 55.2858 133.39 55.2858 133.732C55.2858 134.08 55.3488 134.383 55.4748 134.641C55.6008 134.893 55.7778 135.091 56.0058 135.235C56.2338 135.379 56.4978 135.451 56.7978 135.451ZM60.1456 136V131.464H60.8296L60.8836 132.328C60.9856 132.124 61.1146 131.95 61.2706 131.806C61.4326 131.662 61.6246 131.551 61.8466 131.473C62.0746 131.395 62.3326 131.356 62.6206 131.356V132.148H62.3416C62.1496 132.148 61.9666 132.175 61.7926 132.229C61.6186 132.277 61.4626 132.358 61.3246 132.472C61.1926 132.586 61.0876 132.742 61.0096 132.94C60.9376 133.132 60.9016 133.372 60.9016 133.66V136H60.1456ZM65.2987 136.108C64.8727 136.108 64.4947 136.009 64.1647 135.811C63.8407 135.613 63.5857 135.337 63.3997 134.983C63.2137 134.623 63.1207 134.206 63.1207 133.732C63.1207 133.252 63.2107 132.835 63.3907 132.481C63.5767 132.127 63.8347 131.851 64.1647 131.653C64.5007 131.455 64.8847 131.356 65.3167 131.356C65.7607 131.356 66.1357 131.455 66.4417 131.653C66.7537 131.851 66.9907 132.112 67.1527 132.436C67.3207 132.754 67.4047 133.105 67.4047 133.489C67.4047 133.549 67.4047 133.612 67.4047 133.678C67.4047 133.744 67.4017 133.819 67.3957 133.903H63.6877V133.318H66.6667C66.6487 132.904 66.5107 132.58 66.2527 132.346C66.0007 132.112 65.6827 131.995 65.2987 131.995C65.0407 131.995 64.8007 132.055 64.5787 132.175C64.3627 132.289 64.1887 132.46 64.0567 132.688C63.9247 132.91 63.8587 133.189 63.8587 133.525V133.777C63.8587 134.149 63.9247 134.461 64.0567 134.713C64.1947 134.965 64.3717 135.154 64.5877 135.28C64.8097 135.406 65.0467 135.469 65.2987 135.469C65.6167 135.469 65.8777 135.4 66.0817 135.262C66.2917 135.118 66.4417 134.926 66.5317 134.686H67.2787C67.2067 134.956 67.0807 135.199 66.9007 135.415C66.7207 135.631 66.4957 135.802 66.2257 135.928C65.9617 136.048 65.6527 136.108 65.2987 136.108ZM70.4229 136.108C69.9849 136.108 69.6009 136.006 69.2709 135.802C68.9409 135.592 68.6859 135.307 68.5059 134.947C68.3259 134.587 68.2359 134.179 68.2359 133.723C68.2359 133.267 68.3259 132.862 68.5059 132.508C68.6859 132.148 68.9409 131.866 69.2709 131.662C69.6069 131.458 69.9939 131.356 70.4319 131.356C70.8039 131.356 71.1279 131.431 71.4039 131.581C71.6859 131.731 71.9019 131.941 72.0519 132.211V129.52H72.8079V136H72.1239L72.0609 135.253C71.9649 135.403 71.8419 135.544 71.6919 135.676C71.5419 135.802 71.3619 135.907 71.1519 135.991C70.9419 136.069 70.6989 136.108 70.4229 136.108ZM70.5129 135.451C70.8129 135.451 71.0769 135.379 71.3049 135.235C71.5329 135.091 71.7099 134.893 71.8359 134.641C71.9619 134.383 72.0249 134.08 72.0249 133.732C72.0249 133.39 71.9619 133.09 71.8359 132.832C71.7099 132.574 71.5329 132.373 71.3049 132.229C71.0769 132.085 70.8129 132.013 70.5129 132.013C70.2189 132.013 69.9579 132.085 69.7299 132.229C69.5019 132.373 69.3249 132.574 69.1989 132.832C69.0729 133.09 69.0099 133.39 69.0099 133.732C69.0099 134.08 69.0729 134.383 69.1989 134.641C69.3249 134.893 69.5019 135.091 69.7299 135.235C69.9579 135.379 70.2189 135.451 70.5129 135.451ZM75.7775 136.108C75.3995 136.108 75.0695 136.045 74.7875 135.919C74.5115 135.793 74.2895 135.619 74.1215 135.397C73.9595 135.169 73.8605 134.902 73.8245 134.596H74.5985C74.6285 134.752 74.6915 134.896 74.7875 135.028C74.8835 135.16 75.0125 135.268 75.1745 135.352C75.3425 135.43 75.5465 135.469 75.7865 135.469C75.9965 135.469 76.1705 135.439 76.3085 135.379C76.4465 135.313 76.5485 135.226 76.6145 135.118C76.6865 135.01 76.7225 134.893 76.7225 134.767C76.7225 134.581 76.6775 134.44 76.5875 134.344C76.5035 134.248 76.3775 134.173 76.2095 134.119C76.0415 134.059 75.8375 134.008 75.5975 133.966C75.3995 133.93 75.2045 133.882 75.0125 133.822C74.8205 133.762 74.6495 133.684 74.4995 133.588C74.3495 133.486 74.2295 133.363 74.1395 133.219C74.0555 133.075 74.0135 132.898 74.0135 132.688C74.0135 132.43 74.0795 132.202 74.2115 132.004C74.3435 131.8 74.5325 131.641 74.7785 131.527C75.0305 131.413 75.3215 131.356 75.6515 131.356C76.1375 131.356 76.5305 131.473 76.8305 131.707C77.1305 131.941 77.3075 132.28 77.3615 132.724H76.6145C76.5845 132.496 76.4855 132.319 76.3175 132.193C76.1555 132.061 75.9305 131.995 75.6425 131.995C75.3605 131.995 75.1445 132.052 74.9945 132.166C74.8505 132.28 74.7785 132.43 74.7785 132.616C74.7785 132.736 74.8175 132.844 74.8955 132.94C74.9795 133.03 75.0995 133.108 75.2555 133.174C75.4175 133.24 75.6155 133.294 75.8495 133.336C76.1495 133.39 76.4225 133.462 76.6685 133.552C76.9145 133.642 77.1125 133.777 77.2625 133.957C77.4185 134.131 77.4965 134.38 77.4965 134.704C77.4965 134.986 77.4245 135.232 77.2805 135.442C77.1425 135.652 76.9445 135.817 76.6865 135.937C76.4285 136.051 76.1255 136.108 75.7775 136.108ZM80.1649 136C79.8949 136 79.6609 135.958 79.4629 135.874C79.2649 135.79 79.1119 135.649 79.0039 135.451C78.9019 135.247 78.8509 134.974 78.8509 134.632V132.103H78.0589V131.464H78.8509L78.9499 130.366H79.6069V131.464H80.9209V132.103H79.6069V134.632C79.6069 134.914 79.6639 135.106 79.7779 135.208C79.8919 135.304 80.0929 135.352 80.3809 135.352H80.8669V136H80.1649ZM83.3833 136.108C83.0173 136.108 82.7113 136.045 82.4653 135.919C82.2193 135.787 82.0363 135.616 81.9163 135.406C81.7963 135.19 81.7363 134.956 81.7363 134.704C81.7363 134.398 81.8143 134.14 81.9703 133.93C82.1323 133.714 82.3573 133.552 82.6453 133.444C82.9393 133.33 83.2843 133.273 83.6803 133.273H84.8773C84.8773 132.991 84.8323 132.757 84.7423 132.571C84.6583 132.379 84.5323 132.235 84.3643 132.139C84.2023 132.043 83.9983 131.995 83.7523 131.995C83.4643 131.995 83.2153 132.067 83.0053 132.211C82.7953 132.355 82.6663 132.568 82.6183 132.85H81.8443C81.8803 132.526 81.9883 132.256 82.1683 132.04C82.3543 131.818 82.5883 131.65 82.8703 131.536C83.1523 131.416 83.4463 131.356 83.7523 131.356C84.1723 131.356 84.5203 131.434 84.7963 131.59C85.0783 131.74 85.2883 131.953 85.4263 132.229C85.5643 132.499 85.6333 132.82 85.6333 133.192V136H84.9583L84.9133 135.199C84.8533 135.325 84.7753 135.445 84.6793 135.559C84.5893 135.667 84.4813 135.763 84.3553 135.847C84.2293 135.925 84.0853 135.988 83.9233 136.036C83.7673 136.084 83.5873 136.108 83.3833 136.108ZM83.5003 135.469C83.7103 135.469 83.8993 135.427 84.0673 135.343C84.2413 135.253 84.3883 135.133 84.5083 134.983C84.6283 134.827 84.7183 134.656 84.7783 134.47C84.8443 134.284 84.8773 134.089 84.8773 133.885V133.858H83.7433C83.4493 133.858 83.2123 133.894 83.0323 133.966C82.8523 134.032 82.7233 134.128 82.6453 134.254C82.5673 134.374 82.5283 134.512 82.5283 134.668C82.5283 134.83 82.5643 134.971 82.6363 135.091C82.7143 135.211 82.8253 135.304 82.9693 135.37C83.1193 135.436 83.2963 135.469 83.5003 135.469ZM87.9409 136L86.2219 131.464H87.0139L88.3819 135.271L89.7589 131.464H90.5329L88.8139 136H87.9409ZM91.382 136V129.52H92.138V136H91.382ZM92.5129 137.98V137.332H92.8639C93.0919 137.332 93.2539 137.284 93.3499 137.188C93.4459 137.098 93.4939 136.942 93.4939 136.72V131.464H94.2499V136.738C94.2499 137.026 94.2019 137.26 94.1059 137.44C94.0099 137.626 93.8659 137.761 93.6739 137.845C93.4879 137.935 93.2569 137.98 92.9809 137.98H92.5129ZM93.8809 130.501C93.7309 130.501 93.6049 130.453 93.5029 130.357C93.4069 130.255 93.3589 130.129 93.3589 129.979C93.3589 129.829 93.4069 129.709 93.5029 129.619C93.6049 129.523 93.7309 129.475 93.8809 129.475C94.0249 129.475 94.1449 129.523 94.2409 129.619C94.3429 129.709 94.3939 129.829 94.3939 129.979C94.3939 130.129 94.3429 130.255 94.2409 130.357C94.1449 130.453 94.0249 130.501 93.8809 130.501ZM97.0503 136.108C96.6843 136.108 96.3783 136.045 96.1323 135.919C95.8863 135.787 95.7033 135.616 95.5833 135.406C95.4633 135.19 95.4033 134.956 95.4033 134.704C95.4033 134.398 95.4813 134.14 95.6373 133.93C95.7993 133.714 96.0243 133.552 96.3123 133.444C96.6063 133.33 96.9513 133.273 97.3473 133.273H98.5443C98.5443 132.991 98.4993 132.757 98.4093 132.571C98.3253 132.379 98.1993 132.235 98.0313 132.139C97.8693 132.043 97.6653 131.995 97.4193 131.995C97.1313 131.995 96.8823 132.067 96.6723 132.211C96.4623 132.355 96.3333 132.568 96.2853 132.85H95.5113C95.5473 132.526 95.6553 132.256 95.8353 132.04C96.0213 131.818 96.2553 131.65 96.5373 131.536C96.8193 131.416 97.1133 131.356 97.4193 131.356C97.8393 131.356 98.1873 131.434 98.4633 131.59C98.7453 131.74 98.9553 131.953 99.0933 132.229C99.2313 132.499 99.3003 132.82 99.3003 133.192V136H98.6253L98.5803 135.199C98.5203 135.325 98.4423 135.445 98.3463 135.559C98.2563 135.667 98.1483 135.763 98.0223 135.847C97.8963 135.925 97.7523 135.988 97.5903 136.036C97.4343 136.084 97.2543 136.108 97.0503 136.108ZM97.1673 135.469C97.3773 135.469 97.5663 135.427 97.7343 135.343C97.9083 135.253 98.0553 135.133 98.1753 134.983C98.2953 134.827 98.3853 134.656 98.4453 134.47C98.5113 134.284 98.5443 134.089 98.5443 133.885V133.858H97.4103C97.1163 133.858 96.8793 133.894 96.6993 133.966C96.5193 134.032 96.3903 134.128 96.3123 134.254C96.2343 134.374 96.1953 134.512 96.1953 134.668C96.1953 134.83 96.2313 134.971 96.3033 135.091C96.3813 135.211 96.4923 135.304 96.6363 135.37C96.7863 135.436 96.9633 135.469 97.1673 135.469ZM102.86 137.98V131.464H103.544L103.607 132.202C103.703 132.058 103.826 131.923 103.976 131.797C104.126 131.665 104.306 131.56 104.516 131.482C104.726 131.398 104.966 131.356 105.236 131.356C105.68 131.356 106.064 131.461 106.388 131.671C106.718 131.881 106.973 132.166 107.153 132.526C107.339 132.88 107.432 133.285 107.432 133.741C107.432 134.197 107.339 134.605 107.153 134.965C106.973 135.319 106.718 135.598 106.388 135.802C106.058 136.006 105.671 136.108 105.227 136.108C104.861 136.108 104.537 136.033 104.255 135.883C103.979 135.733 103.766 135.523 103.616 135.253V137.98H102.86ZM105.146 135.451C105.44 135.451 105.701 135.379 105.929 135.235C106.157 135.091 106.334 134.893 106.46 134.641C106.592 134.383 106.658 134.08 106.658 133.732C106.658 133.39 106.592 133.09 106.46 132.832C106.334 132.574 106.157 132.373 105.929 132.229C105.701 132.085 105.44 132.013 105.146 132.013C104.846 132.013 104.582 132.085 104.354 132.229C104.126 132.373 103.949 132.574 103.823 132.832C103.697 133.09 103.634 133.39 103.634 133.732C103.634 134.08 103.697 134.383 103.823 134.641C103.949 134.893 104.126 135.091 104.354 135.235C104.582 135.379 104.846 135.451 105.146 135.451ZM108.494 136V131.464H109.178L109.232 132.328C109.334 132.124 109.463 131.95 109.619 131.806C109.781 131.662 109.973 131.551 110.195 131.473C110.423 131.395 110.681 131.356 110.969 131.356V132.148H110.69C110.498 132.148 110.315 132.175 110.141 132.229C109.967 132.277 109.811 132.358 109.673 132.472C109.541 132.586 109.436 132.742 109.358 132.94C109.286 133.132 109.25 133.372 109.25 133.66V136H108.494ZM113.683 136.108C113.263 136.108 112.885 136.012 112.549 135.82C112.213 135.622 111.949 135.346 111.757 134.992C111.565 134.632 111.469 134.215 111.469 133.741C111.469 133.255 111.565 132.835 111.757 132.481C111.955 132.121 112.222 131.845 112.558 131.653C112.9 131.455 113.281 131.356 113.701 131.356C114.133 131.356 114.514 131.455 114.844 131.653C115.18 131.845 115.444 132.121 115.636 132.481C115.834 132.835 115.933 133.252 115.933 133.732C115.933 134.212 115.834 134.632 115.636 134.992C115.438 135.346 115.171 135.622 114.835 135.82C114.499 136.012 114.115 136.108 113.683 136.108ZM113.692 135.46C113.95 135.46 114.19 135.397 114.412 135.271C114.634 135.139 114.814 134.944 114.952 134.686C115.09 134.428 115.159 134.11 115.159 133.732C115.159 133.348 115.09 133.03 114.952 132.778C114.82 132.52 114.643 132.328 114.421 132.202C114.205 132.07 113.965 132.004 113.701 132.004C113.449 132.004 113.209 132.07 112.981 132.202C112.759 132.328 112.579 132.52 112.441 132.778C112.309 133.03 112.243 133.348 112.243 133.732C112.243 134.11 112.309 134.428 112.441 134.686C112.579 134.944 112.756 135.139 112.972 135.271C113.194 135.397 113.434 135.46 113.692 135.46ZM119.036 136.108C118.61 136.108 118.226 136.009 117.884 135.811C117.548 135.613 117.284 135.337 117.092 134.983C116.9 134.623 116.804 134.209 116.804 133.741C116.804 133.261 116.9 132.844 117.092 132.49C117.284 132.136 117.548 131.86 117.884 131.662C118.226 131.458 118.61 131.356 119.036 131.356C119.576 131.356 120.026 131.497 120.386 131.779C120.746 132.055 120.974 132.427 121.07 132.895H120.296C120.236 132.613 120.089 132.394 119.855 132.238C119.621 132.082 119.345 132.004 119.027 132.004C118.769 132.004 118.529 132.07 118.307 132.202C118.085 132.328 117.908 132.52 117.776 132.778C117.644 133.036 117.578 133.354 117.578 133.732C117.578 134.014 117.617 134.266 117.695 134.488C117.773 134.704 117.878 134.884 118.01 135.028C118.142 135.172 118.295 135.283 118.469 135.361C118.649 135.433 118.835 135.469 119.027 135.469C119.243 135.469 119.438 135.436 119.612 135.37C119.786 135.298 119.933 135.193 120.053 135.055C120.173 134.917 120.254 134.755 120.296 134.569H121.07C120.974 135.025 120.743 135.397 120.377 135.685C120.017 135.967 119.57 136.108 119.036 136.108ZM124.133 136.108C123.707 136.108 123.329 136.009 122.999 135.811C122.675 135.613 122.42 135.337 122.234 134.983C122.048 134.623 121.955 134.206 121.955 133.732C121.955 133.252 122.045 132.835 122.225 132.481C122.411 132.127 122.669 131.851 122.999 131.653C123.335 131.455 123.719 131.356 124.151 131.356C124.595 131.356 124.97 131.455 125.276 131.653C125.588 131.851 125.825 132.112 125.987 132.436C126.155 132.754 126.239 133.105 126.239 133.489C126.239 133.549 126.239 133.612 126.239 133.678C126.239 133.744 126.236 133.819 126.23 133.903H122.522V133.318H125.501C125.483 132.904 125.345 132.58 125.087 132.346C124.835 132.112 124.517 131.995 124.133 131.995C123.875 131.995 123.635 132.055 123.413 132.175C123.197 132.289 123.023 132.46 122.891 132.688C122.759 132.91 122.693 133.189 122.693 133.525V133.777C122.693 134.149 122.759 134.461 122.891 134.713C123.029 134.965 123.206 135.154 123.422 135.28C123.644 135.406 123.881 135.469 124.133 135.469C124.451 135.469 124.712 135.4 124.916 135.262C125.126 135.118 125.276 134.926 125.366 134.686H126.113C126.041 134.956 125.915 135.199 125.735 135.415C125.555 135.631 125.33 135.802 125.06 135.928C124.796 136.048 124.487 136.108 124.133 136.108ZM127.259 136V131.464H127.943L127.979 132.256C128.123 131.974 128.327 131.755 128.591 131.599C128.861 131.437 129.167 131.356 129.509 131.356C129.863 131.356 130.169 131.428 130.427 131.572C130.685 131.71 130.886 131.923 131.03 132.211C131.174 132.493 131.246 132.853 131.246 133.291V136H130.49V133.372C130.49 132.916 130.388 132.574 130.184 132.346C129.986 132.118 129.704 132.004 129.338 132.004C129.086 132.004 128.861 132.067 128.663 132.193C128.465 132.313 128.306 132.49 128.186 132.724C128.072 132.952 128.015 133.237 128.015 133.579V136H127.259ZM133.903 136.108C133.537 136.108 133.231 136.045 132.985 135.919C132.739 135.787 132.556 135.616 132.436 135.406C132.316 135.19 132.256 134.956 132.256 134.704C132.256 134.398 132.334 134.14 132.49 133.93C132.652 133.714 132.877 133.552 133.165 133.444C133.459 133.33 133.804 133.273 134.2 133.273H135.397C135.397 132.991 135.352 132.757 135.262 132.571C135.178 132.379 135.052 132.235 134.884 132.139C134.722 132.043 134.518 131.995 134.272 131.995C133.984 131.995 133.735 132.067 133.525 132.211C133.315 132.355 133.186 132.568 133.138 132.85H132.364C132.4 132.526 132.508 132.256 132.688 132.04C132.874 131.818 133.108 131.65 133.39 131.536C133.672 131.416 133.966 131.356 134.272 131.356C134.692 131.356 135.04 131.434 135.316 131.59C135.598 131.74 135.808 131.953 135.946 132.229C136.084 132.499 136.153 132.82 136.153 133.192V136H135.478L135.433 135.199C135.373 135.325 135.295 135.445 135.199 135.559C135.109 135.667 135.001 135.763 134.875 135.847C134.749 135.925 134.605 135.988 134.443 136.036C134.287 136.084 134.107 136.108 133.903 136.108ZM134.02 135.469C134.23 135.469 134.419 135.427 134.587 135.343C134.761 135.253 134.908 135.133 135.028 134.983C135.148 134.827 135.238 134.656 135.298 134.47C135.364 134.284 135.397 134.089 135.397 133.885V133.858H134.263C133.969 133.858 133.732 133.894 133.552 133.966C133.372 134.032 133.243 134.128 133.165 134.254C133.087 134.374 133.048 134.512 133.048 134.668C133.048 134.83 133.084 134.971 133.156 135.091C133.234 135.211 133.345 135.304 133.489 135.37C133.639 135.436 133.816 135.469 134.02 135.469ZM138.981 136C138.711 136 138.477 135.958 138.279 135.874C138.081 135.79 137.928 135.649 137.82 135.451C137.718 135.247 137.667 134.974 137.667 134.632V132.103H136.875V131.464H137.667L137.766 130.366H138.423V131.464H139.737V132.103H138.423V134.632C138.423 134.914 138.48 135.106 138.594 135.208C138.708 135.304 138.909 135.352 139.197 135.352H139.683V136H138.981ZM143.114 136V129.52H143.87V136H143.114ZM144.245 137.98V137.332H144.596C144.824 137.332 144.986 137.284 145.082 137.188C145.178 137.098 145.226 136.942 145.226 136.72V131.464H145.982V136.738C145.982 137.026 145.934 137.26 145.838 137.44C145.742 137.626 145.598 137.761 145.406 137.845C145.22 137.935 144.989 137.98 144.713 137.98H144.245ZM145.613 130.501C145.463 130.501 145.337 130.453 145.235 130.357C145.139 130.255 145.091 130.129 145.091 129.979C145.091 129.829 145.139 129.709 145.235 129.619C145.337 129.523 145.463 129.475 145.613 129.475C145.757 129.475 145.877 129.523 145.973 129.619C146.075 129.709 146.126 129.829 146.126 129.979C146.126 130.129 146.075 130.255 145.973 130.357C145.877 130.453 145.757 130.501 145.613 130.501ZM148.954 136.108C148.606 136.108 148.3 136.039 148.036 135.901C147.778 135.763 147.577 135.55 147.433 135.262C147.295 134.974 147.226 134.614 147.226 134.182V131.464H147.982V134.101C147.982 134.551 148.081 134.89 148.279 135.118C148.477 135.346 148.756 135.46 149.116 135.46C149.368 135.46 149.596 135.4 149.8 135.28C150.004 135.154 150.163 134.977 150.277 134.749C150.397 134.515 150.457 134.23 150.457 133.894V131.464H151.213V136H150.529L150.484 135.208C150.346 135.49 150.142 135.712 149.872 135.874C149.602 136.03 149.296 136.108 148.954 136.108ZM154.464 136.108C154.026 136.108 153.642 136.006 153.312 135.802C152.982 135.592 152.727 135.307 152.547 134.947C152.367 134.587 152.277 134.179 152.277 133.723C152.277 133.267 152.367 132.862 152.547 132.508C152.727 132.148 152.982 131.866 153.312 131.662C153.648 131.458 154.035 131.356 154.473 131.356C154.845 131.356 155.169 131.431 155.445 131.581C155.727 131.731 155.943 131.941 156.093 132.211V129.52H156.849V136H156.165L156.102 135.253C156.006 135.403 155.883 135.544 155.733 135.676C155.583 135.802 155.403 135.907 155.193 135.991C154.983 136.069 154.74 136.108 154.464 136.108ZM154.554 135.451C154.854 135.451 155.118 135.379 155.346 135.235C155.574 135.091 155.751 134.893 155.877 134.641C156.003 134.383 156.066 134.08 156.066 133.732C156.066 133.39 156.003 133.09 155.877 132.832C155.751 132.574 155.574 132.373 155.346 132.229C155.118 132.085 154.854 132.013 154.554 132.013C154.26 132.013 153.999 132.085 153.771 132.229C153.543 132.373 153.366 132.574 153.24 132.832C153.114 133.09 153.051 133.39 153.051 133.732C153.051 134.08 153.114 134.383 153.24 134.641C153.366 134.893 153.543 135.091 153.771 135.235C153.999 135.379 154.26 135.451 154.554 135.451ZM158.181 136V131.464H158.937V136H158.181ZM158.559 130.501C158.409 130.501 158.283 130.453 158.181 130.357C158.085 130.255 158.037 130.129 158.037 129.979C158.037 129.829 158.085 129.709 158.181 129.619C158.283 129.523 158.409 129.475 158.559 129.475C158.703 129.475 158.826 129.523 158.928 129.619C159.03 129.709 159.081 129.829 159.081 129.979C159.081 130.129 159.03 130.255 158.928 130.357C158.826 130.453 158.703 130.501 158.559 130.501ZM165.451 136L163.291 133.516L165.262 131.464H166.189L163.93 133.786L163.939 133.246L166.414 136H165.451ZM162.661 136V129.52H163.417V136H162.661ZM168.896 136.108C168.476 136.108 168.098 136.012 167.762 135.82C167.426 135.622 167.162 135.346 166.97 134.992C166.778 134.632 166.682 134.215 166.682 133.741C166.682 133.255 166.778 132.835 166.97 132.481C167.168 132.121 167.435 131.845 167.771 131.653C168.113 131.455 168.494 131.356 168.914 131.356C169.346 131.356 169.727 131.455 170.057 131.653C170.393 131.845 170.657 132.121 170.849 132.481C171.047 132.835 171.146 133.252 171.146 133.732C171.146 134.212 171.047 134.632 170.849 134.992C170.651 135.346 170.384 135.622 170.048 135.82C169.712 136.012 169.328 136.108 168.896 136.108ZM168.905 135.46C169.163 135.46 169.403 135.397 169.625 135.271C169.847 135.139 170.027 134.944 170.165 134.686C170.303 134.428 170.372 134.11 170.372 133.732C170.372 133.348 170.303 133.03 170.165 132.778C170.033 132.52 169.856 132.328 169.634 132.202C169.418 132.07 169.178 132.004 168.914 132.004C168.662 132.004 168.422 132.07 168.194 132.202C167.972 132.328 167.792 132.52 167.654 132.778C167.522 133.03 167.456 133.348 167.456 133.732C167.456 134.11 167.522 134.428 167.654 134.686C167.792 134.944 167.969 135.139 168.185 135.271C168.407 135.397 168.647 135.46 168.905 135.46ZM171.333 137.98V137.332H171.684C171.912 137.332 172.074 137.284 172.17 137.188C172.266 137.098 172.314 136.942 172.314 136.72V131.464H173.07V136.738C173.07 137.026 173.022 137.26 172.926 137.44C172.83 137.626 172.686 137.761 172.494 137.845C172.308 137.935 172.077 137.98 171.801 137.98H171.333ZM172.701 130.501C172.551 130.501 172.425 130.453 172.323 130.357C172.227 130.255 172.179 130.129 172.179 129.979C172.179 129.829 172.227 129.709 172.323 129.619C172.425 129.523 172.551 129.475 172.701 129.475C172.845 129.475 172.965 129.523 173.061 129.619C173.163 129.709 173.214 129.829 173.214 129.979C173.214 130.129 173.163 130.255 173.061 130.357C172.965 130.453 172.845 130.501 172.701 130.501ZM174.467 136V131.464H175.223V136H174.467ZM174.845 130.501C174.695 130.501 174.569 130.453 174.467 130.357C174.371 130.255 174.323 130.129 174.323 129.979C174.323 129.829 174.371 129.709 174.467 129.619C174.569 129.523 174.695 129.475 174.845 129.475C174.989 129.475 175.112 129.523 175.214 129.619C175.316 129.709 175.367 129.829 175.367 129.979C175.367 130.129 175.316 130.255 175.214 130.357C175.112 130.453 174.989 130.501 174.845 130.501ZM11.63 148V143.464H12.314L12.35 144.256C12.494 143.974 12.698 143.755 12.962 143.599C13.232 143.437 13.538 143.356 13.88 143.356C14.234 143.356 14.54 143.428 14.798 143.572C15.056 143.71 15.257 143.923 15.401 144.211C15.545 144.493 15.617 144.853 15.617 145.291V148H14.861V145.372C14.861 144.916 14.759 144.574 14.555 144.346C14.357 144.118 14.075 144.004 13.709 144.004C13.457 144.004 13.232 144.067 13.034 144.193C12.836 144.313 12.677 144.49 12.557 144.724C12.443 144.952 12.386 145.237 12.386 145.579V148H11.63ZM18.274 148.108C17.908 148.108 17.602 148.045 17.356 147.919C17.11 147.787 16.927 147.616 16.807 147.406C16.687 147.19 16.627 146.956 16.627 146.704C16.627 146.398 16.705 146.14 16.861 145.93C17.023 145.714 17.248 145.552 17.536 145.444C17.83 145.33 18.175 145.273 18.571 145.273H19.768C19.768 144.991 19.723 144.757 19.633 144.571C19.549 144.379 19.423 144.235 19.255 144.139C19.093 144.043 18.889 143.995 18.643 143.995C18.355 143.995 18.106 144.067 17.896 144.211C17.686 144.355 17.557 144.568 17.509 144.85H16.735C16.771 144.526 16.879 144.256 17.059 144.04C17.245 143.818 17.479 143.65 17.761 143.536C18.043 143.416 18.337 143.356 18.643 143.356C19.063 143.356 19.411 143.434 19.687 143.59C19.969 143.74 20.179 143.953 20.317 144.229C20.455 144.499 20.524 144.82 20.524 145.192V148H19.849L19.804 147.199C19.744 147.325 19.666 147.445 19.57 147.559C19.48 147.667 19.372 147.763 19.246 147.847C19.12 147.925 18.976 147.988 18.814 148.036C18.658 148.084 18.478 148.108 18.274 148.108ZM18.391 147.469C18.601 147.469 18.79 147.427 18.958 147.343C19.132 147.253 19.279 147.133 19.399 146.983C19.519 146.827 19.609 146.656 19.669 146.47C19.735 146.284 19.768 146.089 19.768 145.885V145.858H18.634C18.34 145.858 18.103 145.894 17.923 145.966C17.743 146.032 17.614 146.128 17.536 146.254C17.458 146.374 17.419 146.512 17.419 146.668C17.419 146.83 17.455 146.971 17.527 147.091C17.605 147.211 17.716 147.304 17.86 147.37C18.01 147.436 18.187 147.469 18.391 147.469ZM21.6935 149.98V143.464H22.3775L22.4405 144.202C22.5365 144.058 22.6595 143.923 22.8095 143.797C22.9595 143.665 23.1395 143.56 23.3495 143.482C23.5595 143.398 23.7995 143.356 24.0695 143.356C24.5135 143.356 24.8975 143.461 25.2215 143.671C25.5515 143.881 25.8065 144.166 25.9865 144.526C26.1725 144.88 26.2655 145.285 26.2655 145.741C26.2655 146.197 26.1725 146.605 25.9865 146.965C25.8065 147.319 25.5515 147.598 25.2215 147.802C24.8915 148.006 24.5045 148.108 24.0605 148.108C23.6945 148.108 23.3705 148.033 23.0885 147.883C22.8125 147.733 22.5995 147.523 22.4495 147.253V149.98H21.6935ZM23.9795 147.451C24.2735 147.451 24.5345 147.379 24.7625 147.235C24.9905 147.091 25.1675 146.893 25.2935 146.641C25.4255 146.383 25.4915 146.08 25.4915 145.732C25.4915 145.39 25.4255 145.09 25.2935 144.832C25.1675 144.574 24.9905 144.373 24.7625 144.229C24.5345 144.085 24.2735 144.013 23.9795 144.013C23.6795 144.013 23.4155 144.085 23.1875 144.229C22.9595 144.373 22.7825 144.574 22.6565 144.832C22.5305 145.09 22.4675 145.39 22.4675 145.732C22.4675 146.08 22.5305 146.383 22.6565 146.641C22.7825 146.893 22.9595 147.091 23.1875 147.235C23.4155 147.379 23.6795 147.451 23.9795 147.451ZM28.9743 148.108C28.6263 148.108 28.3203 148.039 28.0563 147.901C27.7983 147.763 27.5973 147.55 27.4533 147.262C27.3153 146.974 27.2463 146.614 27.2463 146.182V143.464H28.0023V146.101C28.0023 146.551 28.1013 146.89 28.2993 147.118C28.4973 147.346 28.7763 147.46 29.1363 147.46C29.3883 147.46 29.6163 147.4 29.8203 147.28C30.0243 147.154 30.1833 146.977 30.2973 146.749C30.4173 146.515 30.4773 146.23 30.4773 145.894V143.464H31.2333V148H30.5493L30.5043 147.208C30.3663 147.49 30.1623 147.712 29.8923 147.874C29.6223 148.03 29.3163 148.108 28.9743 148.108ZM34.1964 148.108C33.8184 148.108 33.4884 148.045 33.2064 147.919C32.9304 147.793 32.7084 147.619 32.5404 147.397C32.3784 147.169 32.2794 146.902 32.2434 146.596H33.0174C33.0474 146.752 33.1104 146.896 33.2064 147.028C33.3024 147.16 33.4314 147.268 33.5934 147.352C33.7614 147.43 33.9654 147.469 34.2054 147.469C34.4154 147.469 34.5894 147.439 34.7274 147.379C34.8654 147.313 34.9674 147.226 35.0334 147.118C35.1054 147.01 35.1414 146.893 35.1414 146.767C35.1414 146.581 35.0964 146.44 35.0064 146.344C34.9224 146.248 34.7964 146.173 34.6284 146.119C34.4604 146.059 34.2564 146.008 34.0164 145.966C33.8184 145.93 33.6234 145.882 33.4314 145.822C33.2394 145.762 33.0684 145.684 32.9184 145.588C32.7684 145.486 32.6484 145.363 32.5584 145.219C32.4744 145.075 32.4324 144.898 32.4324 144.688C32.4324 144.43 32.4984 144.202 32.6304 144.004C32.7624 143.8 32.9514 143.641 33.1974 143.527C33.4494 143.413 33.7404 143.356 34.0704 143.356C34.5564 143.356 34.9494 143.473 35.2494 143.707C35.5494 143.941 35.7264 144.28 35.7804 144.724H35.0334C35.0034 144.496 34.9044 144.319 34.7364 144.193C34.5744 144.061 34.3494 143.995 34.0614 143.995C33.7794 143.995 33.5634 144.052 33.4134 144.166C33.2694 144.28 33.1974 144.43 33.1974 144.616C33.1974 144.736 33.2364 144.844 33.3144 144.94C33.3984 145.03 33.5184 145.108 33.6744 145.174C33.8364 145.24 34.0344 145.294 34.2684 145.336C34.5684 145.39 34.8414 145.462 35.0874 145.552C35.3334 145.642 35.5314 145.777 35.6814 145.957C35.8374 146.131 35.9154 146.38 35.9154 146.704C35.9154 146.986 35.8434 147.232 35.6994 147.442C35.5614 147.652 35.3634 147.817 35.1054 147.937C34.8474 148.051 34.5444 148.108 34.1964 148.108ZM38.5839 148C38.3139 148 38.0799 147.958 37.8819 147.874C37.6839 147.79 37.5309 147.649 37.4229 147.451C37.3209 147.247 37.2699 146.974 37.2699 146.632V144.103H36.4779V143.464H37.2699L37.3689 142.366H38.0259V143.464H39.3399V144.103H38.0259V146.632C38.0259 146.914 38.0829 147.106 38.1969 147.208C38.3109 147.304 38.5119 147.352 38.7999 147.352H39.2859V148H38.5839ZM40.3983 148V143.464H41.1543V148H40.3983ZM40.7763 142.501C40.6263 142.501 40.5003 142.453 40.3983 142.357C40.3023 142.255 40.2543 142.129 40.2543 141.979C40.2543 141.829 40.3023 141.709 40.3983 141.619C40.5003 141.523 40.6263 141.475 40.7763 141.475C40.9203 141.475 41.0433 141.523 41.1453 141.619C41.2473 141.709 41.2983 141.829 41.2983 141.979C41.2983 142.129 41.2473 142.255 41.1453 142.357C41.0433 142.453 40.9203 142.501 40.7763 142.501ZM46.589 148.108C46.211 148.108 45.881 148.045 45.599 147.919C45.323 147.793 45.101 147.619 44.933 147.397C44.771 147.169 44.672 146.902 44.636 146.596H45.41C45.44 146.752 45.503 146.896 45.599 147.028C45.695 147.16 45.824 147.268 45.986 147.352C46.154 147.43 46.358 147.469 46.598 147.469C46.808 147.469 46.982 147.439 47.12 147.379C47.258 147.313 47.36 147.226 47.426 147.118C47.498 147.01 47.534 146.893 47.534 146.767C47.534 146.581 47.489 146.44 47.399 146.344C47.315 146.248 47.189 146.173 47.021 146.119C46.853 146.059 46.649 146.008 46.409 145.966C46.211 145.93 46.016 145.882 45.824 145.822C45.632 145.762 45.461 145.684 45.311 145.588C45.161 145.486 45.041 145.363 44.951 145.219C44.867 145.075 44.825 144.898 44.825 144.688C44.825 144.43 44.891 144.202 45.023 144.004C45.155 143.8 45.344 143.641 45.59 143.527C45.842 143.413 46.133 143.356 46.463 143.356C46.949 143.356 47.342 143.473 47.642 143.707C47.942 143.941 48.119 144.28 48.173 144.724H47.426C47.396 144.496 47.297 144.319 47.129 144.193C46.967 144.061 46.742 143.995 46.454 143.995C46.172 143.995 45.956 144.052 45.806 144.166C45.662 144.28 45.59 144.43 45.59 144.616C45.59 144.736 45.629 144.844 45.707 144.94C45.791 145.03 45.911 145.108 46.067 145.174C46.229 145.24 46.427 145.294 46.661 145.336C46.961 145.39 47.234 145.462 47.48 145.552C47.726 145.642 47.924 145.777 48.074 145.957C48.23 146.131 48.308 146.38 48.308 146.704C48.308 146.986 48.236 147.232 48.092 147.442C47.954 147.652 47.756 147.817 47.498 147.937C47.24 148.051 46.937 148.108 46.589 148.108ZM50.4555 148L48.7365 143.464H49.5285L50.8965 147.271L52.2735 143.464H53.0475L51.3285 148H50.4555ZM55.6931 148.108C55.2731 148.108 54.8951 148.012 54.5591 147.82C54.2231 147.622 53.9591 147.346 53.7671 146.992C53.5751 146.632 53.4791 146.215 53.4791 145.741C53.4791 145.255 53.5751 144.835 53.7671 144.481C53.9651 144.121 54.2321 143.845 54.5681 143.653C54.9101 143.455 55.2911 143.356 55.7111 143.356C56.1431 143.356 56.5241 143.455 56.8541 143.653C57.1901 143.845 57.4541 144.121 57.6461 144.481C57.8441 144.835 57.9431 145.252 57.9431 145.732C57.9431 146.212 57.8441 146.632 57.6461 146.992C57.4481 147.346 57.1811 147.622 56.8451 147.82C56.5091 148.012 56.1251 148.108 55.6931 148.108ZM55.7021 147.46C55.9601 147.46 56.2001 147.397 56.4221 147.271C56.6441 147.139 56.8241 146.944 56.9621 146.686C57.1001 146.428 57.1691 146.11 57.1691 145.732C57.1691 145.348 57.1001 145.03 56.9621 144.778C56.8301 144.52 56.6531 144.328 56.4311 144.202C56.2151 144.07 55.9751 144.004 55.7111 144.004C55.4591 144.004 55.2191 144.07 54.9911 144.202C54.7691 144.328 54.5891 144.52 54.4511 144.778C54.3191 145.03 54.2531 145.348 54.2531 145.732C54.2531 146.11 54.3191 146.428 54.4511 146.686C54.5891 146.944 54.7661 147.139 54.9821 147.271C55.2041 147.397 55.4441 147.46 55.7021 147.46ZM58.13 149.98V149.332H58.481C58.709 149.332 58.871 149.284 58.967 149.188C59.063 149.098 59.111 148.942 59.111 148.72V143.464H59.867V148.738C59.867 149.026 59.819 149.26 59.723 149.44C59.627 149.626 59.483 149.761 59.291 149.845C59.105 149.935 58.874 149.98 58.598 149.98H58.13ZM59.498 142.501C59.348 142.501 59.222 142.453 59.12 142.357C59.024 142.255 58.976 142.129 58.976 141.979C58.976 141.829 59.024 141.709 59.12 141.619C59.222 141.523 59.348 141.475 59.498 141.475C59.642 141.475 59.762 141.523 59.858 141.619C59.96 141.709 60.011 141.829 60.011 141.979C60.011 142.129 59.96 142.255 59.858 142.357C59.762 142.453 59.642 142.501 59.498 142.501ZM63.1805 148.108C62.7545 148.108 62.3765 148.009 62.0465 147.811C61.7225 147.613 61.4675 147.337 61.2815 146.983C61.0955 146.623 61.0025 146.206 61.0025 145.732C61.0025 145.252 61.0925 144.835 61.2725 144.481C61.4585 144.127 61.7165 143.851 62.0465 143.653C62.3825 143.455 62.7665 143.356 63.1985 143.356C63.6425 143.356 64.0175 143.455 64.3235 143.653C64.6355 143.851 64.8725 144.112 65.0345 144.436C65.2025 144.754 65.2865 145.105 65.2865 145.489C65.2865 145.549 65.2865 145.612 65.2865 145.678C65.2865 145.744 65.2835 145.819 65.2775 145.903H61.5695V145.318H64.5485C64.5305 144.904 64.3925 144.58 64.1345 144.346C63.8825 144.112 63.5645 143.995 63.1805 143.995C62.9225 143.995 62.6825 144.055 62.4605 144.175C62.2445 144.289 62.0705 144.46 61.9385 144.688C61.8065 144.91 61.7405 145.189 61.7405 145.525V145.777C61.7405 146.149 61.8065 146.461 61.9385 146.713C62.0765 146.965 62.2535 147.154 62.4695 147.28C62.6915 147.406 62.9285 147.469 63.1805 147.469C63.4985 147.469 63.7595 147.4 63.9635 147.262C64.1735 147.118 64.3235 146.926 64.4135 146.686H65.1605C65.0885 146.956 64.9625 147.199 64.7825 147.415C64.6025 147.631 64.3775 147.802 64.1075 147.928C63.8435 148.048 63.5345 148.108 63.1805 148.108ZM70.4794 148C70.2094 148 69.9754 147.958 69.7774 147.874C69.5794 147.79 69.4264 147.649 69.3184 147.451C69.2164 147.247 69.1654 146.974 69.1654 146.632V144.103H68.3734V143.464H69.1654L69.2644 142.366H69.9214V143.464H71.2354V144.103H69.9214V146.632C69.9214 146.914 69.9784 147.106 70.0924 147.208C70.2064 147.304 70.4074 147.352 70.6954 147.352H71.1814V148H70.4794ZM72.2218 148V143.464H72.9058L72.9598 144.328C73.0618 144.124 73.1908 143.95 73.3468 143.806C73.5088 143.662 73.7008 143.551 73.9228 143.473C74.1508 143.395 74.4088 143.356 74.6968 143.356V144.148H74.4178C74.2258 144.148 74.0428 144.175 73.8688 144.229C73.6948 144.277 73.5388 144.358 73.4008 144.472C73.2688 144.586 73.1638 144.742 73.0858 144.94C73.0138 145.132 72.9778 145.372 72.9778 145.66V148H72.2218ZM77.3749 148.108C76.9489 148.108 76.5709 148.009 76.2409 147.811C75.9169 147.613 75.6619 147.337 75.4759 146.983C75.2899 146.623 75.1969 146.206 75.1969 145.732C75.1969 145.252 75.2869 144.835 75.4669 144.481C75.6529 144.127 75.9109 143.851 76.2409 143.653C76.5769 143.455 76.9609 143.356 77.3929 143.356C77.8369 143.356 78.2119 143.455 78.5179 143.653C78.8299 143.851 79.0669 144.112 79.2289 144.436C79.3969 144.754 79.4809 145.105 79.4809 145.489C79.4809 145.549 79.4809 145.612 79.4809 145.678C79.4809 145.744 79.4779 145.819 79.4719 145.903H75.7639V145.318H78.7429C78.7249 144.904 78.5869 144.58 78.3289 144.346C78.0769 144.112 77.7589 143.995 77.3749 143.995C77.1169 143.995 76.8769 144.055 76.6549 144.175C76.4389 144.289 76.2649 144.46 76.1329 144.688C76.0009 144.91 75.9349 145.189 75.9349 145.525V145.777C75.9349 146.149 76.0009 146.461 76.1329 146.713C76.2709 146.965 76.4479 147.154 76.6639 147.28C76.8859 147.406 77.1229 147.469 77.3749 147.469C77.6929 147.469 77.9539 147.4 78.1579 147.262C78.3679 147.118 78.5179 146.926 78.6079 146.686H79.3549C79.2829 146.956 79.1569 147.199 78.9769 147.415C78.7969 147.631 78.5719 147.802 78.3019 147.928C78.0379 148.048 77.7289 148.108 77.3749 148.108ZM80.5011 148V143.464H81.1851L81.2211 144.256C81.3651 143.974 81.5691 143.755 81.8331 143.599C82.1031 143.437 82.4091 143.356 82.7511 143.356C83.1051 143.356 83.4111 143.428 83.6691 143.572C83.9271 143.71 84.1281 143.923 84.2721 144.211C84.4161 144.493 84.4881 144.853 84.4881 145.291V148H83.7321V145.372C83.7321 144.916 83.6301 144.574 83.4261 144.346C83.2281 144.118 82.9461 144.004 82.5801 144.004C82.3281 144.004 82.1031 144.067 81.9051 144.193C81.7071 144.313 81.5481 144.49 81.4281 144.724C81.3141 144.952 81.2571 145.237 81.2571 145.579V148H80.5011ZM87.6581 148.108C87.2321 148.108 86.8541 148.009 86.5241 147.811C86.2001 147.613 85.9451 147.337 85.7591 146.983C85.5731 146.623 85.4801 146.206 85.4801 145.732C85.4801 145.252 85.5701 144.835 85.7501 144.481C85.9361 144.127 86.1941 143.851 86.5241 143.653C86.8601 143.455 87.2441 143.356 87.6761 143.356C88.1201 143.356 88.4951 143.455 88.8011 143.653C89.1131 143.851 89.3501 144.112 89.5121 144.436C89.6801 144.754 89.7641 145.105 89.7641 145.489C89.7641 145.549 89.7641 145.612 89.7641 145.678C89.7641 145.744 89.7611 145.819 89.7551 145.903H86.0471V145.318H89.0261C89.0081 144.904 88.8701 144.58 88.6121 144.346C88.3601 144.112 88.0421 143.995 87.6581 143.995C87.4001 143.995 87.1601 144.055 86.9381 144.175C86.7221 144.289 86.5481 144.46 86.4161 144.688C86.2841 144.91 86.2181 145.189 86.2181 145.525V145.777C86.2181 146.149 86.2841 146.461 86.4161 146.713C86.5541 146.965 86.7311 147.154 86.9471 147.28C87.1691 147.406 87.4061 147.469 87.6581 147.469C87.9761 147.469 88.2371 147.4 88.4411 147.262C88.6511 147.118 88.8011 146.926 88.8911 146.686H89.6381C89.5661 146.956 89.4401 147.199 89.2601 147.415C89.0801 147.631 88.8551 147.802 88.5851 147.928C88.3211 148.048 88.0121 148.108 87.6581 148.108ZM90.7843 148V143.464H91.4683L91.5223 144.328C91.6243 144.124 91.7533 143.95 91.9093 143.806C92.0713 143.662 92.2633 143.551 92.4853 143.473C92.7133 143.395 92.9713 143.356 93.2593 143.356V144.148H92.9803C92.7883 144.148 92.6053 144.175 92.4313 144.229C92.2573 144.277 92.1013 144.358 91.9633 144.472C91.8313 144.586 91.7263 144.742 91.6483 144.94C91.5763 145.132 91.5403 145.372 91.5403 145.66V148H90.7843ZM95.9374 148.108C95.5114 148.108 95.1334 148.009 94.8034 147.811C94.4794 147.613 94.2244 147.337 94.0384 146.983C93.8524 146.623 93.7594 146.206 93.7594 145.732C93.7594 145.252 93.8494 144.835 94.0294 144.481C94.2154 144.127 94.4734 143.851 94.8034 143.653C95.1394 143.455 95.5234 143.356 95.9554 143.356C96.3994 143.356 96.7744 143.455 97.0804 143.653C97.3924 143.851 97.6294 144.112 97.7914 144.436C97.9594 144.754 98.0434 145.105 98.0434 145.489C98.0434 145.549 98.0434 145.612 98.0434 145.678C98.0434 145.744 98.0404 145.819 98.0344 145.903H94.3264V145.318H97.3054C97.2874 144.904 97.1494 144.58 96.8914 144.346C96.6394 144.112 96.3214 143.995 95.9374 143.995C95.6794 143.995 95.4394 144.055 95.2174 144.175C95.0014 144.289 94.8274 144.46 94.6954 144.688C94.5634 144.91 94.4974 145.189 94.4974 145.525V145.777C94.4974 146.149 94.5634 146.461 94.6954 146.713C94.8334 146.965 95.0104 147.154 95.2264 147.28C95.4484 147.406 95.6854 147.469 95.9374 147.469C96.2554 147.469 96.5164 147.4 96.7204 147.262C96.9304 147.118 97.0804 146.926 97.1704 146.686H97.9174C97.8454 146.956 97.7194 147.199 97.5394 147.415C97.3594 147.631 97.1344 147.802 96.8644 147.928C96.6004 148.048 96.2914 148.108 95.9374 148.108ZM101.454 149.98V143.464H102.138L102.201 144.202C102.297 144.058 102.42 143.923 102.57 143.797C102.72 143.665 102.9 143.56 103.11 143.482C103.32 143.398 103.56 143.356 103.83 143.356C104.274 143.356 104.658 143.461 104.982 143.671C105.312 143.881 105.567 144.166 105.747 144.526C105.933 144.88 106.026 145.285 106.026 145.741C106.026 146.197 105.933 146.605 105.747 146.965C105.567 147.319 105.312 147.598 104.982 147.802C104.652 148.006 104.265 148.108 103.821 148.108C103.455 148.108 103.131 148.033 102.849 147.883C102.573 147.733 102.36 147.523 102.21 147.253V149.98H101.454ZM103.74 147.451C104.034 147.451 104.295 147.379 104.523 147.235C104.751 147.091 104.928 146.893 105.054 146.641C105.186 146.383 105.252 146.08 105.252 145.732C105.252 145.39 105.186 145.09 105.054 144.832C104.928 144.574 104.751 144.373 104.523 144.229C104.295 144.085 104.034 144.013 103.74 144.013C103.44 144.013 103.176 144.085 102.948 144.229C102.72 144.373 102.543 144.574 102.417 144.832C102.291 145.09 102.228 145.39 102.228 145.732C102.228 146.08 102.291 146.383 102.417 146.641C102.543 146.893 102.72 147.091 102.948 147.235C103.176 147.379 103.44 147.451 103.74 147.451ZM109.113 148.108C108.693 148.108 108.315 148.012 107.979 147.82C107.643 147.622 107.379 147.346 107.187 146.992C106.995 146.632 106.899 146.215 106.899 145.741C106.899 145.255 106.995 144.835 107.187 144.481C107.385 144.121 107.652 143.845 107.988 143.653C108.33 143.455 108.711 143.356 109.131 143.356C109.563 143.356 109.944 143.455 110.274 143.653C110.61 143.845 110.874 144.121 111.066 144.481C111.264 144.835 111.363 145.252 111.363 145.732C111.363 146.212 111.264 146.632 111.066 146.992C110.868 147.346 110.601 147.622 110.265 147.82C109.929 148.012 109.545 148.108 109.113 148.108ZM109.122 147.46C109.38 147.46 109.62 147.397 109.842 147.271C110.064 147.139 110.244 146.944 110.382 146.686C110.52 146.428 110.589 146.11 110.589 145.732C110.589 145.348 110.52 145.03 110.382 144.778C110.25 144.52 110.073 144.328 109.851 144.202C109.635 144.07 109.395 144.004 109.131 144.004C108.879 144.004 108.639 144.07 108.411 144.202C108.189 144.328 108.009 144.52 107.871 144.778C107.739 145.03 107.673 145.348 107.673 145.732C107.673 146.11 107.739 146.428 107.871 146.686C108.009 146.944 108.186 147.139 108.402 147.271C108.624 147.397 108.864 147.46 109.122 147.46ZM114.133 148.108C113.755 148.108 113.425 148.045 113.143 147.919C112.867 147.793 112.645 147.619 112.477 147.397C112.315 147.169 112.216 146.902 112.18 146.596H112.954C112.984 146.752 113.047 146.896 113.143 147.028C113.239 147.16 113.368 147.268 113.53 147.352C113.698 147.43 113.902 147.469 114.142 147.469C114.352 147.469 114.526 147.439 114.664 147.379C114.802 147.313 114.904 147.226 114.97 147.118C115.042 147.01 115.078 146.893 115.078 146.767C115.078 146.581 115.033 146.44 114.943 146.344C114.859 146.248 114.733 146.173 114.565 146.119C114.397 146.059 114.193 146.008 113.953 145.966C113.755 145.93 113.56 145.882 113.368 145.822C113.176 145.762 113.005 145.684 112.855 145.588C112.705 145.486 112.585 145.363 112.495 145.219C112.411 145.075 112.369 144.898 112.369 144.688C112.369 144.43 112.435 144.202 112.567 144.004C112.699 143.8 112.888 143.641 113.134 143.527C113.386 143.413 113.677 143.356 114.007 143.356C114.493 143.356 114.886 143.473 115.186 143.707C115.486 143.941 115.663 144.28 115.717 144.724H114.97C114.94 144.496 114.841 144.319 114.673 144.193C114.511 144.061 114.286 143.995 113.998 143.995C113.716 143.995 113.5 144.052 113.35 144.166C113.206 144.28 113.134 144.43 113.134 144.616C113.134 144.736 113.173 144.844 113.251 144.94C113.335 145.03 113.455 145.108 113.611 145.174C113.773 145.24 113.971 145.294 114.205 145.336C114.505 145.39 114.778 145.462 115.024 145.552C115.27 145.642 115.468 145.777 115.618 145.957C115.774 146.131 115.852 146.38 115.852 146.704C115.852 146.986 115.78 147.232 115.636 147.442C115.498 147.652 115.3 147.817 115.042 147.937C114.784 148.051 114.481 148.108 114.133 148.108ZM116.941 148V141.52H117.697V148H116.941ZM120.933 148.108C120.507 148.108 120.129 148.009 119.799 147.811C119.475 147.613 119.22 147.337 119.034 146.983C118.848 146.623 118.755 146.206 118.755 145.732C118.755 145.252 118.845 144.835 119.025 144.481C119.211 144.127 119.469 143.851 119.799 143.653C120.135 143.455 120.519 143.356 120.951 143.356C121.395 143.356 121.77 143.455 122.076 143.653C122.388 143.851 122.625 144.112 122.787 144.436C122.955 144.754 123.039 145.105 123.039 145.489C123.039 145.549 123.039 145.612 123.039 145.678C123.039 145.744 123.036 145.819 123.03 145.903H119.322V145.318H122.301C122.283 144.904 122.145 144.58 121.887 144.346C121.635 144.112 121.317 143.995 120.933 143.995C120.675 143.995 120.435 144.055 120.213 144.175C119.997 144.289 119.823 144.46 119.691 144.688C119.559 144.91 119.493 145.189 119.493 145.525V145.777C119.493 146.149 119.559 146.461 119.691 146.713C119.829 146.965 120.006 147.154 120.222 147.28C120.444 147.406 120.681 147.469 120.933 147.469C121.251 147.469 121.512 147.4 121.716 147.262C121.926 147.118 122.076 146.926 122.166 146.686H122.913C122.841 146.956 122.715 147.199 122.535 147.415C122.355 147.631 122.13 147.802 121.86 147.928C121.596 148.048 121.287 148.108 120.933 148.108ZM126.45 148V143.464H127.134L127.17 144.256C127.314 143.974 127.518 143.755 127.782 143.599C128.052 143.437 128.358 143.356 128.7 143.356C129.054 143.356 129.36 143.428 129.618 143.572C129.876 143.71 130.077 143.923 130.221 144.211C130.365 144.493 130.437 144.853 130.437 145.291V148H129.681V145.372C129.681 144.916 129.579 144.574 129.375 144.346C129.177 144.118 128.895 144.004 128.529 144.004C128.277 144.004 128.052 144.067 127.854 144.193C127.656 144.313 127.497 144.49 127.377 144.724C127.263 144.952 127.206 145.237 127.206 145.579V148H126.45ZM133.607 148.108C133.181 148.108 132.803 148.009 132.473 147.811C132.149 147.613 131.894 147.337 131.708 146.983C131.522 146.623 131.429 146.206 131.429 145.732C131.429 145.252 131.519 144.835 131.699 144.481C131.885 144.127 132.143 143.851 132.473 143.653C132.809 143.455 133.193 143.356 133.625 143.356C134.069 143.356 134.444 143.455 134.75 143.653C135.062 143.851 135.299 144.112 135.461 144.436C135.629 144.754 135.713 145.105 135.713 145.489C135.713 145.549 135.713 145.612 135.713 145.678C135.713 145.744 135.71 145.819 135.704 145.903H131.996V145.318H134.975C134.957 144.904 134.819 144.58 134.561 144.346C134.309 144.112 133.991 143.995 133.607 143.995C133.349 143.995 133.109 144.055 132.887 144.175C132.671 144.289 132.497 144.46 132.365 144.688C132.233 144.91 132.167 145.189 132.167 145.525V145.777C132.167 146.149 132.233 146.461 132.365 146.713C132.503 146.965 132.68 147.154 132.896 147.28C133.118 147.406 133.355 147.469 133.607 147.469C133.925 147.469 134.186 147.4 134.39 147.262C134.6 147.118 134.75 146.926 134.84 146.686H135.587C135.515 146.956 135.389 147.199 135.209 147.415C135.029 147.631 134.804 147.802 134.534 147.928C134.27 148.048 133.961 148.108 133.607 148.108ZM139.524 148L137.364 145.516L139.335 143.464H140.262L138.003 145.786L138.012 145.246L140.487 148H139.524ZM136.734 148V141.52H137.49V148H136.734ZM142.968 148.108C142.548 148.108 142.17 148.012 141.834 147.82C141.498 147.622 141.234 147.346 141.042 146.992C140.85 146.632 140.754 146.215 140.754 145.741C140.754 145.255 140.85 144.835 141.042 144.481C141.24 144.121 141.507 143.845 141.843 143.653C142.185 143.455 142.566 143.356 142.986 143.356C143.418 143.356 143.799 143.455 144.129 143.653C144.465 143.845 144.729 144.121 144.921 144.481C145.119 144.835 145.218 145.252 145.218 145.732C145.218 146.212 145.119 146.632 144.921 146.992C144.723 147.346 144.456 147.622 144.12 147.82C143.784 148.012 143.4 148.108 142.968 148.108ZM142.977 147.46C143.235 147.46 143.475 147.397 143.697 147.271C143.919 147.139 144.099 146.944 144.237 146.686C144.375 146.428 144.444 146.11 144.444 145.732C144.444 145.348 144.375 145.03 144.237 144.778C144.105 144.52 143.928 144.328 143.706 144.202C143.49 144.07 143.25 144.004 142.986 144.004C142.734 144.004 142.494 144.07 142.266 144.202C142.044 144.328 141.864 144.52 141.726 144.778C141.594 145.03 141.528 145.348 141.528 145.732C141.528 146.11 141.594 146.428 141.726 146.686C141.864 146.944 142.041 147.139 142.257 147.271C142.479 147.397 142.719 147.46 142.977 147.46ZM146.278 148V141.52H147.034V148H146.278ZM148.354 148V143.464H149.11V148H148.354ZM148.732 142.501C148.582 142.501 148.456 142.453 148.354 142.357C148.258 142.255 148.21 142.129 148.21 141.979C148.21 141.829 148.258 141.709 148.354 141.619C148.456 141.523 148.582 141.475 148.732 141.475C148.876 141.475 148.999 141.523 149.101 141.619C149.203 141.709 149.254 141.829 149.254 141.979C149.254 142.129 149.203 142.255 149.101 142.357C148.999 142.453 148.876 142.501 148.732 142.501ZM153.234 148L151.074 145.516L153.045 143.464H153.972L151.713 145.786L151.722 145.246L154.197 148H153.234ZM150.444 148V141.52H151.2V148H150.444ZM156.679 148.108C156.259 148.108 155.881 148.012 155.545 147.82C155.209 147.622 154.945 147.346 154.753 146.992C154.561 146.632 154.465 146.215 154.465 145.741C154.465 145.255 154.561 144.835 154.753 144.481C154.951 144.121 155.218 143.845 155.554 143.653C155.896 143.455 156.277 143.356 156.697 143.356C157.129 143.356 157.51 143.455 157.84 143.653C158.176 143.845 158.44 144.121 158.632 144.481C158.83 144.835 158.929 145.252 158.929 145.732C158.929 146.212 158.83 146.632 158.632 146.992C158.434 147.346 158.167 147.622 157.831 147.82C157.495 148.012 157.111 148.108 156.679 148.108ZM156.688 147.46C156.946 147.46 157.186 147.397 157.408 147.271C157.63 147.139 157.81 146.944 157.948 146.686C158.086 146.428 158.155 146.11 158.155 145.732C158.155 145.348 158.086 145.03 157.948 144.778C157.816 144.52 157.639 144.328 157.417 144.202C157.201 144.07 156.961 144.004 156.697 144.004C156.445 144.004 156.205 144.07 155.977 144.202C155.755 144.328 155.575 144.52 155.437 144.778C155.305 145.03 155.239 145.348 155.239 145.732C155.239 146.11 155.305 146.428 155.437 146.686C155.575 146.944 155.752 147.139 155.968 147.271C156.19 147.397 156.43 147.46 156.688 147.46ZM11.63 160V155.464H12.314L12.359 156.112C12.503 155.878 12.695 155.695 12.935 155.563C13.181 155.425 13.448 155.356 13.736 155.356C13.97 155.356 14.18 155.389 14.366 155.455C14.558 155.515 14.726 155.611 14.87 155.743C15.014 155.869 15.131 156.031 15.221 156.229C15.377 155.953 15.59 155.74 15.86 155.59C16.136 155.434 16.43 155.356 16.742 155.356C17.09 155.356 17.393 155.428 17.651 155.572C17.915 155.71 18.116 155.923 18.254 156.211C18.398 156.493 18.47 156.853 18.47 157.291V160H17.723V157.372C17.723 156.916 17.63 156.574 17.444 156.346C17.258 156.118 16.997 156.004 16.661 156.004C16.427 156.004 16.217 156.067 16.031 156.193C15.845 156.313 15.698 156.49 15.59 156.724C15.482 156.958 15.428 157.246 15.428 157.588V160H14.672V157.372C14.672 156.916 14.579 156.574 14.393 156.346C14.207 156.118 13.943 156.004 13.601 156.004C13.373 156.004 13.166 156.067 12.98 156.193C12.8 156.313 12.656 156.49 12.548 156.724C12.44 156.958 12.386 157.246 12.386 157.588V160H11.63ZM21.6346 160.108C21.2086 160.108 20.8306 160.009 20.5006 159.811C20.1766 159.613 19.9216 159.337 19.7356 158.983C19.5496 158.623 19.4566 158.206 19.4566 157.732C19.4566 157.252 19.5466 156.835 19.7266 156.481C19.9126 156.127 20.1706 155.851 20.5006 155.653C20.8366 155.455 21.2206 155.356 21.6526 155.356C22.0966 155.356 22.4716 155.455 22.7776 155.653C23.0896 155.851 23.3266 156.112 23.4886 156.436C23.6566 156.754 23.7406 157.105 23.7406 157.489C23.7406 157.549 23.7406 157.612 23.7406 157.678C23.7406 157.744 23.7376 157.819 23.7316 157.903H20.0236V157.318H23.0026C22.9846 156.904 22.8466 156.58 22.5886 156.346C22.3366 156.112 22.0186 155.995 21.6346 155.995C21.3766 155.995 21.1366 156.055 20.9146 156.175C20.6986 156.289 20.5246 156.46 20.3926 156.688C20.2606 156.91 20.1946 157.189 20.1946 157.525V157.777C20.1946 158.149 20.2606 158.461 20.3926 158.713C20.5306 158.965 20.7076 159.154 20.9236 159.28C21.1456 159.406 21.3826 159.469 21.6346 159.469C21.9526 159.469 22.2136 159.4 22.4176 159.262C22.6276 159.118 22.7776 158.926 22.8676 158.686H23.6146C23.5426 158.956 23.4166 159.199 23.2366 159.415C23.0566 159.631 22.8316 159.802 22.5616 159.928C22.2976 160.048 21.9886 160.108 21.6346 160.108ZM26.4709 160.108C26.0929 160.108 25.7629 160.045 25.4809 159.919C25.2049 159.793 24.9829 159.619 24.8149 159.397C24.6529 159.169 24.5539 158.902 24.5179 158.596H25.2919C25.3219 158.752 25.3849 158.896 25.4809 159.028C25.5769 159.16 25.7059 159.268 25.8679 159.352C26.0359 159.43 26.2399 159.469 26.4799 159.469C26.6899 159.469 26.8639 159.439 27.0019 159.379C27.1399 159.313 27.2419 159.226 27.3079 159.118C27.3799 159.01 27.4159 158.893 27.4159 158.767C27.4159 158.581 27.3709 158.44 27.2809 158.344C27.1969 158.248 27.0709 158.173 26.9029 158.119C26.7349 158.059 26.5309 158.008 26.2909 157.966C26.0929 157.93 25.8979 157.882 25.7059 157.822C25.5139 157.762 25.3429 157.684 25.1929 157.588C25.0429 157.486 24.9229 157.363 24.8329 157.219C24.7489 157.075 24.7069 156.898 24.7069 156.688C24.7069 156.43 24.7729 156.202 24.9049 156.004C25.0369 155.8 25.2259 155.641 25.4719 155.527C25.7239 155.413 26.0149 155.356 26.3449 155.356C26.8309 155.356 27.2239 155.473 27.5239 155.707C27.8239 155.941 28.0009 156.28 28.0549 156.724H27.3079C27.2779 156.496 27.1789 156.319 27.0109 156.193C26.8489 156.061 26.6239 155.995 26.3359 155.995C26.0539 155.995 25.8379 156.052 25.6879 156.166C25.5439 156.28 25.4719 156.43 25.4719 156.616C25.4719 156.736 25.5109 156.844 25.5889 156.94C25.6729 157.03 25.7929 157.108 25.9489 157.174C26.1109 157.24 26.3089 157.294 26.5429 157.336C26.8429 157.39 27.1159 157.462 27.3619 157.552C27.6079 157.642 27.8059 157.777 27.9559 157.957C28.1119 158.131 28.1899 158.38 28.1899 158.704C28.1899 158.986 28.1179 159.232 27.9739 159.442C27.8359 159.652 27.6379 159.817 27.3799 159.937C27.1219 160.051 26.8189 160.108 26.4709 160.108ZM31.2674 160.108C30.8414 160.108 30.4634 160.009 30.1334 159.811C29.8094 159.613 29.5544 159.337 29.3684 158.983C29.1824 158.623 29.0894 158.206 29.0894 157.732C29.0894 157.252 29.1794 156.835 29.3594 156.481C29.5454 156.127 29.8034 155.851 30.1334 155.653C30.4694 155.455 30.8534 155.356 31.2854 155.356C31.7294 155.356 32.1044 155.455 32.4104 155.653C32.7224 155.851 32.9594 156.112 33.1214 156.436C33.2894 156.754 33.3734 157.105 33.3734 157.489C33.3734 157.549 33.3734 157.612 33.3734 157.678C33.3734 157.744 33.3704 157.819 33.3644 157.903H29.6564V157.318H32.6354C32.6174 156.904 32.4794 156.58 32.2214 156.346C31.9694 156.112 31.6514 155.995 31.2674 155.995C31.0094 155.995 30.7694 156.055 30.5474 156.175C30.3314 156.289 30.1574 156.46 30.0254 156.688C29.8934 156.91 29.8274 157.189 29.8274 157.525V157.777C29.8274 158.149 29.8934 158.461 30.0254 158.713C30.1634 158.965 30.3404 159.154 30.5564 159.28C30.7784 159.406 31.0154 159.469 31.2674 159.469C31.5854 159.469 31.8464 159.4 32.0504 159.262C32.2604 159.118 32.4104 158.926 32.5004 158.686H33.2474C33.1754 158.956 33.0494 159.199 32.8694 159.415C32.6894 159.631 32.4644 159.802 32.1944 159.928C31.9304 160.048 31.6214 160.108 31.2674 160.108ZM36.4367 160.108C36.0107 160.108 35.6267 160.009 35.2847 159.811C34.9487 159.613 34.6847 159.337 34.4927 158.983C34.3007 158.623 34.2047 158.209 34.2047 157.741C34.2047 157.261 34.3007 156.844 34.4927 156.49C34.6847 156.136 34.9487 155.86 35.2847 155.662C35.6267 155.458 36.0107 155.356 36.4367 155.356C36.9767 155.356 37.4267 155.497 37.7867 155.779C38.1467 156.055 38.3747 156.427 38.4707 156.895H37.6967C37.6367 156.613 37.4897 156.394 37.2557 156.238C37.0217 156.082 36.7457 156.004 36.4277 156.004C36.1697 156.004 35.9297 156.07 35.7077 156.202C35.4857 156.328 35.3087 156.52 35.1767 156.778C35.0447 157.036 34.9787 157.354 34.9787 157.732C34.9787 158.014 35.0177 158.266 35.0957 158.488C35.1737 158.704 35.2787 158.884 35.4107 159.028C35.5427 159.172 35.6957 159.283 35.8697 159.361C36.0497 159.433 36.2357 159.469 36.4277 159.469C36.6437 159.469 36.8387 159.436 37.0127 159.37C37.1867 159.298 37.3337 159.193 37.4537 159.055C37.5737 158.917 37.6547 158.755 37.6967 158.569H38.4707C38.3747 159.025 38.1437 159.397 37.7777 159.685C37.4177 159.967 36.9707 160.108 36.4367 160.108ZM39.6161 160V155.464H40.3721V160H39.6161ZM39.9941 154.501C39.8441 154.501 39.7181 154.453 39.6161 154.357C39.5201 154.255 39.4721 154.129 39.4721 153.979C39.4721 153.829 39.5201 153.709 39.6161 153.619C39.7181 153.523 39.8441 153.475 39.9941 153.475C40.1381 153.475 40.2611 153.523 40.3631 153.619C40.4651 153.709 40.5161 153.829 40.5161 153.979C40.5161 154.129 40.4651 154.255 40.3631 154.357C40.2611 154.453 40.1381 154.501 39.9941 154.501ZM44.0968 160V155.464H44.7808L44.8168 156.256C44.9608 155.974 45.1648 155.755 45.4288 155.599C45.6988 155.437 46.0048 155.356 46.3468 155.356C46.7008 155.356 47.0068 155.428 47.2648 155.572C47.5228 155.71 47.7238 155.923 47.8678 156.211C48.0118 156.493 48.0838 156.853 48.0838 157.291V160H47.3278V157.372C47.3278 156.916 47.2258 156.574 47.0218 156.346C46.8238 156.118 46.5418 156.004 46.1758 156.004C45.9238 156.004 45.6988 156.067 45.5008 156.193C45.3028 156.313 45.1438 156.49 45.0238 156.724C44.9098 156.952 44.8528 157.237 44.8528 157.579V160H44.0968ZM51.2538 160.108C50.8278 160.108 50.4498 160.009 50.1198 159.811C49.7958 159.613 49.5408 159.337 49.3548 158.983C49.1688 158.623 49.0758 158.206 49.0758 157.732C49.0758 157.252 49.1658 156.835 49.3458 156.481C49.5318 156.127 49.7898 155.851 50.1198 155.653C50.4558 155.455 50.8398 155.356 51.2718 155.356C51.7158 155.356 52.0908 155.455 52.3968 155.653C52.7088 155.851 52.9458 156.112 53.1078 156.436C53.2758 156.754 53.3598 157.105 53.3598 157.489C53.3598 157.549 53.3598 157.612 53.3598 157.678C53.3598 157.744 53.3568 157.819 53.3508 157.903H49.6428V157.318H52.6218C52.6038 156.904 52.4658 156.58 52.2078 156.346C51.9558 156.112 51.6378 155.995 51.2538 155.995C50.9958 155.995 50.7558 156.055 50.5338 156.175C50.3178 156.289 50.1438 156.46 50.0118 156.688C49.8798 156.91 49.8138 157.189 49.8138 157.525V157.777C49.8138 158.149 49.8798 158.461 50.0118 158.713C50.1498 158.965 50.3268 159.154 50.5428 159.28C50.7648 159.406 51.0018 159.469 51.2538 159.469C51.5718 159.469 51.8328 159.4 52.0368 159.262C52.2468 159.118 52.3968 158.926 52.4868 158.686H53.2338C53.1618 158.956 53.0358 159.199 52.8558 159.415C52.6758 159.631 52.4508 159.802 52.1808 159.928C51.9168 160.048 51.6078 160.108 51.2538 160.108ZM56.027 160.108C55.679 160.108 55.373 160.039 55.109 159.901C54.851 159.763 54.65 159.55 54.506 159.262C54.368 158.974 54.299 158.614 54.299 158.182V155.464H55.055V158.101C55.055 158.551 55.154 158.89 55.352 159.118C55.55 159.346 55.829 159.46 56.189 159.46C56.441 159.46 56.669 159.4 56.873 159.28C57.077 159.154 57.236 158.977 57.35 158.749C57.47 158.515 57.53 158.23 57.53 157.894V155.464H58.286V160H57.602L57.557 159.208C57.419 159.49 57.215 159.712 56.945 159.874C56.675 160.03 56.369 160.108 56.027 160.108ZM61.2492 160.108C60.8712 160.108 60.5412 160.045 60.2592 159.919C59.9832 159.793 59.7612 159.619 59.5932 159.397C59.4312 159.169 59.3322 158.902 59.2962 158.596H60.0702C60.1002 158.752 60.1632 158.896 60.2592 159.028C60.3552 159.16 60.4842 159.268 60.6462 159.352C60.8142 159.43 61.0182 159.469 61.2582 159.469C61.4682 159.469 61.6422 159.439 61.7802 159.379C61.9182 159.313 62.0202 159.226 62.0862 159.118C62.1582 159.01 62.1942 158.893 62.1942 158.767C62.1942 158.581 62.1492 158.44 62.0592 158.344C61.9752 158.248 61.8492 158.173 61.6812 158.119C61.5132 158.059 61.3092 158.008 61.0692 157.966C60.8712 157.93 60.6762 157.882 60.4842 157.822C60.2922 157.762 60.1212 157.684 59.9712 157.588C59.8212 157.486 59.7012 157.363 59.6112 157.219C59.5272 157.075 59.4852 156.898 59.4852 156.688C59.4852 156.43 59.5512 156.202 59.6832 156.004C59.8152 155.8 60.0042 155.641 60.2502 155.527C60.5022 155.413 60.7932 155.356 61.1232 155.356C61.6092 155.356 62.0022 155.473 62.3022 155.707C62.6022 155.941 62.7792 156.28 62.8332 156.724H62.0862C62.0562 156.496 61.9572 156.319 61.7892 156.193C61.6272 156.061 61.4022 155.995 61.1142 155.995C60.8322 155.995 60.6162 156.052 60.4662 156.166C60.3222 156.28 60.2502 156.43 60.2502 156.616C60.2502 156.736 60.2892 156.844 60.3672 156.94C60.4512 157.03 60.5712 157.108 60.7272 157.174C60.8892 157.24 61.0872 157.294 61.3212 157.336C61.6212 157.39 61.8942 157.462 62.1402 157.552C62.3862 157.642 62.5842 157.777 62.7342 157.957C62.8902 158.131 62.9682 158.38 62.9682 158.704C62.9682 158.986 62.8962 159.232 62.7522 159.442C62.6142 159.652 62.4162 159.817 62.1582 159.937C61.9002 160.051 61.5972 160.108 61.2492 160.108ZM64.0568 161.98V155.464H64.7408L64.8038 156.202C64.8998 156.058 65.0228 155.923 65.1728 155.797C65.3228 155.665 65.5028 155.56 65.7128 155.482C65.9228 155.398 66.1628 155.356 66.4328 155.356C66.8768 155.356 67.2608 155.461 67.5848 155.671C67.9148 155.881 68.1698 156.166 68.3498 156.526C68.5358 156.88 68.6288 157.285 68.6288 157.741C68.6288 158.197 68.5358 158.605 68.3498 158.965C68.1698 159.319 67.9148 159.598 67.5848 159.802C67.2548 160.006 66.8678 160.108 66.4238 160.108C66.0578 160.108 65.7338 160.033 65.4518 159.883C65.1758 159.733 64.9628 159.523 64.8128 159.253V161.98H64.0568ZM66.3428 159.451C66.6368 159.451 66.8978 159.379 67.1258 159.235C67.3538 159.091 67.5308 158.893 67.6568 158.641C67.7888 158.383 67.8548 158.08 67.8548 157.732C67.8548 157.39 67.7888 157.09 67.6568 156.832C67.5308 156.574 67.3538 156.373 67.1258 156.229C66.8978 156.085 66.6368 156.013 66.3428 156.013C66.0428 156.013 65.7788 156.085 65.5508 156.229C65.3228 156.373 65.1458 156.574 65.0198 156.832C64.8938 157.09 64.8308 157.39 64.8308 157.732C64.8308 158.08 64.8938 158.383 65.0198 158.641C65.1458 158.893 65.3228 159.091 65.5508 159.235C65.7788 159.379 66.0428 159.451 66.3428 159.451ZM71.6795 160.108C71.2535 160.108 70.8755 160.009 70.5455 159.811C70.2215 159.613 69.9665 159.337 69.7805 158.983C69.5945 158.623 69.5015 158.206 69.5015 157.732C69.5015 157.252 69.5915 156.835 69.7715 156.481C69.9575 156.127 70.2155 155.851 70.5455 155.653C70.8815 155.455 71.2655 155.356 71.6975 155.356C72.1415 155.356 72.5165 155.455 72.8225 155.653C73.1345 155.851 73.3715 156.112 73.5335 156.436C73.7015 156.754 73.7855 157.105 73.7855 157.489C73.7855 157.549 73.7855 157.612 73.7855 157.678C73.7855 157.744 73.7825 157.819 73.7765 157.903H70.0685V157.318H73.0475C73.0295 156.904 72.8915 156.58 72.6335 156.346C72.3815 156.112 72.0635 155.995 71.6795 155.995C71.4215 155.995 71.1815 156.055 70.9595 156.175C70.7435 156.289 70.5695 156.46 70.4375 156.688C70.3055 156.91 70.2395 157.189 70.2395 157.525V157.777C70.2395 158.149 70.3055 158.461 70.4375 158.713C70.5755 158.965 70.7525 159.154 70.9685 159.28C71.1905 159.406 71.4275 159.469 71.6795 159.469C71.9975 159.469 72.2585 159.4 72.4625 159.262C72.6725 159.118 72.8225 158.926 72.9125 158.686H73.6595C73.5875 158.956 73.4615 159.199 73.2815 159.415C73.1015 159.631 72.8765 159.802 72.6065 159.928C72.3425 160.048 72.0335 160.108 71.6795 160.108ZM74.8058 160V153.52H75.5618V156.229C75.7118 155.959 75.9218 155.746 76.1918 155.59C76.4678 155.434 76.7678 155.356 77.0918 155.356C77.4398 155.356 77.7428 155.428 78.0008 155.572C78.2588 155.71 78.4568 155.923 78.5948 156.211C78.7328 156.499 78.8018 156.862 78.8018 157.3V160H78.0548V157.381C78.0548 156.925 77.9588 156.583 77.7668 156.355C77.5748 156.121 77.2958 156.004 76.9298 156.004C76.6718 156.004 76.4378 156.067 76.2278 156.193C76.0238 156.319 75.8618 156.499 75.7418 156.733C75.6218 156.967 75.5618 157.255 75.5618 157.597V160H74.8058ZM81.4585 160.108C81.0925 160.108 80.7865 160.045 80.5405 159.919C80.2945 159.787 80.1115 159.616 79.9915 159.406C79.8715 159.19 79.8115 158.956 79.8115 158.704C79.8115 158.398 79.8895 158.14 80.0455 157.93C80.2075 157.714 80.4325 157.552 80.7205 157.444C81.0145 157.33 81.3595 157.273 81.7555 157.273H82.9525C82.9525 156.991 82.9075 156.757 82.8175 156.571C82.7335 156.379 82.6075 156.235 82.4395 156.139C82.2775 156.043 82.0735 155.995 81.8275 155.995C81.5395 155.995 81.2905 156.067 81.0805 156.211C80.8705 156.355 80.7415 156.568 80.6935 156.85H79.9195C79.9555 156.526 80.0635 156.256 80.2435 156.04C80.4295 155.818 80.6635 155.65 80.9455 155.536C81.2275 155.416 81.5215 155.356 81.8275 155.356C82.2475 155.356 82.5955 155.434 82.8715 155.59C83.1535 155.74 83.3635 155.953 83.5015 156.229C83.6395 156.499 83.7085 156.82 83.7085 157.192V160H83.0335L82.9885 159.199C82.9285 159.325 82.8505 159.445 82.7545 159.559C82.6645 159.667 82.5565 159.763 82.4305 159.847C82.3045 159.925 82.1605 159.988 81.9985 160.036C81.8425 160.084 81.6625 160.108 81.4585 160.108ZM81.5755 159.469C81.7855 159.469 81.9745 159.427 82.1425 159.343C82.3165 159.253 82.4635 159.133 82.5835 158.983C82.7035 158.827 82.7935 158.656 82.8535 158.47C82.9195 158.284 82.9525 158.089 82.9525 157.885V157.858H81.8185C81.5245 157.858 81.2875 157.894 81.1075 157.966C80.9275 158.032 80.7985 158.128 80.7205 158.254C80.6425 158.374 80.6035 158.512 80.6035 158.668C80.6035 158.83 80.6395 158.971 80.7115 159.091C80.7895 159.211 80.9005 159.304 81.0445 159.37C81.1945 159.436 81.3715 159.469 81.5755 159.469Z" fill="#E1E1E1"/>
<line x1="10.9875" y1="119" x2="191.012" y2="119" stroke="#C8F135"/>
<path d="M12.2 184V172.8H13.768L17.72 180.624L21.688 172.8H23.272V184H21.928V175.2L18.232 182.432H17.224L13.544 175.232V184H12.2ZM25.6531 184V172.8H26.9971V184H25.6531ZM33.6531 184V172.8H37.2691C38.1438 172.8 38.8585 172.949 39.4131 173.248C39.9678 173.536 40.3785 173.925 40.6451 174.416C40.9118 174.907 41.0451 175.461 41.0451 176.08C41.0451 176.677 40.9065 177.227 40.6291 177.728C40.3625 178.229 39.9465 178.629 39.3811 178.928C38.8158 179.227 38.0905 179.376 37.2051 179.376H34.9971V184H33.6531ZM39.5731 184L37.1091 178.992H38.6131L41.1571 184H39.5731ZM34.9971 178.32H37.1731C38.0265 178.32 38.6505 178.112 39.0451 177.696C39.4505 177.28 39.6531 176.747 39.6531 176.096C39.6531 175.435 39.4558 174.912 39.0611 174.528C38.6771 174.133 38.0425 173.936 37.1571 173.936H34.9971V178.32ZM42.4331 184L46.5611 172.8H47.9851L52.0971 184H50.6731L47.2651 174.48L43.8411 184H42.4331ZM44.3211 181.12L44.7051 180.032H49.7771L50.1611 181.12H44.3211ZM53.7781 184V172.8H57.0741C58.3861 172.8 59.4635 173.029 60.3061 173.488C61.1595 173.936 61.7888 174.581 62.1941 175.424C62.6101 176.256 62.8181 177.259 62.8181 178.432C62.8181 179.584 62.6101 180.576 62.1941 181.408C61.7888 182.24 61.1595 182.88 60.3061 183.328C59.4635 183.776 58.3861 184 57.0741 184H53.7781ZM55.1221 182.88H57.0421C58.1301 182.88 58.9941 182.704 59.6341 182.352C60.2741 181.989 60.7328 181.477 61.0101 180.816C61.2875 180.144 61.4261 179.349 61.4261 178.432C61.4261 177.493 61.2875 176.688 61.0101 176.016C60.7328 175.344 60.2741 174.827 59.6341 174.464C58.9941 174.101 58.1301 173.92 57.0421 173.92H55.1221V182.88ZM64.7938 184V172.8H66.1378V184H64.7938ZM68.5438 184V172.8H70.1118L74.0638 180.624L78.0318 172.8H79.6158V184H78.2718V175.2L74.5758 182.432H73.5678L69.8878 175.232V184H68.5438ZM86.9889 184.192C85.9115 184.192 84.9622 183.952 84.1409 183.472C83.3302 182.981 82.6955 182.304 82.2369 181.44C81.7889 180.565 81.5649 179.552 81.5649 178.4C81.5649 177.259 81.7889 176.256 82.2369 175.392C82.6955 174.517 83.3302 173.835 84.1409 173.344C84.9622 172.853 85.9115 172.608 86.9889 172.608C88.0875 172.608 89.0422 172.853 89.8529 173.344C90.6635 173.835 91.2929 174.517 91.7409 175.392C92.1995 176.256 92.4289 177.259 92.4289 178.4C92.4289 179.552 92.1995 180.565 91.7409 181.44C91.2929 182.304 90.6635 182.981 89.8529 183.472C89.0422 183.952 88.0875 184.192 86.9889 184.192ZM86.9889 183.008C87.7995 183.008 88.5089 182.827 89.1169 182.464C89.7355 182.091 90.2102 181.563 90.5409 180.88C90.8822 180.187 91.0529 179.36 91.0529 178.4C91.0529 177.44 90.8822 176.619 90.5409 175.936C90.2102 175.243 89.7355 174.715 89.1169 174.352C88.5089 173.989 87.7995 173.808 86.9889 173.808C86.1889 173.808 85.4795 173.989 84.8609 174.352C84.2529 174.715 83.7782 175.243 83.4369 175.936C83.1062 176.619 82.9409 177.44 82.9409 178.4C82.9409 179.36 83.1062 180.187 83.4369 180.88C83.7782 181.563 84.2529 182.091 84.8609 182.464C85.4795 182.827 86.1889 183.008 86.9889 183.008ZM98.6375 184V172.8H101.934C103.246 172.8 104.323 173.029 105.166 173.488C106.019 173.936 106.648 174.581 107.054 175.424C107.47 176.256 107.678 177.259 107.678 178.432C107.678 179.584 107.47 180.576 107.054 181.408C106.648 182.24 106.019 182.88 105.166 183.328C104.323 183.776 103.246 184 101.934 184H98.6375ZM99.9815 182.88H101.902C102.99 182.88 103.854 182.704 104.494 182.352C105.134 181.989 105.592 181.477 105.87 180.816C106.147 180.144 106.286 179.349 106.286 178.432C106.286 177.493 106.147 176.688 105.87 176.016C105.592 175.344 105.134 174.827 104.494 174.464C103.854 174.101 102.99 173.92 101.902 173.92H99.9815V182.88ZM109.653 184V172.8H113.269C114.144 172.8 114.858 172.949 115.413 173.248C115.968 173.536 116.378 173.925 116.645 174.416C116.912 174.907 117.045 175.461 117.045 176.08C117.045 176.677 116.906 177.227 116.629 177.728C116.362 178.229 115.946 178.629 115.381 178.928C114.816 179.227 114.09 179.376 113.205 179.376H110.997V184H109.653ZM115.573 184L113.109 178.992H114.613L117.157 184H115.573ZM110.997 178.32H113.173C114.026 178.32 114.65 178.112 115.045 177.696C115.45 177.28 115.653 176.747 115.653 176.096C115.653 175.435 115.456 174.912 115.061 174.528C114.677 174.133 114.042 173.936 113.157 173.936H110.997V178.32ZM123.185 184.192C122.417 184.192 121.718 184.037 121.089 183.728C120.47 183.419 119.974 182.949 119.601 182.32C119.228 181.68 119.041 180.864 119.041 179.872V172.8H120.385V179.888C120.385 180.613 120.502 181.205 120.737 181.664C120.982 182.123 121.318 182.459 121.745 182.672C122.172 182.885 122.662 182.992 123.217 182.992C123.782 182.992 124.273 182.885 124.689 182.672C125.105 182.459 125.43 182.123 125.665 181.664C125.9 181.205 126.017 180.613 126.017 179.888V172.8H127.361V179.872C127.361 180.864 127.174 181.68 126.801 182.32C126.428 182.949 125.926 183.419 125.297 183.728C124.668 184.037 123.964 184.192 123.185 184.192ZM134.454 184.192C133.408 184.192 132.491 183.952 131.702 183.472C130.912 182.981 130.299 182.304 129.862 181.44C129.424 180.576 129.206 179.568 129.206 178.416C129.206 177.275 129.424 176.267 129.862 175.392C130.31 174.517 130.939 173.835 131.75 173.344C132.571 172.853 133.536 172.608 134.646 172.608C135.904 172.608 136.955 172.912 137.798 173.52C138.64 174.117 139.179 174.955 139.414 176.032H137.862C137.712 175.36 137.36 174.827 136.806 174.432C136.251 174.037 135.531 173.84 134.646 173.84C133.824 173.84 133.104 174.027 132.486 174.4C131.878 174.763 131.408 175.285 131.078 175.968C130.747 176.651 130.582 177.467 130.582 178.416C130.582 179.365 130.747 180.187 131.078 180.88C131.408 181.563 131.867 182.085 132.454 182.448C133.051 182.811 133.734 182.992 134.502 182.992C135.696 182.992 136.598 182.64 137.206 181.936C137.814 181.232 138.16 180.277 138.246 179.072H135.014V178.016H139.622V184H138.39L138.278 182.16C138.011 182.597 137.702 182.971 137.35 183.28C137.008 183.579 136.603 183.808 136.134 183.968C135.664 184.117 135.104 184.192 134.454 184.192ZM141.043 184L145.171 172.8H146.595L150.707 184H149.283L145.875 174.48L142.451 184H141.043ZM142.931 181.12L143.315 180.032H148.387L148.771 181.12H142.931ZM156.611 184.192C155.523 184.192 154.579 183.952 153.779 183.472C152.99 182.981 152.382 182.304 151.955 181.44C151.528 180.565 151.315 179.552 151.315 178.4C151.315 177.248 151.528 176.24 151.955 175.376C152.382 174.501 152.99 173.824 153.779 173.344C154.579 172.853 155.523 172.608 156.611 172.608C157.891 172.608 158.931 172.912 159.731 173.52C160.531 174.128 161.043 174.987 161.267 176.096H159.779C159.608 175.403 159.262 174.848 158.739 174.432C158.216 174.005 157.507 173.792 156.611 173.792C155.811 173.792 155.118 173.979 154.531 174.352C153.944 174.715 153.491 175.243 153.171 175.936C152.851 176.619 152.691 177.44 152.691 178.4C152.691 179.36 152.851 180.187 153.171 180.88C153.491 181.563 153.944 182.091 154.531 182.464C155.118 182.827 155.811 183.008 156.611 183.008C157.507 183.008 158.216 182.805 158.739 182.4C159.262 181.984 159.608 181.435 159.779 180.752H161.267C161.043 181.829 160.531 182.672 159.731 183.28C158.931 183.888 157.891 184.192 156.611 184.192ZM156.291 171.936L154.099 170.624V169.584L156.291 170.928L158.483 169.584V170.624L156.291 171.936ZM163.216 184V172.8H164.56V184H163.216ZM169.462 184.192C168.79 184.192 168.208 184.064 167.718 183.808C167.238 183.552 166.864 183.184 166.598 182.704C166.342 182.224 166.214 181.653 166.214 180.992H167.574C167.574 181.365 167.632 181.707 167.75 182.016C167.878 182.315 168.075 182.555 168.342 182.736C168.619 182.907 168.987 182.992 169.446 182.992C169.894 182.992 170.246 182.907 170.502 182.736C170.768 182.565 170.955 182.336 171.062 182.048C171.179 181.749 171.238 181.413 171.238 181.04V172.8H172.582V181.04C172.582 182.043 172.304 182.821 171.75 183.376C171.206 183.92 170.443 184.192 169.462 184.192ZM174.981 184V172.8H181.909V173.904H176.325V177.808H181.429V178.896H176.325V182.896H181.909V184H174.981Z" fill="white"/>
</svg>
